<svg width="35" height="35" viewBox="0 0 35 35" fill="none" xmlns="http://www.w3.org/2000/svg">
<g opacity="0.3">
<path d="M31.4002 0.868561V3.10086L29.0801 3.64097V0L31.4002 0.868561Z" fill="white"/>
<path d="M28.4925 0V3.64097L17.4297 5.75446V3.31151L28.4925 0Z" fill="white"/>
<path d="M16.8219 6.24767C16.8219 6.24767 22.9157 8.36217 23.1508 19.6375C23.2912 22.8791 21.4632 30.2559 16.4932 32.1817C17.6359 32.2615 22.6784 32.9601 27.1235 33.6616C30.586 34.208 34.2614 31.2392 34.2614 27.7338C34.2614 22.1001 34.2614 14.4762 34.2614 9.24882C34.2614 6.13711 31.4497 3.78791 28.3842 4.32194C24.1791 5.05449 18.9081 5.95688 16.8219 6.24767ZM20.0566 8.38613C23.5722 8.3392 25.0495 11.6507 25.0963 11.9562C24.2526 11.9802 20.0566 8.38613 20.0566 8.38613ZM21.7202 30.0203C22.4235 29.7617 27.3697 27.2958 27.2053 18.8628C27.0529 11.0277 23.0103 8.6427 21.8617 8.38513C21.8617 8.38513 27.9086 8.80843 28.073 19.3789C28.0959 21.8219 26.9712 29.7617 21.7202 30.0203Z" fill="white"/>
<path d="M18.2854 7.81003C16.5391 5.86027 14.2309 5.96309 14.2309 5.96309C14.2309 5.96309 10.9494 5.97208 9.34954 5.96309C7.74965 5.95411 6.88196 6.43631 6.88196 6.43631C1.51444 9.17278 0.893807 15.8208 0.78821 18.3925C0.682613 23.2554 1.99461 26.6259 3.15518 28.5996C5.62774 32.5221 9.0736 32.3224 9.0736 32.3224C9.0736 32.3224 11.7105 32.3224 14.992 32.3224C20.8058 30.9597 22.2125 22.5975 22.2125 20.1077C22.3997 13.3419 20.0318 9.7598 18.2854 7.81003ZM8.54561 31.1124C7.01146 31.1484 1.66686 28.8931 1.56126 18.71C1.56126 16.6664 2.19385 9.72486 7.46872 7.43466H9.9642C9.9642 7.43466 15.8717 8.77344 16.047 19.5206C16.1177 22.0924 14.475 30.7251 8.54561 31.1124ZM10.6326 6.36543H14.4531C14.4531 6.36543 18.391 6.92949 20.0557 11.2513C19.446 10.7821 16.4226 8.0097 10.6326 6.36543Z" fill="white"/>
<path d="M14.8509 18.3695C14.7572 15.8317 13.8198 9.06694 8.52203 8.73849C5.85022 8.64364 2.06865 12.5881 2.24 19.873C2.4751 23.7247 4.06902 28.8931 8.14746 29.6918C7.16321 28.8931 4.39677 27.718 3.59981 19.5905C3.45935 17.8524 4.30313 14.0936 5.19373 13.3189C5.19373 13.3189 2.19318 22.9969 8.42839 28.6345C9.22535 29.3393 10.093 30.2788 12.1552 27.8828C13.1404 26.5669 14.9445 24.8059 14.8509 18.3695ZM13.515 20.1895C12.6005 11.1695 6.76473 11.0636 6.76473 11.0636C9.08488 9.86562 10.2455 10.9229 11.3702 11.9562C14.2532 14.47 13.6554 19.4148 13.515 20.1895Z" fill="white"/>
</g>
</svg>
