<svg width="18" height="18" viewBox="0 0 18 18" fill="none" xmlns="http://www.w3.org/2000/svg">
<g clip-path="url(#clip0_968_35)">
<path d="M0 9C0 7.36799 0.402012 5.86201 1.206 4.482C2.01001 3.10199 3.10201 2.01001 4.482 1.206C5.86201 0.401994 7.36801 0 9 0C10.632 0 12.138 0.401994 13.518 1.206C14.898 2.01001 15.99 3.10199 16.794 4.482C17.598 5.86201 18 7.36799 18 9C18 10.632 17.598 12.138 16.794 13.518C15.99 14.898 14.898 15.99 13.518 16.794C12.138 17.598 10.632 18 9 18C7.36801 18 5.86201 17.598 4.482 16.794C3.10201 15.99 2.01001 14.898 1.206 13.518C0.402012 12.138 0 10.632 0 9ZM1.494 9C1.494 10.872 2.124 12.522 3.384 13.95C3.96 12.822 4.87201 11.748 6.12 10.728C7.36801 9.70799 8.586 9.06601 9.774 8.802C9.594 8.38201 9.42001 8.00401 9.252 7.668C7.18801 8.32801 4.95601 8.658 2.556 8.658C2.088 8.658 1.74001 8.65201 1.512 8.64C1.512 8.68801 1.50901 8.748 1.503 8.82C1.49701 8.892 1.494 8.95199 1.494 9ZM1.728 7.146C1.99201 7.16999 2.38201 7.182 2.898 7.182C4.90201 7.182 6.804 6.912 8.604 6.372C7.69201 4.752 6.69001 3.402 5.598 2.322C4.65001 2.80201 3.83701 3.46801 3.159 4.32C2.48101 5.17199 2.00401 6.11401 1.728 7.146ZM4.41 14.922C5.76601 15.978 7.29601 16.506 9 16.506C9.88801 16.506 10.77 16.338 11.646 16.002C11.406 13.95 10.938 11.964 10.242 10.044C9.13801 10.284 8.02501 10.89 6.903 11.862C5.78101 12.834 4.95 13.854 4.41 14.922ZM7.164 1.746C8.22001 2.83801 9.198 4.19999 10.098 5.832C11.73 5.148 12.96 4.27801 13.788 3.222C12.396 2.07 10.8 1.494 9 1.494C8.388 1.494 7.776 1.57801 7.164 1.746ZM10.746 7.11C10.926 7.49399 11.13 7.97999 11.358 8.568C12.246 8.48399 13.212 8.442 14.256 8.442C15 8.442 15.738 8.46 16.47 8.496C16.374 6.86399 15.786 5.41201 14.706 4.14C13.926 5.30401 12.606 6.29401 10.746 7.11ZM11.808 9.828C12.42 11.604 12.834 13.428 13.05 15.3C13.998 14.688 14.772 13.902 15.372 12.942C15.972 11.982 16.332 10.944 16.452 9.828C15.576 9.76801 14.778 9.738 14.058 9.738C13.398 9.738 12.648 9.76801 11.808 9.828Z" fill="#DD3E7B"/>
</g>
<defs>
<clipPath id="clip0_968_35">
<rect width="18" height="18" fill="white"/>
</clipPath>
</defs>
</svg>
