<svg width="18" height="18" viewBox="0 0 18 18" fill="none" xmlns="http://www.w3.org/2000/svg">
<g clip-path="url(#clip0_968_29)">
<path d="M13.4357 17.9363C14.5061 17.8877 15.0876 17.7095 15.4744 17.5587C15.9869 17.3591 16.3523 17.1216 16.7369 16.7375C17.1216 16.3534 17.3596 15.988 17.5581 15.4755C17.709 15.0887 17.8871 14.5072 17.9358 13.4367C17.9893 12.2796 18 11.9324 18 9.0008C18 6.06919 17.9882 5.72253 17.9363 4.56433C17.8877 3.49386 17.7084 2.91342 17.5587 2.52557C17.3591 2.01308 17.1211 1.6477 16.7375 1.26252C16.3534 0.878414 15.988 0.639819 15.475 0.441347C15.0882 0.290487 14.5067 0.112343 13.4362 0.0636609C12.2785 0.0106993 11.9308 0 9.00027 0C6.06865 0 5.722 0.0117693 4.56379 0.0636609C3.49333 0.112343 2.91289 0.291556 2.52504 0.441347C2.01254 0.639819 1.64716 0.878414 1.26252 1.26252C0.877878 1.64663 0.640888 2.01254 0.441347 2.52504C0.290487 2.91182 0.112343 3.49333 0.0636597 4.56379C0.0106983 5.722 0 6.06865 0 9.00027C0 11.9308 0.0106983 12.2785 0.0636597 13.4367C0.112343 14.5072 0.291555 15.0887 0.441347 15.4755C0.640888 15.988 0.878414 16.3534 1.26252 16.7375C1.64663 17.1216 2.01254 17.3591 2.52504 17.5587C2.91182 17.7095 3.49333 17.8877 4.56379 17.9363C5.72093 17.9893 6.06865 18 9.00027 18C11.9308 18 12.2785 17.9898 13.4357 17.9363Z" fill="url(#paint0_radial_968_29)"/>
<path d="M13.4357 17.9363C14.5061 17.8877 15.0876 17.7095 15.4744 17.5587C15.9869 17.3591 16.3523 17.1216 16.7369 16.7375C17.1216 16.3534 17.3596 15.988 17.5581 15.4755C17.709 15.0887 17.8871 14.5072 17.9358 13.4367C17.9893 12.2796 18 11.9324 18 9.0008C18 6.06919 17.9882 5.72253 17.9363 4.56433C17.8877 3.49386 17.7084 2.91342 17.5587 2.52557C17.3591 2.01308 17.1211 1.6477 16.7375 1.26252C16.3534 0.878414 15.988 0.639819 15.475 0.441347C15.0882 0.290487 14.5067 0.112343 13.4362 0.0636609C12.2785 0.0106993 11.9308 0 9.00027 0C6.06865 0 5.722 0.0117693 4.56379 0.0636609C3.49333 0.112343 2.91289 0.291556 2.52504 0.441347C2.01254 0.639819 1.64716 0.878414 1.26252 1.26252C0.877878 1.64663 0.640888 2.01254 0.441347 2.52504C0.290487 2.91182 0.112343 3.49333 0.0636597 4.56379C0.0106983 5.722 0 6.06865 0 9.00027C0 11.9308 0.0106983 12.2785 0.0636597 13.4367C0.112343 14.5072 0.291555 15.0887 0.441347 15.4755C0.640888 15.988 0.878414 16.3534 1.26252 16.7375C1.64663 17.1216 2.01254 17.3591 2.52504 17.5587C2.91182 17.7095 3.49333 17.8877 4.56379 17.9363C5.72093 17.9893 6.06865 18 9.00027 18C11.9308 18 12.2785 17.9898 13.4357 17.9363Z" fill="url(#paint1_radial_968_29)"/>
<path d="M11.2099 9.03815C11.2099 7.80714 10.2123 6.80895 8.98126 6.80895C7.75025 6.80895 6.75206 7.80714 6.75206 9.03815C6.75206 10.2692 7.75025 11.2674 8.98126 11.2674C10.2123 11.2674 11.2099 10.2692 11.2099 9.03815ZM12.415 9.03815C12.415 10.9346 10.8777 12.4719 8.98126 12.4719C7.08481 12.4719 5.54753 10.9346 5.54753 9.03815C5.54753 7.1417 7.08481 5.60442 8.98126 5.60442C10.8777 5.60442 12.4149 7.14159 12.4149 9.03815H12.415ZM6.21399 5.46827C6.21405 5.62698 6.16705 5.78214 6.07893 5.91414C5.99081 6.04614 5.86552 6.14904 5.71892 6.20983C5.57232 6.27063 5.41098 6.28658 5.2553 6.25568C5.09963 6.22478 4.95662 6.14841 4.84435 6.03623C4.73208 5.92405 4.6556 5.7811 4.62457 5.62545C4.59355 5.46981 4.60938 5.30845 4.67005 5.1618C4.73073 5.01515 4.83353 4.88978 4.96546 4.80156C5.09738 4.71333 5.25251 4.6662 5.41122 4.66614H5.41154C5.62428 4.66624 5.82828 4.75077 5.97873 4.90117C6.12919 5.05157 6.21381 5.25553 6.21399 5.46827ZM11.6828 14.4813C12.3348 14.4516 12.6892 14.343 12.9247 14.2513C13.2369 14.1297 13.4596 13.985 13.6938 13.7511C13.928 13.5172 14.073 13.2947 14.194 12.9825C14.2858 12.7471 14.3944 12.3926 14.4241 11.7406C14.4565 11.0358 14.4629 10.824 14.4629 9.03826C14.4629 7.25249 14.4559 7.04134 14.4241 6.33588C14.3944 5.68391 14.285 5.33014 14.194 5.09406C14.0725 4.78185 13.9277 4.55909 13.6938 4.32488C13.4599 4.09068 13.2374 3.9457 12.9247 3.82469C12.6893 3.73289 12.3348 3.62429 11.6828 3.59466C10.978 3.56224 10.7662 3.55576 8.98126 3.55576C7.19629 3.55576 6.98434 3.56267 6.27888 3.59476C5.62692 3.62445 5.27314 3.73385 5.03706 3.8248C4.72486 3.94581 4.5021 4.0911 4.26789 4.32499C4.03368 4.55888 3.88924 4.78196 3.7677 5.09417C3.6759 5.32955 3.5673 5.68402 3.53766 6.33598C3.50524 7.04144 3.49877 7.25259 3.49877 9.03836C3.49877 10.8241 3.50524 11.0353 3.53766 11.7407C3.56735 12.3927 3.67649 12.7471 3.7677 12.9826C3.88924 13.2948 4.034 13.5175 4.26789 13.7512C4.50178 13.9849 4.72486 14.1298 5.03706 14.2514C5.27245 14.3432 5.62692 14.4518 6.27888 14.4814C6.98375 14.5138 7.19549 14.5203 8.98126 14.5203C10.767 14.5203 10.9782 14.5138 11.6828 14.4814V14.4813ZM11.7382 2.39157C12.4501 2.42399 12.9365 2.53687 13.3613 2.70217C13.801 2.87288 14.1737 3.1019 14.5459 3.47349C14.9181 3.84507 15.1465 4.21784 15.3172 4.65806C15.4825 5.08315 15.5954 5.56932 15.6278 6.2812C15.6608 6.9942 15.6683 7.22215 15.6683 9.03815C15.6683 10.8541 15.6608 11.0821 15.6278 11.7951C15.5954 12.507 15.4825 12.9932 15.3172 13.4182C15.1465 13.8579 14.918 14.2314 14.5459 14.6028C14.1738 14.9742 13.8016 15.2029 13.3613 15.3741C12.9357 15.5394 12.4501 15.6523 11.7382 15.6847C11.0248 15.7171 10.7973 15.7252 8.98126 15.7252C7.16527 15.7252 6.93732 15.7177 6.22431 15.6847C5.51238 15.6523 5.02626 15.5394 4.60117 15.3741C4.16148 15.2029 3.78877 14.9744 3.4166 14.6028C3.04442 14.2312 2.81647 13.8579 2.64529 13.4182C2.47998 12.9932 2.36657 12.507 2.33468 11.7951C2.30227 11.0816 2.29472 10.8541 2.29472 9.03815C2.29472 7.22215 2.30227 6.9942 2.33468 6.2812C2.3671 5.56927 2.47998 5.08288 2.64529 4.65806C2.81647 4.21837 3.04501 3.84566 3.4166 3.47349C3.78819 3.10131 4.16149 2.87288 4.60064 2.70217C5.02626 2.53687 5.51243 2.42346 6.22378 2.39157C6.93689 2.35899 7.16473 2.35107 8.98046 2.35107C10.7962 2.35107 11.0246 2.35862 11.7379 2.39157" fill="#0F0F0F"/>
</g>
<defs>
<radialGradient id="paint0_radial_968_29" cx="0" cy="0" r="1" gradientUnits="userSpaceOnUse" gradientTransform="translate(16.8351 17.6057) rotate(180) scale(22.8533)">
<stop offset="0.09" stop-color="#FA8F21"/>
<stop offset="0.78" stop-color="#D82D7E"/>
</radialGradient>
<radialGradient id="paint1_radial_968_29" cx="0" cy="0" r="1" gradientUnits="userSpaceOnUse" gradientTransform="translate(5.53203 17.0277) rotate(180) scale(20.1111)">
<stop offset="0.64" stop-color="#8C3AAA" stop-opacity="0"/>
<stop offset="1" stop-color="#8C3AAA"/>
</radialGradient>
<clipPath id="clip0_968_29">
<rect width="18" height="18" fill="white" transform="matrix(-1 0 0 1 18 0)"/>
</clipPath>
</defs>
</svg>
