<svg width="20" height="13" viewBox="0 0 20 13" fill="none" xmlns="http://www.w3.org/2000/svg">
<path opacity="0.6" d="M12.5767 6.5C12.5767 9.81094 9.87603 12.5 6.53836 12.5C3.20069 12.5 0.5 9.81094 0.5 6.5C0.5 3.18906 3.20069 0.5 6.53836 0.5C9.87603 0.5 12.5767 3.18906 12.5767 6.5Z" stroke="white"/>
<path d="M6.38187 6.71388L6.3819 6.71386L6.38374 6.71696C6.40099 6.74612 6.43641 6.78781 6.48355 6.82974C6.5303 6.87131 6.57833 6.90401 6.61439 6.92089L6.61488 6.92112C6.63782 6.93196 6.67008 6.94554 6.79304 6.95701C6.9189 6.96876 7.12684 6.97727 7.49542 6.98318C8.23077 6.99495 9.58698 6.9962 12.1608 6.9962L17.5809 6.9962L17.9752 6.9962L17.6806 7.25828L16.1833 8.59L16.1831 8.59019L14.7415 9.87718L14.7415 10.0635C14.7415 10.1877 14.7771 10.2864 14.8364 10.3604C14.8958 10.4346 14.9867 10.4934 15.113 10.524L15.1134 10.5241C15.2261 10.5518 15.273 10.5624 15.3304 10.5526C15.3896 10.5425 15.4759 10.5066 15.6387 10.3905C15.9604 10.161 16.5096 9.67248 17.6299 8.67608L17.6824 8.62942L17.6825 8.6293L17.7299 8.58725C18.8651 7.57997 19.4176 7.08978 19.6747 6.80159C19.8055 6.65498 19.8391 6.58228 19.8474 6.53849C19.8555 6.49634 19.8462 6.46153 19.8126 6.35133C19.8125 6.35135 19.8091 6.34287 19.7956 6.3233C19.7808 6.30196 19.7578 6.27295 19.7233 6.23405C19.6541 6.1562 19.5466 6.0474 19.385 5.89381C19.0624 5.58714 18.5349 5.11171 17.6937 4.36603L17.6935 4.36586C16.5606 3.35819 15.9976 2.85905 15.6645 2.62158C15.4986 2.50326 15.4064 2.46255 15.3414 2.44963C15.2806 2.43752 15.2299 2.44622 15.1243 2.47123C14.9906 2.50477 14.8971 2.56446 14.837 2.63829C14.7772 2.71167 14.7415 2.80981 14.7415 2.93678L14.7415 3.12308L16.1831 4.41007L16.1833 4.41025L17.6806 5.74197L17.9752 6.00405L17.5809 6.00405L12.1608 6.00405C9.58698 6.00405 8.23077 6.0053 7.49542 6.01708C7.12684 6.02299 6.9189 6.03149 6.79304 6.04324C6.67008 6.05472 6.63782 6.06829 6.61488 6.07913L6.61439 6.07936C6.53673 6.11572 6.45636 6.18683 6.39519 6.27314C6.33265 6.36139 6.30407 6.44558 6.30407 6.50013C6.30407 6.51045 6.30912 6.54304 6.32542 6.59101C6.34073 6.63604 6.36132 6.68099 6.38187 6.71388ZM6.15407 6.50013C6.15407 6.56971 6.19877 6.70389 6.25465 6.79335L6.55079 5.94351C6.33846 6.04291 6.15407 6.30631 6.15407 6.50013Z" fill="white" fill-opacity="0.6" stroke="white" stroke-width="0.3"/>
</svg>
