<svg width="57" height="50" viewBox="0 0 57 50" fill="none" xmlns="http://www.w3.org/2000/svg">
<mask id="path-1-inside-1_1604_13" fill="white">
<path d="M56.6233 41.0513C56.6472 39.9003 56.6512 38.7492 56.6472 37.5982C56.6353 35.1774 56.5756 32.7567 56.512 30.3399C56.3767 25.3363 56.333 20.3564 56.4722 15.3567C56.4722 15.329 56.4682 15.3053 56.4563 15.2816C56.4603 15.2381 56.4603 15.1945 56.4563 15.151C56.2256 12.5484 52.5066 12.6156 49.794 12.7343C48.5769 10.6893 47.2762 8.69971 45.9239 6.74176C44.5834 4.80755 43.2828 2.54899 41.6838 0.820465C40.4389 -0.524385 37.7461 0.179684 36.0795 0.219238C33.5061 0.274614 30.9366 0.333946 28.3632 0.393278C24.4493 0.484253 18.849 -0.472965 16.0289 2.97618C14.6487 4.6612 13.7339 6.94349 12.5884 8.80651C11.6576 10.3175 10.6871 11.8008 9.69275 13.2682C7.41762 13.3671 4.96349 13.4423 2.90315 14.4074C2.1156 14.7753 1.20873 15.2697 0.620057 15.9263C-0.258972 16.9112 0.0632061 18.4499 0.0353635 19.6919C-0.0600966 24.0706 0.130824 28.4453 0.270036 32.82C0.401294 36.906 0.190486 41.0513 0.472889 45.1254C0.655855 47.7874 2.73211 47.9298 5.05895 48.0722C9.15181 48.3253 13.2526 48.3847 17.3534 48.3886C22.2736 50.6907 27.8302 50.3901 32.7862 48.3491C37.0898 48.3451 41.3815 48.2621 45.6852 47.9496C47.8569 47.7914 50.2872 47.8428 52.3992 47.2772C53.7914 46.9053 55.979 45.8927 56.4841 44.4332C56.7984 43.5116 56.6035 42.0006 56.6233 41.0513ZM16.6136 7.50517C17.1904 6.57168 17.7552 5.63424 18.308 4.68493C18.5308 4.30521 18.7694 3.77123 19.028 3.2412C21.2196 3.12649 23.4867 3.25306 25.6187 3.2056C28.578 3.13836 31.5372 3.06716 34.4925 2.99991C36.3062 2.95641 36.9546 3.04738 38.0643 4.57023C38.9195 5.74895 39.7746 6.92767 40.6139 8.11826C41.6958 9.65297 42.7419 11.2035 43.7521 12.7817C42.5072 12.7778 41.2622 12.7778 40.0133 12.7778C34.7272 9.18623 27.5876 9.81515 21.3667 12.8687C18.5427 12.9162 15.7147 12.9914 12.8946 13.114C14.1834 11.2787 15.4283 9.41169 16.6136 7.50517ZM4.58563 14.6724C4.34698 13.8022 4.74871 14.6368 4.58563 14.6724V14.6724ZM5.67547 44.5835C4.25948 43.4443 4.9277 39.9161 4.91974 38.4209C4.87599 31.4593 4.38676 24.4938 4.53392 17.5322C4.54188 17.1564 4.61347 16.6778 4.6612 16.2032C4.70098 16.1992 4.74075 16.1953 4.78053 16.1953C7.62842 15.9856 10.4883 15.8986 13.3401 15.8274C14.4618 15.7997 15.5795 15.78 16.7011 15.7562C12.8071 18.707 9.72457 22.6189 8.40802 26.8671C6.3596 33.4924 7.97447 40.7744 12.9742 45.4379C11.586 45.3944 10.1979 45.3429 8.80974 45.252C7.84719 45.1847 6.47892 45.2282 5.67547 44.5835ZM20.3286 44.9988C14.7004 41.7712 11.586 35.4108 12.0872 29.0267C12.5963 22.5398 16.5221 15.9105 22.9856 13.8141C30.153 11.4923 37.3404 14.7436 40.6059 21.3571C43.7124 28.2159 42.6941 36.8348 38.0564 42.8115C33.8124 48.2818 26.0164 48.2621 20.3286 44.9988ZM50.7645 44.9949C48.9348 45.1452 47.1012 45.2678 45.2676 45.3548C42.7816 45.4774 40.2997 45.513 37.8137 45.5209C45.9756 39.5561 49.2769 28.0339 45.0846 18.7821C44.492 17.5876 43.8158 16.5354 43.072 15.6138C43.5811 15.6138 44.0902 15.6138 44.5954 15.6178C44.9573 15.6178 45.3909 15.598 45.8642 15.5782C45.8682 15.5782 45.8761 15.5782 45.8801 15.5782C48.2666 15.4793 51.6594 15.3567 51.9617 17.6192C51.8265 22.4607 51.8623 27.2784 51.9935 32.1199C52.0572 34.5406 52.1248 36.9574 52.1407 39.3781C52.1487 40.6557 52.1447 41.9333 52.1168 43.2149C52.1089 43.6421 52.1725 44.2631 52.1964 44.8762C51.7231 44.9118 51.2458 44.9593 50.7645 44.9949Z"/>
</mask>
<path d="M56.6233 41.0513C56.6472 39.9003 56.6512 38.7492 56.6472 37.5982C56.6353 35.1774 56.5756 32.7567 56.512 30.3399C56.3767 25.3363 56.333 20.3564 56.4722 15.3567C56.4722 15.329 56.4682 15.3053 56.4563 15.2816C56.4603 15.2381 56.4603 15.1945 56.4563 15.151C56.2256 12.5484 52.5066 12.6156 49.794 12.7343C48.5769 10.6893 47.2762 8.69971 45.9239 6.74176C44.5834 4.80755 43.2828 2.54899 41.6838 0.820465C40.4389 -0.524385 37.7461 0.179684 36.0795 0.219238C33.5061 0.274614 30.9366 0.333946 28.3632 0.393278C24.4493 0.484253 18.849 -0.472965 16.0289 2.97618C14.6487 4.6612 13.7339 6.94349 12.5884 8.80651C11.6576 10.3175 10.6871 11.8008 9.69275 13.2682C7.41762 13.3671 4.96349 13.4423 2.90315 14.4074C2.1156 14.7753 1.20873 15.2697 0.620057 15.9263C-0.258972 16.9112 0.0632061 18.4499 0.0353635 19.6919C-0.0600966 24.0706 0.130824 28.4453 0.270036 32.82C0.401294 36.906 0.190486 41.0513 0.472889 45.1254C0.655855 47.7874 2.73211 47.9298 5.05895 48.0722C9.15181 48.3253 13.2526 48.3847 17.3534 48.3886C22.2736 50.6907 27.8302 50.3901 32.7862 48.3491C37.0898 48.3451 41.3815 48.2621 45.6852 47.9496C47.8569 47.7914 50.2872 47.8428 52.3992 47.2772C53.7914 46.9053 55.979 45.8927 56.4841 44.4332C56.7984 43.5116 56.6035 42.0006 56.6233 41.0513ZM16.6136 7.50517C17.1904 6.57168 17.7552 5.63424 18.308 4.68493C18.5308 4.30521 18.7694 3.77123 19.028 3.2412C21.2196 3.12649 23.4867 3.25306 25.6187 3.2056C28.578 3.13836 31.5372 3.06716 34.4925 2.99991C36.3062 2.95641 36.9546 3.04738 38.0643 4.57023C38.9195 5.74895 39.7746 6.92767 40.6139 8.11826C41.6958 9.65297 42.7419 11.2035 43.7521 12.7817C42.5072 12.7778 41.2622 12.7778 40.0133 12.7778C34.7272 9.18623 27.5876 9.81515 21.3667 12.8687C18.5427 12.9162 15.7147 12.9914 12.8946 13.114C14.1834 11.2787 15.4283 9.41169 16.6136 7.50517ZM4.58563 14.6724C4.34698 13.8022 4.74871 14.6368 4.58563 14.6724V14.6724ZM5.67547 44.5835C4.25948 43.4443 4.9277 39.9161 4.91974 38.4209C4.87599 31.4593 4.38676 24.4938 4.53392 17.5322C4.54188 17.1564 4.61347 16.6778 4.6612 16.2032C4.70098 16.1992 4.74075 16.1953 4.78053 16.1953C7.62842 15.9856 10.4883 15.8986 13.3401 15.8274C14.4618 15.7997 15.5795 15.78 16.7011 15.7562C12.8071 18.707 9.72457 22.6189 8.40802 26.8671C6.3596 33.4924 7.97447 40.7744 12.9742 45.4379C11.586 45.3944 10.1979 45.3429 8.80974 45.252C7.84719 45.1847 6.47892 45.2282 5.67547 44.5835ZM20.3286 44.9988C14.7004 41.7712 11.586 35.4108 12.0872 29.0267C12.5963 22.5398 16.5221 15.9105 22.9856 13.8141C30.153 11.4923 37.3404 14.7436 40.6059 21.3571C43.7124 28.2159 42.6941 36.8348 38.0564 42.8115C33.8124 48.2818 26.0164 48.2621 20.3286 44.9988ZM50.7645 44.9949C48.9348 45.1452 47.1012 45.2678 45.2676 45.3548C42.7816 45.4774 40.2997 45.513 37.8137 45.5209C45.9756 39.5561 49.2769 28.0339 45.0846 18.7821C44.492 17.5876 43.8158 16.5354 43.072 15.6138C43.5811 15.6138 44.0902 15.6138 44.5954 15.6178C44.9573 15.6178 45.3909 15.598 45.8642 15.5782C45.8682 15.5782 45.8761 15.5782 45.8801 15.5782C48.2666 15.4793 51.6594 15.3567 51.9617 17.6192C51.8265 22.4607 51.8623 27.2784 51.9935 32.1199C52.0572 34.5406 52.1248 36.9574 52.1407 39.3781C52.1487 40.6557 52.1447 41.9333 52.1168 43.2149C52.1089 43.6421 52.1725 44.2631 52.1964 44.8762C51.7231 44.9118 51.2458 44.9593 50.7645 44.9949Z" fill="white"/>
<path d="M56.6233 41.0513L57.3232 41.0659L57.3232 41.0658L56.6233 41.0513ZM56.6472 37.5982L57.3472 37.5958L57.3472 37.5947L56.6472 37.5982ZM56.512 30.3399L57.2117 30.3215L57.2117 30.321L56.512 30.3399ZM56.4722 15.3567L57.1719 15.3762L57.1722 15.3665V15.3567H56.4722ZM56.4563 15.2816L55.7592 15.2178L55.741 15.4172L55.8309 15.596L56.4563 15.2816ZM56.4563 15.151L55.759 15.2128L55.7592 15.2148L56.4563 15.151ZM49.794 12.7343L49.1925 13.0923L49.4065 13.4519L49.8246 13.4336L49.794 12.7343ZM45.9239 6.74176L46.4998 6.34394L46.4992 6.34305L45.9239 6.74176ZM41.6838 0.820465L42.1977 0.345125L42.1975 0.344936L41.6838 0.820465ZM36.0795 0.219238L36.0946 0.919078L36.0961 0.919041L36.0795 0.219238ZM28.3632 0.393278L28.347 -0.306536L28.3469 -0.306533L28.3632 0.393278ZM16.0289 2.97618L16.5704 3.41975L16.5708 3.41926L16.0289 2.97618ZM12.5884 8.80651L13.1844 9.17363L13.1847 9.17315L12.5884 8.80651ZM9.69275 13.2682L9.72315 13.9676L10.0748 13.9523L10.2722 13.6609L9.69275 13.2682ZM2.90315 14.4074L3.19939 15.0416L3.20008 15.0413L2.90315 14.4074ZM0.620057 15.9263L0.0988539 15.459L0.0978083 15.4602L0.620057 15.9263ZM0.0353635 19.6919L-0.664461 19.6762L-0.66447 19.6766L0.0353635 19.6919ZM0.270036 32.82L-0.429609 32.8423L-0.429603 32.8425L0.270036 32.82ZM0.472889 45.1254L1.17124 45.0774L1.17121 45.077L0.472889 45.1254ZM5.05895 48.0722L5.10217 47.3735L5.10171 47.3735L5.05895 48.0722ZM17.3534 48.3886L17.6501 47.7546L17.5094 47.6888L17.3541 47.6886L17.3534 48.3886ZM32.7862 48.3491L32.7855 47.6491L32.6473 47.6492L32.5196 47.7018L32.7862 48.3491ZM45.6852 47.9496L45.7359 48.6477L45.7361 48.6477L45.6852 47.9496ZM52.3992 47.2772L52.2186 46.6009L52.2182 46.601L52.3992 47.2772ZM56.4841 44.4332L57.1457 44.6621L57.1467 44.6591L56.4841 44.4332ZM16.6136 7.50517L17.2081 7.87476L17.2091 7.87309L16.6136 7.50517ZM18.308 4.68493L17.7042 4.33076L17.7031 4.33265L18.308 4.68493ZM19.028 3.2412L18.9914 2.54215L18.5796 2.56371L18.3988 2.93431L19.028 3.2412ZM25.6187 3.2056L25.6343 3.90542L25.6346 3.90542L25.6187 3.2056ZM34.4925 2.99991L34.5084 3.69973L34.5093 3.69971L34.4925 2.99991ZM38.0643 4.57023L38.6309 4.15916L38.63 4.15797L38.0643 4.57023ZM40.6139 8.11826L40.0417 8.52156L40.0418 8.52158L40.6139 8.11826ZM43.7521 12.7817L43.7499 13.4817L45.034 13.4858L44.3417 12.4043L43.7521 12.7817ZM40.0133 12.7778L39.6199 13.3568L39.798 13.4778H40.0133V12.7778ZM21.3667 12.8687L21.3785 13.5686L21.5348 13.566L21.6752 13.4971L21.3667 12.8687ZM12.8946 13.114L12.3218 12.7117L11.5049 13.8751L12.9251 13.8133L12.8946 13.114ZM5.67547 44.5835L5.23669 45.1289L5.23736 45.1295L5.67547 44.5835ZM4.91974 38.4209L5.61973 38.4172L5.61973 38.4165L4.91974 38.4209ZM4.53392 17.5322L3.83408 17.5174L3.83408 17.5174L4.53392 17.5322ZM4.6612 16.2032L4.59193 15.5066L4.02202 15.5633L3.96472 16.1332L4.6612 16.2032ZM4.78053 16.1953V16.8953H4.80626L4.83192 16.8934L4.78053 16.1953ZM13.3401 15.8274L13.3228 15.1276L13.3227 15.1276L13.3401 15.8274ZM16.7011 15.7562L17.1239 16.3141L18.8439 15.0107L16.6863 15.0564L16.7011 15.7562ZM8.40802 26.8671L7.73939 26.6598L7.73925 26.6603L8.40802 26.8671ZM12.9742 45.4379L12.9523 46.1375L14.8131 46.1959L13.4517 44.926L12.9742 45.4379ZM8.80974 45.252L8.76096 45.9503L8.76397 45.9505L8.80974 45.252ZM20.3286 44.9988L20.677 44.3916L20.6768 44.3916L20.3286 44.9988ZM12.0872 29.0267L12.7851 29.0815L12.7851 29.0815L12.0872 29.0267ZM22.9856 13.8141L22.7699 13.1482L22.7696 13.1482L22.9856 13.8141ZM40.6059 21.3571L41.2436 21.0683L41.2388 21.0577L41.2336 21.0472L40.6059 21.3571ZM38.0564 42.8115L37.5033 42.3823L37.5033 42.3824L38.0564 42.8115ZM50.7645 44.9949L50.7128 44.2967L50.7072 44.2972L50.7645 44.9949ZM45.2676 45.3548L45.2344 44.6556L45.2331 44.6557L45.2676 45.3548ZM37.8137 45.5209L37.4007 44.9558L35.6601 46.2278L37.816 46.2209L37.8137 45.5209ZM45.0846 18.7821L45.7222 18.4932L45.7171 18.482L45.7117 18.471L45.0846 18.7821ZM43.072 15.6138V14.9138H41.6075L42.5273 16.0535L43.072 15.6138ZM44.5954 15.6178L44.5899 16.3178H44.5954V15.6178ZM45.8642 15.5782V14.8782H45.8496L45.835 14.8788L45.8642 15.5782ZM45.8801 15.5782V16.2782H45.8946L45.9091 16.2776L45.8801 15.5782ZM51.9617 17.6192L52.6614 17.6388L52.663 17.5824L52.6555 17.5265L51.9617 17.6192ZM51.9935 32.1199L52.6933 32.1015L52.6933 32.1009L51.9935 32.1199ZM52.1407 39.3781L52.8407 39.3738L52.8407 39.3735L52.1407 39.3781ZM52.1168 43.2149L51.417 43.1997L51.417 43.2019L52.1168 43.2149ZM52.1964 44.8762L52.2489 45.5742L52.9221 45.5236L52.8959 44.849L52.1964 44.8762ZM57.3232 41.0658C57.3472 39.907 57.3512 38.7498 57.3472 37.5958L55.9472 37.6006C55.9512 38.7487 55.9472 39.8935 55.9235 41.0368L57.3232 41.0658ZM57.3472 37.5947C57.3352 35.1657 57.2754 32.7382 57.2117 30.3215L55.8122 30.3584C55.8759 32.7752 55.9353 35.1892 55.9472 37.6016L57.3472 37.5947ZM57.2117 30.321C57.0767 25.3255 57.0332 20.3592 57.1719 15.3762L55.7725 15.3372C55.6328 20.3536 55.6768 25.3471 55.8122 30.3589L57.2117 30.321ZM57.1722 15.3567C57.1722 15.2552 57.1564 15.1158 57.0817 14.9671L55.8309 15.596C55.8077 15.5499 55.7918 15.5022 55.7825 15.4557C55.7735 15.4113 55.7722 15.376 55.7722 15.3567H57.1722ZM57.1534 15.3453C57.1612 15.2594 57.1612 15.1732 57.1534 15.0873L55.7592 15.2148C55.7593 15.2159 55.7593 15.2167 55.7592 15.2178L57.1534 15.3453ZM57.1536 15.0892C57.0794 14.2521 56.7136 13.5992 56.1513 13.1241C55.6091 12.666 54.9173 12.3994 54.2104 12.2394C52.8067 11.9217 51.1055 11.9762 49.7634 12.0349L49.8246 13.4336C51.1951 13.3736 52.7097 13.3352 53.9014 13.6049C54.4921 13.7386 54.9428 13.9358 55.2476 14.1934C55.5323 14.4339 55.7179 14.7487 55.759 15.2128L57.1536 15.0892ZM50.3955 12.3763C49.1684 10.3146 47.8588 8.31147 46.4998 6.34394L45.3479 7.13959C46.6936 9.08795 47.9853 11.064 49.1925 13.0923L50.3955 12.3763ZM46.4992 6.34305C45.2079 4.47975 43.8407 2.1213 42.1977 0.345125L41.17 1.29581C42.7249 2.97669 43.9589 5.13535 45.3485 7.14048L46.4992 6.34305ZM42.1975 0.344936C41.358 -0.561912 40.0986 -0.712478 39.0311 -0.699246C38.4785 -0.692396 37.9189 -0.639621 37.4137 -0.589163C36.8944 -0.53731 36.4463 -0.489664 36.0629 -0.480565L36.0961 0.919041C36.546 0.908363 37.0595 0.853168 37.5528 0.803909C38.06 0.753256 38.564 0.706651 39.0485 0.700646C40.0552 0.688167 40.7647 0.857992 41.1702 1.296L42.1975 0.344936ZM36.0645 -0.4806C33.4904 -0.42521 30.9204 -0.365866 28.347 -0.306536L28.3793 1.09309C30.9529 1.03376 33.5218 0.974439 36.0946 0.919076L36.0645 -0.4806ZM28.3469 -0.306533C27.3889 -0.284265 26.3348 -0.326195 25.1958 -0.349651C24.0713 -0.372806 22.8841 -0.377005 21.7227 -0.271726C19.4115 -0.0622336 17.0744 0.591592 15.487 2.5331L16.5708 3.41926C17.8035 1.91163 19.6765 1.31949 21.8491 1.12256C22.9294 1.02463 24.0524 1.0271 25.1669 1.05005C26.2668 1.0727 27.3805 1.11631 28.3794 1.09309L28.3469 -0.306533ZM15.4874 2.53262C14.7519 3.43058 14.1518 4.47291 13.6039 5.49349C13.0448 6.53486 12.5505 7.5316 11.9921 8.43986L13.1847 9.17315C13.7717 8.2184 14.3076 7.14249 14.8374 6.1557C15.3783 5.14812 15.9258 4.20681 16.5704 3.41975L15.4874 2.53262ZM11.9924 8.43938C11.0682 9.93966 10.1035 11.4142 9.11326 12.8756L10.2722 13.6609C11.2708 12.1873 12.247 10.6953 13.1844 9.17363L11.9924 8.43938ZM9.66235 12.5689C7.42826 12.666 4.81883 12.7371 2.60621 13.7735L3.20008 15.0413C5.10816 14.1475 7.40697 14.0683 9.72315 13.9676L9.66235 12.5689ZM2.6069 13.7732C1.81095 14.145 0.789565 14.6886 0.0988552 15.459L1.14126 16.3936C1.62789 15.8508 2.42025 15.4056 3.19939 15.0416L2.6069 13.7732ZM0.0978083 15.4602C-0.498929 16.1288 -0.654736 16.9528 -0.690629 17.6781C-0.708706 18.0433 -0.697194 18.4103 -0.684652 18.7443C-0.671711 19.0889 -0.65809 19.392 -0.664461 19.6762L0.735188 19.7076C0.742738 19.3708 0.726528 19.0158 0.714361 18.6918C0.701795 18.3572 0.692922 18.0451 0.70766 17.7473C0.737395 17.1465 0.860014 16.7087 1.14231 16.3924L0.0978083 15.4602ZM-0.66447 19.6766C-0.760454 24.0793 -0.56844 28.4795 -0.429609 32.8423L0.969682 32.7977C0.830088 28.411 0.640261 24.0618 0.735197 19.7071L-0.66447 19.6766ZM-0.429603 32.8425C-0.364451 34.8706 -0.384218 36.9115 -0.385217 38.9768C-0.386212 41.0351 -0.36844 43.1107 -0.225435 45.1738L1.17121 45.077C1.03182 43.066 1.01379 41.0318 1.01478 38.9775C1.01577 36.9302 1.03578 34.8554 0.969676 32.7975L-0.429603 32.8425ZM-0.225463 45.1734C-0.173551 45.9287 0.0168014 46.5605 0.35479 47.0738C0.695291 47.5909 1.15485 47.941 1.66751 48.1787C2.64494 48.6319 3.89375 48.7022 5.0162 48.7709L5.10171 47.3735C3.89732 47.2998 2.94458 47.2277 2.25643 46.9086C1.9363 46.7602 1.69706 46.5666 1.52409 46.3039C1.3486 46.0374 1.21081 45.6531 1.17124 45.0774L-0.225463 45.1734ZM5.01574 48.7709C9.12954 49.0253 13.2467 49.0847 17.3528 49.0886L17.3541 47.6886C13.2585 47.6847 9.17408 47.6254 5.10217 47.3735L5.01574 48.7709ZM17.0568 49.0227C22.1895 51.4242 27.9545 51.0959 33.0527 48.9963L32.5196 47.7018C27.7058 49.6843 22.3577 49.9572 17.6501 47.7546L17.0568 49.0227ZM32.7868 49.0491C37.0981 49.0451 41.4085 48.9619 45.7359 48.6477L45.6345 47.2514C41.3546 47.5622 37.0815 47.6451 32.7855 47.6491L32.7868 49.0491ZM45.7361 48.6477C47.8103 48.4966 50.383 48.5418 52.5803 47.9533L52.2182 46.601C50.1914 47.1438 47.9035 47.0861 45.6343 47.2514L45.7361 48.6477ZM52.5799 47.9534C53.3302 47.7531 54.2899 47.3826 55.1409 46.8594C55.9714 46.3488 56.8134 45.6222 57.1456 44.6621L55.8226 44.2042C55.6498 44.7037 55.1453 45.2132 54.4077 45.6668C53.6906 46.1076 52.8604 46.4294 52.2186 46.6009L52.5799 47.9534ZM57.1467 44.6591C57.346 44.0746 57.3711 43.3598 57.3641 42.7447C57.3562 42.053 57.3132 41.5437 57.3232 41.0659L55.9235 41.0366C55.9136 41.5082 55.9581 42.2291 55.9642 42.7606C55.9711 43.3687 55.9365 43.8701 55.8216 44.2073L57.1467 44.6591ZM17.2091 7.87309C17.7886 6.93519 18.3566 5.9925 18.9129 5.03722L17.7031 4.33265C17.1537 5.27598 16.5921 6.20817 16.0181 7.13724L17.2091 7.87309ZM18.9118 5.03911C19.1526 4.62857 19.4163 4.04167 19.6571 3.54808L18.3988 2.93431C18.1225 3.50078 17.9089 3.98185 17.7042 4.33076L18.9118 5.03911ZM19.0645 3.94024C20.1367 3.88412 21.2325 3.88679 22.3385 3.89814C23.4377 3.90943 24.5536 3.92948 25.6343 3.90542L25.6031 2.50577C24.5518 2.52918 23.4682 2.50967 22.3529 2.49822C21.2444 2.48683 20.1108 2.48356 18.9914 2.54215L19.0645 3.94024ZM25.6346 3.90542C28.5812 3.83846 31.5671 3.76666 34.5084 3.69973L34.4766 2.3001C31.5074 2.36766 28.5747 2.43825 25.6028 2.50578L25.6346 3.90542ZM34.5093 3.69971C35.4371 3.67746 35.9106 3.70127 36.286 3.84904C36.6289 3.98403 36.9716 4.2593 37.4986 4.98248L38.63 4.15797C38.0473 3.3583 37.5109 2.82667 36.7988 2.54634C36.1192 2.27878 35.3616 2.27886 34.4757 2.30012L34.5093 3.69971ZM37.4977 4.98129C38.3533 6.16066 39.2057 7.33552 40.0417 8.52156L41.186 7.71495C40.3436 6.51982 39.4856 5.33724 38.6309 4.15916L37.4977 4.98129ZM40.0418 8.52158C41.1181 10.0485 42.1584 11.5904 43.1626 13.1591L44.3417 12.4043C43.3253 10.8166 42.2734 9.25746 41.186 7.71494L40.0418 8.52158ZM43.7544 12.0817C42.5081 12.0778 41.262 12.0778 40.0133 12.0778V13.4778C41.2624 13.4778 42.5063 13.4778 43.7499 13.4817L43.7544 12.0817ZM40.4067 12.1988C34.8324 8.41143 27.4019 9.12647 21.0583 12.2404L21.6752 13.4971C27.7732 10.5038 34.622 9.96103 39.6199 13.3568L40.4067 12.1988ZM21.355 12.1688C18.5265 12.2164 15.6921 12.2917 12.8642 12.4146L12.9251 13.8133C15.7373 13.691 18.5589 13.616 21.3785 13.5686L21.355 12.1688ZM13.4675 13.5162C14.7627 11.6718 16.015 9.79386 17.2081 7.87476L16.0191 7.13558C14.8417 9.02952 13.6041 10.8855 12.3218 12.7117L13.4675 13.5162ZM5.2607 14.4873C5.23325 14.3872 5.21786 14.3218 5.21 14.2828C5.19849 14.2257 5.20985 14.2576 5.20744 14.3253C5.20667 14.3468 5.20396 14.3926 5.1901 14.4504C5.17887 14.4972 5.14424 14.6233 5.03513 14.7456C4.89715 14.9003 4.68285 14.998 4.4471 14.9741C4.26055 14.9552 4.13775 14.8673 4.09312 14.8325C4.00031 14.7601 3.95354 14.683 3.94953 14.6768C3.93539 14.6547 3.92803 14.6394 3.92656 14.6364C3.92581 14.6348 3.93036 14.65 3.92944 14.6442C3.92863 14.6391 3.92653 14.6246 3.92597 14.6026C3.92546 14.5827 3.92568 14.5401 3.93726 14.4843C3.94825 14.4313 3.97662 14.3316 4.05611 14.2288C4.14534 14.1134 4.27759 14.0232 4.43634 13.9885L4.73492 15.3563C4.91406 15.3172 5.06228 15.2163 5.16366 15.0852C5.25529 14.9667 5.29198 14.8462 5.30807 14.7687C5.33859 14.6216 5.32264 14.4913 5.3123 14.4258C5.28938 14.2807 5.23899 14.135 5.18803 14.0292C5.174 14 5.15438 13.9622 5.12887 13.9223C5.11348 13.8983 5.05622 13.8082 4.95439 13.7288C4.90525 13.6904 4.77831 13.6005 4.58806 13.5812C4.34861 13.557 4.13105 13.656 3.99033 13.8137C3.87847 13.9391 3.84162 14.0701 3.82875 14.1237C3.81325 14.1883 3.80949 14.2429 3.80833 14.2754C3.80436 14.3866 3.82477 14.4958 3.8376 14.5595C3.85409 14.6412 3.87835 14.7401 3.91056 14.8576L5.2607 14.4873ZM6.11425 44.0381C5.92059 43.8823 5.7537 43.6074 5.63768 43.1706C5.52254 42.7371 5.47479 42.2085 5.46956 41.6294C5.46437 41.0539 5.501 40.4613 5.54032 39.9036C5.57841 39.3635 5.6219 38.8252 5.61973 38.4172L4.21975 38.4246C4.22156 38.7642 4.18451 39.2276 4.14379 39.8052C4.10431 40.3651 4.06388 41.0061 4.06962 41.642C4.07533 42.2743 4.12652 42.9348 4.28459 43.5299C4.44177 44.1218 4.72235 44.7151 5.23669 45.1289L6.11425 44.0381ZM5.61973 38.4165C5.57547 31.3738 5.08642 24.5173 5.23377 17.547L3.83408 17.5174C3.6871 24.4703 4.17651 31.5449 4.21976 38.4253L5.61973 38.4165ZM5.23377 17.547C5.24096 17.2071 5.30442 16.803 5.35769 16.2732L3.96472 16.1332C3.92253 16.5527 3.84279 17.1058 3.83408 17.5174L5.23377 17.547ZM4.73047 16.8998C4.75181 16.8976 4.7631 16.8965 4.77293 16.8958C4.78181 16.8951 4.78337 16.8953 4.78053 16.8953V15.4953C4.7002 15.4953 4.62578 15.5033 4.59193 15.5066L4.73047 16.8998ZM4.83192 16.8934C7.66146 16.6851 10.5066 16.5984 13.3576 16.5272L13.3227 15.1276C10.4699 15.1989 7.59539 15.2862 4.72914 15.4972L4.83192 16.8934ZM13.3574 16.5272C14.4776 16.4996 15.5909 16.4799 16.7159 16.4561L16.6863 15.0564C15.5681 15.08 14.446 15.0999 13.3228 15.1276L13.3574 16.5272ZM16.2783 15.1983C12.2981 18.2145 9.10928 22.2396 7.73939 26.6598L9.07664 27.0743C10.3399 22.9982 13.3162 19.1995 17.1239 16.3141L16.2783 15.1983ZM7.73925 26.6603C5.62001 33.5147 7.28063 41.0845 12.4967 45.9498L13.4517 44.926C8.66831 40.4643 7.09918 33.4701 9.07678 27.0738L7.73925 26.6603ZM12.9961 44.7382C11.6098 44.6948 10.2313 44.6436 8.85552 44.5535L8.76397 45.9505C10.1645 46.0423 11.5623 46.094 12.9523 46.1375L12.9961 44.7382ZM8.85853 44.5537C8.31707 44.5158 7.81308 44.515 7.27918 44.4409C6.75672 44.3684 6.36643 44.2405 6.11357 44.0375L5.23736 45.1295C5.78796 45.5713 6.48353 45.7439 7.0867 45.8276C7.67844 45.9098 8.33986 45.9208 8.76096 45.9503L8.85853 44.5537ZM20.6768 44.3916C15.298 41.3069 12.3037 35.2132 12.7851 29.0815L11.3894 28.972C10.8684 35.6085 14.1029 42.2354 19.9804 45.606L20.6768 44.3916ZM12.7851 29.0815C13.2786 22.7928 17.0798 16.4655 23.2015 14.48L22.7696 13.1482C15.9645 15.3554 11.914 22.2868 11.3894 28.972L12.7851 29.0815ZM23.2013 14.48C30.0254 12.2694 36.8605 15.3528 39.9783 21.667L41.2336 21.0472C37.8203 14.1344 30.2806 10.7151 22.7699 13.1482L23.2013 14.48ZM39.9683 21.6459C42.9673 28.2674 41.9824 36.6101 37.5033 42.3823L38.6094 43.2406C43.4058 37.0595 44.4575 28.1643 41.2436 21.0683L39.9683 21.6459ZM37.5033 42.3824C33.5515 47.4761 26.1876 47.5532 20.677 44.3916L19.9803 45.606C25.8453 48.9709 34.0732 49.0876 38.6094 43.2405L37.5033 42.3824ZM50.7072 44.2972C48.8846 44.4469 47.059 44.569 45.2344 44.6556L45.3008 46.054C47.1434 45.9666 48.9851 45.8434 50.8218 45.6925L50.7072 44.2972ZM45.2331 44.6557C42.7627 44.7775 40.2929 44.813 37.8115 44.8209L37.816 46.2209C40.3064 46.213 42.8005 46.1773 45.3021 46.054L45.2331 44.6557ZM38.2268 46.0861C46.644 39.9346 50.0575 28.0605 45.7222 18.4932L44.447 19.0711C48.4963 28.0073 45.3071 39.1776 37.4007 44.9558L38.2268 46.0861ZM45.7117 18.471C45.0974 17.2329 44.394 16.1374 43.6167 15.1742L42.5273 16.0535C43.2375 16.9335 43.8865 17.9422 44.4575 19.0932L45.7117 18.471ZM43.072 16.3138C43.5816 16.3138 44.0879 16.3138 44.5899 16.3178L44.6009 14.9178C44.0925 14.9138 43.5806 14.9138 43.072 14.9138V16.3138ZM44.5954 16.3178C44.9757 16.3178 45.4277 16.2971 45.8934 16.2776L45.835 14.8788C45.354 14.8989 44.9389 14.9178 44.5954 14.9178V16.3178ZM45.8642 16.2782C45.8642 16.2782 45.8642 16.2782 45.8642 16.2782C45.8642 16.2782 45.8642 16.2782 45.8642 16.2782C45.8643 16.2782 45.8643 16.2782 45.8643 16.2782C45.8643 16.2782 45.8643 16.2782 45.8643 16.2782C45.8643 16.2782 45.8643 16.2782 45.8643 16.2782C45.8643 16.2782 45.8643 16.2782 45.8643 16.2782C45.8643 16.2782 45.8644 16.2782 45.8644 16.2782C45.8644 16.2782 45.8644 16.2782 45.8644 16.2782C45.8644 16.2782 45.8644 16.2782 45.8644 16.2782C45.8644 16.2782 45.8644 16.2782 45.8644 16.2782C45.8644 16.2782 45.8644 16.2782 45.8645 16.2782C45.8645 16.2782 45.8645 16.2782 45.8645 16.2782C45.8645 16.2782 45.8645 16.2782 45.8645 16.2782C45.8645 16.2782 45.8645 16.2782 45.8645 16.2782C45.8645 16.2782 45.8645 16.2782 45.8646 16.2782C45.8646 16.2782 45.8646 16.2782 45.8646 16.2782C45.8646 16.2782 45.8646 16.2782 45.8646 16.2782C45.8646 16.2782 45.8646 16.2782 45.8646 16.2782C45.8646 16.2782 45.8646 16.2782 45.8647 16.2782C45.8647 16.2782 45.8647 16.2782 45.8647 16.2782C45.8647 16.2782 45.8647 16.2782 45.8647 16.2782C45.8647 16.2782 45.8647 16.2782 45.8647 16.2782C45.8647 16.2782 45.8647 16.2782 45.8648 16.2782C45.8648 16.2782 45.8648 16.2782 45.8648 16.2782C45.8648 16.2782 45.8648 16.2782 45.8648 16.2782C45.8648 16.2782 45.8648 16.2782 45.8648 16.2782C45.8648 16.2782 45.8648 16.2782 45.8649 16.2782C45.8649 16.2782 45.8649 16.2782 45.8649 16.2782C45.8649 16.2782 45.8649 16.2782 45.8649 16.2782C45.8649 16.2782 45.8649 16.2782 45.8649 16.2782C45.8649 16.2782 45.865 16.2782 45.865 16.2782C45.865 16.2782 45.865 16.2782 45.865 16.2782C45.865 16.2782 45.865 16.2782 45.865 16.2782C45.865 16.2782 45.865 16.2782 45.865 16.2782C45.865 16.2782 45.8651 16.2782 45.8651 16.2782C45.8651 16.2782 45.8651 16.2782 45.8651 16.2782C45.8651 16.2782 45.8651 16.2782 45.8651 16.2782C45.8651 16.2782 45.8651 16.2782 45.8651 16.2782C45.8652 16.2782 45.8652 16.2782 45.8652 16.2782C45.8652 16.2782 45.8652 16.2782 45.8652 16.2782C45.8652 16.2782 45.8652 16.2782 45.8652 16.2782C45.8652 16.2782 45.8652 16.2782 45.8653 16.2782C45.8653 16.2782 45.8653 16.2782 45.8653 16.2782C45.8653 16.2782 45.8653 16.2782 45.8653 16.2782C45.8653 16.2782 45.8653 16.2782 45.8653 16.2782C45.8653 16.2782 45.8653 16.2782 45.8654 16.2782C45.8654 16.2782 45.8654 16.2782 45.8654 16.2782C45.8654 16.2782 45.8654 16.2782 45.8654 16.2782C45.8654 16.2782 45.8654 16.2782 45.8654 16.2782C45.8654 16.2782 45.8655 16.2782 45.8655 16.2782C45.8655 16.2782 45.8655 16.2782 45.8655 16.2782C45.8655 16.2782 45.8655 16.2782 45.8655 16.2782C45.8655 16.2782 45.8655 16.2782 45.8655 16.2782C45.8656 16.2782 45.8656 16.2782 45.8656 16.2782C45.8656 16.2782 45.8656 16.2782 45.8656 16.2782C45.8656 16.2782 45.8656 16.2782 45.8656 16.2782C45.8656 16.2782 45.8657 16.2782 45.8657 16.2782C45.8657 16.2782 45.8657 16.2782 45.8657 16.2782C45.8657 16.2782 45.8657 16.2782 45.8657 16.2782C45.8657 16.2782 45.8657 16.2782 45.8657 16.2782C45.8658 16.2782 45.8658 16.2782 45.8658 16.2782C45.8658 16.2782 45.8658 16.2782 45.8658 16.2782C45.8658 16.2782 45.8658 16.2782 45.8658 16.2782C45.8658 16.2782 45.8658 16.2782 45.8659 16.2782C45.8659 16.2782 45.8659 16.2782 45.8659 16.2782C45.8659 16.2782 45.8659 16.2782 45.8659 16.2782C45.8659 16.2782 45.8659 16.2782 45.8659 16.2782C45.866 16.2782 45.866 16.2782 45.866 16.2782C45.866 16.2782 45.866 16.2782 45.866 16.2782C45.866 16.2782 45.866 16.2782 45.866 16.2782C45.866 16.2782 45.866 16.2782 45.8661 16.2782C45.8661 16.2782 45.8661 16.2782 45.8661 16.2782C45.8661 16.2782 45.8661 16.2782 45.8661 16.2782C45.8661 16.2782 45.8661 16.2782 45.8661 16.2782C45.8662 16.2782 45.8662 16.2782 45.8662 16.2782C45.8662 16.2782 45.8662 16.2782 45.8662 16.2782C45.8662 16.2782 45.8662 16.2782 45.8662 16.2782C45.8662 16.2782 45.8663 16.2782 45.8663 16.2782C45.8663 16.2782 45.8663 16.2782 45.8663 16.2782C45.8663 16.2782 45.8663 16.2782 45.8663 16.2782C45.8663 16.2782 45.8663 16.2782 45.8664 16.2782C45.8664 16.2782 45.8664 16.2782 45.8664 16.2782C45.8664 16.2782 45.8664 16.2782 45.8664 16.2782C45.8664 16.2782 45.8664 16.2782 45.8664 16.2782C45.8664 16.2782 45.8665 16.2782 45.8665 16.2782C45.8665 16.2782 45.8665 16.2782 45.8665 16.2782C45.8665 16.2782 45.8665 16.2782 45.8665 16.2782C45.8665 16.2782 45.8665 16.2782 45.8666 16.2782C45.8666 16.2782 45.8666 16.2782 45.8666 16.2782C45.8666 16.2782 45.8666 16.2782 45.8666 16.2782C45.8666 16.2782 45.8666 16.2782 45.8666 16.2782C45.8667 16.2782 45.8667 16.2782 45.8667 16.2782C45.8667 16.2782 45.8667 16.2782 45.8667 16.2782C45.8667 16.2782 45.8667 16.2782 45.8667 16.2782C45.8667 16.2782 45.8668 16.2782 45.8668 16.2782C45.8668 16.2782 45.8668 16.2782 45.8668 16.2782C45.8668 16.2782 45.8668 16.2782 45.8668 16.2782C45.8668 16.2782 45.8669 16.2782 45.8669 16.2782C45.8669 16.2782 45.8669 16.2782 45.8669 16.2782C45.8669 16.2782 45.8669 16.2782 45.8669 16.2782C45.8669 16.2782 45.8669 16.2782 45.867 16.2782C45.867 16.2782 45.867 16.2782 45.867 16.2782C45.867 16.2782 45.867 16.2782 45.867 16.2782C45.867 16.2782 45.867 16.2782 45.867 16.2782C45.8671 16.2782 45.8671 16.2782 45.8671 16.2782C45.8671 16.2782 45.8671 16.2782 45.8671 16.2782C45.8671 16.2782 45.8671 16.2782 45.8671 16.2782C45.8671 16.2782 45.8672 16.2782 45.8672 16.2782C45.8672 16.2782 45.8672 16.2782 45.8672 16.2782C45.8672 16.2782 45.8672 16.2782 45.8672 16.2782C45.8672 16.2782 45.8673 16.2782 45.8673 16.2782C45.8673 16.2782 45.8673 16.2782 45.8673 16.2782C45.8673 16.2782 45.8673 16.2782 45.8673 16.2782C45.8673 16.2782 45.8673 16.2782 45.8674 16.2782C45.8674 16.2782 45.8674 16.2782 45.8674 16.2782C45.8674 16.2782 45.8674 16.2782 45.8674 16.2782C45.8674 16.2782 45.8674 16.2782 45.8675 16.2782C45.8675 16.2782 45.8675 16.2782 45.8675 16.2782C45.8675 16.2782 45.8675 16.2782 45.8675 16.2782C45.8675 16.2782 45.8675 16.2782 45.8675 16.2782C45.8676 16.2782 45.8676 16.2782 45.8676 16.2782C45.8676 16.2782 45.8676 16.2782 45.8676 16.2782C45.8676 16.2782 45.8676 16.2782 45.8676 16.2782C45.8677 16.2782 45.8677 16.2782 45.8677 16.2782C45.8677 16.2782 45.8677 16.2782 45.8677 16.2782C45.8677 16.2782 45.8677 16.2782 45.8677 16.2782C45.8677 16.2782 45.8678 16.2782 45.8678 16.2782C45.8678 16.2782 45.8678 16.2782 45.8678 16.2782C45.8678 16.2782 45.8678 16.2782 45.8678 16.2782C45.8678 16.2782 45.8679 16.2782 45.8679 16.2782C45.8679 16.2782 45.8679 16.2782 45.8679 16.2782C45.8679 16.2782 45.8679 16.2782 45.8679 16.2782C45.8679 16.2782 45.868 16.2782 45.868 16.2782C45.868 16.2782 45.868 16.2782 45.868 16.2782C45.868 16.2782 45.868 16.2782 45.868 16.2782C45.868 16.2782 45.868 16.2782 45.8681 16.2782C45.8681 16.2782 45.8681 16.2782 45.8681 16.2782C45.8681 16.2782 45.8681 16.2782 45.8681 16.2782C45.8681 16.2782 45.8681 16.2782 45.8682 16.2782C45.8682 16.2782 45.8682 16.2782 45.8682 16.2782C45.8682 16.2782 45.8682 16.2782 45.8682 16.2782C45.8682 16.2782 45.8682 16.2782 45.8683 16.2782C45.8683 16.2782 45.8683 16.2782 45.8683 16.2782C45.8683 16.2782 45.8683 16.2782 45.8683 16.2782C45.8683 16.2782 45.8683 16.2782 45.8684 16.2782C45.8684 16.2782 45.8684 16.2782 45.8684 16.2782C45.8684 16.2782 45.8684 16.2782 45.8684 16.2782C45.8684 16.2782 45.8684 16.2782 45.8684 16.2782C45.8685 16.2782 45.8685 16.2782 45.8685 16.2782C45.8685 16.2782 45.8685 16.2782 45.8685 16.2782C45.8685 16.2782 45.8685 16.2782 45.8685 16.2782C45.8686 16.2782 45.8686 16.2782 45.8686 16.2782C45.8686 16.2782 45.8686 16.2782 45.8686 16.2782C45.8686 16.2782 45.8686 16.2782 45.8686 16.2782C45.8687 16.2782 45.8687 16.2782 45.8687 16.2782C45.8687 16.2782 45.8687 16.2782 45.8687 16.2782C45.8687 16.2782 45.8687 16.2782 45.8687 16.2782C45.8688 16.2782 45.8688 16.2782 45.8688 16.2782C45.8688 16.2782 45.8688 16.2782 45.8688 16.2782C45.8688 16.2782 45.8688 16.2782 45.8688 16.2782C45.8689 16.2782 45.8689 16.2782 45.8689 16.2782C45.8689 16.2782 45.8689 16.2782 45.8689 16.2782C45.8689 16.2782 45.8689 16.2782 45.8689 16.2782C45.869 16.2782 45.869 16.2782 45.869 16.2782C45.869 16.2782 45.869 16.2782 45.869 16.2782C45.869 16.2782 45.869 16.2782 45.869 16.2782C45.8691 16.2782 45.8691 16.2782 45.8691 16.2782C45.8691 16.2782 45.8691 16.2782 45.8691 16.2782C45.8691 16.2782 45.8691 16.2782 45.8691 16.2782C45.8692 16.2782 45.8692 16.2782 45.8692 16.2782C45.8692 16.2782 45.8692 16.2782 45.8692 16.2782C45.8692 16.2782 45.8692 16.2782 45.8692 16.2782C45.8693 16.2782 45.8693 16.2782 45.8693 16.2782C45.8693 16.2782 45.8693 16.2782 45.8693 16.2782C45.8693 16.2782 45.8693 16.2782 45.8694 16.2782C45.8694 16.2782 45.8694 16.2782 45.8694 16.2782C45.8694 16.2782 45.8694 16.2782 45.8694 16.2782C45.8694 16.2782 45.8694 16.2782 45.8695 16.2782C45.8695 16.2782 45.8695 16.2782 45.8695 16.2782C45.8695 16.2782 45.8695 16.2782 45.8695 16.2782C45.8695 16.2782 45.8695 16.2782 45.8696 16.2782C45.8696 16.2782 45.8696 16.2782 45.8696 16.2782C45.8696 16.2782 45.8696 16.2782 45.8696 16.2782C45.8696 16.2782 45.8696 16.2782 45.8697 16.2782C45.8697 16.2782 45.8697 16.2782 45.8697 16.2782C45.8697 16.2782 45.8697 16.2782 45.8697 16.2782C45.8697 16.2782 45.8697 16.2782 45.8698 16.2782C45.8698 16.2782 45.8698 16.2782 45.8698 16.2782C45.8698 16.2782 45.8698 16.2782 45.8698 16.2782C45.8698 16.2782 45.8698 16.2782 45.8699 16.2782C45.8699 16.2782 45.8699 16.2782 45.8699 16.2782C45.8699 16.2782 45.8699 16.2782 45.8699 16.2782C45.8699 16.2782 45.87 16.2782 45.87 16.2782C45.87 16.2782 45.87 16.2782 45.87 16.2782C45.87 16.2782 45.87 16.2782 45.87 16.2782C45.87 16.2782 45.8701 16.2782 45.8701 16.2782C45.8701 16.2782 45.8701 16.2782 45.8701 16.2782C45.8701 16.2782 45.8701 16.2782 45.8701 16.2782C45.8701 16.2782 45.8702 16.2782 45.8702 16.2782C45.8702 16.2782 45.8702 16.2782 45.8702 16.2782C45.8702 16.2782 45.8702 16.2782 45.8702 16.2782C45.8702 16.2782 45.8703 16.2782 45.8703 16.2782C45.8703 16.2782 45.8703 16.2782 45.8703 16.2782C45.8703 16.2782 45.8703 16.2782 45.8703 16.2782C45.8704 16.2782 45.8704 16.2782 45.8704 16.2782C45.8704 16.2782 45.8704 16.2782 45.8704 16.2782C45.8704 16.2782 45.8704 16.2782 45.8704 16.2782C45.8705 16.2782 45.8705 16.2782 45.8705 16.2782C45.8705 16.2782 45.8705 16.2782 45.8705 16.2782C45.8705 16.2782 45.8705 16.2782 45.8705 16.2782C45.8706 16.2782 45.8706 16.2782 45.8706 16.2782C45.8706 16.2782 45.8706 16.2782 45.8706 16.2782C45.8706 16.2782 45.8706 16.2782 45.8707 16.2782C45.8707 16.2782 45.8707 16.2782 45.8707 16.2782C45.8707 16.2782 45.8707 16.2782 45.8707 16.2782C45.8707 16.2782 45.8707 16.2782 45.8708 16.2782C45.8708 16.2782 45.8708 16.2782 45.8708 16.2782C45.8708 16.2782 45.8708 16.2782 45.8708 16.2782C45.8708 16.2782 45.8708 16.2782 45.8709 16.2782C45.8709 16.2782 45.8709 16.2782 45.8709 16.2782C45.8709 16.2782 45.8709 16.2782 45.8709 16.2782C45.8709 16.2782 45.871 16.2782 45.871 16.2782C45.871 16.2782 45.871 16.2782 45.871 16.2782C45.871 16.2782 45.871 16.2782 45.871 16.2782C45.871 16.2782 45.8711 16.2782 45.8711 16.2782C45.8711 16.2782 45.8711 16.2782 45.8711 16.2782C45.8711 16.2782 45.8711 16.2782 45.8711 16.2782C45.8711 16.2782 45.8712 16.2782 45.8712 16.2782C45.8712 16.2782 45.8712 16.2782 45.8712 16.2782C45.8712 16.2782 45.8712 16.2782 45.8712 16.2782C45.8713 16.2782 45.8713 16.2782 45.8713 16.2782C45.8713 16.2782 45.8713 16.2782 45.8713 16.2782C45.8713 16.2782 45.8713 16.2782 45.8713 16.2782C45.8714 16.2782 45.8714 16.2782 45.8714 16.2782C45.8714 16.2782 45.8714 16.2782 45.8714 16.2782C45.8714 16.2782 45.8714 16.2782 45.8715 16.2782C45.8715 16.2782 45.8715 16.2782 45.8715 16.2782C45.8715 16.2782 45.8715 16.2782 45.8715 16.2782C45.8715 16.2782 45.8715 16.2782 45.8716 16.2782C45.8716 16.2782 45.8716 16.2782 45.8716 16.2782C45.8716 16.2782 45.8716 16.2782 45.8716 16.2782C45.8716 16.2782 45.8716 16.2782 45.8717 16.2782C45.8717 16.2782 45.8717 16.2782 45.8717 16.2782C45.8717 16.2782 45.8717 16.2782 45.8717 16.2782C45.8717 16.2782 45.8718 16.2782 45.8718 16.2782C45.8718 16.2782 45.8718 16.2782 45.8718 16.2782C45.8718 16.2782 45.8718 16.2782 45.8718 16.2782C45.8718 16.2782 45.8719 16.2782 45.8719 16.2782C45.8719 16.2782 45.8719 16.2782 45.8719 16.2782C45.8719 16.2782 45.8719 16.2782 45.8719 16.2782C45.872 16.2782 45.872 16.2782 45.872 16.2782C45.872 16.2782 45.872 16.2782 45.872 16.2782C45.872 16.2782 45.872 16.2782 45.872 16.2782C45.8721 16.2782 45.8721 16.2782 45.8721 16.2782C45.8721 16.2782 45.8721 16.2782 45.8721 16.2782C45.8721 16.2782 45.8721 16.2782 45.8722 16.2782C45.8722 16.2782 45.8722 16.2782 45.8722 16.2782C45.8722 16.2782 45.8722 16.2782 45.8722 16.2782C45.8722 16.2782 45.8722 16.2782 45.8723 16.2782C45.8723 16.2782 45.8723 16.2782 45.8723 16.2782C45.8723 16.2782 45.8723 16.2782 45.8723 16.2782C45.8723 16.2782 45.8723 16.2782 45.8724 16.2782C45.8724 16.2782 45.8724 16.2782 45.8724 16.2782C45.8724 16.2782 45.8724 16.2782 45.8724 16.2782C45.8724 16.2782 45.8725 16.2782 45.8725 16.2782C45.8725 16.2782 45.8725 16.2782 45.8725 16.2782C45.8725 16.2782 45.8725 16.2782 45.8725 16.2782C45.8725 16.2782 45.8726 16.2782 45.8726 16.2782C45.8726 16.2782 45.8726 16.2782 45.8726 16.2782C45.8726 16.2782 45.8726 16.2782 45.8726 16.2782C45.8727 16.2782 45.8727 16.2782 45.8727 16.2782C45.8727 16.2782 45.8727 16.2782 45.8727 16.2782C45.8727 16.2782 45.8727 16.2782 45.8727 16.2782C45.8728 16.2782 45.8728 16.2782 45.8728 16.2782C45.8728 16.2782 45.8728 16.2782 45.8728 16.2782C45.8728 16.2782 45.8728 16.2782 45.8728 16.2782C45.8729 16.2782 45.8729 16.2782 45.8729 16.2782C45.8729 16.2782 45.8729 16.2782 45.8729 16.2782C45.8729 16.2782 45.8729 16.2782 45.873 16.2782C45.873 16.2782 45.873 16.2782 45.873 16.2782C45.873 16.2782 45.873 16.2782 45.873 16.2782C45.873 16.2782 45.873 16.2782 45.8731 16.2782C45.8731 16.2782 45.8731 16.2782 45.8731 16.2782C45.8731 16.2782 45.8731 16.2782 45.8731 16.2782C45.8731 16.2782 45.8732 16.2782 45.8732 16.2782C45.8732 16.2782 45.8732 16.2782 45.8732 16.2782C45.8732 16.2782 45.8732 16.2782 45.8732 16.2782C45.8732 16.2782 45.8733 16.2782 45.8733 16.2782C45.8733 16.2782 45.8733 16.2782 45.8733 16.2782C45.8733 16.2782 45.8733 16.2782 45.8733 16.2782C45.8733 16.2782 45.8734 16.2782 45.8734 16.2782C45.8734 16.2782 45.8734 16.2782 45.8734 16.2782C45.8734 16.2782 45.8734 16.2782 45.8734 16.2782C45.8735 16.2782 45.8735 16.2782 45.8735 16.2782C45.8735 16.2782 45.8735 16.2782 45.8735 16.2782C45.8735 16.2782 45.8735 16.2782 45.8735 16.2782C45.8736 16.2782 45.8736 16.2782 45.8736 16.2782C45.8736 16.2782 45.8736 16.2782 45.8736 16.2782C45.8736 16.2782 45.8736 16.2782 45.8736 16.2782C45.8737 16.2782 45.8737 16.2782 45.8737 16.2782C45.8737 16.2782 45.8737 16.2782 45.8737 16.2782C45.8737 16.2782 45.8737 16.2782 45.8738 16.2782C45.8738 16.2782 45.8738 16.2782 45.8738 16.2782C45.8738 16.2782 45.8738 16.2782 45.8738 16.2782C45.8738 16.2782 45.8738 16.2782 45.8739 16.2782C45.8739 16.2782 45.8739 16.2782 45.8739 16.2782C45.8739 16.2782 45.8739 16.2782 45.8739 16.2782C45.8739 16.2782 45.8739 16.2782 45.874 16.2782C45.874 16.2782 45.874 16.2782 45.874 16.2782C45.874 16.2782 45.874 16.2782 45.874 16.2782C45.874 16.2782 45.8741 16.2782 45.8741 16.2782C45.8741 16.2782 45.8741 16.2782 45.8741 16.2782C45.8741 16.2782 45.8741 16.2782 45.8741 16.2782C45.8741 16.2782 45.8742 16.2782 45.8742 16.2782C45.8742 16.2782 45.8742 16.2782 45.8742 16.2782C45.8742 16.2782 45.8742 16.2782 45.8742 16.2782C45.8742 16.2782 45.8743 16.2782 45.8743 16.2782C45.8743 16.2782 45.8743 16.2782 45.8743 16.2782C45.8743 16.2782 45.8743 16.2782 45.8743 16.2782C45.8743 16.2782 45.8744 16.2782 45.8744 16.2782C45.8744 16.2782 45.8744 16.2782 45.8744 16.2782C45.8744 16.2782 45.8744 16.2782 45.8744 16.2782C45.8745 16.2782 45.8745 16.2782 45.8745 16.2782C45.8745 16.2782 45.8745 16.2782 45.8745 16.2782C45.8745 16.2782 45.8745 16.2782 45.8745 16.2782C45.8746 16.2782 45.8746 16.2782 45.8746 16.2782C45.8746 16.2782 45.8746 16.2782 45.8746 16.2782C45.8746 16.2782 45.8746 16.2782 45.8746 16.2782C45.8747 16.2782 45.8747 16.2782 45.8747 16.2782C45.8747 16.2782 45.8747 16.2782 45.8747 16.2782C45.8747 16.2782 45.8747 16.2782 45.8747 16.2782C45.8748 16.2782 45.8748 16.2782 45.8748 16.2782C45.8748 16.2782 45.8748 16.2782 45.8748 16.2782C45.8748 16.2782 45.8748 16.2782 45.8748 16.2782C45.8749 16.2782 45.8749 16.2782 45.8749 16.2782C45.8749 16.2782 45.8749 16.2782 45.8749 16.2782C45.8749 16.2782 45.8749 16.2782 45.875 16.2782C45.875 16.2782 45.875 16.2782 45.875 16.2782C45.875 16.2782 45.875 16.2782 45.875 16.2782C45.875 16.2782 45.875 16.2782 45.8751 16.2782C45.8751 16.2782 45.8751 16.2782 45.8751 16.2782C45.8751 16.2782 45.8751 16.2782 45.8751 16.2782C45.8751 16.2782 45.8751 16.2782 45.8752 16.2782C45.8752 16.2782 45.8752 16.2782 45.8752 16.2782C45.8752 16.2782 45.8752 16.2782 45.8752 16.2782C45.8752 16.2782 45.8752 16.2782 45.8753 16.2782C45.8753 16.2782 45.8753 16.2782 45.8753 16.2782C45.8753 16.2782 45.8753 16.2782 45.8753 16.2782C45.8753 16.2782 45.8753 16.2782 45.8754 16.2782C45.8754 16.2782 45.8754 16.2782 45.8754 16.2782C45.8754 16.2782 45.8754 16.2782 45.8754 16.2782C45.8754 16.2782 45.8754 16.2782 45.8755 16.2782C45.8755 16.2782 45.8755 16.2782 45.8755 16.2782C45.8755 16.2782 45.8755 16.2782 45.8755 16.2782C45.8755 16.2782 45.8755 16.2782 45.8756 16.2782C45.8756 16.2782 45.8756 16.2782 45.8756 16.2782C45.8756 16.2782 45.8756 16.2782 45.8756 16.2782C45.8756 16.2782 45.8756 16.2782 45.8757 16.2782C45.8757 16.2782 45.8757 16.2782 45.8757 16.2782C45.8757 16.2782 45.8757 16.2782 45.8757 16.2782C45.8757 16.2782 45.8757 16.2782 45.8758 16.2782C45.8758 16.2782 45.8758 16.2782 45.8758 16.2782C45.8758 16.2782 45.8758 16.2782 45.8758 16.2782C45.8758 16.2782 45.8758 16.2782 45.8759 16.2782C45.8759 16.2782 45.8759 16.2782 45.8759 16.2782C45.8759 16.2782 45.8759 16.2782 45.8759 16.2782C45.8759 16.2782 45.8759 16.2782 45.876 16.2782C45.876 16.2782 45.876 16.2782 45.876 16.2782C45.876 16.2782 45.876 16.2782 45.876 16.2782C45.876 16.2782 45.876 16.2782 45.876 16.2782C45.8761 16.2782 45.8761 16.2782 45.8761 16.2782C45.8761 16.2782 45.8761 16.2782 45.8761 16.2782C45.8761 16.2782 45.8761 16.2782 45.8761 16.2782C45.8762 16.2782 45.8762 16.2782 45.8762 16.2782C45.8762 16.2782 45.8762 16.2782 45.8762 16.2782C45.8762 16.2782 45.8762 16.2782 45.8762 16.2782C45.8763 16.2782 45.8763 16.2782 45.8763 16.2782C45.8763 16.2782 45.8763 16.2782 45.8763 16.2782C45.8763 16.2782 45.8763 16.2782 45.8763 16.2782C45.8764 16.2782 45.8764 16.2782 45.8764 16.2782C45.8764 16.2782 45.8764 16.2782 45.8764 16.2782C45.8764 16.2782 45.8764 16.2782 45.8764 16.2782C45.8764 16.2782 45.8765 16.2782 45.8765 16.2782C45.8765 16.2782 45.8765 16.2782 45.8765 16.2782C45.8765 16.2782 45.8765 16.2782 45.8765 16.2782C45.8765 16.2782 45.8766 16.2782 45.8766 16.2782C45.8766 16.2782 45.8766 16.2782 45.8766 16.2782C45.8766 16.2782 45.8766 16.2782 45.8766 16.2782C45.8766 16.2782 45.8767 16.2782 45.8767 16.2782C45.8767 16.2782 45.8767 16.2782 45.8767 16.2782C45.8767 16.2782 45.8767 16.2782 45.8767 16.2782C45.8767 16.2782 45.8767 16.2782 45.8768 16.2782C45.8768 16.2782 45.8768 16.2782 45.8768 16.2782C45.8768 16.2782 45.8768 16.2782 45.8768 16.2782C45.8768 16.2782 45.8768 16.2782 45.8769 16.2782C45.8769 16.2782 45.8769 16.2782 45.8769 16.2782C45.8769 16.2782 45.8769 16.2782 45.8769 16.2782C45.8769 16.2782 45.8769 16.2782 45.8769 16.2782C45.877 16.2782 45.877 16.2782 45.877 16.2782C45.877 16.2782 45.877 16.2782 45.877 16.2782C45.877 16.2782 45.877 16.2782 45.877 16.2782C45.877 16.2782 45.8771 16.2782 45.8771 16.2782C45.8771 16.2782 45.8771 16.2782 45.8771 16.2782C45.8771 16.2782 45.8771 16.2782 45.8771 16.2782C45.8771 16.2782 45.8772 16.2782 45.8772 16.2782C45.8772 16.2782 45.8772 16.2782 45.8772 16.2782C45.8772 16.2782 45.8772 16.2782 45.8772 16.2782C45.8772 16.2782 45.8772 16.2782 45.8773 16.2782C45.8773 16.2782 45.8773 16.2782 45.8773 16.2782C45.8773 16.2782 45.8773 16.2782 45.8773 16.2782C45.8773 16.2782 45.8773 16.2782 45.8773 16.2782C45.8774 16.2782 45.8774 16.2782 45.8774 16.2782C45.8774 16.2782 45.8774 16.2782 45.8774 16.2782C45.8774 16.2782 45.8774 16.2782 45.8774 16.2782C45.8775 16.2782 45.8775 16.2782 45.8775 16.2782C45.8775 16.2782 45.8775 16.2782 45.8775 16.2782C45.8775 16.2782 45.8775 16.2782 45.8775 16.2782C45.8775 16.2782 45.8776 16.2782 45.8776 16.2782C45.8776 16.2782 45.8776 16.2782 45.8776 16.2782C45.8776 16.2782 45.8776 16.2782 45.8776 16.2782C45.8776 16.2782 45.8776 16.2782 45.8777 16.2782C45.8777 16.2782 45.8777 16.2782 45.8777 16.2782C45.8777 16.2782 45.8777 16.2782 45.8777 16.2782C45.8777 16.2782 45.8777 16.2782 45.8777 16.2782C45.8778 16.2782 45.8778 16.2782 45.8778 16.2782C45.8778 16.2782 45.8778 16.2782 45.8778 16.2782C45.8778 16.2782 45.8778 16.2782 45.8778 16.2782C45.8778 16.2782 45.8779 16.2782 45.8779 16.2782C45.8779 16.2782 45.8779 16.2782 45.8779 16.2782C45.8779 16.2782 45.8779 16.2782 45.8779 16.2782C45.8779 16.2782 45.8779 16.2782 45.878 16.2782C45.878 16.2782 45.878 16.2782 45.878 16.2782C45.878 16.2782 45.878 16.2782 45.878 16.2782C45.878 16.2782 45.878 16.2782 45.878 16.2782C45.878 16.2782 45.8781 16.2782 45.8781 16.2782C45.8781 16.2782 45.8781 16.2782 45.8781 16.2782C45.8781 16.2782 45.8781 16.2782 45.8781 16.2782C45.8781 16.2782 45.8781 16.2782 45.8782 16.2782C45.8782 16.2782 45.8782 16.2782 45.8782 16.2782C45.8782 16.2782 45.8782 16.2782 45.8782 16.2782C45.8782 16.2782 45.8782 16.2782 45.8782 16.2782C45.8783 16.2782 45.8783 16.2782 45.8783 16.2782C45.8783 16.2782 45.8783 16.2782 45.8783 16.2782C45.8783 16.2782 45.8783 16.2782 45.8783 16.2782C45.8783 16.2782 45.8783 16.2782 45.8784 16.2782C45.8784 16.2782 45.8784 16.2782 45.8784 16.2782C45.8784 16.2782 45.8784 16.2782 45.8784 16.2782C45.8784 16.2782 45.8784 16.2782 45.8784 16.2782C45.8785 16.2782 45.8785 16.2782 45.8785 16.2782C45.8785 16.2782 45.8785 16.2782 45.8785 16.2782C45.8785 16.2782 45.8785 16.2782 45.8785 16.2782C45.8785 16.2782 45.8785 16.2782 45.8786 16.2782C45.8786 16.2782 45.8786 16.2782 45.8786 16.2782C45.8786 16.2782 45.8786 16.2782 45.8786 16.2782C45.8786 16.2782 45.8786 16.2782 45.8786 16.2782C45.8786 16.2782 45.8787 16.2782 45.8787 16.2782C45.8787 16.2782 45.8787 16.2782 45.8787 16.2782C45.8787 16.2782 45.8787 16.2782 45.8787 16.2782C45.8787 16.2782 45.8787 16.2782 45.8788 16.2782C45.8788 16.2782 45.8788 16.2782 45.8788 16.2782C45.8788 16.2782 45.8788 16.2782 45.8788 16.2782C45.8788 16.2782 45.8788 16.2782 45.8788 16.2782C45.8788 16.2782 45.8789 16.2782 45.8789 16.2782C45.8789 16.2782 45.8789 16.2782 45.8789 16.2782C45.8789 16.2782 45.8789 16.2782 45.8789 16.2782C45.8789 16.2782 45.8789 16.2782 45.8789 16.2782C45.879 16.2782 45.879 16.2782 45.879 16.2782C45.879 16.2782 45.879 16.2782 45.879 16.2782C45.879 16.2782 45.879 16.2782 45.879 16.2782C45.879 16.2782 45.879 16.2782 45.8791 16.2782C45.8791 16.2782 45.8791 16.2782 45.8791 16.2782C45.8791 16.2782 45.8791 16.2782 45.8791 16.2782C45.8791 16.2782 45.8791 16.2782 45.8791 16.2782C45.8791 16.2782 45.8791 16.2782 45.8792 16.2782C45.8792 16.2782 45.8792 16.2782 45.8792 16.2782C45.8792 16.2782 45.8792 16.2782 45.8792 16.2782C45.8792 16.2782 45.8792 16.2782 45.8792 16.2782C45.8792 16.2782 45.8793 16.2782 45.8793 16.2782C45.8793 16.2782 45.8793 16.2782 45.8793 16.2782C45.8793 16.2782 45.8793 16.2782 45.8793 16.2782C45.8793 16.2782 45.8793 16.2782 45.8793 16.2782C45.8794 16.2782 45.8794 16.2782 45.8794 16.2782C45.8794 16.2782 45.8794 16.2782 45.8794 16.2782C45.8794 16.2782 45.8794 16.2782 45.8794 16.2782C45.8794 16.2782 45.8794 16.2782 45.8794 16.2782C45.8795 16.2782 45.8795 16.2782 45.8795 16.2782C45.8795 16.2782 45.8795 16.2782 45.8795 16.2782C45.8795 16.2782 45.8795 16.2782 45.8795 16.2782C45.8795 16.2782 45.8795 16.2782 45.8795 16.2782C45.8796 16.2782 45.8796 16.2782 45.8796 16.2782C45.8796 16.2782 45.8796 16.2782 45.8796 16.2782C45.8796 16.2782 45.8796 16.2782 45.8796 16.2782C45.8796 16.2782 45.8796 16.2782 45.8796 16.2782C45.8797 16.2782 45.8797 16.2782 45.8797 16.2782C45.8797 16.2782 45.8797 16.2782 45.8797 16.2782C45.8797 16.2782 45.8797 16.2782 45.8797 16.2782C45.8797 16.2782 45.8797 16.2782 45.8797 16.2782C45.8798 16.2782 45.8798 16.2782 45.8798 16.2782C45.8798 16.2782 45.8798 16.2782 45.8798 16.2782C45.8798 16.2782 45.8798 16.2782 45.8798 16.2782C45.8798 16.2782 45.8798 16.2782 45.8798 16.2782C45.8799 16.2782 45.8799 16.2782 45.8799 16.2782C45.8799 16.2782 45.8799 16.2782 45.8799 16.2782C45.8799 16.2782 45.8799 16.2782 45.8799 16.2782C45.8799 16.2782 45.8799 16.2782 45.8799 16.2782C45.8799 16.2782 45.88 16.2782 45.88 16.2782C45.88 16.2782 45.88 16.2782 45.88 16.2782C45.88 16.2782 45.88 16.2782 45.88 16.2782C45.88 16.2782 45.88 16.2782 45.88 16.2782C45.88 16.2782 45.8801 16.2782 45.8801 16.2782C45.8801 16.2782 45.8801 16.2782 45.8801 16.2782C45.8801 16.2782 45.8801 16.2782 45.8801 16.2782V14.8782C45.8801 14.8782 45.8801 14.8782 45.8801 14.8782C45.8801 14.8782 45.8801 14.8782 45.8801 14.8782C45.8801 14.8782 45.88 14.8782 45.88 14.8782C45.88 14.8782 45.88 14.8782 45.88 14.8782C45.88 14.8782 45.88 14.8782 45.88 14.8782C45.88 14.8782 45.88 14.8782 45.88 14.8782C45.88 14.8782 45.8799 14.8782 45.8799 14.8782C45.8799 14.8782 45.8799 14.8782 45.8799 14.8782C45.8799 14.8782 45.8799 14.8782 45.8799 14.8782C45.8799 14.8782 45.8799 14.8782 45.8799 14.8782C45.8799 14.8782 45.8799 14.8782 45.8798 14.8782C45.8798 14.8782 45.8798 14.8782 45.8798 14.8782C45.8798 14.8782 45.8798 14.8782 45.8798 14.8782C45.8798 14.8782 45.8798 14.8782 45.8798 14.8782C45.8798 14.8782 45.8798 14.8782 45.8797 14.8782C45.8797 14.8782 45.8797 14.8782 45.8797 14.8782C45.8797 14.8782 45.8797 14.8782 45.8797 14.8782C45.8797 14.8782 45.8797 14.8782 45.8797 14.8782C45.8797 14.8782 45.8797 14.8782 45.8796 14.8782C45.8796 14.8782 45.8796 14.8782 45.8796 14.8782C45.8796 14.8782 45.8796 14.8782 45.8796 14.8782C45.8796 14.8782 45.8796 14.8782 45.8796 14.8782C45.8796 14.8782 45.8796 14.8782 45.8795 14.8782C45.8795 14.8782 45.8795 14.8782 45.8795 14.8782C45.8795 14.8782 45.8795 14.8782 45.8795 14.8782C45.8795 14.8782 45.8795 14.8782 45.8795 14.8782C45.8795 14.8782 45.8795 14.8782 45.8794 14.8782C45.8794 14.8782 45.8794 14.8782 45.8794 14.8782C45.8794 14.8782 45.8794 14.8782 45.8794 14.8782C45.8794 14.8782 45.8794 14.8782 45.8794 14.8782C45.8794 14.8782 45.8794 14.8782 45.8793 14.8782C45.8793 14.8782 45.8793 14.8782 45.8793 14.8782C45.8793 14.8782 45.8793 14.8782 45.8793 14.8782C45.8793 14.8782 45.8793 14.8782 45.8793 14.8782C45.8793 14.8782 45.8792 14.8782 45.8792 14.8782C45.8792 14.8782 45.8792 14.8782 45.8792 14.8782C45.8792 14.8782 45.8792 14.8782 45.8792 14.8782C45.8792 14.8782 45.8792 14.8782 45.8792 14.8782C45.8791 14.8782 45.8791 14.8782 45.8791 14.8782C45.8791 14.8782 45.8791 14.8782 45.8791 14.8782C45.8791 14.8782 45.8791 14.8782 45.8791 14.8782C45.8791 14.8782 45.8791 14.8782 45.8791 14.8782C45.879 14.8782 45.879 14.8782 45.879 14.8782C45.879 14.8782 45.879 14.8782 45.879 14.8782C45.879 14.8782 45.879 14.8782 45.879 14.8782C45.879 14.8782 45.879 14.8782 45.8789 14.8782C45.8789 14.8782 45.8789 14.8782 45.8789 14.8782C45.8789 14.8782 45.8789 14.8782 45.8789 14.8782C45.8789 14.8782 45.8789 14.8782 45.8789 14.8782C45.8789 14.8782 45.8788 14.8782 45.8788 14.8782C45.8788 14.8782 45.8788 14.8782 45.8788 14.8782C45.8788 14.8782 45.8788 14.8782 45.8788 14.8782C45.8788 14.8782 45.8788 14.8782 45.8788 14.8782C45.8787 14.8782 45.8787 14.8782 45.8787 14.8782C45.8787 14.8782 45.8787 14.8782 45.8787 14.8782C45.8787 14.8782 45.8787 14.8782 45.8787 14.8782C45.8787 14.8782 45.8786 14.8782 45.8786 14.8782C45.8786 14.8782 45.8786 14.8782 45.8786 14.8782C45.8786 14.8782 45.8786 14.8782 45.8786 14.8782C45.8786 14.8782 45.8786 14.8782 45.8786 14.8782C45.8785 14.8782 45.8785 14.8782 45.8785 14.8782C45.8785 14.8782 45.8785 14.8782 45.8785 14.8782C45.8785 14.8782 45.8785 14.8782 45.8785 14.8782C45.8785 14.8782 45.8785 14.8782 45.8784 14.8782C45.8784 14.8782 45.8784 14.8782 45.8784 14.8782C45.8784 14.8782 45.8784 14.8782 45.8784 14.8782C45.8784 14.8782 45.8784 14.8782 45.8784 14.8782C45.8783 14.8782 45.8783 14.8782 45.8783 14.8782C45.8783 14.8782 45.8783 14.8782 45.8783 14.8782C45.8783 14.8782 45.8783 14.8782 45.8783 14.8782C45.8783 14.8782 45.8783 14.8782 45.8782 14.8782C45.8782 14.8782 45.8782 14.8782 45.8782 14.8782C45.8782 14.8782 45.8782 14.8782 45.8782 14.8782C45.8782 14.8782 45.8782 14.8782 45.8782 14.8782C45.8781 14.8782 45.8781 14.8782 45.8781 14.8782C45.8781 14.8782 45.8781 14.8782 45.8781 14.8782C45.8781 14.8782 45.8781 14.8782 45.8781 14.8782C45.8781 14.8782 45.878 14.8782 45.878 14.8782C45.878 14.8782 45.878 14.8782 45.878 14.8782C45.878 14.8782 45.878 14.8782 45.878 14.8782C45.878 14.8782 45.878 14.8782 45.878 14.8782C45.8779 14.8782 45.8779 14.8782 45.8779 14.8782C45.8779 14.8782 45.8779 14.8782 45.8779 14.8782C45.8779 14.8782 45.8779 14.8782 45.8779 14.8782C45.8779 14.8782 45.8778 14.8782 45.8778 14.8782C45.8778 14.8782 45.8778 14.8782 45.8778 14.8782C45.8778 14.8782 45.8778 14.8782 45.8778 14.8782C45.8778 14.8782 45.8778 14.8782 45.8777 14.8782C45.8777 14.8782 45.8777 14.8782 45.8777 14.8782C45.8777 14.8782 45.8777 14.8782 45.8777 14.8782C45.8777 14.8782 45.8777 14.8782 45.8777 14.8782C45.8776 14.8782 45.8776 14.8782 45.8776 14.8782C45.8776 14.8782 45.8776 14.8782 45.8776 14.8782C45.8776 14.8782 45.8776 14.8782 45.8776 14.8782C45.8776 14.8782 45.8775 14.8782 45.8775 14.8782C45.8775 14.8782 45.8775 14.8782 45.8775 14.8782C45.8775 14.8782 45.8775 14.8782 45.8775 14.8782C45.8775 14.8782 45.8775 14.8782 45.8774 14.8782C45.8774 14.8782 45.8774 14.8782 45.8774 14.8782C45.8774 14.8782 45.8774 14.8782 45.8774 14.8782C45.8774 14.8782 45.8774 14.8782 45.8773 14.8782C45.8773 14.8782 45.8773 14.8782 45.8773 14.8782C45.8773 14.8782 45.8773 14.8782 45.8773 14.8782C45.8773 14.8782 45.8773 14.8782 45.8773 14.8782C45.8772 14.8782 45.8772 14.8782 45.8772 14.8782C45.8772 14.8782 45.8772 14.8782 45.8772 14.8782C45.8772 14.8782 45.8772 14.8782 45.8772 14.8782C45.8772 14.8782 45.8771 14.8782 45.8771 14.8782C45.8771 14.8782 45.8771 14.8782 45.8771 14.8782C45.8771 14.8782 45.8771 14.8782 45.8771 14.8782C45.8771 14.8782 45.877 14.8782 45.877 14.8782C45.877 14.8782 45.877 14.8782 45.877 14.8782C45.877 14.8782 45.877 14.8782 45.877 14.8782C45.877 14.8782 45.877 14.8782 45.8769 14.8782C45.8769 14.8782 45.8769 14.8782 45.8769 14.8782C45.8769 14.8782 45.8769 14.8782 45.8769 14.8782C45.8769 14.8782 45.8769 14.8782 45.8769 14.8782C45.8768 14.8782 45.8768 14.8782 45.8768 14.8782C45.8768 14.8782 45.8768 14.8782 45.8768 14.8782C45.8768 14.8782 45.8768 14.8782 45.8768 14.8782C45.8767 14.8782 45.8767 14.8782 45.8767 14.8782C45.8767 14.8782 45.8767 14.8782 45.8767 14.8782C45.8767 14.8782 45.8767 14.8782 45.8767 14.8782C45.8767 14.8782 45.8766 14.8782 45.8766 14.8782C45.8766 14.8782 45.8766 14.8782 45.8766 14.8782C45.8766 14.8782 45.8766 14.8782 45.8766 14.8782C45.8766 14.8782 45.8765 14.8782 45.8765 14.8782C45.8765 14.8782 45.8765 14.8782 45.8765 14.8782C45.8765 14.8782 45.8765 14.8782 45.8765 14.8782C45.8765 14.8782 45.8764 14.8782 45.8764 14.8782C45.8764 14.8782 45.8764 14.8782 45.8764 14.8782C45.8764 14.8782 45.8764 14.8782 45.8764 14.8782C45.8764 14.8782 45.8764 14.8782 45.8763 14.8782C45.8763 14.8782 45.8763 14.8782 45.8763 14.8782C45.8763 14.8782 45.8763 14.8782 45.8763 14.8782C45.8763 14.8782 45.8763 14.8782 45.8762 14.8782C45.8762 14.8782 45.8762 14.8782 45.8762 14.8782C45.8762 14.8782 45.8762 14.8782 45.8762 14.8782C45.8762 14.8782 45.8762 14.8782 45.8761 14.8782C45.8761 14.8782 45.8761 14.8782 45.8761 14.8782C45.8761 14.8782 45.8761 14.8782 45.8761 14.8782C45.8761 14.8782 45.8761 14.8782 45.876 14.8782C45.876 14.8782 45.876 14.8782 45.876 14.8782C45.876 14.8782 45.876 14.8782 45.876 14.8782C45.876 14.8782 45.876 14.8782 45.876 14.8782C45.8759 14.8782 45.8759 14.8782 45.8759 14.8782C45.8759 14.8782 45.8759 14.8782 45.8759 14.8782C45.8759 14.8782 45.8759 14.8782 45.8759 14.8782C45.8758 14.8782 45.8758 14.8782 45.8758 14.8782C45.8758 14.8782 45.8758 14.8782 45.8758 14.8782C45.8758 14.8782 45.8758 14.8782 45.8758 14.8782C45.8757 14.8782 45.8757 14.8782 45.8757 14.8782C45.8757 14.8782 45.8757 14.8782 45.8757 14.8782C45.8757 14.8782 45.8757 14.8782 45.8757 14.8782C45.8756 14.8782 45.8756 14.8782 45.8756 14.8782C45.8756 14.8782 45.8756 14.8782 45.8756 14.8782C45.8756 14.8782 45.8756 14.8782 45.8756 14.8782C45.8755 14.8782 45.8755 14.8782 45.8755 14.8782C45.8755 14.8782 45.8755 14.8782 45.8755 14.8782C45.8755 14.8782 45.8755 14.8782 45.8755 14.8782C45.8754 14.8782 45.8754 14.8782 45.8754 14.8782C45.8754 14.8782 45.8754 14.8782 45.8754 14.8782C45.8754 14.8782 45.8754 14.8782 45.8754 14.8782C45.8753 14.8782 45.8753 14.8782 45.8753 14.8782C45.8753 14.8782 45.8753 14.8782 45.8753 14.8782C45.8753 14.8782 45.8753 14.8782 45.8753 14.8782C45.8752 14.8782 45.8752 14.8782 45.8752 14.8782C45.8752 14.8782 45.8752 14.8782 45.8752 14.8782C45.8752 14.8782 45.8752 14.8782 45.8752 14.8782C45.8751 14.8782 45.8751 14.8782 45.8751 14.8782C45.8751 14.8782 45.8751 14.8782 45.8751 14.8782C45.8751 14.8782 45.8751 14.8782 45.8751 14.8782C45.875 14.8782 45.875 14.8782 45.875 14.8782C45.875 14.8782 45.875 14.8782 45.875 14.8782C45.875 14.8782 45.875 14.8782 45.875 14.8782C45.8749 14.8782 45.8749 14.8782 45.8749 14.8782C45.8749 14.8782 45.8749 14.8782 45.8749 14.8782C45.8749 14.8782 45.8749 14.8782 45.8748 14.8782C45.8748 14.8782 45.8748 14.8782 45.8748 14.8782C45.8748 14.8782 45.8748 14.8782 45.8748 14.8782C45.8748 14.8782 45.8748 14.8782 45.8747 14.8782C45.8747 14.8782 45.8747 14.8782 45.8747 14.8782C45.8747 14.8782 45.8747 14.8782 45.8747 14.8782C45.8747 14.8782 45.8747 14.8782 45.8746 14.8782C45.8746 14.8782 45.8746 14.8782 45.8746 14.8782C45.8746 14.8782 45.8746 14.8782 45.8746 14.8782C45.8746 14.8782 45.8746 14.8782 45.8745 14.8782C45.8745 14.8782 45.8745 14.8782 45.8745 14.8782C45.8745 14.8782 45.8745 14.8782 45.8745 14.8782C45.8745 14.8782 45.8745 14.8782 45.8744 14.8782C45.8744 14.8782 45.8744 14.8782 45.8744 14.8782C45.8744 14.8782 45.8744 14.8782 45.8744 14.8782C45.8744 14.8782 45.8743 14.8782 45.8743 14.8782C45.8743 14.8782 45.8743 14.8782 45.8743 14.8782C45.8743 14.8782 45.8743 14.8782 45.8743 14.8782C45.8743 14.8782 45.8742 14.8782 45.8742 14.8782C45.8742 14.8782 45.8742 14.8782 45.8742 14.8782C45.8742 14.8782 45.8742 14.8782 45.8742 14.8782C45.8742 14.8782 45.8741 14.8782 45.8741 14.8782C45.8741 14.8782 45.8741 14.8782 45.8741 14.8782C45.8741 14.8782 45.8741 14.8782 45.8741 14.8782C45.8741 14.8782 45.874 14.8782 45.874 14.8782C45.874 14.8782 45.874 14.8782 45.874 14.8782C45.874 14.8782 45.874 14.8782 45.874 14.8782C45.8739 14.8782 45.8739 14.8782 45.8739 14.8782C45.8739 14.8782 45.8739 14.8782 45.8739 14.8782C45.8739 14.8782 45.8739 14.8782 45.8739 14.8782C45.8738 14.8782 45.8738 14.8782 45.8738 14.8782C45.8738 14.8782 45.8738 14.8782 45.8738 14.8782C45.8738 14.8782 45.8738 14.8782 45.8738 14.8782C45.8737 14.8782 45.8737 14.8782 45.8737 14.8782C45.8737 14.8782 45.8737 14.8782 45.8737 14.8782C45.8737 14.8782 45.8737 14.8782 45.8736 14.8782C45.8736 14.8782 45.8736 14.8782 45.8736 14.8782C45.8736 14.8782 45.8736 14.8782 45.8736 14.8782C45.8736 14.8782 45.8736 14.8782 45.8735 14.8782C45.8735 14.8782 45.8735 14.8782 45.8735 14.8782C45.8735 14.8782 45.8735 14.8782 45.8735 14.8782C45.8735 14.8782 45.8735 14.8782 45.8734 14.8782C45.8734 14.8782 45.8734 14.8782 45.8734 14.8782C45.8734 14.8782 45.8734 14.8782 45.8734 14.8782C45.8734 14.8782 45.8733 14.8782 45.8733 14.8782C45.8733 14.8782 45.8733 14.8782 45.8733 14.8782C45.8733 14.8782 45.8733 14.8782 45.8733 14.8782C45.8733 14.8782 45.8732 14.8782 45.8732 14.8782C45.8732 14.8782 45.8732 14.8782 45.8732 14.8782C45.8732 14.8782 45.8732 14.8782 45.8732 14.8782C45.8732 14.8782 45.8731 14.8782 45.8731 14.8782C45.8731 14.8782 45.8731 14.8782 45.8731 14.8782C45.8731 14.8782 45.8731 14.8782 45.8731 14.8782C45.873 14.8782 45.873 14.8782 45.873 14.8782C45.873 14.8782 45.873 14.8782 45.873 14.8782C45.873 14.8782 45.873 14.8782 45.873 14.8782C45.8729 14.8782 45.8729 14.8782 45.8729 14.8782C45.8729 14.8782 45.8729 14.8782 45.8729 14.8782C45.8729 14.8782 45.8729 14.8782 45.8728 14.8782C45.8728 14.8782 45.8728 14.8782 45.8728 14.8782C45.8728 14.8782 45.8728 14.8782 45.8728 14.8782C45.8728 14.8782 45.8728 14.8782 45.8727 14.8782C45.8727 14.8782 45.8727 14.8782 45.8727 14.8782C45.8727 14.8782 45.8727 14.8782 45.8727 14.8782C45.8727 14.8782 45.8727 14.8782 45.8726 14.8782C45.8726 14.8782 45.8726 14.8782 45.8726 14.8782C45.8726 14.8782 45.8726 14.8782 45.8726 14.8782C45.8726 14.8782 45.8725 14.8782 45.8725 14.8782C45.8725 14.8782 45.8725 14.8782 45.8725 14.8782C45.8725 14.8782 45.8725 14.8782 45.8725 14.8782C45.8725 14.8782 45.8724 14.8782 45.8724 14.8782C45.8724 14.8782 45.8724 14.8782 45.8724 14.8782C45.8724 14.8782 45.8724 14.8782 45.8724 14.8782C45.8723 14.8782 45.8723 14.8782 45.8723 14.8782C45.8723 14.8782 45.8723 14.8782 45.8723 14.8782C45.8723 14.8782 45.8723 14.8782 45.8723 14.8782C45.8722 14.8782 45.8722 14.8782 45.8722 14.8782C45.8722 14.8782 45.8722 14.8782 45.8722 14.8782C45.8722 14.8782 45.8722 14.8782 45.8722 14.8782C45.8721 14.8782 45.8721 14.8782 45.8721 14.8782C45.8721 14.8782 45.8721 14.8782 45.8721 14.8782C45.8721 14.8782 45.8721 14.8782 45.872 14.8782C45.872 14.8782 45.872 14.8782 45.872 14.8782C45.872 14.8782 45.872 14.8782 45.872 14.8782C45.872 14.8782 45.872 14.8782 45.8719 14.8782C45.8719 14.8782 45.8719 14.8782 45.8719 14.8782C45.8719 14.8782 45.8719 14.8782 45.8719 14.8782C45.8719 14.8782 45.8718 14.8782 45.8718 14.8782C45.8718 14.8782 45.8718 14.8782 45.8718 14.8782C45.8718 14.8782 45.8718 14.8782 45.8718 14.8782C45.8718 14.8782 45.8717 14.8782 45.8717 14.8782C45.8717 14.8782 45.8717 14.8782 45.8717 14.8782C45.8717 14.8782 45.8717 14.8782 45.8717 14.8782C45.8716 14.8782 45.8716 14.8782 45.8716 14.8782C45.8716 14.8782 45.8716 14.8782 45.8716 14.8782C45.8716 14.8782 45.8716 14.8782 45.8716 14.8782C45.8715 14.8782 45.8715 14.8782 45.8715 14.8782C45.8715 14.8782 45.8715 14.8782 45.8715 14.8782C45.8715 14.8782 45.8715 14.8782 45.8715 14.8782C45.8714 14.8782 45.8714 14.8782 45.8714 14.8782C45.8714 14.8782 45.8714 14.8782 45.8714 14.8782C45.8714 14.8782 45.8714 14.8782 45.8713 14.8782C45.8713 14.8782 45.8713 14.8782 45.8713 14.8782C45.8713 14.8782 45.8713 14.8782 45.8713 14.8782C45.8713 14.8782 45.8713 14.8782 45.8712 14.8782C45.8712 14.8782 45.8712 14.8782 45.8712 14.8782C45.8712 14.8782 45.8712 14.8782 45.8712 14.8782C45.8712 14.8782 45.8711 14.8782 45.8711 14.8782C45.8711 14.8782 45.8711 14.8782 45.8711 14.8782C45.8711 14.8782 45.8711 14.8782 45.8711 14.8782C45.8711 14.8782 45.871 14.8782 45.871 14.8782C45.871 14.8782 45.871 14.8782 45.871 14.8782C45.871 14.8782 45.871 14.8782 45.871 14.8782C45.871 14.8782 45.8709 14.8782 45.8709 14.8782C45.8709 14.8782 45.8709 14.8782 45.8709 14.8782C45.8709 14.8782 45.8709 14.8782 45.8709 14.8782C45.8708 14.8782 45.8708 14.8782 45.8708 14.8782C45.8708 14.8782 45.8708 14.8782 45.8708 14.8782C45.8708 14.8782 45.8708 14.8782 45.8708 14.8782C45.8707 14.8782 45.8707 14.8782 45.8707 14.8782C45.8707 14.8782 45.8707 14.8782 45.8707 14.8782C45.8707 14.8782 45.8707 14.8782 45.8707 14.8782C45.8706 14.8782 45.8706 14.8782 45.8706 14.8782C45.8706 14.8782 45.8706 14.8782 45.8706 14.8782C45.8706 14.8782 45.8706 14.8782 45.8705 14.8782C45.8705 14.8782 45.8705 14.8782 45.8705 14.8782C45.8705 14.8782 45.8705 14.8782 45.8705 14.8782C45.8705 14.8782 45.8705 14.8782 45.8704 14.8782C45.8704 14.8782 45.8704 14.8782 45.8704 14.8782C45.8704 14.8782 45.8704 14.8782 45.8704 14.8782C45.8704 14.8782 45.8704 14.8782 45.8703 14.8782C45.8703 14.8782 45.8703 14.8782 45.8703 14.8782C45.8703 14.8782 45.8703 14.8782 45.8703 14.8782C45.8703 14.8782 45.8702 14.8782 45.8702 14.8782C45.8702 14.8782 45.8702 14.8782 45.8702 14.8782C45.8702 14.8782 45.8702 14.8782 45.8702 14.8782C45.8702 14.8782 45.8701 14.8782 45.8701 14.8782C45.8701 14.8782 45.8701 14.8782 45.8701 14.8782C45.8701 14.8782 45.8701 14.8782 45.8701 14.8782C45.8701 14.8782 45.87 14.8782 45.87 14.8782C45.87 14.8782 45.87 14.8782 45.87 14.8782C45.87 14.8782 45.87 14.8782 45.87 14.8782C45.87 14.8782 45.8699 14.8782 45.8699 14.8782C45.8699 14.8782 45.8699 14.8782 45.8699 14.8782C45.8699 14.8782 45.8699 14.8782 45.8699 14.8782C45.8698 14.8782 45.8698 14.8782 45.8698 14.8782C45.8698 14.8782 45.8698 14.8782 45.8698 14.8782C45.8698 14.8782 45.8698 14.8782 45.8698 14.8782C45.8697 14.8782 45.8697 14.8782 45.8697 14.8782C45.8697 14.8782 45.8697 14.8782 45.8697 14.8782C45.8697 14.8782 45.8697 14.8782 45.8697 14.8782C45.8696 14.8782 45.8696 14.8782 45.8696 14.8782C45.8696 14.8782 45.8696 14.8782 45.8696 14.8782C45.8696 14.8782 45.8696 14.8782 45.8696 14.8782C45.8695 14.8782 45.8695 14.8782 45.8695 14.8782C45.8695 14.8782 45.8695 14.8782 45.8695 14.8782C45.8695 14.8782 45.8695 14.8782 45.8695 14.8782C45.8694 14.8782 45.8694 14.8782 45.8694 14.8782C45.8694 14.8782 45.8694 14.8782 45.8694 14.8782C45.8694 14.8782 45.8694 14.8782 45.8694 14.8782C45.8693 14.8782 45.8693 14.8782 45.8693 14.8782C45.8693 14.8782 45.8693 14.8782 45.8693 14.8782C45.8693 14.8782 45.8693 14.8782 45.8692 14.8782C45.8692 14.8782 45.8692 14.8782 45.8692 14.8782C45.8692 14.8782 45.8692 14.8782 45.8692 14.8782C45.8692 14.8782 45.8692 14.8782 45.8691 14.8782C45.8691 14.8782 45.8691 14.8782 45.8691 14.8782C45.8691 14.8782 45.8691 14.8782 45.8691 14.8782C45.8691 14.8782 45.8691 14.8782 45.869 14.8782C45.869 14.8782 45.869 14.8782 45.869 14.8782C45.869 14.8782 45.869 14.8782 45.869 14.8782C45.869 14.8782 45.869 14.8782 45.8689 14.8782C45.8689 14.8782 45.8689 14.8782 45.8689 14.8782C45.8689 14.8782 45.8689 14.8782 45.8689 14.8782C45.8689 14.8782 45.8689 14.8782 45.8688 14.8782C45.8688 14.8782 45.8688 14.8782 45.8688 14.8782C45.8688 14.8782 45.8688 14.8782 45.8688 14.8782C45.8688 14.8782 45.8688 14.8782 45.8687 14.8782C45.8687 14.8782 45.8687 14.8782 45.8687 14.8782C45.8687 14.8782 45.8687 14.8782 45.8687 14.8782C45.8687 14.8782 45.8687 14.8782 45.8686 14.8782C45.8686 14.8782 45.8686 14.8782 45.8686 14.8782C45.8686 14.8782 45.8686 14.8782 45.8686 14.8782C45.8686 14.8782 45.8686 14.8782 45.8685 14.8782C45.8685 14.8782 45.8685 14.8782 45.8685 14.8782C45.8685 14.8782 45.8685 14.8782 45.8685 14.8782C45.8685 14.8782 45.8685 14.8782 45.8684 14.8782C45.8684 14.8782 45.8684 14.8782 45.8684 14.8782C45.8684 14.8782 45.8684 14.8782 45.8684 14.8782C45.8684 14.8782 45.8684 14.8782 45.8684 14.8782C45.8683 14.8782 45.8683 14.8782 45.8683 14.8782C45.8683 14.8782 45.8683 14.8782 45.8683 14.8782C45.8683 14.8782 45.8683 14.8782 45.8683 14.8782C45.8682 14.8782 45.8682 14.8782 45.8682 14.8782C45.8682 14.8782 45.8682 14.8782 45.8682 14.8782C45.8682 14.8782 45.8682 14.8782 45.8682 14.8782C45.8681 14.8782 45.8681 14.8782 45.8681 14.8782C45.8681 14.8782 45.8681 14.8782 45.8681 14.8782C45.8681 14.8782 45.8681 14.8782 45.8681 14.8782C45.868 14.8782 45.868 14.8782 45.868 14.8782C45.868 14.8782 45.868 14.8782 45.868 14.8782C45.868 14.8782 45.868 14.8782 45.868 14.8782C45.868 14.8782 45.8679 14.8782 45.8679 14.8782C45.8679 14.8782 45.8679 14.8782 45.8679 14.8782C45.8679 14.8782 45.8679 14.8782 45.8679 14.8782C45.8679 14.8782 45.8678 14.8782 45.8678 14.8782C45.8678 14.8782 45.8678 14.8782 45.8678 14.8782C45.8678 14.8782 45.8678 14.8782 45.8678 14.8782C45.8678 14.8782 45.8677 14.8782 45.8677 14.8782C45.8677 14.8782 45.8677 14.8782 45.8677 14.8782C45.8677 14.8782 45.8677 14.8782 45.8677 14.8782C45.8677 14.8782 45.8677 14.8782 45.8676 14.8782C45.8676 14.8782 45.8676 14.8782 45.8676 14.8782C45.8676 14.8782 45.8676 14.8782 45.8676 14.8782C45.8676 14.8782 45.8676 14.8782 45.8675 14.8782C45.8675 14.8782 45.8675 14.8782 45.8675 14.8782C45.8675 14.8782 45.8675 14.8782 45.8675 14.8782C45.8675 14.8782 45.8675 14.8782 45.8675 14.8782C45.8674 14.8782 45.8674 14.8782 45.8674 14.8782C45.8674 14.8782 45.8674 14.8782 45.8674 14.8782C45.8674 14.8782 45.8674 14.8782 45.8674 14.8782C45.8673 14.8782 45.8673 14.8782 45.8673 14.8782C45.8673 14.8782 45.8673 14.8782 45.8673 14.8782C45.8673 14.8782 45.8673 14.8782 45.8673 14.8782C45.8673 14.8782 45.8672 14.8782 45.8672 14.8782C45.8672 14.8782 45.8672 14.8782 45.8672 14.8782C45.8672 14.8782 45.8672 14.8782 45.8672 14.8782C45.8672 14.8782 45.8671 14.8782 45.8671 14.8782C45.8671 14.8782 45.8671 14.8782 45.8671 14.8782C45.8671 14.8782 45.8671 14.8782 45.8671 14.8782C45.8671 14.8782 45.8671 14.8782 45.867 14.8782C45.867 14.8782 45.867 14.8782 45.867 14.8782C45.867 14.8782 45.867 14.8782 45.867 14.8782C45.867 14.8782 45.867 14.8782 45.867 14.8782C45.8669 14.8782 45.8669 14.8782 45.8669 14.8782C45.8669 14.8782 45.8669 14.8782 45.8669 14.8782C45.8669 14.8782 45.8669 14.8782 45.8669 14.8782C45.8669 14.8782 45.8668 14.8782 45.8668 14.8782C45.8668 14.8782 45.8668 14.8782 45.8668 14.8782C45.8668 14.8782 45.8668 14.8782 45.8668 14.8782C45.8668 14.8782 45.8667 14.8782 45.8667 14.8782C45.8667 14.8782 45.8667 14.8782 45.8667 14.8782C45.8667 14.8782 45.8667 14.8782 45.8667 14.8782C45.8667 14.8782 45.8667 14.8782 45.8666 14.8782C45.8666 14.8782 45.8666 14.8782 45.8666 14.8782C45.8666 14.8782 45.8666 14.8782 45.8666 14.8782C45.8666 14.8782 45.8666 14.8782 45.8666 14.8782C45.8665 14.8782 45.8665 14.8782 45.8665 14.8782C45.8665 14.8782 45.8665 14.8782 45.8665 14.8782C45.8665 14.8782 45.8665 14.8782 45.8665 14.8782C45.8665 14.8782 45.8664 14.8782 45.8664 14.8782C45.8664 14.8782 45.8664 14.8782 45.8664 14.8782C45.8664 14.8782 45.8664 14.8782 45.8664 14.8782C45.8664 14.8782 45.8664 14.8782 45.8664 14.8782C45.8663 14.8782 45.8663 14.8782 45.8663 14.8782C45.8663 14.8782 45.8663 14.8782 45.8663 14.8782C45.8663 14.8782 45.8663 14.8782 45.8663 14.8782C45.8663 14.8782 45.8662 14.8782 45.8662 14.8782C45.8662 14.8782 45.8662 14.8782 45.8662 14.8782C45.8662 14.8782 45.8662 14.8782 45.8662 14.8782C45.8662 14.8782 45.8662 14.8782 45.8661 14.8782C45.8661 14.8782 45.8661 14.8782 45.8661 14.8782C45.8661 14.8782 45.8661 14.8782 45.8661 14.8782C45.8661 14.8782 45.8661 14.8782 45.8661 14.8782C45.866 14.8782 45.866 14.8782 45.866 14.8782C45.866 14.8782 45.866 14.8782 45.866 14.8782C45.866 14.8782 45.866 14.8782 45.866 14.8782C45.866 14.8782 45.866 14.8782 45.8659 14.8782C45.8659 14.8782 45.8659 14.8782 45.8659 14.8782C45.8659 14.8782 45.8659 14.8782 45.8659 14.8782C45.8659 14.8782 45.8659 14.8782 45.8659 14.8782C45.8658 14.8782 45.8658 14.8782 45.8658 14.8782C45.8658 14.8782 45.8658 14.8782 45.8658 14.8782C45.8658 14.8782 45.8658 14.8782 45.8658 14.8782C45.8658 14.8782 45.8658 14.8782 45.8657 14.8782C45.8657 14.8782 45.8657 14.8782 45.8657 14.8782C45.8657 14.8782 45.8657 14.8782 45.8657 14.8782C45.8657 14.8782 45.8657 14.8782 45.8657 14.8782C45.8657 14.8782 45.8656 14.8782 45.8656 14.8782C45.8656 14.8782 45.8656 14.8782 45.8656 14.8782C45.8656 14.8782 45.8656 14.8782 45.8656 14.8782C45.8656 14.8782 45.8656 14.8782 45.8655 14.8782C45.8655 14.8782 45.8655 14.8782 45.8655 14.8782C45.8655 14.8782 45.8655 14.8782 45.8655 14.8782C45.8655 14.8782 45.8655 14.8782 45.8655 14.8782C45.8655 14.8782 45.8654 14.8782 45.8654 14.8782C45.8654 14.8782 45.8654 14.8782 45.8654 14.8782C45.8654 14.8782 45.8654 14.8782 45.8654 14.8782C45.8654 14.8782 45.8654 14.8782 45.8654 14.8782C45.8653 14.8782 45.8653 14.8782 45.8653 14.8782C45.8653 14.8782 45.8653 14.8782 45.8653 14.8782C45.8653 14.8782 45.8653 14.8782 45.8653 14.8782C45.8653 14.8782 45.8653 14.8782 45.8653 14.8782C45.8652 14.8782 45.8652 14.8782 45.8652 14.8782C45.8652 14.8782 45.8652 14.8782 45.8652 14.8782C45.8652 14.8782 45.8652 14.8782 45.8652 14.8782C45.8652 14.8782 45.8652 14.8782 45.8651 14.8782C45.8651 14.8782 45.8651 14.8782 45.8651 14.8782C45.8651 14.8782 45.8651 14.8782 45.8651 14.8782C45.8651 14.8782 45.8651 14.8782 45.8651 14.8782C45.8651 14.8782 45.865 14.8782 45.865 14.8782C45.865 14.8782 45.865 14.8782 45.865 14.8782C45.865 14.8782 45.865 14.8782 45.865 14.8782C45.865 14.8782 45.865 14.8782 45.865 14.8782C45.865 14.8782 45.8649 14.8782 45.8649 14.8782C45.8649 14.8782 45.8649 14.8782 45.8649 14.8782C45.8649 14.8782 45.8649 14.8782 45.8649 14.8782C45.8649 14.8782 45.8649 14.8782 45.8649 14.8782C45.8648 14.8782 45.8648 14.8782 45.8648 14.8782C45.8648 14.8782 45.8648 14.8782 45.8648 14.8782C45.8648 14.8782 45.8648 14.8782 45.8648 14.8782C45.8648 14.8782 45.8648 14.8782 45.8648 14.8782C45.8647 14.8782 45.8647 14.8782 45.8647 14.8782C45.8647 14.8782 45.8647 14.8782 45.8647 14.8782C45.8647 14.8782 45.8647 14.8782 45.8647 14.8782C45.8647 14.8782 45.8647 14.8782 45.8647 14.8782C45.8646 14.8782 45.8646 14.8782 45.8646 14.8782C45.8646 14.8782 45.8646 14.8782 45.8646 14.8782C45.8646 14.8782 45.8646 14.8782 45.8646 14.8782C45.8646 14.8782 45.8646 14.8782 45.8646 14.8782C45.8645 14.8782 45.8645 14.8782 45.8645 14.8782C45.8645 14.8782 45.8645 14.8782 45.8645 14.8782C45.8645 14.8782 45.8645 14.8782 45.8645 14.8782C45.8645 14.8782 45.8645 14.8782 45.8645 14.8782C45.8644 14.8782 45.8644 14.8782 45.8644 14.8782C45.8644 14.8782 45.8644 14.8782 45.8644 14.8782C45.8644 14.8782 45.8644 14.8782 45.8644 14.8782C45.8644 14.8782 45.8644 14.8782 45.8644 14.8782C45.8644 14.8782 45.8643 14.8782 45.8643 14.8782C45.8643 14.8782 45.8643 14.8782 45.8643 14.8782C45.8643 14.8782 45.8643 14.8782 45.8643 14.8782C45.8643 14.8782 45.8643 14.8782 45.8643 14.8782C45.8643 14.8782 45.8643 14.8782 45.8642 14.8782C45.8642 14.8782 45.8642 14.8782 45.8642 14.8782C45.8642 14.8782 45.8642 14.8782 45.8642 14.8782V16.2782ZM45.9091 16.2776C47.1221 16.2274 48.4779 16.1795 49.5636 16.3993C50.1019 16.5083 50.5133 16.6725 50.7936 16.8874C51.0532 17.0865 51.2183 17.3406 51.2679 17.7119L52.6555 17.5265C52.554 16.7666 52.1816 16.1876 51.6455 15.7765C51.13 15.3811 50.4874 15.1579 49.8414 15.0271C48.5585 14.7674 47.0246 14.8302 45.8511 14.8788L45.9091 16.2776ZM51.262 17.5997C51.1263 22.4574 51.1623 27.2885 51.2938 32.1389L52.6933 32.1009C52.5623 27.2684 52.5267 22.464 52.6614 17.6388L51.262 17.5997ZM51.2938 32.1383C51.3575 34.5614 51.4249 36.9704 51.4407 39.3827L52.8407 39.3735C52.8247 36.9444 52.7569 34.5199 52.6933 32.1015L51.2938 32.1383ZM51.4407 39.3825C51.4486 40.6559 51.4447 41.9266 51.417 43.1997L52.8167 43.2301C52.8447 41.9401 52.8487 40.6556 52.8407 39.3738L51.4407 39.3825ZM51.417 43.2019C51.4124 43.4479 51.4283 43.737 51.4461 44.0197C51.4644 44.3127 51.4854 44.6078 51.4969 44.9034L52.8959 44.849C52.8835 44.5315 52.8607 44.2096 52.8433 43.932C52.8252 43.6441 52.8133 43.4091 52.8167 43.2279L51.417 43.2019ZM52.1439 44.1782C51.9024 44.1963 51.6604 44.2175 51.4227 44.2382C51.1836 44.259 50.9483 44.2794 50.7128 44.2968L50.8161 45.693C51.0619 45.6748 51.3059 45.6536 51.5441 45.6329C51.7837 45.612 52.0171 45.5917 52.2489 45.5742L52.1439 44.1782Z" fill="#1E1E1E" mask="url(#path-1-inside-1_1604_13)"/>
<path d="M36.2968 24.735L36.2967 24.7349C33.387 19.6561 26.9828 19.166 22.2127 21.9828L22.2124 21.983C19.6705 23.4795 17.6321 25.6534 17.0846 28.5419L36.2968 24.735ZM36.2968 24.735C39.1838 29.7716 36.6424 35.3808 31.8907 38.2152C27.4904 40.8383 22.031 41.1584 18.7057 36.9283M36.2968 24.735L18.7057 36.9283M18.7057 36.9283C17.1104 34.5897 16.5557 31.3372 17.0846 28.542L18.7057 36.9283ZM31.4285 37.6202L31.4288 37.62C33.0307 36.4536 33.6645 34.4553 33.7161 32.4601C33.7678 30.4605 33.2396 28.3828 32.4213 26.9577L32.4213 26.9577C31.4254 25.2236 29.8958 23.8499 28.0464 23.0641L28.0461 23.0639C27.3871 22.7848 26.4553 22.4555 25.5076 22.2848C24.5741 22.1166 23.556 22.089 22.7742 22.4892C22.2802 22.742 21.9118 23.182 21.6364 23.6874C21.3603 24.1942 21.1646 24.7906 21.0268 25.3943C20.7515 26.6012 20.6957 27.8918 20.7265 28.6881C20.808 30.8321 21.3792 32.9605 22.6133 34.7584L22.6195 34.7674L22.6263 34.7761C23.4938 35.8841 25.0396 37.0389 26.6693 37.7027C28.2834 38.3601 30.1041 38.5823 31.4285 37.6202Z" fill="white" stroke="#1E1E1E" stroke-width="0.7"/>
<path d="M25.0498 5.85172C28.0766 5.90314 31.0995 5.8715 34.1224 5.74888C35.2242 5.70537 34.1384 6.74961 33.7963 7.0344M25.0498 5.85172L21.4509 8.32506C21.5867 8.1034 21.8909 7.82345 22.0834 7.66361L22.0839 7.66317C22.4662 7.34442 22.9758 6.9688 23.5141 6.67712C24.0602 6.38119 24.5965 6.19343 25.0433 6.20166L25.0438 6.20167C28.0771 6.2532 31.1067 6.22149 34.1366 6.09859L34.1225 5.74932L34.1363 6.09861C34.1579 6.09775 34.1774 6.09746 34.1951 6.09759M25.0498 5.85172C23.9758 5.83194 22.6473 6.73774 21.8598 7.39434L25.0498 5.85172ZM33.7963 7.0344L33.5726 6.76523M33.7963 7.0344L33.5723 6.76542C33.5724 6.76536 33.5725 6.76529 33.5726 6.76523M33.7963 7.0344C32.9729 7.71869 31.7121 8.53351 30.6063 8.57702L21.5399 8.32992C24.5603 8.38122 27.5763 8.34964 30.5921 8.22731L30.5926 8.22729C31.0713 8.20845 31.6093 8.0196 32.1434 7.73671C32.6732 7.45608 33.1742 7.09629 33.5726 6.76523M33.5726 6.76523C33.7361 6.62908 34.0476 6.33449 34.1951 6.09759M34.1951 6.09759C34.2723 6.09817 34.3128 6.10688 34.3284 6.11209C34.3303 6.11271 34.3311 6.11303 34.3312 6.113C34.3312 6.1128 34.2959 6.09738 34.2709 6.04702C34.2496 6.00412 34.2547 5.97309 34.2548 5.97304C34.2548 5.97303 34.2546 5.97442 34.2538 5.97741C34.2497 5.99411 34.2359 6.03039 34.2015 6.08712C34.1994 6.0906 34.1972 6.09409 34.1951 6.09759Z" fill="white" stroke="#1E1E1E" stroke-width="0.7"/>
</svg>
