<svg width="18" height="18" viewBox="0 0 18 18" fill="none" xmlns="http://www.w3.org/2000/svg">
<g clip-path="url(#clip0_968_38)">
<path d="M17.735 8.97496C17.735 13.815 13.81 17.74 8.97002 17.74C4.13002 17.74 0.205017 13.815 0.205017 8.97496C0.205017 4.13496 4.13002 0.209961 8.97002 0.209961C13.81 0.209961 17.735 4.13496 17.735 8.97496Z" fill="#CA2127"/>
<path d="M8.23502 3.14484C5.76502 3.40984 3.30502 5.30984 3.20502 8.02984C3.14002 9.68984 3.83502 10.9348 5.49502 11.2848C5.68502 10.4998 5.72002 10.0748 5.72002 10.0748C5.72002 10.0748 4.99002 9.37484 4.91502 8.92984C4.30502 5.34984 9.25002 2.90484 11.845 5.40484C13.635 7.13984 12.455 12.4748 9.56502 11.9198C6.79502 11.3898 10.92 7.14484 8.71002 6.30984C6.91502 5.62984 5.96002 8.38484 6.81002 9.74984C6.31002 12.0998 5.23502 14.3148 5.67002 17.2598C7.08502 16.2848 7.56002 14.4148 7.95002 12.4648C8.66002 12.8748 9.04002 13.3048 9.94502 13.3698C13.285 13.6148 15.15 10.1948 14.695 7.03484C14.285 4.23484 11.355 2.80984 8.23502 3.14484Z" fill="white"/>
</g>
<defs>
<clipPath id="clip0_968_38">
<rect width="18" height="18" fill="white"/>
</clipPath>
</defs>
</svg>
