<svg width="18" height="18" viewBox="0 0 18 18" fill="none" xmlns="http://www.w3.org/2000/svg">
<g clip-path="url(#clip0_1138_2)">
<path d="M18 3.41768C17.338 3.71099 16.6269 3.90917 15.8794 3.99875C16.642 3.54215 17.2271 2.81755 17.5029 1.95505C16.7895 2.37839 15.9991 2.68596 15.158 2.85085C14.4842 2.13424 13.525 1.68555 12.4627 1.68555C10.4238 1.68555 8.77011 3.33919 8.77011 5.37971C8.77021 5.6625 8.80212 5.94439 8.86523 6.22004C5.79496 6.06543 3.07504 4.59489 1.25333 2.36095C0.936265 2.90794 0.753895 3.54215 0.753895 4.21755C0.753895 5.49859 1.40635 6.62986 2.39646 7.29182C1.81005 7.27314 1.23658 7.11468 0.723779 6.82963V6.87719C0.723779 8.66639 1.99614 10.1591 3.68626 10.4984C3.36912 10.584 3.04204 10.6272 2.71356 10.6269C2.4803 10.6271 2.24753 10.6053 2.01835 10.5619C2.48844 12.0284 3.85196 13.097 5.46836 13.1256C4.20391 14.1165 2.61131 14.7071 0.881534 14.7071C0.583465 14.7071 0.289349 14.6896 0 14.6555C1.63465 15.7044 3.57529 16.3148 5.66019 16.3148C12.454 16.3148 16.168 10.6879 16.168 5.80779C16.168 5.64925 16.164 5.48909 16.1569 5.33056C16.8783 4.80892 17.5045 4.15968 17.9984 3.42005L18 3.41768Z" fill="#1DA1F2"/>
</g>
<defs>
<clipPath id="clip0_1138_2">
<rect width="18" height="18" fill="white"/>
</clipPath>
</defs>
</svg>
