<?xml version="1.0" encoding="utf-8"?>
<!-- Generator: Adobe Illustrator 24.0.0, SVG Export Plug-In . SVG Version: 6.00 Build 0)  -->
<svg version="1.1" id="Layer_1" xmlns="http://www.w3.org/2000/svg" xmlns:xlink="http://www.w3.org/1999/xlink" x="0px" y="0px"
	 viewBox="0 0 180.73 118.95" style="enable-background:new 0 0 180.73 118.95;" xml:space="preserve">
<style type="text/css">
	.st0{fill:#FFFFFF;}
</style>
<g>
	<path class="st0" d="M88.28,23.42l-2.04-5.19c-0.91-2.27-1.62-3.97-2.13-5.11c-0.68-0.57-3.01-1.62-6.98-3.15
		C74,8.72,71.76,7.78,70.4,7.16c-1.36-0.62-2.04-1.19-2.04-1.7c0-0.11,0.09-0.4,0.26-0.85c0.17-0.45,0.28-0.74,0.34-0.85h54.65
		c0.06,0.17,0.16,0.46,0.3,0.85c0.14,0.4,0.21,0.68,0.21,0.85c0,1.31-0.61,2.16-1.83,2.55c-1.22,0.4-3.14,0.71-5.75,0.94
		c-2.89,0.23-5.08,0.61-6.55,1.15c-1.48,0.54-2.21,1.66-2.21,3.36c0,1.19,3.19,11.83,9.58,31.92s10.6,33.09,12.64,38.99l2.38-7.24
		c13.28-39.67,19.92-60.87,19.92-63.59c0-1.76-0.85-2.99-2.55-3.7c-1.7-0.71-4.2-1.29-7.49-1.75c-1.36-0.17-2.7-0.4-4-0.68
		c-1.31-0.28-2.33-0.62-3.07-1.02l-0.51-0.94l0.51-1.7h44.01c0.23,0,0.51,0.1,0.85,0.3c0.34,0.2,0.57,0.41,0.68,0.64
		c0,0.85-0.65,1.52-1.96,2c-1.31,0.48-3.41,1.04-6.3,1.66c-4.26,0.91-7.63,1.89-10.13,2.94c-2.5,1.05-4.14,2.65-4.94,4.81
		c-0.63,1.76-1.28,3.79-1.96,6.09c-0.68,2.3-1.16,3.93-1.45,4.9c-0.34,1.36-0.63,2.38-0.85,3.06l-25.45,84.36
		c-0.34,1.13-1.53,1.7-3.58,1.7c-0.91,0-1.66-0.11-2.26-0.34c-0.6-0.23-1.06-0.68-1.4-1.36c-1.08-2.1-2.16-5.19-3.24-9.28
		l-1.53-4.85l-24.18-70.4L69.47,93.39c-0.51,1.42-1.22,3.72-2.13,6.9c-1.08,3.58-1.99,6.38-2.72,8.43
		c-0.74,2.04-1.56,3.97-2.47,5.79c-0.34,0.74-0.8,1.23-1.36,1.49c-0.57,0.26-1.31,0.38-2.21,0.38c-1.7,0-3.15-1.19-4.34-3.58
		c-1.19-2.38-2.38-5.45-3.58-9.19l-0.85-2.72L38.14,69.64c-6.3-17.14-12.68-34.16-19.15-51.08c-0.91-2.33-2.23-4.07-3.96-5.24
		c-1.73-1.16-4.04-2.28-6.94-3.36c-2.16-0.79-3.8-1.48-4.94-2.04C2.02,7.36,0.97,6.59,0,5.63l0.6-1.87h54.74
		c0.06,0.17,0.14,0.44,0.26,0.81c0.11,0.37,0.17,0.67,0.17,0.89c0,1.14-0.55,1.92-1.66,2.34c-1.11,0.43-2.77,0.78-4.98,1.06
		c-2.72,0.34-4.81,0.84-6.26,1.49c-1.45,0.65-2.17,1.86-2.17,3.62c0,0.8,3.05,9.82,9.15,27.07c6.1,17.25,11.28,31.75,15.54,43.5
		L88.28,23.42z"/>
</g>
<g>
</g>
<g>
</g>
<g>
</g>
<g>
</g>
<g>
</g>
<g>
</g>
<g>
</g>
<g>
</g>
<g>
</g>
<g>
</g>
<g>
</g>
<g>
</g>
<g>
</g>
<g>
</g>
<g>
</g>
</svg>
