<svg width="138" height="140" viewBox="0 0 138 140" fill="none" xmlns="http://www.w3.org/2000/svg">
<path d="M0.556063 65.5L0.44717 64.0592C3.47883 63.597 5.17856 63.3379 8.21023 62.8758L8.20817 62.8486L0.341358 62.6591L0.218083 61.028L7.97806 59.8039L7.976 59.7767L0.112272 59.6279L0.014679 58.3366L10.2537 58.6286L10.3945 60.4908L3.59097 61.6243L3.59303 61.6515L10.4993 61.8773L10.6493 63.8619L0.556063 65.5Z" fill="#A2A5B1"/>
<path d="M1.76805 51.8352L2.55821 47.8146L3.99012 48.0612L3.48969 50.6075L6.13872 51.0636L6.53643 49.0399L7.96834 49.2864L7.57063 51.3101L10.6492 51.8401L11.1497 49.2937L12.5816 49.5402L11.7914 53.5608L1.76805 51.8352Z" fill="#A2A5B1"/>
<path d="M6.68966 39.0929L7.32684 37.7177L15.3413 40.9707L16.3897 38.7078L17.7255 39.25L16.0398 42.888L6.68966 39.0929Z" fill="#A2A5B1"/>
<path d="M23.473 30.5828C23.0173 31.16 22.4926 31.4805 21.8991 31.5444C21.3113 31.601 20.6974 31.4079 20.0573 30.9651L15.6548 27.9199C15.0147 27.4772 14.6373 26.9845 14.5226 26.442C14.4136 25.8922 14.587 25.3287 15.0427 24.7516C15.4985 24.1744 16.0202 23.8575 16.608 23.801C17.2016 23.7371 17.8184 23.9265 18.4585 24.3693L19.3249 24.9686L18.425 26.1083L17.4766 25.4523C16.9692 25.1013 16.5568 25.1268 16.2396 25.5286C15.9223 25.9304 16.0173 26.3068 16.5247 26.6577L21.1028 29.8245C21.6024 30.17 22.0108 30.1419 22.3281 29.7401C22.6454 29.3382 22.5542 28.9646 22.0547 28.619L20.8018 27.7524L21.7018 26.6127L22.8609 27.4145C23.501 27.8572 23.8755 28.3535 23.9845 28.9033C24.0993 29.4458 23.9288 30.0057 23.473 30.5828Z" fill="#A2A5B1"/>
<path d="M32.2508 21.7483C31.6466 22.2192 31.0414 22.4191 30.4349 22.348C29.8285 22.2768 29.2644 21.9481 28.7426 21.3617L25.3138 17.5084C24.792 16.922 24.5486 16.3433 24.5836 15.7722C24.6186 15.2011 24.9381 14.6801 25.5423 14.2092C26.1464 13.7383 26.7517 13.5384 27.3581 13.6095C27.9646 13.6806 28.5287 14.0094 29.0504 14.5957L32.4792 18.4491C33.001 19.0354 33.2444 19.6142 33.2094 20.1853C33.1744 20.7564 32.8549 21.2774 32.2508 21.7483ZM31.319 20.7012C31.7442 20.3698 31.7424 19.9633 31.3138 19.4816L27.7546 15.4817C27.326 15 26.8991 14.9249 26.474 15.2563C26.0489 15.5877 26.0506 15.9942 26.4792 16.4759L30.0384 20.4758C30.467 20.9574 30.8939 21.0326 31.319 20.7012Z" fill="#A2A5B1"/>
<path d="M37.7501 6.51792L39.8285 5.62745L43.7912 11.4379L43.8177 11.4266L41.7083 4.82204L43.7867 3.93156L48.0287 12.6048L46.6519 13.1946L43.4401 6.62778L43.4137 6.63913L45.5664 13.6597L44.3485 14.1815L40.0776 8.06843L40.0512 8.07977L43.263 14.6466L41.9921 15.1911L37.7501 6.51792Z" fill="#A2A5B1"/>
<path d="M54.9988 0.718874L59.2985 0L59.5545 1.34144L56.8314 1.79673L57.305 4.2784L59.4692 3.91656L59.7252 5.25801L57.561 5.61984L58.1115 8.50394L60.8346 8.04865L61.0907 9.3901L56.7909 10.109L54.9988 0.718874Z" fill="#A2A5B1"/>
<path d="M82.7815 2.07655L81.1502 1.72345L81.4783 0.395814L86.3012 1.43975L85.9731 2.76739L84.3419 2.41429L82.3735 10.3801L80.8132 10.0424L82.7815 2.07655Z" fill="#A2A5B1"/>
<path d="M93.9113 14.4093C93.2093 14.0779 92.7726 13.6377 92.601 13.0887C92.4295 12.5396 92.5273 11.9245 92.8945 11.2431L95.3074 6.76581C95.6746 6.08448 96.1451 5.64523 96.7188 5.44805C97.2925 5.25086 97.9304 5.31797 98.6323 5.64937C99.3343 5.98077 99.771 6.42098 99.9426 6.97002C100.114 7.51905 100.016 8.13424 99.6492 8.81557L97.2362 13.2929C96.869 13.9742 96.3985 14.4135 95.8248 14.6106C95.2511 14.8078 94.6133 14.7407 93.9113 14.4093ZM94.567 13.1927C95.061 13.4259 95.4588 13.2626 95.7604 12.703L98.2651 8.05533C98.5668 7.49567 98.4706 7.09923 97.9766 6.86603C97.4827 6.63282 97.0849 6.79605 96.7832 7.35572L94.2785 12.0034C93.9769 12.563 94.073 12.9595 94.567 13.1927Z" fill="#A2A5B1"/>
<path d="M119.343 20.4638L120.291 21.6034L114.55 26.6349L114.568 26.6564L121.213 22.7107L122.286 24.0008L116.572 29.0646L116.59 29.0861L123.208 25.1082L124.058 26.1295L115.382 31.2274L114.156 29.7545L119.131 25.2649L119.113 25.2434L113.244 28.6579L111.938 27.0883L119.343 20.4638Z" fill="#A2A5B1"/>
<path d="M129.578 35.1176L131.315 38.8681L129.98 39.4103L128.879 37.0349L126.408 38.0379L127.283 39.9257L125.947 40.4678L125.072 38.5801L122.2 39.7457L123.301 42.121L121.965 42.6632L120.227 38.9126L129.578 35.1176Z" fill="#A2A5B1"/>
<path d="M134.558 48.6765L134.97 50.9331C135.104 51.6674 134.994 52.2518 134.64 52.6863C134.286 53.1208 133.702 53.403 132.889 53.5331L127.809 54.3458C126.996 54.4759 126.345 54.3911 125.857 54.0913C125.369 53.7915 125.058 53.2744 124.924 52.5401L124.512 50.2836L134.558 48.6765ZM126.354 52.2837C126.398 52.5255 126.508 52.6968 126.684 52.7977C126.862 52.9075 127.123 52.9349 127.467 52.8798L132.691 52.0441C133.036 51.989 133.272 51.8821 133.401 51.7233C133.531 51.5734 133.574 51.3776 133.53 51.1358L133.392 50.3836L126.217 51.5315L126.354 52.2837Z" fill="#A2A5B1"/>
<path d="M126.815 60.5492C126.88 59.8159 127.152 59.272 127.632 58.9175C128.112 58.5629 128.758 58.4174 129.57 58.4809L134.91 58.8978C135.722 58.9613 136.333 59.205 136.744 59.629C137.154 60.0531 137.261 61.365 137.261 61.365C137.261 61.365 136.923 62.6422 136.443 62.9968C135.964 63.3513 135.318 63.4968 134.505 63.4334L129.166 63.0164C128.353 62.953 127.742 62.7092 127.332 62.2852C126.922 61.8612 126.749 61.2825 126.815 60.5492ZM128.265 60.6625C128.219 61.1786 128.53 61.4626 129.198 61.5147L134.74 61.9476C135.407 61.9997 135.764 61.7677 135.81 61.2517C135.856 60.7357 135.545 60.4516 134.878 60.3995L129.336 59.9667C128.668 59.9146 128.311 60.1465 128.265 60.6625Z" fill="#A2A5B1"/>
<path d="M136.705 74.5L136.814 75.9408L129.051 77.1242L129.053 77.1514C132.125 77.2254 133.847 77.2669 136.92 77.3409L137.043 78.972L129.283 80.1961L129.285 80.2233C132.356 80.2814 134.078 80.314 137.149 80.3721L137.246 81.6634L127.007 81.3714L126.866 79.5092L133.67 78.3757L133.668 78.3485L126.762 78.1227L126.612 76.1381L136.705 74.5Z" fill="#A2A5B1"/>
<path d="M135.493 89.1648L134.703 93.1854L133.271 92.9388L133.771 90.3925L131.122 89.9364L130.724 91.9601L129.293 91.7136L129.69 89.6899L126.612 89.1599L126.111 91.7063L124.679 91.4598L125.469 87.4392L135.493 89.1648Z" fill="#A2A5B1"/>
<path d="M130.571 100.907L129.934 102.282L121.92 99.0293L120.871 101.292L119.535 100.75L121.221 97.112L130.571 100.907Z" fill="#A2A5B1"/>
<path d="M113.788 109.417C114.244 108.84 114.768 108.519 115.362 108.456C115.95 108.399 116.564 108.592 117.204 109.035L121.606 112.08C122.246 112.523 122.624 113.015 122.738 113.558C122.847 114.108 122.674 114.671 122.218 115.248C121.762 115.826 121.241 116.142 120.653 116.199C120.059 116.263 119.443 116.073 118.802 115.631L117.936 115.031L118.836 113.892L119.784 114.548C120.292 114.899 120.704 114.873 121.021 114.471C121.339 114.07 121.244 113.693 120.736 113.342L116.158 110.176C115.659 109.83 115.25 109.858 114.933 110.26C114.616 110.662 114.707 111.035 115.206 111.381L116.459 112.248L115.559 113.387L114.4 112.586C113.76 112.143 113.385 111.646 113.276 111.097C113.162 110.554 113.332 109.994 113.788 109.417Z" fill="#A2A5B1"/>
<path d="M105.01 118.252C105.614 117.781 106.22 117.581 106.826 117.652C107.432 117.723 107.997 118.052 108.518 118.638L111.947 122.492C112.469 123.078 112.712 123.657 112.677 124.228C112.642 124.799 112.323 125.32 111.719 125.791C111.115 126.262 110.509 126.462 109.903 126.39C109.296 126.319 108.732 125.991 108.21 125.404L104.782 121.551C104.26 120.965 104.017 120.386 104.051 119.815C104.086 119.244 104.406 118.723 105.01 118.252ZM105.942 119.299C105.517 119.63 105.518 120.037 105.947 120.518L109.506 124.518C109.935 125 110.362 125.075 110.787 124.744C111.212 124.412 111.21 124.006 110.782 123.524L107.222 119.524C106.794 119.043 106.367 118.967 105.942 119.299Z" fill="#A2A5B1"/>
<path d="M99.5108 133.482L97.4324 134.373L93.4697 128.562L93.4432 128.573L95.5526 135.178L93.4742 136.068L89.2322 127.395L90.609 126.805L93.8208 133.372L93.8472 133.361L91.6945 126.34L92.9124 125.818L97.1833 131.932L97.2097 131.92L93.9979 125.353L95.2688 124.809L99.5108 133.482Z" fill="#A2A5B1"/>
<path d="M82.2621 139.281L77.9624 140L77.7064 138.659L80.4295 138.203L79.9559 135.722L77.7917 136.083L77.5357 134.742L79.6999 134.38L79.1494 131.496L76.4263 131.951L76.1702 130.61L80.47 129.891L82.2621 139.281Z" fill="#A2A5B1"/>
<path d="M54.4794 137.923L56.1107 138.277L55.7826 139.604L50.9597 138.56L51.2878 137.233L52.919 137.586L54.8874 129.62L56.4477 129.958L54.4794 137.923Z" fill="#A2A5B1"/>
<path d="M43.3496 125.591C44.0516 125.922 44.4883 126.362 44.6599 126.911C44.8314 127.46 44.7336 128.076 44.3664 128.757L41.9535 133.234C41.5863 133.916 41.1158 134.355 40.5421 134.552C39.9684 134.749 39.3305 134.682 38.6286 134.351C37.9266 134.019 37.4899 133.579 37.3183 133.03C37.1467 132.481 37.2446 131.866 37.6117 131.184L40.0247 126.707C40.3919 126.026 40.8624 125.587 41.4361 125.389C42.0098 125.192 42.6476 125.259 43.3496 125.591ZM42.6939 126.807C42.1999 126.574 41.8021 126.737 41.5005 127.297L38.9958 131.945C38.6941 132.504 38.7903 132.901 39.2843 133.134C39.7782 133.367 40.176 133.204 40.4777 132.644L42.9824 127.997C43.284 127.437 43.1879 127.041 42.6939 126.807Z" fill="#A2A5B1"/>
<path d="M17.9179 119.536L16.9696 118.397L22.711 113.365L22.6931 113.344L16.0482 117.289L14.9746 115.999L20.6891 110.935L20.6713 110.914L14.0532 114.892L13.2033 113.871L21.879 108.773L23.1046 110.245L18.1303 114.735L18.1482 114.757L24.0171 111.342L25.3233 112.912L17.9179 119.536Z" fill="#A2A5B1"/>
<path d="M7.68321 104.882L5.94548 101.132L7.2812 100.59L8.38177 102.965L10.8529 101.962L9.97822 100.074L11.314 99.5322L12.1886 101.42L15.0605 100.254L13.9599 97.879L15.2956 97.3368L17.0334 101.087L7.68321 104.882Z" fill="#A2A5B1"/>
<path d="M2.70332 91.3235L2.29124 89.0669C2.15715 88.3326 2.26706 87.7482 2.62099 87.3137C2.97491 86.8792 3.55847 86.597 4.3717 86.4669L9.45203 85.6542C10.2653 85.5241 10.9159 85.6089 11.4039 85.9087C11.8919 86.2085 12.203 86.7256 12.3371 87.4599L12.7491 89.7164L2.70332 91.3235ZM10.9068 87.7163C10.8627 87.4745 10.7526 87.3032 10.5767 87.2023C10.399 87.0925 10.138 87.0651 9.79359 87.1202L4.56978 87.9559C4.22534 88.011 3.98886 88.1179 3.86031 88.2767C3.73012 88.4266 3.6871 88.6224 3.73126 88.8642L3.86862 89.6164L11.0442 88.4685L10.9068 87.7163Z" fill="#A2A5B1"/>
<path d="M10.4464 79.4508C10.381 80.1841 10.1085 80.728 9.62886 81.0825C9.14922 81.4371 8.50314 81.5826 7.69064 81.5191L2.35139 81.1022C1.53889 81.0387 0.927521 80.795 0.517288 80.371C0.107056 79.9469 0 78.635 0 78.635C0 78.635 0.337875 77.3578 0.81752 77.0032C1.29716 76.6487 1.94324 76.5032 2.75574 76.5666C4.84084 76.7294 6.00987 76.8207 8.09497 76.9836C8.90747 77.047 9.51884 77.2908 9.92908 77.7148C10.3393 78.1388 10.5117 78.7175 10.4464 79.4508ZM8.99548 79.3375C9.04149 78.8214 8.73079 78.5374 8.06339 78.4853L2.521 78.0524C1.85359 78.0003 1.4969 78.2323 1.4509 78.7483C1.40489 79.2643 1.71559 79.5484 2.383 79.6005L7.92538 80.0333C8.59279 80.0854 8.94948 79.8535 8.99548 79.3375Z" fill="#A2A5B1"/>
</svg>