<?xml version="1.0" encoding="utf-8"?>
<!-- Generator: Adobe Illustrator 23.0.2, SVG Export Plug-In . SVG Version: 6.00 Build 0)  -->
<svg version="1.1" id="Layer_1" xmlns="http://www.w3.org/2000/svg" xmlns:xlink="http://www.w3.org/1999/xlink" x="0px" y="0px"
	 viewBox="0 0 512 512" style="enable-background:new 0 0 512 512;" xml:space="preserve">
<style type="text/css">
	.st0{fill:#FFFFFF;}
</style>
<g>
	<path class="st0" d="M256.5,0c-10,0-20,0.8-29.7,2.5c-4.1,0.7-6.8,4.6-6.1,8.7c0.7,4.1,4.6,6.8,8.7,6.1c8.9-1.5,18.1-2.3,27.2-2.3
		c87.9,0,159.5,71.5,159.5,159.5c0,36.9-13.6,73.3-38.2,102.5c-7.6,9-16.6,16.7-25.4,24.2c-18.6,15.9-37.8,32.3-43.5,60.7H307
		c0.3-2.7,0.7-6.3,1.6-10.8c2.2-11,7.3-30,19.4-57.8c5.1-11.6,0.6-25.1-10.4-31.4c-6.4-3.7-14-4.3-20.9-1.8
		c-6.9,2.5-12.3,7.9-14.8,14.8l-0.6,1.6c-0.2,0.6-0.4,1.2-0.7,1.8c-19.4-5.4-38.6-2.8-48.6-0.7c-0.1-0.4-0.3-0.7-0.4-1.1l-0.6-1.6
		c-2.5-6.9-7.9-12.3-14.8-14.8c-6.9-2.5-14.5-1.9-20.9,1.8c-11,6.3-15.5,19.8-10.4,31.4c0.5,1.2,1,2.4,1.5,3.5c1.6,3.8,6,5.6,9.8,4
		c3.8-1.6,5.6-6,4-9.8c-0.5-1.2-1-2.4-1.6-3.6c-2-4.6-0.2-9.9,4.1-12.4c2.5-1.4,5.6-1.7,8.3-0.7c2.7,1,4.9,3.1,5.9,5.9l0.6,1.6
		c0.9,2.4,1.8,4.8,2.7,7.3l9,27.5c3.8,13.2,7.2,28.2,9.5,45.4H221c-0.6-7.3-2.5-19.7-8.4-38.1c-1.3-3.9-5.5-6.1-9.4-4.9
		c-3.9,1.3-6.1,5.5-4.9,9.4c5.2,16.3,7,27.2,7.6,33.5h-1.8c-5.8-27.6-25.9-45.7-45.4-63.2c-9.3-8.3-18-16.2-25.2-25
		C109.6,244.6,97,210.3,97,174.5c0-32.5,9.7-63.8,28.1-90.4c18-26,42.9-46,72.2-57.7c3.8-1.5,5.7-5.9,4.2-9.7
		c-1.5-3.8-5.9-5.7-9.7-4.2c-32,12.8-59.3,34.6-79,63.1C92.6,104.7,82,138.9,82,174.5c0,39.3,13.8,76.9,39.9,108.8
		c7.9,9.7,17.5,18.3,26.8,26.6c18.4,16.6,35.9,32.3,40.7,55.2c-5.8,3.7-9.7,10.1-9.7,17.5V398c0,4.9,1.7,9.3,4.5,12.9
		c-2.8,3.5-4.5,8-4.5,12.9v15.4c0,9.4,6.3,17.3,14.8,19.9v4.1c0,27,22,48.9,48.9,48.9h25.8c27,0,48.9-22,48.9-48.9V459
		c8.6-2.5,14.8-10.5,14.8-19.9v-15.4c0-4.9-1.7-9.3-4.5-12.9c2.8-3.5,4.5-8,4.5-12.9v-15.4c0-7.4-3.9-13.8-9.7-17.5
		c4.6-23.5,20.5-37,38.6-52.5c9.2-7.9,18.8-16,27.1-25.9c26.9-31.9,41.8-71.7,41.8-112.1C430.9,78.3,352.7,0,256.5,0z M283.7,316.5
		l8.7-26.5c0-0.1,0.1-0.3,0.1-0.4c1-2.7,1.9-5.4,2.9-8l0.6-1.6c1-2.7,3.1-4.9,5.9-5.9c2.7-1,5.8-0.7,8.3,0.7
		c4.4,2.5,6.1,7.9,4.1,12.4c-10.4,24-17.4,45-20.6,62.4c-0.9,5-1.4,9-1.7,12.2h-17.8C276.4,344.7,279.9,329.8,283.7,316.5z
		 M237.1,291.9c8.7-1.6,23.7-3.3,38.5,0.6c-1.6,4.6-3.2,9.5-4.7,14.6h-28.8C240.5,301.7,238.8,296.7,237.1,291.9z M266.6,322
		c-3,11.9-5.7,25-7.6,39.8h-5.2c-1.9-14.8-4.5-28-7.6-39.8H266.6z M303.3,463.1c0,18.7-15.2,33.9-33.9,33.9h-25.8
		c-18.7,0-33.9-15.2-33.9-33.9v-3.2h93.7V463.1z M318.1,439.1c0,3.2-2.6,5.7-5.7,5.7H200.5c-3.2,0-5.7-2.6-5.7-5.7v-15.4
		c0-2.3,1.4-4.3,3.3-5.2c0.8,0.1,1.6,0.2,2.4,0.2h111.9c0.8,0,1.6-0.1,2.4-0.2c2,0.9,3.3,2.9,3.3,5.2V439.1z M318.1,398
		c0,2.3-1.4,4.3-3.3,5.2c-0.8-0.1-1.6-0.1-2.4-0.1H200.5c-0.8,0-1.6,0.1-2.4,0.1c-2-0.9-3.3-2.9-3.3-5.2v-15.4
		c0-3.2,2.6-5.7,5.7-5.7h111.9c3.2,0,5.7,2.6,5.7,5.7L318.1,398L318.1,398z"/>
</g>
</svg>
