<?xml version="1.0" encoding="utf-8"?>
<!-- Generator: Adobe Illustrator 23.0.2, SVG Export Plug-In . SVG Version: 6.00 Build 0)  -->
<svg version="1.1" id="Capa_1" xmlns="http://www.w3.org/2000/svg" xmlns:xlink="http://www.w3.org/1999/xlink" x="0px" y="0px"
	 viewBox="0 0 512 512" style="enable-background:new 0 0 512 512;" xml:space="preserve">
<style type="text/css">
	.st0{fill:#FFFFFF;}
</style>
<g>
	<g>
		<path class="st0" d="M326.6,133.1c13.8,0,25-11.2,25-25s-11.2-25-25-25s-25,11.2-25,25c0,5.6,1.9,10.8,5,15l-41.1,57.4
			c-2.5-0.8-5.1-1.2-7.8-1.2c-6.6,0-12.6,2.6-17,6.7l-27.4-15.5c0.4-1.7,0.6-3.5,0.6-5.3c0-13.8-11.2-25-25-25s-25,11.2-25,25
			c0,1.8,0.2,3.6,0.6,5.3l-27.4,15.5c-4.5-4.2-10.4-6.7-17-6.7c-13.8,0-25,11.2-25,25s11.2,25,25,25s25-11.2,25-25
			c0-1.8-0.2-3.6-0.6-5.3l27.4-15.5c4.5,4.2,10.4,6.7,17,6.7s12.6-2.6,17-6.7l27.4,15.5c-0.4,1.7-0.6,3.5-0.6,5.3
			c0,13.8,11.2,25,25,25c13.8,0,25-11.2,25-25c0-5.6-1.9-10.8-5-15l41.1-57.4C321.3,132.6,323.9,133.1,326.6,133.1z M326.6,98.1
			c5.5,0,10,4.5,10,10c0,5.5-4.5,10-10,10s-10-4.5-10-10C316.6,102.5,321.1,98.1,326.6,98.1z M120.1,214.2c-5.5,0-10-4.5-10-10
			s4.5-10,10-10s10,4.5,10,10S125.6,214.2,120.1,214.2z M189,175.1c-5.5,0-10-4.5-10-10c0-5.5,4.5-10,10-10s10,4.5,10,10
			C199,170.7,194.5,175.1,189,175.1z M257.8,214.2c-5.5,0-10-4.5-10-10s4.5-10,10-10c5.5,0,10,4.5,10,10S263.3,214.2,257.8,214.2z"
			/>
		<path class="st0" d="M418.8,377h-52.5H80.4H21.2c-3.4,0-6.2-2.8-6.2-6.2V61.3c0-3.4,2.8-6.2,6.2-6.2h35.4c4.1,0,7.5-3.4,7.5-7.5
			s-3.4-7.5-7.5-7.5H21.2C9.5,40.1,0,49.6,0,61.3v309.4C0,382.4,9.5,392,21.2,392h51.7v16.5c0,9.4,7.7,17.1,17.1,17.1h75.1l-35.3,69
			c-1.9,3.7-0.4,8.2,3.3,10.1c1.1,0.6,2.3,0.8,3.4,0.8c2.7,0,5.4-1.5,6.7-4.1l38.8-75.8h82.9l38.8,75.8c1.3,2.6,4,4.1,6.7,4.1
			c1.2,0,2.3-0.3,3.4-0.8c3.7-1.9,5.1-6.4,3.3-10.1l-35.3-69h75.1c9.4,0,17.1-7.6,17.1-17.1V392h45c4.1,0,7.5-3.4,7.5-7.5
			S422.9,377,418.8,377z M358.8,408.5c0,1.1-0.9,2.1-2.1,2.1H90c-1.1,0-2.1-0.9-2.1-2.1V392h270.9V408.5z"/>
		<path class="st0" d="M86.6,55.1h102.7h68.3h168c3.4,0,6.2,2.8,6.2,6.2v71.3c0,4.1,3.4,7.5,7.5,7.5s7.5-3.4,7.5-7.5V61.3
			c0-11.7-9.5-21.2-21.2-21.2H265V25.4c0-10.4-8.4-18.8-18.8-18.8h-45.6c-10.4,0-18.8,8.4-18.8,18.8v14.7H86.6
			c-4.1,0-7.5,3.4-7.5,7.5S82.4,55.1,86.6,55.1z M196.7,25.4c0-2.1,1.7-3.8,3.8-3.8h45.6c2.1,0,3.8,1.7,3.8,3.8v14.7h-53.3
			L196.7,25.4L196.7,25.4z"/>
		<path class="st0" d="M104.9,267.6c-4.1,0-7.5,3.4-7.5,7.5v66.3c0,4.1,3.4,7.5,7.5,7.5h30.4c4.1,0,7.5-3.4,7.5-7.5v-66.3
			c0-4.1-3.4-7.5-7.5-7.5H104.9z M127.8,333.8h-15.4v-51.3h15.4V333.8z"/>
		<path class="st0" d="M173.7,229.2c-4.1,0-7.5,3.4-7.5,7.5v104.6c0,4.1,3.4,7.5,7.5,7.5h30.4c4.1,0,7.5-3.4,7.5-7.5V236.7
			c0-4.1-3.4-7.5-7.5-7.5H173.7z M196.7,333.8h-15.4v-89.6h15.4V333.8z"/>
		<path class="st0" d="M242.6,267.6c-4.1,0-7.5,3.4-7.5,7.5v66.3c0,4.1,3.4,7.5,7.5,7.5H273c4.1,0,7.5-3.4,7.5-7.5v-66.3
			c0-4.1-3.4-7.5-7.5-7.5H242.6z M265.5,333.8h-15.4v-51.3h15.4V333.8z"/>
		<path class="st0" d="M311.4,311.8c-4.1,0-7.5,3.4-7.5,7.5v22c0,4.1,3.4,7.5,7.5,7.5h30.4c4.1,0,7.5-3.4,7.5-7.5s-3.4-7.5-7.5-7.5
			h-22.9v-14.5C318.9,315.2,315.6,311.8,311.4,311.8z"/>
		<path class="st0" d="M508.2,384l-43-74.5c10.9-11.6,18.8-25.8,23.1-41.6c6.8-25.3,3.3-51.7-9.8-74.4
			c-27-46.8-87.1-62.9-133.9-35.9c-46.8,27-62.9,87.1-35.9,133.9c13.1,22.7,34.2,38.9,59.5,45.7c8.4,2.3,17,3.4,25.5,3.4
			c7.4,0,14.8-0.9,22.1-2.5l43,74.5c5.3,9.1,14.9,14.3,24.7,14.2c4.8,0,9.7-1.2,14.2-3.8c8.8-5.1,14.3-14.5,14.3-24.7
			C512,393.3,510.7,388.4,508.2,384z M372.1,322.7c-21.4-5.7-39.3-19.5-50.4-38.7c-22.9-39.6-9.3-90.5,30.4-113.4
			c13-7.5,27.3-11.1,41.4-11.1c28.7,0,56.7,14.9,72,41.5c11.1,19.2,14,41.6,8.3,63s-19.5,39.3-38.7,50.4
			C415.8,325.5,393.5,328.4,372.1,322.7z M490.2,410c-6.5,3.7-14.7,1.5-18.5-4.9l-41.4-71.7c4.1-1.7,8.2-3.7,12.2-6
			c3.9-2.3,7.7-4.8,11.2-7.6l41.4,71.7c1.2,2.1,1.8,4.4,1.8,6.7C497,403.1,494.4,407.6,490.2,410z"/>
		<path class="st0" d="M461.5,263.6c5.3-17.1,4-35.3-3.6-51.4c-1.8-3.7-6.2-5.4-10-3.6c-3.7,1.8-5.4,6.2-3.6,10
			c6,12.7,7,27.1,2.8,40.6c-4.2,13.5-13.3,24.9-25.6,32c-13,7.5-28.2,9.5-42.7,5.6c-14.5-3.9-26.6-13.2-34.1-26.2
			c-15.5-26.8-6.3-61.3,20.6-76.8c19.6-11.3,44-9.8,62.1,3.9c3.3,2.5,8,1.8,10.5-1.5c2.5-3.3,1.8-8-1.5-10.5
			c-22.9-17.3-53.7-19.2-78.6-4.9c-16.5,9.5-28.3,24.9-33.2,43.2s-2.4,37.6,7.1,54c9.5,16.5,24.9,28.3,43.2,33.2
			c6.1,1.6,12.4,2.5,18.5,2.5c12.3,0,24.5-3.2,35.5-9.6C444.7,295.2,456.2,280.8,461.5,263.6z"/>
	</g>
</g>
</svg>
