<?xml version="1.0"?>
<svg xmlns="http://www.w3.org/2000/svg" height="512px" viewBox="-82 0 512 512.003" width="512px"><g><path d="m174.457031 0c-9.96875 0-19.96875.847656-29.71875 2.523438-4.078125.699218-6.816406 4.574218-6.117187 8.652343.699218 4.082031 4.578125 6.820313 8.652344 6.121094 8.914062-1.53125 18.0625-2.308594 27.183593-2.308594 87.933594 0 159.472657 71.539063 159.472657 159.472657 0 36.867187-13.574219 73.265624-38.222657 102.484374-7.566406 8.96875-16.640625 16.71875-25.417969 24.210938-18.605468 15.894531-37.804687 32.285156-43.523437 60.714844h-1.796875c.253906-2.71875.734375-6.296875 1.625-10.808594 2.171875-11.03125 7.300781-30.003906 19.375-57.765625 5.050781-11.613281.566406-25.121094-10.433594-31.429687-6.375-3.652344-13.996094-4.300782-20.898437-1.773438-6.894531 2.523438-12.285157 7.925781-14.789063 14.824219l-.574218 1.589843c-.21875.597657-.4375 1.203126-.65625 1.804688-19.351563-5.382812-38.589844-2.808594-48.574219-.71875-.132813-.363281-.265625-.726562-.394531-1.085938l-.578126-1.589843c-2.503906-6.894531-7.894531-12.300781-14.789062-14.824219-6.902344-2.527344-14.519531-1.878906-20.898438 1.773438-11 6.308593-15.484374 19.816406-10.433593 31.429687.515625 1.1875 1.019531 2.359375 1.511719 3.515625 1.621093 3.808594 6.019531 5.585938 9.828124 3.964844 3.808594-1.617188 5.585938-6.019532 3.964844-9.828125-.507812-1.195313-1.027344-2.40625-1.5625-3.632813-1.996094-4.59375-.214844-9.945312 4.144532-12.445312 2.53125-1.449219 5.550781-1.707032 8.292968-.703125 2.726563 1 4.859375 3.136719 5.851563 5.863281l.578125 1.59375c.867187 2.382812 1.757812 4.835938 2.65625 7.347656l9.035156 27.542969c3.8125 13.21875 7.25 28.15625 9.515625 45.355469h-17.765625c-.570312-7.347656-2.515625-19.6875-8.386719-38.054688-1.257812-3.941406-5.476562-6.117187-9.417969-4.855468-3.945312 1.261718-6.117187 5.476562-4.859374 9.421874 5.214843 16.308594 7.011718 27.210938 7.605468 33.488282h-1.824218c-5.789063-27.613282-25.886719-45.664063-45.367188-63.15625-9.277344-8.328125-18.035156-16.195313-25.242188-24.980469-23.890624-29.128906-36.519531-63.457031-36.519531-99.273437 0-32.511719 9.71875-63.78125 28.105469-90.433594 17.964844-26.046875 42.929688-46 72.191406-57.699219 3.84375-1.535156 5.710938-5.898437 4.175782-9.742187-1.539063-3.84375-5.898438-5.714844-9.742188-4.175782-32.011719 12.800782-59.316406 34.621094-78.964844 63.105469-20.117187 29.167969-30.753906 63.382813-30.753906 98.945313 0 39.324218 13.804688 76.9375 39.921875 108.777343 7.929687 9.671875 17.53125 18.292969 26.8125 26.628907 18.449219 16.566406 35.9375 32.28125 40.734375 55.226562-5.800781 3.675781-9.671875 10.136719-9.671875 17.5v15.371094c0 4.871094 1.699219 9.34375 4.523437 12.886718-2.824218 3.542969-4.523437 8.015626-4.523437 12.886719v15.371094c0 9.382813 6.273437 17.320313 14.839844 19.863281v4.089844c0 26.988281 21.957031 48.941406 48.941406 48.941406h25.765625c26.984375 0 48.941406-21.953125 48.941406-48.941406v-4.089844c8.566406-2.542968 14.839844-10.480468 14.839844-19.863281v-15.371094c0-4.871093-1.699219-9.34375-4.523438-12.886719 2.824219-3.542968 4.523438-8.015624 4.523438-12.886718v-15.371094c0-7.375-3.882812-13.847656-9.707031-17.519531 4.628906-23.488281 20.460937-37.019531 38.609375-52.519531 9.234375-7.882813 18.78125-16.039063 27.140625-25.945313 26.925781-31.917969 41.753906-71.75 41.753906-112.148437-.003906-96.199219-78.265625-174.460938-174.464844-174.460938zm27.203125 316.535156 8.6875-26.472656c.046875-.144531.082032-.292969.121094-.441406.980469-2.742188 1.949219-5.40625 2.890625-7.996094l.578125-1.59375c.988281-2.726562 3.121094-4.863281 5.851562-5.863281 2.738282-1.003907 5.761719-.746094 8.292969.703125 4.359375 2.5 6.140625 7.851562 4.140625 12.445312-10.445312 24.023438-17.390625 45.015625-20.632812 62.398438-.933594 4.996094-1.421875 9.027344-1.664063 12.15625h-17.773437c2.261718-17.191406 5.699218-32.117188 9.507812-45.335938zm-46.53125-24.667968c8.703125-1.632813 23.65625-3.265626 38.453125.601562-1.589843 4.617188-3.1875 9.464844-4.742187 14.566406h-28.761719c-1.625-5.324218-3.292969-10.367187-4.949219-15.167968zm29.488282 30.15625c-3.046876 11.867187-5.71875 25.042968-7.574219 39.84375h-5.171875c-1.851563-14.800782-4.523438-27.976563-7.574219-39.84375zm36.675781 141.039062c0 18.71875-15.230469 33.949219-33.949219 33.949219h-25.769531c-18.71875 0-33.949219-15.230469-33.949219-33.949219v-3.230469h93.667969zm14.839843-23.957031c0 3.164062-2.570312 5.738281-5.734374 5.738281h-111.882813c-3.160156 0-5.734375-2.574219-5.734375-5.738281v-15.367188c0-2.304687 1.367188-4.289062 3.332031-5.203125.789063.09375 1.589844.152344 2.402344.152344h111.882813c.8125 0 1.613281-.058594 2.402343-.152344 1.964844.910156 3.332031 2.898438 3.332031 5.203125zm0-41.140625c0 2.304687-1.367187 4.289062-3.332031 5.199218-.789062-.089843-1.585937-.148437-2.402343-.148437h-111.882813c-.8125 0-1.613281.058594-2.402344.148437-1.960937-.910156-3.332031-2.894531-3.332031-5.199218v-15.371094c0-3.164062 2.574219-5.734375 5.738281-5.734375h111.878907c3.164062 0 5.738281 2.570313 5.738281 5.734375v15.371094zm0 0" data-original="#000000" class="active-path" data-old_color="#000000" fill="#A56433"/></g> </svg>
