<?xml version="1.0"?>
<svg xmlns="http://www.w3.org/2000/svg" id="Layer_3" enable-background="new 0 0 64 64" height="512px" viewBox="0 0 64 64" width="512px"><g><g><path d="m62.706 11.292-9.998-9.998c-.181-.182-.431-.294-.708-.294h-26c-.553 0-1 .448-1 1v33.991l-8.504-4.859c-.307-.176-.686-.176-.992 0l-14 8c-.312.178-.504.509-.504.868v14c0 .359.192.69.504.868l14 8c.153.088.325.132.496.132s.343-.044.496-.132l14-8c.312-.178.504-.509.504-.868v-3h20v8c0 2.206 1.794 4 4 4s4-1.794 4-4v-8h3c.553 0 1-.448 1-1v-38c0-.277-.112-.527-.294-.708zm-9.706-6.878 6.586 6.586h-6.586zm-37 28.738 11.984 6.848-3.109 1.777-11.984-6.848zm5.496 10.98-12.356-7.06 1.735-.991 13.125 7.499v3.802l-2 1v-3.382c0-.359-.192-.69-.504-.868zm-14.371-5.909 11.985 6.848-3.11 1.777-11.984-6.848zm-4.125 3.5 12 6.857v11.697l-12-6.857zm14 18.554v-11.697l3-1.714v3.134c0 .347.18.668.475.851.16.099.342.149.525.149.153 0 .306-.035.447-.105l4-2c.339-.17.553-.516.553-.895v-4.562l3-1.714v11.696zm37-25.742v20.465h-1v-21.132zm2 0 1-.667v21.132h-1zm-1-1.737-1.785-1.19 1.785-4.76 1.785 4.76zm0 28.202c-1.103 0-2-.897-2-2v-2h4v2c0 1.103-.897 2-2 2zm6-12h-2v-17c0-.12-.021-.239-.063-.351l-3-8c-.147-.39-.52-.649-.937-.649s-.79.259-.937.649l-3 8c-.042.112-.063.231-.063.351v17h-20v-9c0-.359-.192-.69-.504-.868l-3.496-1.998v-34.134h24v9c0 .552.447 1 1 1h9z" data-original="#000000" class="active-path" data-old_color="#000000" fill="#A56433"/><path d="m29 15h2v2h-2z" data-original="#000000" class="active-path" data-old_color="#000000" fill="#A56433"/><path d="m33 15h26v2h-26z" data-original="#000000" class="active-path" data-old_color="#000000" fill="#A56433"/><path d="m57 19h2v2h-2z" data-original="#000000" class="active-path" data-old_color="#000000" fill="#A56433"/><path d="m29 19h26v2h-26z" data-original="#000000" class="active-path" data-old_color="#000000" fill="#A56433"/><path d="m29 23h20v2h-20z" data-original="#000000" class="active-path" data-old_color="#000000" fill="#A56433"/><path d="m29 27h20v2h-20z" data-original="#000000" class="active-path" data-old_color="#000000" fill="#A56433"/></g></g> </svg>
