<?xml version="1.0" encoding="utf-8"?>
<!-- Generator: Adobe Illustrator 23.0.2, SVG Export Plug-In . SVG Version: 6.00 Build 0)  -->
<svg version="1.1" id="Layer_1" xmlns="http://www.w3.org/2000/svg" xmlns:xlink="http://www.w3.org/1999/xlink" x="0px" y="0px"
	 viewBox="0 0 512 512" style="enable-background:new 0 0 512 512;" xml:space="preserve">
<style type="text/css">
	.st0{fill:#FFFFFF;}
</style>
<g>
	<path class="st0" d="M497,160.2h-80.2c-8.6,0-16,6.5-16,15v17h-88.2c-8.6,0-16,6.5-16,15v169.3H16c-0.3,0-1-0.7-1-1v-32.1h265.5
		v-15H15V71c0-0.3,0.7,0,1,0h432.8c0.3,0,0-0.3,0,0v72.1h15V71c0-8.6-6.5-15-15-15H16C7.5,56,0,62.5,0,71v304.6c0,8.6,7.5,16,16,16
		h168.3v49.1h-32.1v15h160.3v-15h-33.1v-49.1h17v16c0,8.6,7.5,16,16,16h136.3c8.6,0,15-7.5,15-16v-56.1H497c8.6,0,15-7.5,15-16
		V175.2C512,166.7,505.5,160.2,497,160.2z M264.5,440.8h-65.1v-49.1h65.1V440.8z M416.8,175.2H497c0.3,0,0-0.3,0,0v17h-81.2v-17
		C415.8,175,416.5,175.2,416.8,175.2z M415.8,207.3H497v97.2h-81.2V207.3z M448.9,408.7H312.6c-0.3,0-1-0.7-1-1v-16h137.3v16
		C448.9,408,449.2,408.7,448.9,408.7z M448.9,376.6H311.6V207.3c0-0.3,0.7,0,1,0h88.2v128.3c0,8.6,7.5,16,16,16h32.1V376.6z
		 M497,336.5h-80.2c-0.3,0-1-0.7-1-1v-16H497v16C497,335.8,497.2,336.5,497,336.5z"/>
	<path class="st0" d="M192.4,296.5h16v15h-16V296.5z"/>
	<path class="st0" d="M224.4,296.5h16v15h-16V296.5z"/>
	<path class="st0" d="M256.5,296.5h16v15h-16V296.5z"/>
	<path class="st0" d="M47.1,127.1v-24h25v-15H32.1v39.1H47.1z"/>
	<path class="st0" d="M320.6,247.4h15v-16h17v-15h-32.1V247.4z"/>
	<path class="st0" d="M424.8,216.3v31.1h15v-16h17v-15H424.8z"/>
</g>
</svg>
