<?xml version="1.0"?>
<svg xmlns="http://www.w3.org/2000/svg" height="512px" viewBox="0 -56 512 512" width="512px"><g><path d="m496.96875 104.203125h-80.15625c-8.5625 0-16.03125 6.464844-16.03125 15.03125v17.03125h-88.171875c-8.5625 0-16.03125 6.464844-16.03125 15.03125v169.328125h-280.546875c-.277344 0-1-.722656-1-1v-32.0625h265.515625v-15.03125h-265.515625v-257.5c0-.277344.722656 0 1 0h432.84375c.277344 0 0-.277344 0 0v72.140625h15.03125v-72.140625c0-8.566406-6.464844-15.03125-15.03125-15.03125h-432.84375c-8.5625 0-16.03125 6.464844-16.03125 15.03125v304.59375c0 8.5625 7.46875 16.03125 16.03125 16.03125h168.328125v49.09375h-32.0625v15.03125h160.3125v-15.03125h-33.0625v-49.09375h17.03125v16.03125c0 8.5625 7.46875 16.03125 16.03125 16.03125h136.265625c8.566406 0 15.03125-7.46875 15.03125-16.03125v-56.109375h33.0625c8.566406 0 15.03125-7.46875 15.03125-16.03125v-160.3125c0-8.566406-6.464844-15.03125-15.03125-15.03125zm-232.453125 280.546875h-65.125v-49.09375h65.125zm152.296875-265.515625h80.15625c.277344 0 0-.277344 0 0v17.03125h-81.15625v-17.03125c0-.277344.726562 0 1 0zm-1 32.0625h81.15625v97.1875h-81.15625zm33.0625 201.390625h-136.265625c-.273437 0-1-.722656-1-1v-16.03125h137.265625v16.03125c0 .277344.277344 1 0 1zm0-32.0625h-137.265625v-169.328125c0-.277344.726563 0 1 0h88.171875v128.25c0 8.5625 7.46875 16.03125 16.03125 16.03125h32.0625zm48.09375-40.078125h-80.15625c-.273438 0-1-.722656-1-1v-16.03125h81.15625v16.03125c0 .277344.277344 1 0 1zm0 0" data-original="#000000" class="active-path" data-old_color="#000000" fill="#A56433"/><path d="m192.375 240.46875h16.03125v15.03125h-16.03125zm0 0" data-original="#000000" class="active-path" data-old_color="#000000" fill="#A56433"/><path d="m224.4375 240.46875h16.03125v15.03125h-16.03125zm0 0" data-original="#000000" class="active-path" data-old_color="#000000" fill="#A56433"/><path d="m256.5 240.46875h16.03125v15.03125h-16.03125zm0 0" data-original="#000000" class="active-path" data-old_color="#000000" fill="#A56433"/><path d="m47.09375 71.140625v-24.046875h25.046875v-15.03125h-40.078125v39.078125zm0 0" data-original="#000000" class="active-path" data-old_color="#000000" fill="#A56433"/><path d="m320.625 191.375h15.03125v-16.03125h17.03125v-15.03125h-32.0625zm0 0" data-original="#000000" class="active-path" data-old_color="#000000" fill="#A56433"/><path d="m424.828125 160.3125v31.0625h15.03125v-16.03125h17.03125v-15.03125zm0 0" data-original="#000000" class="active-path" data-old_color="#000000" fill="#A56433"/></g> </svg>
