<svg width="166" height="33" viewBox="0 0 166 33" fill="none" xmlns="http://www.w3.org/2000/svg">
<path d="M52.6981 11.3497C52.6981 10.2312 52.5446 9.40873 52.2375 8.88237C51.9305 8.33408 51.3164 8.05993 50.3953 8.05993H49.7373V7.40198H58.2907C60.3961 7.40198 62.2932 7.85158 63.982 8.75078C65.6707 9.64998 66.5151 11.3936 66.5151 13.9815C66.5151 15.6922 66.0765 17.0081 65.1992 17.9292C64.3219 18.8504 63.335 19.4644 62.2384 19.7715C61.1637 20.0785 60.1768 20.232 59.2776 20.232H55.6589V29.1144H52.6981V11.3497ZM58.1262 19.0806C58.828 19.0806 59.5737 18.9052 60.3632 18.5543C61.1528 18.1814 61.8217 17.6002 62.37 16.8107C62.9402 16.0212 63.2253 15.0233 63.2253 13.817C63.2253 12.6108 62.9402 11.6129 62.37 10.8233C61.8217 10.0338 61.1528 9.46356 60.3632 9.11265C59.5737 8.73981 58.828 8.5534 58.1262 8.5534C57.3586 8.5534 56.5361 8.66305 55.6589 8.88237V18.7517C56.5361 18.971 57.3586 19.0806 58.1262 19.0806Z" fill="white"/>
<path d="M73.1195 11.6787C72.6151 11.6787 72.1765 11.4703 71.8036 11.0536C71.4527 10.6369 71.2773 10.1434 71.2773 9.57322C71.2773 9.11265 71.4089 8.75078 71.6721 8.4876C71.9572 8.22442 72.33 8.09283 72.7906 8.09283C73.295 8.09283 73.7227 8.30118 74.0736 8.71788C74.4464 9.13459 74.6328 9.62805 74.6328 10.1983C74.6328 10.6588 74.4903 11.0207 74.2052 11.2839C73.942 11.5471 73.5801 11.6787 73.1195 11.6787ZM71.8694 17.6002C71.8694 16.4817 71.7159 15.6593 71.4089 15.1329C71.1018 14.5846 70.4877 14.3105 69.5666 14.3105H68.9086V13.6525H71.8694C72.6809 13.6525 73.284 13.7622 73.6788 13.9815C74.0955 14.1789 74.3916 14.5517 74.567 15.1C74.7425 15.6483 74.8302 16.4817 74.8302 17.6002V29.1144H71.8694V17.6002Z" fill="white"/>
<path d="M87.466 29.4434C85.8869 29.4434 84.5491 29.0925 83.4525 28.3907C82.3778 27.6669 81.5664 26.7019 81.0181 25.4957C80.4917 24.2675 80.2285 22.8968 80.2285 21.3835C80.2285 19.8702 80.4917 18.5104 81.0181 17.3042C81.5664 16.076 82.3778 15.111 83.4525 14.4092C84.5491 13.6854 85.8869 13.3235 87.466 13.3235C89.8785 13.3235 91.4685 13.7074 92.2361 14.475C92.609 14.8478 92.8393 15.3084 92.927 15.8567C93.0147 16.383 93.0586 17.348 93.0586 18.7517H92.4006C92.3129 17.3919 91.8852 16.3721 91.1176 15.6922C90.35 14.9904 89.3521 14.6395 88.1239 14.6395C86.5449 14.6395 85.3496 15.2645 84.5381 16.5146C83.7486 17.7647 83.3538 19.3877 83.3538 21.3835C83.3538 23.3793 83.7486 25.0022 84.5381 26.2523C85.3496 27.5024 86.5449 28.1275 88.1239 28.1275C89.2425 28.1275 90.1636 27.9191 90.8873 27.5024C91.6111 27.0638 92.28 26.3949 92.8941 25.4957L93.5521 25.9891C92.8283 27.2173 91.973 28.1055 90.986 28.6538C89.9991 29.1802 88.8258 29.4434 87.466 29.4434Z" fill="white"/>
<path d="M103.829 29.4434C101.307 29.4434 99.6074 29.0047 98.7301 28.1275C98.3572 27.7546 98.127 27.3379 98.0392 26.8774C97.9515 26.3949 97.9076 25.6602 97.9076 24.6732H98.5656C98.763 25.7698 99.2345 26.6252 99.9802 27.2392C100.748 27.8314 101.811 28.1275 103.171 28.1275C104.378 28.1275 105.277 27.9191 105.869 27.5024C106.483 27.0857 106.79 26.5265 106.79 25.8246C106.79 25.1886 106.549 24.6403 106.066 24.1798C105.606 23.7192 104.86 23.2806 103.829 22.8639L101.855 22.0414C100.539 21.5151 99.5525 20.901 98.8946 20.1992C98.2366 19.4973 97.9076 18.631 97.9076 17.6002C97.9076 16.2624 98.4121 15.2206 99.4209 14.475C100.43 13.7074 101.735 13.3235 103.336 13.3235C105.748 13.3235 107.393 13.7622 108.27 14.6395C108.643 15.0123 108.874 15.429 108.961 15.8896C109.049 16.3501 109.093 17.0848 109.093 18.0937H108.435C108.259 16.9971 107.799 16.1527 107.053 15.5606C106.308 14.9465 105.288 14.6395 103.994 14.6395C102.963 14.6395 102.151 14.8588 101.559 15.2974C100.989 15.7141 100.704 16.2624 100.704 16.9423C100.704 18.0827 101.581 19.0148 103.336 19.7386L105.31 20.561C106.801 21.1751 107.887 21.8331 108.566 22.5349C109.246 23.2148 109.586 24.092 109.586 25.1667C109.586 26.5045 109.049 27.5573 107.974 28.3249C106.9 29.0705 105.518 29.4434 103.829 29.4434Z" fill="white"/>
<path d="M113.251 28.4565L126.904 8.71788H119.008C116.267 8.71788 114.896 9.97896 114.896 12.5011H114.238V10.0338C114.238 8.27925 115.17 7.40198 117.035 7.40198H131.345L117.364 27.7985H130.852V29.1144H113.251V28.4565Z" fill="white"/>
<path d="M140.872 29.4434C139.381 29.4434 138.12 29.0925 137.089 28.3907C136.058 27.6669 135.279 26.7019 134.753 25.4957C134.227 24.2675 133.963 22.8968 133.963 21.3835C133.963 19.8921 134.227 18.5323 134.753 17.3042C135.279 16.076 136.036 15.111 137.023 14.4092C138.032 13.6854 139.205 13.3235 140.543 13.3235C142.758 13.3235 144.403 13.9486 145.478 15.1987C146.574 16.4269 147.122 18.2143 147.122 20.561L147.057 21.8769H137.089C137.089 23.7192 137.483 25.2215 138.273 26.3839C139.063 27.5463 140.148 28.1275 141.53 28.1275C142.561 28.1275 143.427 27.9082 144.129 27.4695C144.853 27.0309 145.521 26.3729 146.136 25.4957L146.794 25.9891C146.07 27.1954 145.225 28.0726 144.26 28.6209C143.295 29.1692 142.166 29.4434 140.872 29.4434ZM143.997 20.561C143.997 18.631 143.712 17.1616 143.142 16.1527C142.572 15.1439 141.705 14.6395 140.543 14.6395C139.885 14.6395 139.293 14.9026 138.766 15.429C138.24 15.9334 137.823 16.6352 137.516 17.5344C137.231 18.4336 137.089 19.4425 137.089 20.561H143.997Z" fill="white"/>
<path d="M153.053 17.6002C153.053 16.4817 152.9 15.6593 152.593 15.1329C152.286 14.5846 151.672 14.3105 150.75 14.3105H150.093V13.6525H153.053C153.865 13.6525 154.479 13.7622 154.896 13.9815C155.334 14.2008 155.652 14.5298 155.85 14.9684H156.014C156.475 14.5079 157.067 14.1241 157.791 13.817C158.536 13.488 159.37 13.3235 160.291 13.3235C161.936 13.3235 163.274 13.7622 164.304 14.6395C165.357 15.5167 165.883 17.0519 165.883 19.2451V29.1144H162.923V19.2451C162.923 17.7099 162.572 16.5914 161.87 15.8896C161.19 15.1658 160.335 14.8039 159.304 14.8039C158.141 14.8039 157.045 15.3851 156.014 16.5475V29.1144H153.053V17.6002Z" fill="white"/>
<mask id="path-2-inside-1_1606_22" fill="white">
<path d="M37.372 27.0098C37.3877 26.2525 37.3904 25.4951 37.3877 24.7378C37.3799 23.1451 37.3406 21.5524 37.2988 19.9622C37.2098 16.6701 37.181 13.3935 37.2726 10.104C37.2726 10.0858 37.27 10.0702 37.2621 10.0545C37.2647 10.0259 37.2647 9.99729 37.2621 9.96866C37.1103 8.25622 34.6634 8.30046 32.8786 8.37854C32.0778 7.03305 31.2221 5.72399 30.3323 4.43576C29.4504 3.16314 28.5946 1.67712 27.5426 0.539827C26.7234 -0.345021 24.9517 0.118223 23.8552 0.144248C22.162 0.180683 20.4714 0.21972 18.7782 0.258758C16.2031 0.318615 12.5183 -0.311188 10.6628 1.95819C9.75474 3.06685 9.15283 4.56849 8.39913 5.79426C7.78675 6.78841 7.1482 7.76435 6.49395 8.72988C4.99702 8.79494 3.38232 8.84439 2.02671 9.47939C1.50854 9.72143 0.911863 10.0467 0.524545 10.4788C-0.0538141 11.1268 0.158164 12.1391 0.139845 12.9563C0.0770364 15.8373 0.202653 18.7156 0.294248 21.594C0.38061 24.2824 0.241908 27.0098 0.427716 29.6904C0.548098 31.4418 1.91418 31.5355 3.44513 31.6292C6.13803 31.7958 8.83617 31.8348 11.5343 31.8374C14.7715 33.3521 18.4275 33.1543 21.6883 31.8114C24.5199 31.8088 27.3437 31.7541 30.1753 31.5485C31.6042 31.4444 33.2032 31.4783 34.5928 31.1061C35.5087 30.8615 36.9481 30.1952 37.2805 29.2349C37.4872 28.6285 37.359 27.6344 37.372 27.0098ZM11.0475 4.93804C11.427 4.32385 11.7986 3.70706 12.1624 3.08246C12.3089 2.83262 12.466 2.48129 12.6361 2.13255C14.078 2.05708 15.5697 2.14036 16.9725 2.10913C18.9195 2.06489 20.8666 2.01804 22.811 1.9738C24.0044 1.94517 24.4309 2.00503 25.1611 3.00699C25.7237 3.78253 26.2864 4.55808 26.8386 5.34143C27.5504 6.3512 28.2387 7.37137 28.9034 8.40977C28.0843 8.40717 27.2652 8.40717 26.4434 8.40717C22.9654 6.0441 18.2679 6.4579 14.1749 8.46702C12.3168 8.49825 10.4561 8.5477 8.60064 8.62838C9.44855 7.42082 10.2677 6.19244 11.0475 4.93804ZM3.1337 9.65376C2.97668 9.08121 3.241 9.63034 3.1337 9.65376V9.65376ZM3.85077 29.3338C2.91911 28.5843 3.35877 26.2629 3.35353 25.2791C3.32475 20.6987 3.00285 16.1158 3.09968 11.5354C3.10492 11.2881 3.15202 10.9732 3.18343 10.6609C3.2096 10.6583 3.23577 10.6557 3.26194 10.6557C5.13572 10.5178 7.01735 10.4605 8.89374 10.4137C9.63174 10.3955 10.3671 10.3825 11.1051 10.3668C8.54306 12.3083 6.51488 14.8822 5.64865 17.6772C4.30089 22.0364 5.3634 26.8276 8.65298 29.896C7.73964 29.8673 6.82631 29.8335 5.91297 29.7736C5.27965 29.7294 4.3794 29.758 3.85077 29.3338ZM13.4918 29.6071C9.78876 27.4834 7.73964 23.2986 8.06939 19.0982C8.40436 14.8301 10.9874 10.4683 15.24 9.08902C19.9558 7.56136 24.6848 9.70061 26.8333 14.052C28.8772 18.5647 28.2073 24.2355 25.1558 28.1679C22.3635 31.7671 17.2342 31.7541 13.4918 29.6071ZM33.5172 29.6045C32.3134 29.7034 31.1069 29.784 29.9005 29.8413C28.2649 29.922 26.6318 29.9454 24.9962 29.9506C30.3663 26.026 32.5384 18.445 29.7801 12.3578C29.3902 11.5718 28.9453 10.8795 28.4559 10.2732C28.7909 10.2732 29.1258 10.2732 29.4582 10.2758C29.6964 10.2758 29.9816 10.2627 30.293 10.2497C30.2957 10.2497 30.3009 10.2497 30.3035 10.2497C31.8737 10.1847 34.106 10.104 34.3049 11.5926C34.2159 14.7781 34.2395 17.9479 34.3258 21.1334C34.3677 22.7261 34.4122 24.3162 34.4227 25.9089C34.4279 26.7495 34.4253 27.5901 34.407 28.4334C34.4017 28.7144 34.4436 29.123 34.4593 29.5264C34.1479 29.5498 33.8339 29.5811 33.5172 29.6045Z"/>
</mask>
<path d="M37.372 27.0098C37.3877 26.2525 37.3904 25.4951 37.3877 24.7378C37.3799 23.1451 37.3406 21.5524 37.2988 19.9622C37.2098 16.6701 37.181 13.3935 37.2726 10.104C37.2726 10.0858 37.27 10.0702 37.2621 10.0545C37.2647 10.0259 37.2647 9.99729 37.2621 9.96866C37.1103 8.25622 34.6634 8.30046 32.8786 8.37854C32.0778 7.03305 31.2221 5.72399 30.3323 4.43576C29.4504 3.16314 28.5946 1.67712 27.5426 0.539827C26.7234 -0.345021 24.9517 0.118223 23.8552 0.144248C22.162 0.180683 20.4714 0.21972 18.7782 0.258758C16.2031 0.318615 12.5183 -0.311188 10.6628 1.95819C9.75474 3.06685 9.15283 4.56849 8.39913 5.79426C7.78675 6.78841 7.1482 7.76435 6.49395 8.72988C4.99702 8.79494 3.38232 8.84439 2.02671 9.47939C1.50854 9.72143 0.911863 10.0467 0.524545 10.4788C-0.0538141 11.1268 0.158164 12.1391 0.139845 12.9563C0.0770364 15.8373 0.202653 18.7156 0.294248 21.594C0.38061 24.2824 0.241908 27.0098 0.427716 29.6904C0.548098 31.4418 1.91418 31.5355 3.44513 31.6292C6.13803 31.7958 8.83617 31.8348 11.5343 31.8374C14.7715 33.3521 18.4275 33.1543 21.6883 31.8114C24.5199 31.8088 27.3437 31.7541 30.1753 31.5485C31.6042 31.4444 33.2032 31.4783 34.5928 31.1061C35.5087 30.8615 36.9481 30.1952 37.2805 29.2349C37.4872 28.6285 37.359 27.6344 37.372 27.0098ZM11.0475 4.93804C11.427 4.32385 11.7986 3.70706 12.1624 3.08246C12.3089 2.83262 12.466 2.48129 12.6361 2.13255C14.078 2.05708 15.5697 2.14036 16.9725 2.10913C18.9195 2.06489 20.8666 2.01804 22.811 1.9738C24.0044 1.94517 24.4309 2.00503 25.1611 3.00699C25.7237 3.78253 26.2864 4.55808 26.8386 5.34143C27.5504 6.3512 28.2387 7.37137 28.9034 8.40977C28.0843 8.40717 27.2652 8.40717 26.4434 8.40717C22.9654 6.0441 18.2679 6.4579 14.1749 8.46702C12.3168 8.49825 10.4561 8.5477 8.60064 8.62838C9.44855 7.42082 10.2677 6.19244 11.0475 4.93804ZM3.1337 9.65376C2.97668 9.08121 3.241 9.63034 3.1337 9.65376V9.65376ZM3.85077 29.3338C2.91911 28.5843 3.35877 26.2629 3.35353 25.2791C3.32475 20.6987 3.00285 16.1158 3.09968 11.5354C3.10492 11.2881 3.15202 10.9732 3.18343 10.6609C3.2096 10.6583 3.23577 10.6557 3.26194 10.6557C5.13572 10.5178 7.01735 10.4605 8.89374 10.4137C9.63174 10.3955 10.3671 10.3825 11.1051 10.3668C8.54306 12.3083 6.51488 14.8822 5.64865 17.6772C4.30089 22.0364 5.3634 26.8276 8.65298 29.896C7.73964 29.8673 6.82631 29.8335 5.91297 29.7736C5.27965 29.7294 4.3794 29.758 3.85077 29.3338ZM13.4918 29.6071C9.78876 27.4834 7.73964 23.2986 8.06939 19.0982C8.40436 14.8301 10.9874 10.4683 15.24 9.08902C19.9558 7.56136 24.6848 9.70061 26.8333 14.052C28.8772 18.5647 28.2073 24.2355 25.1558 28.1679C22.3635 31.7671 17.2342 31.7541 13.4918 29.6071ZM33.5172 29.6045C32.3134 29.7034 31.1069 29.784 29.9005 29.8413C28.2649 29.922 26.6318 29.9454 24.9962 29.9506C30.3663 26.026 32.5384 18.445 29.7801 12.3578C29.3902 11.5718 28.9453 10.8795 28.4559 10.2732C28.7909 10.2732 29.1258 10.2732 29.4582 10.2758C29.6964 10.2758 29.9816 10.2627 30.293 10.2497C30.2957 10.2497 30.3009 10.2497 30.3035 10.2497C31.8737 10.1847 34.106 10.104 34.3049 11.5926C34.2159 14.7781 34.2395 17.9479 34.3258 21.1334C34.3677 22.7261 34.4122 24.3162 34.4227 25.9089C34.4279 26.7495 34.4253 27.5901 34.407 28.4334C34.4017 28.7144 34.4436 29.123 34.4593 29.5264C34.1479 29.5498 33.8339 29.5811 33.5172 29.6045Z" fill="white"/>
<path d="M37.372 27.0098L38.0719 27.0245L38.0719 27.0243L37.372 27.0098ZM37.3877 24.7378L38.0877 24.7354L38.0877 24.7344L37.3877 24.7378ZM37.2988 19.9622L37.9985 19.9438L37.9985 19.9433L37.2988 19.9622ZM37.2726 10.104L37.9723 10.1235L37.9726 10.1137V10.104H37.2726ZM37.2621 10.0545L36.565 9.99082L36.5468 10.1902L36.6367 10.369L37.2621 10.0545ZM37.2621 9.96866L36.5649 10.0305L36.565 10.0324L37.2621 9.96866ZM32.8786 8.37854L32.2771 8.73655L32.4912 9.09616L32.9092 9.07787L32.8786 8.37854ZM30.3323 4.43576L30.9083 4.03794L30.9076 4.03704L30.3323 4.43576ZM27.5426 0.539827L28.0564 0.0644868L28.0562 0.0642977L27.5426 0.539827ZM23.8552 0.144248L23.8703 0.844088L23.8718 0.844051L23.8552 0.144248ZM18.7782 0.258758L18.7621 -0.441056L18.7619 -0.441053L18.7782 0.258758ZM10.6628 1.95819L11.2044 2.40175L11.2048 2.40127L10.6628 1.95819ZM8.39913 5.79426L8.99513 6.16139L8.99542 6.16091L8.39913 5.79426ZM6.49395 8.72988L6.52434 9.42921L6.87599 9.41393L7.07344 9.12255L6.49395 8.72988ZM2.02671 9.47939L2.32295 10.1136L2.32365 10.1133L2.02671 9.47939ZM0.524545 10.4788L0.00334206 10.0115L0.00229639 10.0126L0.524545 10.4788ZM0.139845 12.9563L-0.55998 12.9406L-0.559989 12.9411L0.139845 12.9563ZM0.294248 21.594L-0.405398 21.6163L-0.405391 21.6165L0.294248 21.594ZM0.427716 29.6904L1.12607 29.6424L1.12604 29.642L0.427716 29.6904ZM3.44513 31.6292L3.48834 30.9306L3.48789 30.9305L3.44513 31.6292ZM11.5343 31.8374L11.831 31.2034L11.6903 31.1376L11.535 31.1374L11.5343 31.8374ZM21.6883 31.8114L21.6877 31.1114L21.5495 31.1115L21.4217 31.1641L21.6883 31.8114ZM30.1753 31.5485L30.226 32.2467L30.2261 32.2467L30.1753 31.5485ZM34.5928 31.1061L34.4122 30.4298L34.4117 30.4299L34.5928 31.1061ZM37.2805 29.2349L37.942 29.4639L37.943 29.4608L37.2805 29.2349ZM11.0475 4.93804L11.642 5.30763L11.6431 5.30597L11.0475 4.93804ZM12.1624 3.08246L11.5586 2.72829L11.5575 2.73018L12.1624 3.08246ZM12.6361 2.13255L12.5995 1.43351L12.1877 1.45506L12.0069 1.82567L12.6361 2.13255ZM16.9725 2.10913L16.988 2.80896L16.9884 2.80895L16.9725 2.10913ZM22.811 1.9738L22.8269 2.67362L22.8278 2.6736L22.811 1.9738ZM25.1611 3.00699L25.7277 2.59593L25.7268 2.59474L25.1611 3.00699ZM26.8386 5.34143L26.2664 5.74473L26.2665 5.74475L26.8386 5.34143ZM28.9034 8.40977L28.9012 9.10977L30.1853 9.11384L29.493 8.03237L28.9034 8.40977ZM26.4434 8.40717L26.05 8.98617L26.2281 9.10717H26.4434V8.40717ZM14.1749 8.46702L14.1866 9.16692L14.343 9.1643L14.4833 9.0954L14.1749 8.46702ZM8.60064 8.62838L8.02776 8.22612L7.21089 9.38947L8.63105 9.32772L8.60064 8.62838ZM3.85077 29.3338L3.41198 29.8792L3.41266 29.8798L3.85077 29.3338ZM3.35353 25.2791L4.05352 25.2754L4.05352 25.2747L3.35353 25.2791ZM3.09968 11.5354L2.39984 11.5205L2.39984 11.5206L3.09968 11.5354ZM3.18343 10.6609L3.11416 9.96436L2.54424 10.021L2.48694 10.5909L3.18343 10.6609ZM3.26194 10.6557V11.3557H3.28767L3.31333 11.3538L3.26194 10.6557ZM8.89374 10.4137L8.87647 9.7139L8.87627 9.71391L8.89374 10.4137ZM11.1051 10.3668L11.5279 10.9248L13.2479 9.62135L11.0903 9.667L11.1051 10.3668ZM5.64865 17.6772L4.98002 17.47L4.97989 17.4705L5.64865 17.6772ZM8.65298 29.896L8.63105 30.5956L10.4919 30.6539L9.13044 29.3841L8.65298 29.896ZM5.91297 29.7736L5.86419 30.4719L5.86719 30.4721L5.91297 29.7736ZM13.4918 29.6071L13.8402 28.9999L13.8401 28.9998L13.4918 29.6071ZM8.06939 19.0982L8.76724 19.153L8.76724 19.153L8.06939 19.0982ZM15.24 9.08902L15.0243 8.42309L15.024 8.42317L15.24 9.08902ZM26.8333 14.052L27.471 13.7632L27.4662 13.7525L27.461 13.7421L26.8333 14.052ZM25.1558 28.1679L24.6028 27.7388L24.6028 27.7388L25.1558 28.1679ZM33.5172 29.6045L33.4656 28.9064L33.4599 28.9068L33.5172 29.6045ZM29.9005 29.8413L29.8673 29.1421L29.866 29.1422L29.9005 29.8413ZM24.9962 29.9506L24.5832 29.3854L22.8426 30.6575L24.9984 30.6506L24.9962 29.9506ZM29.7801 12.3578L30.4177 12.0688L30.4126 12.0576L30.4072 12.0466L29.7801 12.3578ZM28.4559 10.2732V9.57315H26.9914L27.9112 10.7128L28.4559 10.2732ZM29.4582 10.2758L29.4527 10.9758H29.4582V10.2758ZM30.293 10.2497V9.54973H30.2784L30.2638 9.55034L30.293 10.2497ZM30.3035 10.2497V10.9497H30.318L30.3325 10.9491L30.3035 10.2497ZM34.3049 11.5926L35.0046 11.6122L35.0062 11.5558L34.9987 11.4999L34.3049 11.5926ZM34.3258 21.1334L35.0256 21.115L35.0256 21.1144L34.3258 21.1334ZM34.4227 25.9089L35.1227 25.9046L35.1227 25.9043L34.4227 25.9089ZM34.407 28.4334L33.7071 28.4182L33.7071 28.4203L34.407 28.4334ZM34.4593 29.5264L34.5118 30.2244L35.185 30.1738L35.1588 29.4992L34.4593 29.5264ZM38.0719 27.0243C38.0878 26.2592 38.0904 25.4957 38.0877 24.7354L36.6878 24.7402C36.6904 25.4946 36.6877 26.2458 36.6722 26.9953L38.0719 27.0243ZM38.0877 24.7344C38.0798 23.1333 38.0404 21.5338 37.9985 19.9438L36.599 19.9807C36.6409 21.5709 36.6799 23.1569 36.6878 24.7413L38.0877 24.7344ZM37.9985 19.9433C37.9098 16.6593 37.8812 13.3963 37.9723 10.1235L36.5729 10.0845C36.4808 13.3908 36.5098 16.6808 36.599 19.9812L37.9985 19.9433ZM37.9726 10.104C37.9726 10.012 37.9582 9.88062 37.8875 9.7401L36.6367 10.369C36.6115 10.3189 36.5943 10.2671 36.5841 10.2164C36.5743 10.1677 36.5726 10.128 36.5726 10.104H37.9726ZM37.9592 10.1183C37.9657 10.0472 37.9657 9.97596 37.9592 9.90494L36.565 10.0324C36.5638 10.0186 36.5638 10.0046 36.565 9.99082L37.9592 10.1183ZM37.9594 9.90686C37.9049 9.29224 37.6335 8.80491 37.216 8.45212C36.8187 8.11643 36.3222 7.92918 35.8373 7.81942C34.8775 7.60219 33.7262 7.64079 32.848 7.67921L32.9092 9.07787C33.8159 9.03821 34.7805 9.01565 35.5282 9.18489C35.8971 9.26837 36.1524 9.38626 36.3124 9.52146C36.4521 9.63956 36.5435 9.78886 36.5649 10.0305L37.9594 9.90686ZM33.4802 8.02053C32.6694 6.65835 31.8047 5.33576 30.9083 4.03794L29.7563 4.83358C30.6395 6.11223 31.4862 7.40775 32.2771 8.73655L33.4802 8.02053ZM30.9076 4.03704C30.0749 2.83534 29.1525 1.24942 28.0564 0.0644869L27.0287 1.01517C28.0367 2.10481 28.8259 3.49094 29.7569 4.83448L30.9076 4.03704ZM28.0562 0.0642977C27.4297 -0.612549 26.507 -0.70832 25.7942 -0.699486C25.4189 -0.694834 25.0413 -0.659055 24.7092 -0.625889C24.3631 -0.591329 24.0794 -0.561271 23.8386 -0.555555L23.8718 0.844051C24.1792 0.836755 24.5282 0.799148 24.8483 0.767182C25.1824 0.733822 25.5045 0.704213 25.8116 0.700407C26.4636 0.692325 26.8363 0.807356 27.0289 1.01536L28.0562 0.0642977ZM23.8401 -0.55559C22.1463 -0.519141 20.4551 -0.480091 18.7621 -0.441056L18.7943 0.958572C20.4876 0.919532 22.1777 0.880507 23.8703 0.844086L23.8401 -0.55559ZM18.7619 -0.441053C18.1386 -0.426564 17.4553 -0.453866 16.6991 -0.469437C15.9576 -0.484706 15.1655 -0.487764 14.3874 -0.417239C12.8431 -0.277254 11.226 0.163482 10.1209 1.51511L11.2048 2.40127C11.9551 1.48352 13.1081 1.10447 14.5138 0.977045C15.2108 0.913867 15.9387 0.915201 16.6703 0.930267C17.3873 0.945031 18.1302 0.974008 18.7945 0.958569L18.7619 -0.441053ZM10.1213 1.51462C9.62185 2.1244 9.21804 2.82749 8.85634 3.5012C8.48349 4.19571 8.16539 4.83797 7.80283 5.42761L8.99542 6.16091C9.38657 5.52478 9.74627 4.80334 10.0898 4.16341C10.4445 3.5027 10.7957 2.90063 11.2044 2.40175L10.1213 1.51462ZM7.80313 5.42714C7.19734 6.41059 6.56457 7.37779 5.91445 8.3372L7.07344 9.12255C7.73183 8.15091 8.37616 7.16624 8.99513 6.16139L7.80313 5.42714ZM6.46355 8.03054C5.00766 8.09381 3.23766 8.13916 1.72977 8.84549L2.32365 10.1133C3.52698 9.54961 4.98637 9.49606 6.52434 9.42921L6.46355 8.03054ZM1.73047 8.84517C1.20389 9.09113 0.4927 9.46564 0.00334337 10.0115L1.04575 10.946C1.33103 10.6278 1.81319 10.3517 2.32295 10.1136L1.73047 8.84517ZM0.00229639 10.0126C-0.444106 10.5128 -0.552295 11.1211 -0.576964 11.6195C-0.589429 11.8714 -0.581404 12.1222 -0.573156 12.3419C-0.564509 12.5721 -0.555989 12.7626 -0.559979 12.9406L0.839669 12.972C0.844838 12.7414 0.83373 12.4989 0.825858 12.2893C0.817586 12.069 0.812198 11.8731 0.821324 11.6887C0.839836 11.3147 0.914837 11.0927 1.04679 10.9449L0.00229639 10.0126ZM-0.559989 12.9411C-0.623321 15.8461 -0.496611 18.7499 -0.405398 21.6163L0.993894 21.5717C0.901917 18.6814 0.777394 15.8285 0.839678 12.9716L-0.559989 12.9411ZM-0.405391 21.6165C-0.362687 22.9458 -0.375652 24.2828 -0.37631 25.6448C-0.376965 26.9997 -0.365316 28.3725 -0.270609 29.7388L1.12604 29.642C1.03494 28.3277 1.02304 26.9964 1.02369 25.6454C1.02434 24.3015 1.03755 22.9306 0.993887 21.5715L-0.405391 21.6165ZM-0.270637 29.7384C-0.234371 30.266 -0.100138 30.724 0.150035 31.104C0.40272 31.4878 0.742764 31.7448 1.113 31.9165C1.80557 32.2376 2.67787 32.2836 3.40237 32.3279L3.48789 30.9305C2.68144 30.8812 2.10522 30.8334 1.70192 30.6464C1.52422 30.564 1.40449 30.4634 1.31933 30.3341C1.23166 30.2009 1.14999 29.9905 1.12607 29.6424L-0.270637 29.7384ZM3.40192 32.3279C6.11576 32.4957 8.8303 32.5348 11.5336 32.5374L11.535 31.1374C8.84204 31.1348 6.1603 31.0958 3.48834 30.9306L3.40192 32.3279ZM11.2377 32.4714C14.6875 34.0856 18.5519 33.8601 21.9549 32.4587L21.4217 31.1641C18.3032 32.4485 14.8556 32.6186 11.831 31.2034L11.2377 32.4714ZM21.6889 32.5114C24.5282 32.5088 27.3706 32.454 30.226 32.2467L30.1246 30.8504C27.3167 31.0543 24.5116 31.1088 21.6877 31.1114L21.6889 32.5114ZM30.2261 32.2467C31.5575 32.1497 33.2989 32.1773 34.7739 31.7823L34.4117 30.4299C33.1074 30.7793 31.6508 30.7392 30.1244 30.8504L30.2261 32.2467ZM34.7734 31.7824C35.2856 31.6456 35.9392 31.3936 36.5221 31.0352C37.0844 30.6895 37.6961 30.1743 37.942 29.4639L36.619 29.006C36.5325 29.2559 36.2583 29.5539 35.7888 29.8426C35.34 30.1186 34.8159 30.322 34.4122 30.4298L34.7734 31.7824ZM37.943 29.4608C38.0885 29.034 38.1034 28.5271 38.0988 28.1212C38.0933 27.6387 38.0653 27.3398 38.0719 27.0245L36.6722 26.9951C36.6657 27.3043 36.6952 27.8148 36.6989 28.1372C36.7035 28.5361 36.6791 28.8295 36.6179 29.009L37.943 29.4608ZM11.6431 5.30597C12.0252 4.68736 12.4 4.06532 12.7673 3.43475L11.5575 2.73018C11.1972 3.34881 10.8288 3.96034 10.452 4.57012L11.6431 5.30597ZM12.7662 3.43664C12.9308 3.15599 13.1129 2.75173 13.2652 2.43944L12.0069 1.82567C11.819 2.21084 11.6871 2.50926 11.5586 2.72829L12.7662 3.43664ZM12.6727 2.8316C13.37 2.7951 14.0846 2.79675 14.8118 2.80421C15.5322 2.81161 16.272 2.8249 16.988 2.80896L16.9569 1.4093C16.2702 1.42459 15.5628 1.41185 14.8262 1.40429C14.0964 1.39679 13.3441 1.39454 12.5995 1.43351L12.6727 2.8316ZM16.9884 2.80895C18.9227 2.765 20.8964 2.71755 22.8269 2.67362L22.7951 1.27398C20.8367 1.31854 18.9163 1.36478 16.9566 1.40931L16.9884 2.80895ZM22.8278 2.6736C23.4455 2.65878 23.7084 2.67854 23.9033 2.75527C24.0658 2.81924 24.2581 2.95651 24.5954 3.41925L25.7268 2.59474C25.3339 2.05551 24.9478 1.66188 24.4162 1.45258C23.9169 1.25605 23.3699 1.26019 22.7942 1.274L22.8278 2.6736ZM24.5945 3.41805C25.1576 4.19424 25.7175 4.96593 26.2664 5.74473L27.4107 4.93812C26.8553 4.15022 26.2899 3.37083 25.7277 2.59593L24.5945 3.41805ZM26.2665 5.74475C26.9728 6.74671 27.6552 7.75824 28.3139 8.78717L29.493 8.03237C28.8222 6.98451 28.128 5.95568 27.4107 4.93811L26.2665 5.74475ZM28.9056 7.70977C28.0852 7.70717 27.265 7.70717 26.4434 7.70717V9.10717C27.2653 9.10717 28.0834 9.10717 28.9012 9.10977L28.9056 7.70977ZM26.8368 7.82816C23.0706 5.2693 18.0823 5.76922 13.8664 7.83865L14.4833 9.0954C18.4535 7.14657 22.8602 6.81891 26.05 8.98617L26.8368 7.82816ZM14.1631 7.76712C12.3006 7.79843 10.4335 7.84802 8.57023 7.92904L8.63105 9.32772C10.4787 9.24738 12.333 9.19808 14.1866 9.16692L14.1631 7.76712ZM9.17352 9.03064C10.0278 7.81394 10.8543 6.57461 11.642 5.30763L10.4531 4.56845C9.68102 5.81027 8.86925 7.02771 8.02776 8.22612L9.17352 9.03064ZM3.80878 9.46862C3.79153 9.40572 3.78292 9.36844 3.77922 9.35009C3.77187 9.31363 3.78478 9.35878 3.78211 9.43387C3.78127 9.4573 3.77838 9.50463 3.76424 9.56355C3.75273 9.61151 3.71772 9.73841 3.60814 9.86128C3.46969 10.0165 3.25483 10.1144 3.01845 10.0905C2.83126 10.0715 2.70776 9.98327 2.66236 9.94784C2.568 9.87421 2.51944 9.79495 2.51348 9.78563C2.4974 9.76049 2.48794 9.74139 2.48432 9.73387C2.47499 9.71449 2.47014 9.70219 2.46546 9.67256C2.46424 9.66485 2.45058 9.58781 2.47266 9.48136C2.48453 9.42416 2.51432 9.32092 2.59589 9.21544C2.68719 9.09735 2.82217 9.00528 2.98441 8.96987L3.28299 10.3377C3.45865 10.2993 3.60414 10.2002 3.70344 10.0718C3.79299 9.95596 3.82826 9.83909 3.84348 9.76574C3.87226 9.62702 3.85678 9.50771 3.84832 9.45417C3.82917 9.33289 3.78816 9.2147 3.74579 9.12667C3.73392 9.102 3.71639 9.06806 3.69282 9.03122C3.67938 9.0102 3.62392 8.92237 3.52362 8.84411C3.47526 8.80637 3.34903 8.71678 3.15941 8.69759C2.9206 8.67342 2.70359 8.77216 2.56334 8.9294C2.45195 9.05429 2.41548 9.18439 2.40289 9.23685C2.38767 9.30027 2.38409 9.35338 2.38299 9.38398C2.37929 9.48774 2.39816 9.58373 2.40683 9.62674C2.41915 9.68786 2.43663 9.75866 2.45863 9.8389L3.80878 9.46862ZM4.28955 28.7884C4.21698 28.73 4.12661 28.6036 4.05731 28.3427C3.9889 28.0851 3.95807 27.7599 3.95471 27.388C3.95139 27.0197 3.97484 26.6381 4.00069 26.2715C4.02529 25.9225 4.05501 25.5556 4.05352 25.2754L2.65354 25.2829C2.65467 25.4946 2.6314 25.7867 2.60415 26.1731C2.57815 26.5419 2.5509 26.9719 2.55477 27.4006C2.55861 27.8257 2.59288 28.2829 2.70422 28.7021C2.81468 29.118 3.01873 29.5629 3.41198 29.8792L4.28955 28.7884ZM4.05352 25.2747C4.02422 20.6132 3.70251 16.1392 3.79953 11.5502L2.39984 11.5206C2.30319 16.0923 2.62527 20.7843 2.65355 25.2835L4.05352 25.2747ZM3.79953 11.5502C3.804 11.3388 3.84297 11.0984 3.87991 10.731L2.48694 10.5909C2.46108 10.8481 2.40583 11.2374 2.39984 11.5205L3.79953 11.5502ZM3.2527 11.3575C3.2596 11.3568 3.264 11.3564 3.26804 11.356C3.27184 11.3556 3.27384 11.3555 3.27475 11.3554C3.27683 11.3553 3.27158 11.3557 3.26194 11.3557V9.95572C3.19521 9.95572 3.1344 9.96235 3.11416 9.96436L3.2527 11.3575ZM3.31333 11.3538C5.16875 11.2173 7.03565 11.1603 8.91121 11.1135L8.87627 9.71391C6.99904 9.76077 5.10268 9.81833 3.21055 9.95761L3.31333 11.3538ZM8.91102 11.1135C9.64756 11.0953 10.3785 11.0824 11.1199 11.0667L11.0903 9.667C10.3557 9.68254 9.61592 9.69565 8.87647 9.7139L8.91102 11.1135ZM10.6823 9.80893C8.034 11.8158 5.89959 14.5029 4.98002 17.47L6.31728 17.8845C7.13017 15.2615 9.05213 12.8008 11.5279 10.9248L10.6823 9.80893ZM4.97989 17.4705C3.56131 22.0587 4.66956 27.1377 8.17552 30.4078L9.13044 29.3841C6.05724 26.5176 5.04048 22.0141 6.31742 17.884L4.97989 17.4705ZM8.67491 29.1963C7.76335 29.1677 6.85974 29.1342 5.95875 29.0751L5.86719 30.4721C6.79288 30.5328 7.71593 30.5669 8.63105 30.5956L8.67491 29.1963ZM5.96175 29.0753C5.58492 29.049 5.28024 29.0502 4.93885 29.0029C4.6089 28.9571 4.40432 28.8805 4.28887 28.7879L3.41266 29.8798C3.82585 30.2113 4.33571 30.3326 4.74637 30.3896C5.1456 30.445 5.60771 30.454 5.86419 30.4719L5.96175 29.0753ZM13.8401 28.9998C10.3863 27.0192 8.45731 23.101 8.76724 19.153L7.37153 19.0434C7.02197 23.4963 9.19122 27.9477 13.1436 30.2143L13.8401 28.9998ZM8.76724 19.153C9.08666 15.0832 11.545 11.0234 15.456 9.75487L15.024 8.42317C10.4297 9.91331 7.72207 14.5771 7.37153 19.0434L8.76724 19.153ZM15.4557 9.75495C19.8282 8.3385 24.2049 10.3098 26.2057 14.3619L27.461 13.7421C25.1647 9.09138 20.0834 6.78421 15.0243 8.42309L15.4557 9.75495ZM26.1957 14.3408C28.1321 18.6163 27.4956 24.0108 24.6028 27.7388L25.7089 28.597C28.919 24.4602 29.6223 18.5131 27.471 13.7632L26.1957 14.3408ZM24.6028 27.7388C22.1026 30.9614 17.4053 31.0453 13.8402 28.9999L13.1435 30.2142C17.063 32.463 22.6244 32.5729 25.7089 28.597L24.6028 27.7388ZM33.4599 28.9068C32.2631 29.0051 31.0648 29.0853 29.8673 29.1421L29.9337 30.5405C31.1491 30.4828 32.3636 30.4016 33.5745 30.3021L33.4599 28.9068ZM29.866 29.1422C28.2459 29.2221 26.6251 29.2454 24.994 29.2506L24.9984 30.6506C26.6386 30.6454 28.2838 30.6219 29.935 30.5405L29.866 29.1422ZM25.4092 30.5158C31.0348 26.4045 33.319 18.4716 30.4177 12.0688L29.1425 12.6467C31.7579 18.4184 29.6978 25.6476 24.5832 29.3854L25.4092 30.5158ZM30.4072 12.0466C29.9956 11.2171 29.5235 10.4815 29.0006 9.83353L27.9112 10.7128C28.367 11.2776 28.7847 11.9265 29.153 12.6689L30.4072 12.0466ZM28.4559 10.9732C28.7913 10.9732 29.1236 10.9732 29.4527 10.9757L29.4637 9.57578C29.1281 9.57315 28.7904 9.57315 28.4559 9.57315V10.9732ZM29.4582 10.9758C29.7148 10.9758 30.0185 10.9618 30.3223 10.9491L30.2638 9.55034C29.9448 9.56367 29.6779 9.57576 29.4582 9.57576V10.9758ZM30.293 10.9497C30.293 10.9497 30.293 10.9497 30.2931 10.9497C30.2931 10.9497 30.2931 10.9497 30.2931 10.9497C30.2931 10.9497 30.2931 10.9497 30.2931 10.9497C30.2931 10.9497 30.2931 10.9497 30.2931 10.9497C30.2931 10.9497 30.2931 10.9497 30.2931 10.9497C30.2931 10.9497 30.2931 10.9497 30.2931 10.9497C30.2931 10.9497 30.2931 10.9497 30.2931 10.9497C30.2931 10.9497 30.2932 10.9497 30.2932 10.9497C30.2932 10.9497 30.2932 10.9497 30.2932 10.9497C30.2932 10.9497 30.2932 10.9497 30.2932 10.9497C30.2932 10.9497 30.2932 10.9497 30.2932 10.9497C30.2932 10.9497 30.2932 10.9497 30.2932 10.9497C30.2932 10.9497 30.2932 10.9497 30.2932 10.9497C30.2932 10.9497 30.2933 10.9497 30.2933 10.9497C30.2933 10.9497 30.2933 10.9497 30.2933 10.9497C30.2933 10.9497 30.2933 10.9497 30.2933 10.9497C30.2933 10.9497 30.2933 10.9497 30.2933 10.9497C30.2933 10.9497 30.2933 10.9497 30.2933 10.9497C30.2933 10.9497 30.2933 10.9497 30.2933 10.9497C30.2933 10.9497 30.2933 10.9497 30.2934 10.9497C30.2934 10.9497 30.2934 10.9497 30.2934 10.9497C30.2934 10.9497 30.2934 10.9497 30.2934 10.9497C30.2934 10.9497 30.2934 10.9497 30.2934 10.9497C30.2934 10.9497 30.2934 10.9497 30.2934 10.9497C30.2934 10.9497 30.2934 10.9497 30.2934 10.9497C30.2934 10.9497 30.2934 10.9497 30.2935 10.9497C30.2935 10.9497 30.2935 10.9497 30.2935 10.9497C30.2935 10.9497 30.2935 10.9497 30.2935 10.9497C30.2935 10.9497 30.2935 10.9497 30.2935 10.9497C30.2935 10.9497 30.2935 10.9497 30.2935 10.9497C30.2935 10.9497 30.2935 10.9497 30.2935 10.9497C30.2935 10.9497 30.2935 10.9497 30.2936 10.9497C30.2936 10.9497 30.2936 10.9497 30.2936 10.9497C30.2936 10.9497 30.2936 10.9497 30.2936 10.9497C30.2936 10.9497 30.2936 10.9497 30.2936 10.9497C30.2936 10.9497 30.2936 10.9497 30.2936 10.9497C30.2936 10.9497 30.2936 10.9497 30.2936 10.9497C30.2936 10.9497 30.2937 10.9497 30.2937 10.9497C30.2937 10.9497 30.2937 10.9497 30.2937 10.9497C30.2937 10.9497 30.2937 10.9497 30.2937 10.9497C30.2937 10.9497 30.2937 10.9497 30.2937 10.9497C30.2937 10.9497 30.2937 10.9497 30.2937 10.9497C30.2937 10.9497 30.2937 10.9497 30.2937 10.9497C30.2938 10.9497 30.2938 10.9497 30.2938 10.9497C30.2938 10.9497 30.2938 10.9497 30.2938 10.9497C30.2938 10.9497 30.2938 10.9497 30.2938 10.9497C30.2938 10.9497 30.2938 10.9497 30.2938 10.9497C30.2938 10.9497 30.2938 10.9497 30.2938 10.9497C30.2938 10.9497 30.2938 10.9497 30.2939 10.9497C30.2939 10.9497 30.2939 10.9497 30.2939 10.9497C30.2939 10.9497 30.2939 10.9497 30.2939 10.9497C30.2939 10.9497 30.2939 10.9497 30.2939 10.9497C30.2939 10.9497 30.2939 10.9497 30.2939 10.9497C30.2939 10.9497 30.2939 10.9497 30.2939 10.9497C30.294 10.9497 30.294 10.9497 30.294 10.9497C30.294 10.9497 30.294 10.9497 30.294 10.9497C30.294 10.9497 30.294 10.9497 30.294 10.9497C30.294 10.9497 30.294 10.9497 30.294 10.9497C30.294 10.9497 30.294 10.9497 30.294 10.9497C30.294 10.9497 30.294 10.9497 30.2941 10.9497C30.2941 10.9497 30.2941 10.9497 30.2941 10.9497C30.2941 10.9497 30.2941 10.9497 30.2941 10.9497C30.2941 10.9497 30.2941 10.9497 30.2941 10.9497C30.2941 10.9497 30.2941 10.9497 30.2941 10.9497C30.2941 10.9497 30.2941 10.9497 30.2941 10.9497C30.2942 10.9497 30.2942 10.9497 30.2942 10.9497C30.2942 10.9497 30.2942 10.9497 30.2942 10.9497C30.2942 10.9497 30.2942 10.9497 30.2942 10.9497C30.2942 10.9497 30.2942 10.9497 30.2942 10.9497C30.2942 10.9497 30.2942 10.9497 30.2942 10.9497C30.2942 10.9497 30.2943 10.9497 30.2943 10.9497C30.2943 10.9497 30.2943 10.9497 30.2943 10.9497C30.2943 10.9497 30.2943 10.9497 30.2943 10.9497C30.2943 10.9497 30.2943 10.9497 30.2943 10.9497C30.2943 10.9497 30.2943 10.9497 30.2943 10.9497C30.2943 10.9497 30.2944 10.9497 30.2944 10.9497C30.2944 10.9497 30.2944 10.9497 30.2944 10.9497C30.2944 10.9497 30.2944 10.9497 30.2944 10.9497C30.2944 10.9497 30.2944 10.9497 30.2944 10.9497C30.2944 10.9497 30.2944 10.9497 30.2944 10.9497C30.2944 10.9497 30.2944 10.9497 30.2945 10.9497C30.2945 10.9497 30.2945 10.9497 30.2945 10.9497C30.2945 10.9497 30.2945 10.9497 30.2945 10.9497C30.2945 10.9497 30.2945 10.9497 30.2945 10.9497C30.2945 10.9497 30.2945 10.9497 30.2945 10.9497C30.2945 10.9497 30.2945 10.9497 30.2946 10.9497C30.2946 10.9497 30.2946 10.9497 30.2946 10.9497C30.2946 10.9497 30.2946 10.9497 30.2946 10.9497C30.2946 10.9497 30.2946 10.9497 30.2946 10.9497C30.2946 10.9497 30.2946 10.9497 30.2946 10.9497C30.2946 10.9497 30.2946 10.9497 30.2946 10.9497C30.2947 10.9497 30.2947 10.9497 30.2947 10.9497C30.2947 10.9497 30.2947 10.9497 30.2947 10.9497C30.2947 10.9497 30.2947 10.9497 30.2947 10.9497C30.2947 10.9497 30.2947 10.9497 30.2947 10.9497C30.2947 10.9497 30.2947 10.9497 30.2947 10.9497C30.2948 10.9497 30.2948 10.9497 30.2948 10.9497C30.2948 10.9497 30.2948 10.9497 30.2948 10.9497C30.2948 10.9497 30.2948 10.9497 30.2948 10.9497C30.2948 10.9497 30.2948 10.9497 30.2948 10.9497C30.2948 10.9497 30.2948 10.9497 30.2948 10.9497C30.2949 10.9497 30.2949 10.9497 30.2949 10.9497C30.2949 10.9497 30.2949 10.9497 30.2949 10.9497C30.2949 10.9497 30.2949 10.9497 30.2949 10.9497C30.2949 10.9497 30.2949 10.9497 30.2949 10.9497C30.2949 10.9497 30.2949 10.9497 30.295 10.9497C30.295 10.9497 30.295 10.9497 30.295 10.9497C30.295 10.9497 30.295 10.9497 30.295 10.9497C30.295 10.9497 30.295 10.9497 30.295 10.9497C30.295 10.9497 30.295 10.9497 30.295 10.9497C30.295 10.9497 30.295 10.9497 30.2951 10.9497C30.2951 10.9497 30.2951 10.9497 30.2951 10.9497C30.2951 10.9497 30.2951 10.9497 30.2951 10.9497C30.2951 10.9497 30.2951 10.9497 30.2951 10.9497C30.2951 10.9497 30.2951 10.9497 30.2951 10.9497C30.2951 10.9497 30.2951 10.9497 30.2952 10.9497C30.2952 10.9497 30.2952 10.9497 30.2952 10.9497C30.2952 10.9497 30.2952 10.9497 30.2952 10.9497C30.2952 10.9497 30.2952 10.9497 30.2952 10.9497C30.2952 10.9497 30.2952 10.9497 30.2952 10.9497C30.2952 10.9497 30.2953 10.9497 30.2953 10.9497C30.2953 10.9497 30.2953 10.9497 30.2953 10.9497C30.2953 10.9497 30.2953 10.9497 30.2953 10.9497C30.2953 10.9497 30.2953 10.9497 30.2953 10.9497C30.2953 10.9497 30.2953 10.9497 30.2953 10.9497C30.2954 10.9497 30.2954 10.9497 30.2954 10.9497C30.2954 10.9497 30.2954 10.9497 30.2954 10.9497C30.2954 10.9497 30.2954 10.9497 30.2954 10.9497C30.2954 10.9497 30.2954 10.9497 30.2954 10.9497C30.2954 10.9497 30.2954 10.9497 30.2954 10.9497C30.2955 10.9497 30.2955 10.9497 30.2955 10.9497C30.2955 10.9497 30.2955 10.9497 30.2955 10.9497C30.2955 10.9497 30.2955 10.9497 30.2955 10.9497C30.2955 10.9497 30.2955 10.9497 30.2955 10.9497C30.2955 10.9497 30.2955 10.9497 30.2956 10.9497C30.2956 10.9497 30.2956 10.9497 30.2956 10.9497C30.2956 10.9497 30.2956 10.9497 30.2956 10.9497C30.2956 10.9497 30.2956 10.9497 30.2956 10.9497C30.2956 10.9497 30.2956 10.9497 30.2956 10.9497C30.2956 10.9497 30.2957 10.9497 30.2957 10.9497C30.2957 10.9497 30.2957 10.9497 30.2957 10.9497C30.2957 10.9497 30.2957 10.9497 30.2957 10.9497C30.2957 10.9497 30.2957 10.9497 30.2957 10.9497C30.2957 10.9497 30.2957 10.9497 30.2957 10.9497C30.2958 10.9497 30.2958 10.9497 30.2958 10.9497C30.2958 10.9497 30.2958 10.9497 30.2958 10.9497C30.2958 10.9497 30.2958 10.9497 30.2958 10.9497C30.2958 10.9497 30.2958 10.9497 30.2958 10.9497C30.2958 10.9497 30.2958 10.9497 30.2959 10.9497C30.2959 10.9497 30.2959 10.9497 30.2959 10.9497C30.2959 10.9497 30.2959 10.9497 30.2959 10.9497C30.2959 10.9497 30.2959 10.9497 30.2959 10.9497C30.2959 10.9497 30.2959 10.9497 30.2959 10.9497C30.296 10.9497 30.296 10.9497 30.296 10.9497C30.296 10.9497 30.296 10.9497 30.296 10.9497C30.296 10.9497 30.296 10.9497 30.296 10.9497C30.296 10.9497 30.296 10.9497 30.296 10.9497C30.296 10.9497 30.296 10.9497 30.2961 10.9497C30.2961 10.9497 30.2961 10.9497 30.2961 10.9497C30.2961 10.9497 30.2961 10.9497 30.2961 10.9497C30.2961 10.9497 30.2961 10.9497 30.2961 10.9497C30.2961 10.9497 30.2961 10.9497 30.2961 10.9497C30.2961 10.9497 30.2962 10.9497 30.2962 10.9497C30.2962 10.9497 30.2962 10.9497 30.2962 10.9497C30.2962 10.9497 30.2962 10.9497 30.2962 10.9497C30.2962 10.9497 30.2962 10.9497 30.2962 10.9497C30.2962 10.9497 30.2962 10.9497 30.2962 10.9497C30.2963 10.9497 30.2963 10.9497 30.2963 10.9497C30.2963 10.9497 30.2963 10.9497 30.2963 10.9497C30.2963 10.9497 30.2963 10.9497 30.2963 10.9497C30.2963 10.9497 30.2963 10.9497 30.2963 10.9497C30.2963 10.9497 30.2964 10.9497 30.2964 10.9497C30.2964 10.9497 30.2964 10.9497 30.2964 10.9497C30.2964 10.9497 30.2964 10.9497 30.2964 10.9497C30.2964 10.9497 30.2964 10.9497 30.2964 10.9497C30.2964 10.9497 30.2964 10.9497 30.2964 10.9497C30.2965 10.9497 30.2965 10.9497 30.2965 10.9497C30.2965 10.9497 30.2965 10.9497 30.2965 10.9497C30.2965 10.9497 30.2965 10.9497 30.2965 10.9497C30.2965 10.9497 30.2965 10.9497 30.2965 10.9497C30.2965 10.9497 30.2966 10.9497 30.2966 10.9497C30.2966 10.9497 30.2966 10.9497 30.2966 10.9497C30.2966 10.9497 30.2966 10.9497 30.2966 10.9497C30.2966 10.9497 30.2966 10.9497 30.2966 10.9497C30.2966 10.9497 30.2966 10.9497 30.2967 10.9497C30.2967 10.9497 30.2967 10.9497 30.2967 10.9497C30.2967 10.9497 30.2967 10.9497 30.2967 10.9497C30.2967 10.9497 30.2967 10.9497 30.2967 10.9497C30.2967 10.9497 30.2967 10.9497 30.2967 10.9497C30.2967 10.9497 30.2968 10.9497 30.2968 10.9497C30.2968 10.9497 30.2968 10.9497 30.2968 10.9497C30.2968 10.9497 30.2968 10.9497 30.2968 10.9497C30.2968 10.9497 30.2968 10.9497 30.2968 10.9497C30.2968 10.9497 30.2968 10.9497 30.2969 10.9497C30.2969 10.9497 30.2969 10.9497 30.2969 10.9497C30.2969 10.9497 30.2969 10.9497 30.2969 10.9497C30.2969 10.9497 30.2969 10.9497 30.2969 10.9497C30.2969 10.9497 30.2969 10.9497 30.2969 10.9497C30.297 10.9497 30.297 10.9497 30.297 10.9497C30.297 10.9497 30.297 10.9497 30.297 10.9497C30.297 10.9497 30.297 10.9497 30.297 10.9497C30.297 10.9497 30.297 10.9497 30.297 10.9497C30.297 10.9497 30.297 10.9497 30.2971 10.9497C30.2971 10.9497 30.2971 10.9497 30.2971 10.9497C30.2971 10.9497 30.2971 10.9497 30.2971 10.9497C30.2971 10.9497 30.2971 10.9497 30.2971 10.9497C30.2971 10.9497 30.2971 10.9497 30.2971 10.9497C30.2972 10.9497 30.2972 10.9497 30.2972 10.9497C30.2972 10.9497 30.2972 10.9497 30.2972 10.9497C30.2972 10.9497 30.2972 10.9497 30.2972 10.9497C30.2972 10.9497 30.2972 10.9497 30.2972 10.9497C30.2972 10.9497 30.2973 10.9497 30.2973 10.9497C30.2973 10.9497 30.2973 10.9497 30.2973 10.9497C30.2973 10.9497 30.2973 10.9497 30.2973 10.9497C30.2973 10.9497 30.2973 10.9497 30.2973 10.9497C30.2973 10.9497 30.2973 10.9497 30.2974 10.9497C30.2974 10.9497 30.2974 10.9497 30.2974 10.9497C30.2974 10.9497 30.2974 10.9497 30.2974 10.9497C30.2974 10.9497 30.2974 10.9497 30.2974 10.9497C30.2974 10.9497 30.2974 10.9497 30.2974 10.9497C30.2975 10.9497 30.2975 10.9497 30.2975 10.9497C30.2975 10.9497 30.2975 10.9497 30.2975 10.9497C30.2975 10.9497 30.2975 10.9497 30.2975 10.9497C30.2975 10.9497 30.2975 10.9497 30.2975 10.9497C30.2975 10.9497 30.2975 10.9497 30.2976 10.9497C30.2976 10.9497 30.2976 10.9497 30.2976 10.9497C30.2976 10.9497 30.2976 10.9497 30.2976 10.9497C30.2976 10.9497 30.2976 10.9497 30.2976 10.9497C30.2976 10.9497 30.2976 10.9497 30.2976 10.9497C30.2977 10.9497 30.2977 10.9497 30.2977 10.9497C30.2977 10.9497 30.2977 10.9497 30.2977 10.9497C30.2977 10.9497 30.2977 10.9497 30.2977 10.9497C30.2977 10.9497 30.2977 10.9497 30.2977 10.9497C30.2977 10.9497 30.2978 10.9497 30.2978 10.9497C30.2978 10.9497 30.2978 10.9497 30.2978 10.9497C30.2978 10.9497 30.2978 10.9497 30.2978 10.9497C30.2978 10.9497 30.2978 10.9497 30.2978 10.9497C30.2978 10.9497 30.2978 10.9497 30.2979 10.9497C30.2979 10.9497 30.2979 10.9497 30.2979 10.9497C30.2979 10.9497 30.2979 10.9497 30.2979 10.9497C30.2979 10.9497 30.2979 10.9497 30.2979 10.9497C30.2979 10.9497 30.2979 10.9497 30.2979 10.9497C30.298 10.9497 30.298 10.9497 30.298 10.9497C30.298 10.9497 30.298 10.9497 30.298 10.9497C30.298 10.9497 30.298 10.9497 30.298 10.9497C30.298 10.9497 30.298 10.9497 30.298 10.9497C30.298 10.9497 30.2981 10.9497 30.2981 10.9497C30.2981 10.9497 30.2981 10.9497 30.2981 10.9497C30.2981 10.9497 30.2981 10.9497 30.2981 10.9497C30.2981 10.9497 30.2981 10.9497 30.2981 10.9497C30.2981 10.9497 30.2981 10.9497 30.2982 10.9497C30.2982 10.9497 30.2982 10.9497 30.2982 10.9497C30.2982 10.9497 30.2982 10.9497 30.2982 10.9497C30.2982 10.9497 30.2982 10.9497 30.2982 10.9497C30.2982 10.9497 30.2982 10.9497 30.2982 10.9497C30.2983 10.9497 30.2983 10.9497 30.2983 10.9497C30.2983 10.9497 30.2983 10.9497 30.2983 10.9497C30.2983 10.9497 30.2983 10.9497 30.2983 10.9497C30.2983 10.9497 30.2983 10.9497 30.2983 10.9497C30.2983 10.9497 30.2984 10.9497 30.2984 10.9497C30.2984 10.9497 30.2984 10.9497 30.2984 10.9497C30.2984 10.9497 30.2984 10.9497 30.2984 10.9497C30.2984 10.9497 30.2984 10.9497 30.2984 10.9497C30.2984 10.9497 30.2984 10.9497 30.2985 10.9497C30.2985 10.9497 30.2985 10.9497 30.2985 10.9497C30.2985 10.9497 30.2985 10.9497 30.2985 10.9497C30.2985 10.9497 30.2985 10.9497 30.2985 10.9497C30.2985 10.9497 30.2985 10.9497 30.2985 10.9497C30.2986 10.9497 30.2986 10.9497 30.2986 10.9497C30.2986 10.9497 30.2986 10.9497 30.2986 10.9497C30.2986 10.9497 30.2986 10.9497 30.2986 10.9497C30.2986 10.9497 30.2986 10.9497 30.2986 10.9497C30.2986 10.9497 30.2987 10.9497 30.2987 10.9497C30.2987 10.9497 30.2987 10.9497 30.2987 10.9497C30.2987 10.9497 30.2987 10.9497 30.2987 10.9497C30.2987 10.9497 30.2987 10.9497 30.2987 10.9497C30.2987 10.9497 30.2987 10.9497 30.2988 10.9497C30.2988 10.9497 30.2988 10.9497 30.2988 10.9497C30.2988 10.9497 30.2988 10.9497 30.2988 10.9497C30.2988 10.9497 30.2988 10.9497 30.2988 10.9497C30.2988 10.9497 30.2988 10.9497 30.2988 10.9497C30.2989 10.9497 30.2989 10.9497 30.2989 10.9497C30.2989 10.9497 30.2989 10.9497 30.2989 10.9497C30.2989 10.9497 30.2989 10.9497 30.2989 10.9497C30.2989 10.9497 30.2989 10.9497 30.2989 10.9497C30.2989 10.9497 30.299 10.9497 30.299 10.9497C30.299 10.9497 30.299 10.9497 30.299 10.9497C30.299 10.9497 30.299 10.9497 30.299 10.9497C30.299 10.9497 30.299 10.9497 30.299 10.9497C30.299 10.9497 30.299 10.9497 30.2991 10.9497C30.2991 10.9497 30.2991 10.9497 30.2991 10.9497C30.2991 10.9497 30.2991 10.9497 30.2991 10.9497C30.2991 10.9497 30.2991 10.9497 30.2991 10.9497C30.2991 10.9497 30.2991 10.9497 30.2991 10.9497C30.2991 10.9497 30.2992 10.9497 30.2992 10.9497C30.2992 10.9497 30.2992 10.9497 30.2992 10.9497C30.2992 10.9497 30.2992 10.9497 30.2992 10.9497C30.2992 10.9497 30.2992 10.9497 30.2992 10.9497C30.2992 10.9497 30.2992 10.9497 30.2993 10.9497C30.2993 10.9497 30.2993 10.9497 30.2993 10.9497C30.2993 10.9497 30.2993 10.9497 30.2993 10.9497C30.2993 10.9497 30.2993 10.9497 30.2993 10.9497C30.2993 10.9497 30.2993 10.9497 30.2993 10.9497C30.2994 10.9497 30.2994 10.9497 30.2994 10.9497C30.2994 10.9497 30.2994 10.9497 30.2994 10.9497C30.2994 10.9497 30.2994 10.9497 30.2994 10.9497C30.2994 10.9497 30.2994 10.9497 30.2994 10.9497C30.2994 10.9497 30.2995 10.9497 30.2995 10.9497C30.2995 10.9497 30.2995 10.9497 30.2995 10.9497C30.2995 10.9497 30.2995 10.9497 30.2995 10.9497C30.2995 10.9497 30.2995 10.9497 30.2995 10.9497C30.2995 10.9497 30.2995 10.9497 30.2996 10.9497C30.2996 10.9497 30.2996 10.9497 30.2996 10.9497C30.2996 10.9497 30.2996 10.9497 30.2996 10.9497C30.2996 10.9497 30.2996 10.9497 30.2996 10.9497C30.2996 10.9497 30.2996 10.9497 30.2996 10.9497C30.2996 10.9497 30.2997 10.9497 30.2997 10.9497C30.2997 10.9497 30.2997 10.9497 30.2997 10.9497C30.2997 10.9497 30.2997 10.9497 30.2997 10.9497C30.2997 10.9497 30.2997 10.9497 30.2997 10.9497C30.2997 10.9497 30.2997 10.9497 30.2998 10.9497C30.2998 10.9497 30.2998 10.9497 30.2998 10.9497C30.2998 10.9497 30.2998 10.9497 30.2998 10.9497C30.2998 10.9497 30.2998 10.9497 30.2998 10.9497C30.2998 10.9497 30.2998 10.9497 30.2998 10.9497C30.2999 10.9497 30.2999 10.9497 30.2999 10.9497C30.2999 10.9497 30.2999 10.9497 30.2999 10.9497C30.2999 10.9497 30.2999 10.9497 30.2999 10.9497C30.2999 10.9497 30.2999 10.9497 30.2999 10.9497C30.2999 10.9497 30.2999 10.9497 30.3 10.9497C30.3 10.9497 30.3 10.9497 30.3 10.9497C30.3 10.9497 30.3 10.9497 30.3 10.9497C30.3 10.9497 30.3 10.9497 30.3 10.9497C30.3 10.9497 30.3 10.9497 30.3 10.9497C30.3001 10.9497 30.3001 10.9497 30.3001 10.9497C30.3001 10.9497 30.3001 10.9497 30.3001 10.9497C30.3001 10.9497 30.3001 10.9497 30.3001 10.9497C30.3001 10.9497 30.3001 10.9497 30.3001 10.9497C30.3001 10.9497 30.3001 10.9497 30.3002 10.9497C30.3002 10.9497 30.3002 10.9497 30.3002 10.9497C30.3002 10.9497 30.3002 10.9497 30.3002 10.9497C30.3002 10.9497 30.3002 10.9497 30.3002 10.9497C30.3002 10.9497 30.3002 10.9497 30.3002 10.9497C30.3003 10.9497 30.3003 10.9497 30.3003 10.9497C30.3003 10.9497 30.3003 10.9497 30.3003 10.9497C30.3003 10.9497 30.3003 10.9497 30.3003 10.9497C30.3003 10.9497 30.3003 10.9497 30.3003 10.9497C30.3003 10.9497 30.3003 10.9497 30.3004 10.9497C30.3004 10.9497 30.3004 10.9497 30.3004 10.9497C30.3004 10.9497 30.3004 10.9497 30.3004 10.9497C30.3004 10.9497 30.3004 10.9497 30.3004 10.9497C30.3004 10.9497 30.3004 10.9497 30.3004 10.9497C30.3005 10.9497 30.3005 10.9497 30.3005 10.9497C30.3005 10.9497 30.3005 10.9497 30.3005 10.9497C30.3005 10.9497 30.3005 10.9497 30.3005 10.9497C30.3005 10.9497 30.3005 10.9497 30.3005 10.9497C30.3005 10.9497 30.3005 10.9497 30.3006 10.9497C30.3006 10.9497 30.3006 10.9497 30.3006 10.9497C30.3006 10.9497 30.3006 10.9497 30.3006 10.9497C30.3006 10.9497 30.3006 10.9497 30.3006 10.9497C30.3006 10.9497 30.3006 10.9497 30.3006 10.9497C30.3006 10.9497 30.3007 10.9497 30.3007 10.9497C30.3007 10.9497 30.3007 10.9497 30.3007 10.9497C30.3007 10.9497 30.3007 10.9497 30.3007 10.9497C30.3007 10.9497 30.3007 10.9497 30.3007 10.9497C30.3007 10.9497 30.3007 10.9497 30.3007 10.9497C30.3008 10.9497 30.3008 10.9497 30.3008 10.9497C30.3008 10.9497 30.3008 10.9497 30.3008 10.9497C30.3008 10.9497 30.3008 10.9497 30.3008 10.9497C30.3008 10.9497 30.3008 10.9497 30.3008 10.9497C30.3008 10.9497 30.3008 10.9497 30.3009 10.9497C30.3009 10.9497 30.3009 10.9497 30.3009 10.9497C30.3009 10.9497 30.3009 10.9497 30.3009 10.9497C30.3009 10.9497 30.3009 10.9497 30.3009 10.9497C30.3009 10.9497 30.3009 10.9497 30.3009 10.9497C30.3009 10.9497 30.301 10.9497 30.301 10.9497C30.301 10.9497 30.301 10.9497 30.301 10.9497C30.301 10.9497 30.301 10.9497 30.301 10.9497C30.301 10.9497 30.301 10.9497 30.301 10.9497C30.301 10.9497 30.301 10.9497 30.301 10.9497C30.3011 10.9497 30.3011 10.9497 30.3011 10.9497C30.3011 10.9497 30.3011 10.9497 30.3011 10.9497C30.3011 10.9497 30.3011 10.9497 30.3011 10.9497C30.3011 10.9497 30.3011 10.9497 30.3011 10.9497C30.3011 10.9497 30.3011 10.9497 30.3012 10.9497C30.3012 10.9497 30.3012 10.9497 30.3012 10.9497C30.3012 10.9497 30.3012 10.9497 30.3012 10.9497C30.3012 10.9497 30.3012 10.9497 30.3012 10.9497C30.3012 10.9497 30.3012 10.9497 30.3012 10.9497C30.3012 10.9497 30.3013 10.9497 30.3013 10.9497C30.3013 10.9497 30.3013 10.9497 30.3013 10.9497C30.3013 10.9497 30.3013 10.9497 30.3013 10.9497C30.3013 10.9497 30.3013 10.9497 30.3013 10.9497C30.3013 10.9497 30.3013 10.9497 30.3013 10.9497C30.3013 10.9497 30.3014 10.9497 30.3014 10.9497C30.3014 10.9497 30.3014 10.9497 30.3014 10.9497C30.3014 10.9497 30.3014 10.9497 30.3014 10.9497C30.3014 10.9497 30.3014 10.9497 30.3014 10.9497C30.3014 10.9497 30.3014 10.9497 30.3014 10.9497C30.3015 10.9497 30.3015 10.9497 30.3015 10.9497C30.3015 10.9497 30.3015 10.9497 30.3015 10.9497C30.3015 10.9497 30.3015 10.9497 30.3015 10.9497C30.3015 10.9497 30.3015 10.9497 30.3015 10.9497C30.3015 10.9497 30.3015 10.9497 30.3015 10.9497C30.3016 10.9497 30.3016 10.9497 30.3016 10.9497C30.3016 10.9497 30.3016 10.9497 30.3016 10.9497C30.3016 10.9497 30.3016 10.9497 30.3016 10.9497C30.3016 10.9497 30.3016 10.9497 30.3016 10.9497C30.3016 10.9497 30.3016 10.9497 30.3016 10.9497C30.3017 10.9497 30.3017 10.9497 30.3017 10.9497C30.3017 10.9497 30.3017 10.9497 30.3017 10.9497C30.3017 10.9497 30.3017 10.9497 30.3017 10.9497C30.3017 10.9497 30.3017 10.9497 30.3017 10.9497C30.3017 10.9497 30.3017 10.9497 30.3017 10.9497C30.3018 10.9497 30.3018 10.9497 30.3018 10.9497C30.3018 10.9497 30.3018 10.9497 30.3018 10.9497C30.3018 10.9497 30.3018 10.9497 30.3018 10.9497C30.3018 10.9497 30.3018 10.9497 30.3018 10.9497C30.3018 10.9497 30.3018 10.9497 30.3018 10.9497C30.3019 10.9497 30.3019 10.9497 30.3019 10.9497C30.3019 10.9497 30.3019 10.9497 30.3019 10.9497C30.3019 10.9497 30.3019 10.9497 30.3019 10.9497C30.3019 10.9497 30.3019 10.9497 30.3019 10.9497C30.3019 10.9497 30.3019 10.9497 30.3019 10.9497C30.302 10.9497 30.302 10.9497 30.302 10.9497C30.302 10.9497 30.302 10.9497 30.302 10.9497C30.302 10.9497 30.302 10.9497 30.302 10.9497C30.302 10.9497 30.302 10.9497 30.302 10.9497C30.302 10.9497 30.302 10.9497 30.302 10.9497C30.3021 10.9497 30.3021 10.9497 30.3021 10.9497C30.3021 10.9497 30.3021 10.9497 30.3021 10.9497C30.3021 10.9497 30.3021 10.9497 30.3021 10.9497C30.3021 10.9497 30.3021 10.9497 30.3021 10.9497C30.3021 10.9497 30.3021 10.9497 30.3021 10.9497C30.3022 10.9497 30.3022 10.9497 30.3022 10.9497C30.3022 10.9497 30.3022 10.9497 30.3022 10.9497C30.3022 10.9497 30.3022 10.9497 30.3022 10.9497C30.3022 10.9497 30.3022 10.9497 30.3022 10.9497C30.3022 10.9497 30.3022 10.9497 30.3022 10.9497C30.3022 10.9497 30.3023 10.9497 30.3023 10.9497C30.3023 10.9497 30.3023 10.9497 30.3023 10.9497C30.3023 10.9497 30.3023 10.9497 30.3023 10.9497C30.3023 10.9497 30.3023 10.9497 30.3023 10.9497C30.3023 10.9497 30.3023 10.9497 30.3023 10.9497C30.3023 10.9497 30.3023 10.9497 30.3024 10.9497C30.3024 10.9497 30.3024 10.9497 30.3024 10.9497C30.3024 10.9497 30.3024 10.9497 30.3024 10.9497C30.3024 10.9497 30.3024 10.9497 30.3024 10.9497C30.3024 10.9497 30.3024 10.9497 30.3024 10.9497C30.3024 10.9497 30.3024 10.9497 30.3024 10.9497C30.3025 10.9497 30.3025 10.9497 30.3025 10.9497C30.3025 10.9497 30.3025 10.9497 30.3025 10.9497C30.3025 10.9497 30.3025 10.9497 30.3025 10.9497C30.3025 10.9497 30.3025 10.9497 30.3025 10.9497C30.3025 10.9497 30.3025 10.9497 30.3025 10.9497C30.3025 10.9497 30.3026 10.9497 30.3026 10.9497C30.3026 10.9497 30.3026 10.9497 30.3026 10.9497C30.3026 10.9497 30.3026 10.9497 30.3026 10.9497C30.3026 10.9497 30.3026 10.9497 30.3026 10.9497C30.3026 10.9497 30.3026 10.9497 30.3026 10.9497C30.3026 10.9497 30.3026 10.9497 30.3026 10.9497C30.3027 10.9497 30.3027 10.9497 30.3027 10.9497C30.3027 10.9497 30.3027 10.9497 30.3027 10.9497C30.3027 10.9497 30.3027 10.9497 30.3027 10.9497C30.3027 10.9497 30.3027 10.9497 30.3027 10.9497C30.3027 10.9497 30.3027 10.9497 30.3027 10.9497C30.3027 10.9497 30.3028 10.9497 30.3028 10.9497C30.3028 10.9497 30.3028 10.9497 30.3028 10.9497C30.3028 10.9497 30.3028 10.9497 30.3028 10.9497C30.3028 10.9497 30.3028 10.9497 30.3028 10.9497C30.3028 10.9497 30.3028 10.9497 30.3028 10.9497C30.3028 10.9497 30.3028 10.9497 30.3028 10.9497C30.3029 10.9497 30.3029 10.9497 30.3029 10.9497C30.3029 10.9497 30.3029 10.9497 30.3029 10.9497C30.3029 10.9497 30.3029 10.9497 30.3029 10.9497C30.3029 10.9497 30.3029 10.9497 30.3029 10.9497C30.3029 10.9497 30.3029 10.9497 30.3029 10.9497C30.3029 10.9497 30.3029 10.9497 30.3029 10.9497C30.303 10.9497 30.303 10.9497 30.303 10.9497C30.303 10.9497 30.303 10.9497 30.303 10.9497C30.303 10.9497 30.303 10.9497 30.303 10.9497C30.303 10.9497 30.303 10.9497 30.303 10.9497C30.303 10.9497 30.303 10.9497 30.303 10.9497C30.303 10.9497 30.303 10.9497 30.3031 10.9497C30.3031 10.9497 30.3031 10.9497 30.3031 10.9497C30.3031 10.9497 30.3031 10.9497 30.3031 10.9497C30.3031 10.9497 30.3031 10.9497 30.3031 10.9497C30.3031 10.9497 30.3031 10.9497 30.3031 10.9497C30.3031 10.9497 30.3031 10.9497 30.3031 10.9497C30.3031 10.9497 30.3031 10.9497 30.3032 10.9497C30.3032 10.9497 30.3032 10.9497 30.3032 10.9497C30.3032 10.9497 30.3032 10.9497 30.3032 10.9497C30.3032 10.9497 30.3032 10.9497 30.3032 10.9497C30.3032 10.9497 30.3032 10.9497 30.3032 10.9497C30.3032 10.9497 30.3032 10.9497 30.3032 10.9497C30.3032 10.9497 30.3032 10.9497 30.3033 10.9497C30.3033 10.9497 30.3033 10.9497 30.3033 10.9497C30.3033 10.9497 30.3033 10.9497 30.3033 10.9497C30.3033 10.9497 30.3033 10.9497 30.3033 10.9497C30.3033 10.9497 30.3033 10.9497 30.3033 10.9497C30.3033 10.9497 30.3033 10.9497 30.3033 10.9497C30.3033 10.9497 30.3033 10.9497 30.3033 10.9497C30.3034 10.9497 30.3034 10.9497 30.3034 10.9497C30.3034 10.9497 30.3034 10.9497 30.3034 10.9497C30.3034 10.9497 30.3034 10.9497 30.3034 10.9497C30.3034 10.9497 30.3034 10.9497 30.3034 10.9497C30.3034 10.9497 30.3034 10.9497 30.3034 10.9497C30.3034 10.9497 30.3034 10.9497 30.3034 10.9497C30.3034 10.9497 30.3035 10.9497 30.3035 10.9497C30.3035 10.9497 30.3035 10.9497 30.3035 10.9497C30.3035 10.9497 30.3035 10.9497 30.3035 10.9497C30.3035 10.9497 30.3035 10.9497 30.3035 10.9497V9.54973C30.3035 9.54973 30.3035 9.54973 30.3035 9.54973C30.3035 9.54973 30.3035 9.54973 30.3035 9.54973C30.3035 9.54973 30.3035 9.54973 30.3035 9.54973C30.3035 9.54973 30.3034 9.54973 30.3034 9.54973C30.3034 9.54973 30.3034 9.54973 30.3034 9.54973C30.3034 9.54973 30.3034 9.54973 30.3034 9.54973C30.3034 9.54973 30.3034 9.54973 30.3034 9.54973C30.3034 9.54973 30.3034 9.54973 30.3034 9.54973C30.3034 9.54973 30.3034 9.54973 30.3034 9.54973C30.3034 9.54973 30.3034 9.54973 30.3033 9.54973C30.3033 9.54973 30.3033 9.54973 30.3033 9.54973C30.3033 9.54973 30.3033 9.54973 30.3033 9.54973C30.3033 9.54973 30.3033 9.54973 30.3033 9.54973C30.3033 9.54973 30.3033 9.54973 30.3033 9.54973C30.3033 9.54973 30.3033 9.54973 30.3033 9.54973C30.3033 9.54973 30.3033 9.54973 30.3033 9.54973C30.3032 9.54973 30.3032 9.54973 30.3032 9.54973C30.3032 9.54973 30.3032 9.54973 30.3032 9.54973C30.3032 9.54973 30.3032 9.54973 30.3032 9.54973C30.3032 9.54973 30.3032 9.54973 30.3032 9.54973C30.3032 9.54973 30.3032 9.54973 30.3032 9.54973C30.3032 9.54973 30.3032 9.54973 30.3032 9.54973C30.3031 9.54973 30.3031 9.54973 30.3031 9.54973C30.3031 9.54973 30.3031 9.54973 30.3031 9.54973C30.3031 9.54973 30.3031 9.54973 30.3031 9.54973C30.3031 9.54973 30.3031 9.54973 30.3031 9.54973C30.3031 9.54973 30.3031 9.54973 30.3031 9.54973C30.3031 9.54973 30.3031 9.54973 30.3031 9.54973C30.303 9.54973 30.303 9.54973 30.303 9.54973C30.303 9.54973 30.303 9.54973 30.303 9.54973C30.303 9.54973 30.303 9.54973 30.303 9.54973C30.303 9.54973 30.303 9.54973 30.303 9.54973C30.303 9.54973 30.303 9.54973 30.303 9.54973C30.303 9.54973 30.303 9.54973 30.3029 9.54973C30.3029 9.54973 30.3029 9.54973 30.3029 9.54973C30.3029 9.54973 30.3029 9.54973 30.3029 9.54973C30.3029 9.54973 30.3029 9.54973 30.3029 9.54973C30.3029 9.54973 30.3029 9.54973 30.3029 9.54973C30.3029 9.54973 30.3029 9.54973 30.3029 9.54973C30.3029 9.54973 30.3029 9.54973 30.3028 9.54973C30.3028 9.54973 30.3028 9.54973 30.3028 9.54973C30.3028 9.54973 30.3028 9.54973 30.3028 9.54973C30.3028 9.54973 30.3028 9.54973 30.3028 9.54973C30.3028 9.54973 30.3028 9.54973 30.3028 9.54973C30.3028 9.54973 30.3028 9.54973 30.3028 9.54973C30.3028 9.54973 30.3027 9.54973 30.3027 9.54973C30.3027 9.54973 30.3027 9.54973 30.3027 9.54973C30.3027 9.54973 30.3027 9.54973 30.3027 9.54973C30.3027 9.54973 30.3027 9.54973 30.3027 9.54973C30.3027 9.54973 30.3027 9.54973 30.3027 9.54973C30.3027 9.54973 30.3027 9.54973 30.3026 9.54973C30.3026 9.54973 30.3026 9.54973 30.3026 9.54973C30.3026 9.54973 30.3026 9.54973 30.3026 9.54973C30.3026 9.54973 30.3026 9.54973 30.3026 9.54973C30.3026 9.54973 30.3026 9.54973 30.3026 9.54973C30.3026 9.54973 30.3026 9.54973 30.3026 9.54973C30.3026 9.54973 30.3025 9.54973 30.3025 9.54973C30.3025 9.54973 30.3025 9.54973 30.3025 9.54973C30.3025 9.54973 30.3025 9.54973 30.3025 9.54973C30.3025 9.54973 30.3025 9.54973 30.3025 9.54973C30.3025 9.54973 30.3025 9.54973 30.3025 9.54973C30.3025 9.54973 30.3025 9.54973 30.3024 9.54973C30.3024 9.54973 30.3024 9.54973 30.3024 9.54973C30.3024 9.54973 30.3024 9.54973 30.3024 9.54973C30.3024 9.54973 30.3024 9.54973 30.3024 9.54973C30.3024 9.54973 30.3024 9.54973 30.3024 9.54973C30.3024 9.54973 30.3024 9.54973 30.3024 9.54973C30.3023 9.54973 30.3023 9.54973 30.3023 9.54973C30.3023 9.54973 30.3023 9.54973 30.3023 9.54973C30.3023 9.54973 30.3023 9.54973 30.3023 9.54973C30.3023 9.54973 30.3023 9.54973 30.3023 9.54973C30.3023 9.54973 30.3023 9.54973 30.3023 9.54973C30.3023 9.54973 30.3022 9.54973 30.3022 9.54973C30.3022 9.54973 30.3022 9.54973 30.3022 9.54973C30.3022 9.54973 30.3022 9.54973 30.3022 9.54973C30.3022 9.54973 30.3022 9.54973 30.3022 9.54973C30.3022 9.54973 30.3022 9.54973 30.3022 9.54973C30.3022 9.54973 30.3022 9.54973 30.3021 9.54973C30.3021 9.54973 30.3021 9.54973 30.3021 9.54973C30.3021 9.54973 30.3021 9.54973 30.3021 9.54973C30.3021 9.54973 30.3021 9.54973 30.3021 9.54973C30.3021 9.54973 30.3021 9.54973 30.3021 9.54973C30.3021 9.54973 30.3021 9.54973 30.302 9.54973C30.302 9.54973 30.302 9.54973 30.302 9.54973C30.302 9.54973 30.302 9.54973 30.302 9.54973C30.302 9.54973 30.302 9.54973 30.302 9.54973C30.302 9.54973 30.302 9.54973 30.302 9.54973C30.302 9.54973 30.302 9.54973 30.3019 9.54973C30.3019 9.54973 30.3019 9.54973 30.3019 9.54973C30.3019 9.54973 30.3019 9.54973 30.3019 9.54973C30.3019 9.54973 30.3019 9.54973 30.3019 9.54973C30.3019 9.54973 30.3019 9.54973 30.3019 9.54973C30.3019 9.54973 30.3019 9.54973 30.3018 9.54973C30.3018 9.54973 30.3018 9.54973 30.3018 9.54973C30.3018 9.54973 30.3018 9.54973 30.3018 9.54973C30.3018 9.54973 30.3018 9.54973 30.3018 9.54973C30.3018 9.54973 30.3018 9.54973 30.3018 9.54973C30.3018 9.54973 30.3018 9.54973 30.3017 9.54973C30.3017 9.54973 30.3017 9.54973 30.3017 9.54973C30.3017 9.54973 30.3017 9.54973 30.3017 9.54973C30.3017 9.54973 30.3017 9.54973 30.3017 9.54973C30.3017 9.54973 30.3017 9.54973 30.3017 9.54973C30.3017 9.54973 30.3017 9.54973 30.3016 9.54973C30.3016 9.54973 30.3016 9.54973 30.3016 9.54973C30.3016 9.54973 30.3016 9.54973 30.3016 9.54973C30.3016 9.54973 30.3016 9.54973 30.3016 9.54973C30.3016 9.54973 30.3016 9.54973 30.3016 9.54973C30.3016 9.54973 30.3016 9.54973 30.3015 9.54973C30.3015 9.54973 30.3015 9.54973 30.3015 9.54973C30.3015 9.54973 30.3015 9.54973 30.3015 9.54973C30.3015 9.54973 30.3015 9.54973 30.3015 9.54973C30.3015 9.54973 30.3015 9.54973 30.3015 9.54973C30.3015 9.54973 30.3015 9.54973 30.3014 9.54973C30.3014 9.54973 30.3014 9.54973 30.3014 9.54973C30.3014 9.54973 30.3014 9.54973 30.3014 9.54973C30.3014 9.54973 30.3014 9.54973 30.3014 9.54973C30.3014 9.54973 30.3014 9.54973 30.3014 9.54973C30.3014 9.54973 30.3013 9.54973 30.3013 9.54973C30.3013 9.54973 30.3013 9.54973 30.3013 9.54973C30.3013 9.54973 30.3013 9.54973 30.3013 9.54973C30.3013 9.54973 30.3013 9.54973 30.3013 9.54973C30.3013 9.54973 30.3013 9.54973 30.3013 9.54973C30.3013 9.54973 30.3012 9.54973 30.3012 9.54973C30.3012 9.54973 30.3012 9.54973 30.3012 9.54973C30.3012 9.54973 30.3012 9.54973 30.3012 9.54973C30.3012 9.54973 30.3012 9.54973 30.3012 9.54973C30.3012 9.54973 30.3012 9.54973 30.3012 9.54973C30.3011 9.54973 30.3011 9.54973 30.3011 9.54973C30.3011 9.54973 30.3011 9.54973 30.3011 9.54973C30.3011 9.54973 30.3011 9.54973 30.3011 9.54973C30.3011 9.54973 30.3011 9.54973 30.3011 9.54973C30.3011 9.54973 30.3011 9.54973 30.301 9.54973C30.301 9.54973 30.301 9.54973 30.301 9.54973C30.301 9.54973 30.301 9.54973 30.301 9.54973C30.301 9.54973 30.301 9.54973 30.301 9.54973C30.301 9.54973 30.301 9.54973 30.301 9.54973C30.301 9.54973 30.3009 9.54973 30.3009 9.54973C30.3009 9.54973 30.3009 9.54973 30.3009 9.54973C30.3009 9.54973 30.3009 9.54973 30.3009 9.54973C30.3009 9.54973 30.3009 9.54973 30.3009 9.54973C30.3009 9.54973 30.3009 9.54973 30.3009 9.54973C30.3008 9.54973 30.3008 9.54973 30.3008 9.54973C30.3008 9.54973 30.3008 9.54973 30.3008 9.54973C30.3008 9.54973 30.3008 9.54973 30.3008 9.54973C30.3008 9.54973 30.3008 9.54973 30.3008 9.54973C30.3008 9.54973 30.3008 9.54973 30.3007 9.54973C30.3007 9.54973 30.3007 9.54973 30.3007 9.54973C30.3007 9.54973 30.3007 9.54973 30.3007 9.54973C30.3007 9.54973 30.3007 9.54973 30.3007 9.54973C30.3007 9.54973 30.3007 9.54973 30.3007 9.54973C30.3007 9.54973 30.3006 9.54973 30.3006 9.54973C30.3006 9.54973 30.3006 9.54973 30.3006 9.54973C30.3006 9.54973 30.3006 9.54973 30.3006 9.54973C30.3006 9.54973 30.3006 9.54973 30.3006 9.54973C30.3006 9.54973 30.3006 9.54973 30.3006 9.54973C30.3005 9.54973 30.3005 9.54973 30.3005 9.54973C30.3005 9.54973 30.3005 9.54973 30.3005 9.54973C30.3005 9.54973 30.3005 9.54973 30.3005 9.54973C30.3005 9.54973 30.3005 9.54973 30.3005 9.54973C30.3005 9.54973 30.3005 9.54973 30.3004 9.54973C30.3004 9.54973 30.3004 9.54973 30.3004 9.54973C30.3004 9.54973 30.3004 9.54973 30.3004 9.54973C30.3004 9.54973 30.3004 9.54973 30.3004 9.54973C30.3004 9.54973 30.3004 9.54973 30.3004 9.54973C30.3003 9.54973 30.3003 9.54973 30.3003 9.54973C30.3003 9.54973 30.3003 9.54973 30.3003 9.54973C30.3003 9.54973 30.3003 9.54973 30.3003 9.54973C30.3003 9.54973 30.3003 9.54973 30.3003 9.54973C30.3003 9.54973 30.3003 9.54973 30.3002 9.54973C30.3002 9.54973 30.3002 9.54973 30.3002 9.54973C30.3002 9.54973 30.3002 9.54973 30.3002 9.54973C30.3002 9.54973 30.3002 9.54973 30.3002 9.54973C30.3002 9.54973 30.3002 9.54973 30.3002 9.54973C30.3001 9.54973 30.3001 9.54973 30.3001 9.54973C30.3001 9.54973 30.3001 9.54973 30.3001 9.54973C30.3001 9.54973 30.3001 9.54973 30.3001 9.54973C30.3001 9.54973 30.3001 9.54973 30.3001 9.54973C30.3001 9.54973 30.3001 9.54973 30.3 9.54973C30.3 9.54973 30.3 9.54973 30.3 9.54973C30.3 9.54973 30.3 9.54973 30.3 9.54973C30.3 9.54973 30.3 9.54973 30.3 9.54973C30.3 9.54973 30.3 9.54973 30.3 9.54973C30.2999 9.54973 30.2999 9.54973 30.2999 9.54973C30.2999 9.54973 30.2999 9.54973 30.2999 9.54973C30.2999 9.54973 30.2999 9.54973 30.2999 9.54973C30.2999 9.54973 30.2999 9.54973 30.2999 9.54973C30.2999 9.54973 30.2999 9.54973 30.2998 9.54973C30.2998 9.54973 30.2998 9.54973 30.2998 9.54973C30.2998 9.54973 30.2998 9.54973 30.2998 9.54973C30.2998 9.54973 30.2998 9.54973 30.2998 9.54973C30.2998 9.54973 30.2998 9.54973 30.2998 9.54973C30.2997 9.54973 30.2997 9.54973 30.2997 9.54973C30.2997 9.54973 30.2997 9.54973 30.2997 9.54973C30.2997 9.54973 30.2997 9.54973 30.2997 9.54973C30.2997 9.54973 30.2997 9.54973 30.2997 9.54973C30.2997 9.54973 30.2996 9.54973 30.2996 9.54973C30.2996 9.54973 30.2996 9.54973 30.2996 9.54973C30.2996 9.54973 30.2996 9.54973 30.2996 9.54973C30.2996 9.54973 30.2996 9.54973 30.2996 9.54973C30.2996 9.54973 30.2996 9.54973 30.2996 9.54973C30.2995 9.54973 30.2995 9.54973 30.2995 9.54973C30.2995 9.54973 30.2995 9.54973 30.2995 9.54973C30.2995 9.54973 30.2995 9.54973 30.2995 9.54973C30.2995 9.54973 30.2995 9.54973 30.2995 9.54973C30.2995 9.54973 30.2994 9.54973 30.2994 9.54973C30.2994 9.54973 30.2994 9.54973 30.2994 9.54973C30.2994 9.54973 30.2994 9.54973 30.2994 9.54973C30.2994 9.54973 30.2994 9.54973 30.2994 9.54973C30.2994 9.54973 30.2994 9.54973 30.2993 9.54973C30.2993 9.54973 30.2993 9.54973 30.2993 9.54973C30.2993 9.54973 30.2993 9.54973 30.2993 9.54973C30.2993 9.54973 30.2993 9.54973 30.2993 9.54973C30.2993 9.54973 30.2993 9.54973 30.2993 9.54973C30.2992 9.54973 30.2992 9.54973 30.2992 9.54973C30.2992 9.54973 30.2992 9.54973 30.2992 9.54973C30.2992 9.54973 30.2992 9.54973 30.2992 9.54973C30.2992 9.54973 30.2992 9.54973 30.2992 9.54973C30.2992 9.54973 30.2991 9.54973 30.2991 9.54973C30.2991 9.54973 30.2991 9.54973 30.2991 9.54973C30.2991 9.54973 30.2991 9.54973 30.2991 9.54973C30.2991 9.54973 30.2991 9.54973 30.2991 9.54973C30.2991 9.54973 30.2991 9.54973 30.2991 9.54973C30.299 9.54973 30.299 9.54973 30.299 9.54973C30.299 9.54973 30.299 9.54973 30.299 9.54973C30.299 9.54973 30.299 9.54973 30.299 9.54973C30.299 9.54973 30.299 9.54973 30.299 9.54973C30.299 9.54973 30.2989 9.54973 30.2989 9.54973C30.2989 9.54973 30.2989 9.54973 30.2989 9.54973C30.2989 9.54973 30.2989 9.54973 30.2989 9.54973C30.2989 9.54973 30.2989 9.54973 30.2989 9.54973C30.2989 9.54973 30.2989 9.54973 30.2988 9.54973C30.2988 9.54973 30.2988 9.54973 30.2988 9.54973C30.2988 9.54973 30.2988 9.54973 30.2988 9.54973C30.2988 9.54973 30.2988 9.54973 30.2988 9.54973C30.2988 9.54973 30.2988 9.54973 30.2988 9.54973C30.2987 9.54973 30.2987 9.54973 30.2987 9.54973C30.2987 9.54973 30.2987 9.54973 30.2987 9.54973C30.2987 9.54973 30.2987 9.54973 30.2987 9.54973C30.2987 9.54973 30.2987 9.54973 30.2987 9.54973C30.2987 9.54973 30.2986 9.54973 30.2986 9.54973C30.2986 9.54973 30.2986 9.54973 30.2986 9.54973C30.2986 9.54973 30.2986 9.54973 30.2986 9.54973C30.2986 9.54973 30.2986 9.54973 30.2986 9.54973C30.2986 9.54973 30.2986 9.54973 30.2985 9.54973C30.2985 9.54973 30.2985 9.54973 30.2985 9.54973C30.2985 9.54973 30.2985 9.54973 30.2985 9.54973C30.2985 9.54973 30.2985 9.54973 30.2985 9.54973C30.2985 9.54973 30.2985 9.54973 30.2985 9.54973C30.2984 9.54973 30.2984 9.54973 30.2984 9.54973C30.2984 9.54973 30.2984 9.54973 30.2984 9.54973C30.2984 9.54973 30.2984 9.54973 30.2984 9.54973C30.2984 9.54973 30.2984 9.54973 30.2984 9.54973C30.2984 9.54973 30.2983 9.54973 30.2983 9.54973C30.2983 9.54973 30.2983 9.54973 30.2983 9.54973C30.2983 9.54973 30.2983 9.54973 30.2983 9.54973C30.2983 9.54973 30.2983 9.54973 30.2983 9.54973C30.2983 9.54973 30.2983 9.54973 30.2982 9.54973C30.2982 9.54973 30.2982 9.54973 30.2982 9.54973C30.2982 9.54973 30.2982 9.54973 30.2982 9.54973C30.2982 9.54973 30.2982 9.54973 30.2982 9.54973C30.2982 9.54973 30.2982 9.54973 30.2982 9.54973C30.2981 9.54973 30.2981 9.54973 30.2981 9.54973C30.2981 9.54973 30.2981 9.54973 30.2981 9.54973C30.2981 9.54973 30.2981 9.54973 30.2981 9.54973C30.2981 9.54973 30.2981 9.54973 30.2981 9.54973C30.2981 9.54973 30.298 9.54973 30.298 9.54973C30.298 9.54973 30.298 9.54973 30.298 9.54973C30.298 9.54973 30.298 9.54973 30.298 9.54973C30.298 9.54973 30.298 9.54973 30.298 9.54973C30.298 9.54973 30.298 9.54973 30.2979 9.54973C30.2979 9.54973 30.2979 9.54973 30.2979 9.54973C30.2979 9.54973 30.2979 9.54973 30.2979 9.54973C30.2979 9.54973 30.2979 9.54973 30.2979 9.54973C30.2979 9.54973 30.2979 9.54973 30.2979 9.54973C30.2978 9.54973 30.2978 9.54973 30.2978 9.54973C30.2978 9.54973 30.2978 9.54973 30.2978 9.54973C30.2978 9.54973 30.2978 9.54973 30.2978 9.54973C30.2978 9.54973 30.2978 9.54973 30.2978 9.54973C30.2978 9.54973 30.2977 9.54973 30.2977 9.54973C30.2977 9.54973 30.2977 9.54973 30.2977 9.54973C30.2977 9.54973 30.2977 9.54973 30.2977 9.54973C30.2977 9.54973 30.2977 9.54973 30.2977 9.54973C30.2977 9.54973 30.2977 9.54973 30.2976 9.54973C30.2976 9.54973 30.2976 9.54973 30.2976 9.54973C30.2976 9.54973 30.2976 9.54973 30.2976 9.54973C30.2976 9.54973 30.2976 9.54973 30.2976 9.54973C30.2976 9.54973 30.2976 9.54973 30.2976 9.54973C30.2975 9.54973 30.2975 9.54973 30.2975 9.54973C30.2975 9.54973 30.2975 9.54973 30.2975 9.54973C30.2975 9.54973 30.2975 9.54973 30.2975 9.54973C30.2975 9.54973 30.2975 9.54973 30.2975 9.54973C30.2975 9.54973 30.2975 9.54973 30.2974 9.54973C30.2974 9.54973 30.2974 9.54973 30.2974 9.54973C30.2974 9.54973 30.2974 9.54973 30.2974 9.54973C30.2974 9.54973 30.2974 9.54973 30.2974 9.54973C30.2974 9.54973 30.2974 9.54973 30.2974 9.54973C30.2973 9.54973 30.2973 9.54973 30.2973 9.54973C30.2973 9.54973 30.2973 9.54973 30.2973 9.54973C30.2973 9.54973 30.2973 9.54973 30.2973 9.54973C30.2973 9.54973 30.2973 9.54973 30.2973 9.54973C30.2973 9.54973 30.2972 9.54973 30.2972 9.54973C30.2972 9.54973 30.2972 9.54973 30.2972 9.54973C30.2972 9.54973 30.2972 9.54973 30.2972 9.54973C30.2972 9.54973 30.2972 9.54973 30.2972 9.54973C30.2972 9.54973 30.2972 9.54973 30.2971 9.54973C30.2971 9.54973 30.2971 9.54973 30.2971 9.54973C30.2971 9.54973 30.2971 9.54973 30.2971 9.54973C30.2971 9.54973 30.2971 9.54973 30.2971 9.54973C30.2971 9.54973 30.2971 9.54973 30.2971 9.54973C30.297 9.54973 30.297 9.54973 30.297 9.54973C30.297 9.54973 30.297 9.54973 30.297 9.54973C30.297 9.54973 30.297 9.54973 30.297 9.54973C30.297 9.54973 30.297 9.54973 30.297 9.54973C30.297 9.54973 30.297 9.54973 30.2969 9.54973C30.2969 9.54973 30.2969 9.54973 30.2969 9.54973C30.2969 9.54973 30.2969 9.54973 30.2969 9.54973C30.2969 9.54973 30.2969 9.54973 30.2969 9.54973C30.2969 9.54973 30.2969 9.54973 30.2969 9.54973C30.2968 9.54973 30.2968 9.54973 30.2968 9.54973C30.2968 9.54973 30.2968 9.54973 30.2968 9.54973C30.2968 9.54973 30.2968 9.54973 30.2968 9.54973C30.2968 9.54973 30.2968 9.54973 30.2968 9.54973C30.2968 9.54973 30.2967 9.54973 30.2967 9.54973C30.2967 9.54973 30.2967 9.54973 30.2967 9.54973C30.2967 9.54973 30.2967 9.54973 30.2967 9.54973C30.2967 9.54973 30.2967 9.54973 30.2967 9.54973C30.2967 9.54973 30.2967 9.54973 30.2967 9.54973C30.2966 9.54973 30.2966 9.54973 30.2966 9.54973C30.2966 9.54973 30.2966 9.54973 30.2966 9.54973C30.2966 9.54973 30.2966 9.54973 30.2966 9.54973C30.2966 9.54973 30.2966 9.54973 30.2966 9.54973C30.2966 9.54973 30.2965 9.54973 30.2965 9.54973C30.2965 9.54973 30.2965 9.54973 30.2965 9.54973C30.2965 9.54973 30.2965 9.54973 30.2965 9.54973C30.2965 9.54973 30.2965 9.54973 30.2965 9.54973C30.2965 9.54973 30.2965 9.54973 30.2964 9.54973C30.2964 9.54973 30.2964 9.54973 30.2964 9.54973C30.2964 9.54973 30.2964 9.54973 30.2964 9.54973C30.2964 9.54973 30.2964 9.54973 30.2964 9.54973C30.2964 9.54973 30.2964 9.54973 30.2964 9.54973C30.2964 9.54973 30.2963 9.54973 30.2963 9.54973C30.2963 9.54973 30.2963 9.54973 30.2963 9.54973C30.2963 9.54973 30.2963 9.54973 30.2963 9.54973C30.2963 9.54973 30.2963 9.54973 30.2963 9.54973C30.2963 9.54973 30.2963 9.54973 30.2962 9.54973C30.2962 9.54973 30.2962 9.54973 30.2962 9.54973C30.2962 9.54973 30.2962 9.54973 30.2962 9.54973C30.2962 9.54973 30.2962 9.54973 30.2962 9.54973C30.2962 9.54973 30.2962 9.54973 30.2962 9.54973C30.2962 9.54973 30.2961 9.54973 30.2961 9.54973C30.2961 9.54973 30.2961 9.54973 30.2961 9.54973C30.2961 9.54973 30.2961 9.54973 30.2961 9.54973C30.2961 9.54973 30.2961 9.54973 30.2961 9.54973C30.2961 9.54973 30.2961 9.54973 30.2961 9.54973C30.296 9.54973 30.296 9.54973 30.296 9.54973C30.296 9.54973 30.296 9.54973 30.296 9.54973C30.296 9.54973 30.296 9.54973 30.296 9.54973C30.296 9.54973 30.296 9.54973 30.296 9.54973C30.296 9.54973 30.296 9.54973 30.2959 9.54973C30.2959 9.54973 30.2959 9.54973 30.2959 9.54973C30.2959 9.54973 30.2959 9.54973 30.2959 9.54973C30.2959 9.54973 30.2959 9.54973 30.2959 9.54973C30.2959 9.54973 30.2959 9.54973 30.2959 9.54973C30.2958 9.54973 30.2958 9.54973 30.2958 9.54973C30.2958 9.54973 30.2958 9.54973 30.2958 9.54973C30.2958 9.54973 30.2958 9.54973 30.2958 9.54973C30.2958 9.54973 30.2958 9.54973 30.2958 9.54973C30.2958 9.54973 30.2958 9.54973 30.2957 9.54973C30.2957 9.54973 30.2957 9.54973 30.2957 9.54973C30.2957 9.54973 30.2957 9.54973 30.2957 9.54973C30.2957 9.54973 30.2957 9.54973 30.2957 9.54973C30.2957 9.54973 30.2957 9.54973 30.2957 9.54973C30.2957 9.54973 30.2956 9.54973 30.2956 9.54973C30.2956 9.54973 30.2956 9.54973 30.2956 9.54973C30.2956 9.54973 30.2956 9.54973 30.2956 9.54973C30.2956 9.54973 30.2956 9.54973 30.2956 9.54973C30.2956 9.54973 30.2956 9.54973 30.2956 9.54973C30.2955 9.54973 30.2955 9.54973 30.2955 9.54973C30.2955 9.54973 30.2955 9.54973 30.2955 9.54973C30.2955 9.54973 30.2955 9.54973 30.2955 9.54973C30.2955 9.54973 30.2955 9.54973 30.2955 9.54973C30.2955 9.54973 30.2955 9.54973 30.2954 9.54973C30.2954 9.54973 30.2954 9.54973 30.2954 9.54973C30.2954 9.54973 30.2954 9.54973 30.2954 9.54973C30.2954 9.54973 30.2954 9.54973 30.2954 9.54973C30.2954 9.54973 30.2954 9.54973 30.2954 9.54973C30.2954 9.54973 30.2954 9.54973 30.2953 9.54973C30.2953 9.54973 30.2953 9.54973 30.2953 9.54973C30.2953 9.54973 30.2953 9.54973 30.2953 9.54973C30.2953 9.54973 30.2953 9.54973 30.2953 9.54973C30.2953 9.54973 30.2953 9.54973 30.2953 9.54973C30.2953 9.54973 30.2952 9.54973 30.2952 9.54973C30.2952 9.54973 30.2952 9.54973 30.2952 9.54973C30.2952 9.54973 30.2952 9.54973 30.2952 9.54973C30.2952 9.54973 30.2952 9.54973 30.2952 9.54973C30.2952 9.54973 30.2952 9.54973 30.2952 9.54973C30.2951 9.54973 30.2951 9.54973 30.2951 9.54973C30.2951 9.54973 30.2951 9.54973 30.2951 9.54973C30.2951 9.54973 30.2951 9.54973 30.2951 9.54973C30.2951 9.54973 30.2951 9.54973 30.2951 9.54973C30.2951 9.54973 30.2951 9.54973 30.2951 9.54973C30.295 9.54973 30.295 9.54973 30.295 9.54973C30.295 9.54973 30.295 9.54973 30.295 9.54973C30.295 9.54973 30.295 9.54973 30.295 9.54973C30.295 9.54973 30.295 9.54973 30.295 9.54973C30.295 9.54973 30.295 9.54973 30.295 9.54973C30.2949 9.54973 30.2949 9.54973 30.2949 9.54973C30.2949 9.54973 30.2949 9.54973 30.2949 9.54973C30.2949 9.54973 30.2949 9.54973 30.2949 9.54973C30.2949 9.54973 30.2949 9.54973 30.2949 9.54973C30.2949 9.54973 30.2949 9.54973 30.2948 9.54973C30.2948 9.54973 30.2948 9.54973 30.2948 9.54973C30.2948 9.54973 30.2948 9.54973 30.2948 9.54973C30.2948 9.54973 30.2948 9.54973 30.2948 9.54973C30.2948 9.54973 30.2948 9.54973 30.2948 9.54973C30.2948 9.54973 30.2948 9.54973 30.2947 9.54973C30.2947 9.54973 30.2947 9.54973 30.2947 9.54973C30.2947 9.54973 30.2947 9.54973 30.2947 9.54973C30.2947 9.54973 30.2947 9.54973 30.2947 9.54973C30.2947 9.54973 30.2947 9.54973 30.2947 9.54973C30.2947 9.54973 30.2947 9.54973 30.2946 9.54973C30.2946 9.54973 30.2946 9.54973 30.2946 9.54973C30.2946 9.54973 30.2946 9.54973 30.2946 9.54973C30.2946 9.54973 30.2946 9.54973 30.2946 9.54973C30.2946 9.54973 30.2946 9.54973 30.2946 9.54973C30.2946 9.54973 30.2946 9.54973 30.2946 9.54973C30.2945 9.54973 30.2945 9.54973 30.2945 9.54973C30.2945 9.54973 30.2945 9.54973 30.2945 9.54973C30.2945 9.54973 30.2945 9.54973 30.2945 9.54973C30.2945 9.54973 30.2945 9.54973 30.2945 9.54973C30.2945 9.54973 30.2945 9.54973 30.2945 9.54973C30.2944 9.54973 30.2944 9.54973 30.2944 9.54973C30.2944 9.54973 30.2944 9.54973 30.2944 9.54973C30.2944 9.54973 30.2944 9.54973 30.2944 9.54973C30.2944 9.54973 30.2944 9.54973 30.2944 9.54973C30.2944 9.54973 30.2944 9.54973 30.2944 9.54973C30.2944 9.54973 30.2943 9.54973 30.2943 9.54973C30.2943 9.54973 30.2943 9.54973 30.2943 9.54973C30.2943 9.54973 30.2943 9.54973 30.2943 9.54973C30.2943 9.54973 30.2943 9.54973 30.2943 9.54973C30.2943 9.54973 30.2943 9.54973 30.2943 9.54973C30.2943 9.54973 30.2942 9.54973 30.2942 9.54973C30.2942 9.54973 30.2942 9.54973 30.2942 9.54973C30.2942 9.54973 30.2942 9.54973 30.2942 9.54973C30.2942 9.54973 30.2942 9.54973 30.2942 9.54973C30.2942 9.54973 30.2942 9.54973 30.2942 9.54973C30.2942 9.54973 30.2942 9.54973 30.2941 9.54973C30.2941 9.54973 30.2941 9.54973 30.2941 9.54973C30.2941 9.54973 30.2941 9.54973 30.2941 9.54973C30.2941 9.54973 30.2941 9.54973 30.2941 9.54973C30.2941 9.54973 30.2941 9.54973 30.2941 9.54973C30.2941 9.54973 30.2941 9.54973 30.2941 9.54973C30.294 9.54973 30.294 9.54973 30.294 9.54973C30.294 9.54973 30.294 9.54973 30.294 9.54973C30.294 9.54973 30.294 9.54973 30.294 9.54973C30.294 9.54973 30.294 9.54973 30.294 9.54973C30.294 9.54973 30.294 9.54973 30.294 9.54973C30.294 9.54973 30.294 9.54973 30.2939 9.54973C30.2939 9.54973 30.2939 9.54973 30.2939 9.54973C30.2939 9.54973 30.2939 9.54973 30.2939 9.54973C30.2939 9.54973 30.2939 9.54973 30.2939 9.54973C30.2939 9.54973 30.2939 9.54973 30.2939 9.54973C30.2939 9.54973 30.2939 9.54973 30.2939 9.54973C30.2938 9.54973 30.2938 9.54973 30.2938 9.54973C30.2938 9.54973 30.2938 9.54973 30.2938 9.54973C30.2938 9.54973 30.2938 9.54973 30.2938 9.54973C30.2938 9.54973 30.2938 9.54973 30.2938 9.54973C30.2938 9.54973 30.2938 9.54973 30.2938 9.54973C30.2938 9.54973 30.2938 9.54973 30.2937 9.54973C30.2937 9.54973 30.2937 9.54973 30.2937 9.54973C30.2937 9.54973 30.2937 9.54973 30.2937 9.54973C30.2937 9.54973 30.2937 9.54973 30.2937 9.54973C30.2937 9.54973 30.2937 9.54973 30.2937 9.54973C30.2937 9.54973 30.2937 9.54973 30.2937 9.54973C30.2937 9.54973 30.2936 9.54973 30.2936 9.54973C30.2936 9.54973 30.2936 9.54973 30.2936 9.54973C30.2936 9.54973 30.2936 9.54973 30.2936 9.54973C30.2936 9.54973 30.2936 9.54973 30.2936 9.54973C30.2936 9.54973 30.2936 9.54973 30.2936 9.54973C30.2936 9.54973 30.2936 9.54973 30.2936 9.54973C30.2935 9.54973 30.2935 9.54973 30.2935 9.54973C30.2935 9.54973 30.2935 9.54973 30.2935 9.54973C30.2935 9.54973 30.2935 9.54973 30.2935 9.54973C30.2935 9.54973 30.2935 9.54973 30.2935 9.54973C30.2935 9.54973 30.2935 9.54973 30.2935 9.54973C30.2935 9.54973 30.2935 9.54973 30.2935 9.54973C30.2934 9.54973 30.2934 9.54973 30.2934 9.54973C30.2934 9.54973 30.2934 9.54973 30.2934 9.54973C30.2934 9.54973 30.2934 9.54973 30.2934 9.54973C30.2934 9.54973 30.2934 9.54973 30.2934 9.54973C30.2934 9.54973 30.2934 9.54973 30.2934 9.54973C30.2934 9.54973 30.2934 9.54973 30.2934 9.54973C30.2933 9.54973 30.2933 9.54973 30.2933 9.54973C30.2933 9.54973 30.2933 9.54973 30.2933 9.54973C30.2933 9.54973 30.2933 9.54973 30.2933 9.54973C30.2933 9.54973 30.2933 9.54973 30.2933 9.54973C30.2933 9.54973 30.2933 9.54973 30.2933 9.54973C30.2933 9.54973 30.2933 9.54973 30.2933 9.54973C30.2933 9.54973 30.2932 9.54973 30.2932 9.54973C30.2932 9.54973 30.2932 9.54973 30.2932 9.54973C30.2932 9.54973 30.2932 9.54973 30.2932 9.54973C30.2932 9.54973 30.2932 9.54973 30.2932 9.54973C30.2932 9.54973 30.2932 9.54973 30.2932 9.54973C30.2932 9.54973 30.2932 9.54973 30.2932 9.54973C30.2932 9.54973 30.2931 9.54973 30.2931 9.54973C30.2931 9.54973 30.2931 9.54973 30.2931 9.54973C30.2931 9.54973 30.2931 9.54973 30.2931 9.54973C30.2931 9.54973 30.2931 9.54973 30.2931 9.54973C30.2931 9.54973 30.2931 9.54973 30.2931 9.54973C30.2931 9.54973 30.2931 9.54973 30.2931 9.54973C30.2931 9.54973 30.2931 9.54973 30.2931 9.54973C30.293 9.54973 30.293 9.54973 30.293 9.54973V10.9497ZM30.3325 10.9491C31.1373 10.9158 31.9989 10.8868 32.6795 11.0246C33.0153 11.0926 33.2464 11.1905 33.3906 11.3011C33.5141 11.3958 33.5873 11.5074 33.6111 11.6853L34.9987 11.4999C34.9231 10.9335 34.6426 10.4969 34.2426 10.1902C33.8632 9.89921 33.4008 9.74226 32.9574 9.65246C32.0795 9.47472 31.0399 9.51862 30.2745 9.55033L30.3325 10.9491ZM33.6052 11.5731C33.5158 14.7748 33.5395 17.958 33.6261 21.1523L35.0256 21.1144C34.9395 17.9379 34.9161 14.7814 35.0046 11.6122L33.6052 11.5731ZM33.6261 21.1518C33.668 22.7468 33.7123 24.3292 33.7227 25.9135L35.1227 25.9043C35.1121 24.3032 35.0674 22.7053 35.0256 21.115L33.6261 21.1518ZM33.7227 25.9133C33.7279 26.7497 33.7253 27.5834 33.7071 28.4182L35.1068 28.4486C35.1253 27.5969 35.1279 26.7494 35.1227 25.9046L33.7227 25.9133ZM33.7071 28.4203C33.7039 28.5933 33.7151 28.7928 33.7267 28.9778C33.7389 29.1733 33.7524 29.3629 33.7598 29.5536L35.1588 29.4992C35.1505 29.2865 35.1352 29.0702 35.1239 28.8902C35.112 28.6998 35.1048 28.5545 35.1069 28.4464L33.7071 28.4203ZM34.4068 28.8284C34.2462 28.8405 34.0856 28.8545 33.9295 28.8681C33.772 28.8818 33.6187 28.8951 33.4656 28.9064L33.5688 30.3026C33.7323 30.2905 33.8944 30.2764 34.0509 30.2628C34.2089 30.2491 34.361 30.2358 34.5118 30.2244L34.4068 28.8284Z" fill="#1E1E1E" mask="url(#path-2-inside-1_1606_22)"/>
<path d="M23.8943 16.3341L23.8942 16.334C22.0239 13.0695 17.8945 12.735 14.7924 14.5668L14.792 14.567C13.1372 15.5413 11.8267 16.9467 11.4751 18.8016L23.8943 16.3341ZM23.8943 16.3341C25.7514 19.5739 24.127 23.1983 21.0379 25.041C18.1696 26.751 14.6556 26.9385 12.5206 24.2264M23.8943 16.3341L12.5206 24.2264M20.8657 24.849L20.8654 24.8493C19.9424 25.5198 18.692 25.3548 17.6186 24.9176C16.5295 24.474 15.4946 23.7023 14.9094 22.9549L14.9026 22.9463L14.8964 22.9372C14.069 21.732 13.6883 20.3084 13.634 18.8801L20.8657 24.849ZM20.8657 24.849C21.9622 24.0507 22.3854 22.6916 22.4198 21.3604C22.4544 20.0248 22.1024 18.6357 21.5521 17.6774L21.5521 17.6774C20.8841 16.5142 19.8578 15.5924 18.6166 15.065L18.6163 15.0648M20.8657 24.849L18.6163 15.0648M18.6163 15.0648C18.1777 14.879 17.5557 14.659 16.9206 14.5446M18.6163 15.0648L16.9206 14.5446M12.5206 24.2264C11.4927 22.7171 11.1325 20.6119 11.4751 18.8017L12.5206 24.2264ZM14.2472 15.528C14.4351 15.1831 14.6925 14.8715 15.0464 14.6904L14.2472 15.528ZM14.2472 15.528C14.0585 15.8744 13.9266 16.2781 13.8345 16.6817M14.2472 15.528L13.8345 16.6817M13.8345 16.6817C13.6505 17.4882 13.6135 18.3481 13.634 18.8799L13.8345 16.6817ZM16.9206 14.5446C16.2997 14.4327 15.597 14.4086 15.0464 14.6904L16.9206 14.5446Z" fill="white" stroke="#1E1E1E" stroke-width="0.7"/>
<path d="M22.5676 3.78249C20.5786 3.86316 18.5897 3.88398 16.5982 3.85015L14.2847 5.71092L14.2898 5.43395M22.5676 3.78249L22.5788 4.06618C22.5714 4.05614 22.5644 4.04476 22.558 4.0319C22.524 3.9634 22.5366 3.90903 22.5378 3.90411C22.538 3.90335 22.5381 3.90296 22.5381 3.90295C22.538 3.90292 22.5336 3.91582 22.5172 3.94298C22.4834 3.99863 22.4272 4.06817 22.3591 4.14098M22.5676 3.78249C23.2925 3.75386 22.578 4.44092 22.353 4.6283M22.5676 3.78249L22.5791 4.06662L22.1292 4.35912M22.3591 4.14098C20.4374 4.21464 18.5159 4.23278 16.5922 4.2001L16.5917 4.20009C16.3286 4.19525 15.9977 4.30724 15.6448 4.49848C15.2997 4.68547 14.9711 4.92749 14.7234 5.13395L14.7229 5.13439C14.6654 5.18217 14.5848 5.25286 14.5075 5.33083C14.4964 5.34201 14.4857 5.35306 14.4753 5.36396M22.3591 4.14098C22.3502 4.15054 22.3411 4.16016 22.3317 4.16981C22.254 4.25022 22.1766 4.31966 22.1292 4.35912M22.3591 4.14098L22.1292 4.35912M14.4753 5.36396C14.4137 5.36302 14.3522 5.36203 14.2907 5.36098L14.2894 5.43331C14.256 5.37471 14.2107 5.35479 14.2044 5.35238C14.204 5.35225 14.2041 5.35225 14.2045 5.35237C14.2075 5.3532 14.2322 5.35991 14.2911 5.36099L14.2898 5.43395M14.4753 5.36396C14.4104 5.43216 14.3599 5.49437 14.3306 5.54285C14.3182 5.56348 14.3148 5.57329 14.3147 5.57326C14.3146 5.57325 14.3151 5.57191 14.3156 5.5693C14.3183 5.55751 14.3267 5.5047 14.2939 5.44157C14.2926 5.43896 14.2912 5.43642 14.2898 5.43395M14.4753 5.36396C16.3987 5.39336 18.3195 5.37146 20.2399 5.29356L20.2404 5.29354C20.53 5.28214 20.8656 5.16668 21.2094 4.98459C21.5489 4.80476 21.8717 4.57317 22.1292 4.35913C22.1292 4.3592 22.1291 4.35926 22.129 4.35932L22.353 4.6283M14.2898 5.43395L20.2541 5.64327C20.9816 5.61464 21.8112 5.07853 22.353 4.6283M22.353 4.6283L22.1292 4.35912" fill="white" stroke="#1E1E1E" stroke-width="0.7"/>
</svg>
