<?xml version="1.0" encoding="iso-8859-1"?>
<!-- Generator: Adobe Illustrator 19.0.0, SVG Export Plug-In . SVG Version: 6.00 Build 0)  -->
<svg version="1.1" id="Capa_1" xmlns="http://www.w3.org/2000/svg" xmlns:xlink="http://www.w3.org/1999/xlink" x="0px" y="0px"
	 viewBox="0 0 512 512" style="enable-background:new 0 0 512 512;" xml:space="preserve">
<g>
	<g>
		<path d="M272,166c-66.168,0-120,53.832-120,120s53.832,120,120,120s120-53.832,120-120S338.168,166,272,166z M272,376
			c-49.626,0-90-40.374-90-90c0-49.626,40.374-90,90-90c49.626,0,90,40.374,90,90C362,335.626,321.626,376,272,376z"/>
	</g>
</g>
<g>
	<g>
		<path d="M272,226c-33.084,0-60,26.916-60,60s26.916,60,60,60s60-26.916,60-60S305.084,226,272,226z M272,316
			c-16.542,0-30-13.458-30-30s13.458-30,30-30s30,13.458,30,30S288.542,316,272,316z"/>
	</g>
</g>
<g>
	<g>
		<path d="M467,106h-87.105l-18.85-50.267C358.85,49.878,353.253,46,347,46H197c-6.253,0-11.85,3.878-14.045,9.733L164.105,106H120
			V91c0-24.813-20.187-45-45-45S30,66.187,30,91v17.58C12.541,114.772,0,131.445,0,151c0,10.717,0,260.454,0,270
			c0,24.813,20.187,45,45,45h422c24.813,0,45-20.187,45-45V151C512,126.187,491.813,106,467,106z M207.395,76h129.211l11.25,30
			h-151.71L207.395,76z M60,91c0-8.271,6.729-15,15-15s15,6.729,15,15v15H60V91z M30,196h45c8.271,0,15,6.729,15,15v150
			c0,8.271-6.729,15-15,15H30V196z M482,421c0,8.271-6.729,15-15,15H45c-8.271,0-15-6.729-15-15v-15h45c24.813,0,45-20.187,45-45
			V211c0-24.813-20.187-45-45-45H30v-15c0-8.271,6.729-15,15-15c47.519,0,376.994,0,422,0c8.271,0,15,6.729,15,15V421z"/>
	</g>
</g>
<g>
	<g>
		<path d="M437,166h-30c-8.284,0-15,6.716-15,15s6.716,15,15,15h30c8.284,0,15-6.716,15-15S445.284,166,437,166z"/>
	</g>
</g>
<g>
</g>
<g>
</g>
<g>
</g>
<g>
</g>
<g>
</g>
<g>
</g>
<g>
</g>
<g>
</g>
<g>
</g>
<g>
</g>
<g>
</g>
<g>
</g>
<g>
</g>
<g>
</g>
<g>
</g>
</svg>
