<?xml version="1.0" encoding="utf-8"?>
<!-- Generator: Adobe Illustrator 16.0.0, SVG Export Plug-In . SVG Version: 6.00 Build 0)  -->
<svg version="1.1" xmlns="http://www.w3.org/2000/svg" xmlns:xlink="http://www.w3.org/1999/xlink" x="0px" y="0px"
	 width="112.379px" height="19.38px" viewBox="0 0 112.379 19.38" enable-background="new 0 0 112.379 19.38" xml:space="preserve">
<polygon class="star_1" points="10.19,0 13.337,6.379 20.379,7.403 15.284,12.369 16.487,19.38 10.19,16.069 3.893,19.38 
	5.095,12.369 0,7.403 7.041,6.379 "/>
<polygon class="star_2"  points="33.19,0 36.337,6.379 43.379,7.403 38.284,12.369 39.487,19.38 33.19,16.069 26.893,19.38 
	28.095,12.369 23,7.403 30.041,6.379 "/>
<polygon class="star_3"  points="56.19,0 59.337,6.379 66.379,7.403 61.284,12.369 62.487,19.38 56.19,16.069 49.893,19.38 
	51.095,12.369 46,7.403 53.041,6.379 "/>
<polygon class="star_4"  points="79.19,0 82.337,6.379 89.379,7.403 84.284,12.369 85.487,19.38 79.19,16.069 72.893,19.38 
	74.095,12.369 69,7.403 76.041,6.379 "/>
<polygon class="star_5"  points="102.19,0 105.337,6.379 112.379,7.403 107.284,12.369 108.486,19.38 102.19,16.069 95.893,19.38 
	97.095,12.369 92,7.403 99.041,6.379 "/>
</svg>