<?xml version="1.0"?>
<svg xmlns="http://www.w3.org/2000/svg" xmlns:xlink="http://www.w3.org/1999/xlink" xmlns:svgjs="http://svgjs.com/svgjs" version="1.1" width="512" height="512" x="0" y="0" viewBox="0 0 512 512" style="enable-background:new 0 0 512 512" xml:space="preserve" class=""><g><g xmlns="http://www.w3.org/2000/svg"><g><path d="m408.572 43.377h-124.722c-5.523 0-10-4.478-10-10s4.477-10 10-10h124.722c5.523 0 10 4.478 10 10s-4.477 10-10 10zm-180.507 0h-124.722c-5.523 0-10-4.478-10-10s4.477-10 10-10h124.722c5.523 0 10 4.478 10 10s-4.477 10-10 10z" fill="#45454e" data-original="#020288" class=""/></g><g><path clip-rule="evenodd" d="m81.148 149.931h56.182v128.008h-56.182z" fill="#ffbdbc" fill-rule="evenodd" data-original="#ffbdbc" class=""/></g><g><path clip-rule="evenodd" d="m374.642 149.931h56.182v128.008h-56.182z" fill="#ffbdbc" fill-rule="evenodd" data-original="#ffbdbc" class=""/></g><g><path clip-rule="evenodd" d="m228.065 33.377v47.459h27.892 27.892v-47.459c0-15.301-12.557-27.83-27.892-27.83-15.335 0-27.892 12.529-27.892 27.83z" fill="#ffbdbc" fill-rule="evenodd" data-original="#ffbdbc" class=""/></g><path d="m473.597 139.931h-136.436l1.908-19.133c1.455-14.644-2.432-28.256-10.663-37.346-7.475-8.254-18.128-12.616-30.809-12.616h-83.28c-12.681 0-23.334 4.362-30.809 12.616-8.231 9.09-12.117 22.702-10.662 37.35l1.908 19.129h-136.351c-21.175 0-38.403 17.199-38.403 38.34v71.329c0 21.141 17.228 38.34 38.403 38.34h151.129l7.018 70.488-81.935 55.711c-2.738 1.862-4.377 4.958-4.377 8.27v44.518c0 5.522 4.477 10 10 10h99.27c2.051 4.395 4.24 8.281 6.586 11.685 10.166 14.747 21.852 17.843 29.865 17.843s19.699-3.096 29.864-17.843c2.346-3.404 4.535-7.29 6.586-11.685h99.27c5.523 0 10-4.478 10-10v-44.518c0-3.312-1.639-6.407-4.377-8.27l-81.933-55.71 7.041-70.489h151.188c21.175 0 38.403-17.199 38.403-38.34v-71.329c-.001-21.141-17.229-38.34-38.404-38.34zm-280.849-21.11c-.898-9.035 1.138-17.033 5.585-21.944 3.63-4.009 9.008-6.041 15.984-6.041h83.28c6.976 0 12.354 2.032 15.984 6.041 4.447 4.911 6.483 12.909 5.586 21.94l-2.106 21.113h-122.207zm-62.511 338.105v-29.225l68.628-46.663c2.666 24.564 6.059 49.341 11.851 70.872.463 1.72.936 3.386 1.417 5.016zm251.441 0h-81.896c.481-1.63.954-3.296 1.417-5.016 5.792-21.532 9.185-46.309 11.851-70.872l68.628 46.663zm-86.798-94.615c-.003.027-.006.054-.008.081-2.888 28.981-6.272 59.361-12.987 84.323-3.992 14.841-12.669 39.738-25.928 39.738s-21.936-24.897-25.928-39.738c-6.714-24.961-10.098-55.34-12.986-84.319-.003-.03-.006-.059-.009-.089l-7.404-74.367h92.679zm197.12-112.711c0 10.112-8.255 18.34-18.403 18.34h-435.194c-10.148-.001-18.403-8.228-18.403-18.34v-71.329c0-10.112 8.255-18.34 18.403-18.34h287.704c.006 0 .013.001.019.001.007 0 .014-.001.021-.001h147.451c10.147 0 18.403 8.228 18.403 18.34v71.329z" fill="#45454e" data-original="#020288" class=""/></g></g></svg>
