<svg id="Capa_1" enable-background="new 0 0 511.993 511.993" height="512" viewBox="0 0 511.993 511.993" width="512" xmlns="http://www.w3.org/2000/svg"><g><path d="m47.604 458.386c4.018 4.389 10.25 5.988 15.886 4.075l64.215-21.804 26.846 62.274c2.362 5.479 7.747 9.038 13.713 9.062h.062c5.942 0 11.326-3.508 13.725-8.949l50.042-113.51c7.836.962 15.811 1.467 23.903 1.467s16.067-.504 23.903-1.467l50.042 113.51c2.398 5.441 7.783 8.95 13.726 8.949h.062c5.967-.024 11.351-3.583 13.713-9.062l26.847-62.274 64.215 21.804c5.631 1.913 11.868.315 15.886-4.075 4.019-4.389 5.063-10.739 2.66-16.184l-56.326-127.672c25.242-32.873 40.273-73.976 40.273-118.53 0-108.075-87.477-196-195-196s-195 87.925-195 196c0 44.554 15.031 85.658 40.273 118.53l-56.326 127.672c-2.402 5.445-1.359 11.795 2.66 16.184zm378.218-35.309-45.002-15.281c-7.406-2.516-15.501 1.084-18.598 8.266l-18.709 43.398-33.534-76.067c29.739-8.58 56.573-24.067 78.66-44.598zm-334.825-227.077c0-91.533 74.019-166 165-166s165 74.467 165 166c0 90.981-74.019 165-165 165s-165-74.019-165-165zm32.357 142.795c22.088 20.531 48.922 36.019 78.661 44.598l-33.535 76.066-18.708-43.398c-3.097-7.183-11.192-10.781-18.597-8.266l-45.003 15.281z"/><path d="m197.082 215.143-8.771 51.133c-.965 5.627 1.348 11.315 5.967 14.671 4.611 3.35 10.735 3.803 15.797 1.142l45.921-24.142 45.92 24.142c5.055 2.657 11.18 2.214 15.797-1.142 4.619-3.356 6.933-9.043 5.968-14.671l-8.77-51.133 37.15-36.213c4.088-3.985 5.56-9.946 3.795-15.376s-6.458-9.388-12.108-10.209l-51.341-7.46-22.96-46.522c-2.527-5.12-7.742-8.362-13.451-8.362s-10.924 3.241-13.451 8.362l-22.96 46.522-51.341 7.46c-5.65.821-10.345 4.779-12.109 10.209-1.765 5.43-.293 11.391 3.795 15.377zm34.621-40.705c4.886-.71 9.109-3.778 11.294-8.206l12.999-26.339 12.999 26.339c2.185 4.427 6.409 7.496 11.294 8.206l29.067 4.224-21.033 20.502c-3.535 3.446-5.148 8.411-4.313 13.277l4.965 28.95-25.999-13.668c-4.369-2.297-9.59-2.298-13.96 0l-25.999 13.668 4.965-28.95c.834-4.866-.779-9.831-4.314-13.277l-21.034-20.502z"/></g></svg>