<?xml version="1.0" encoding="iso-8859-1"?>
<!-- Generator: Adobe Illustrator 16.0.0, SVG Export Plug-In . SVG Version: 6.00 Build 0)  -->
<!DOCTYPE svg PUBLIC "-//W3C//DTD SVG 1.1//EN" "http://www.w3.org/Graphics/SVG/1.1/DTD/svg11.dtd">
<svg version="1.1" id="Capa_1" xmlns="http://www.w3.org/2000/svg" xmlns:xlink="http://www.w3.org/1999/xlink" x="0px" y="0px"
	 width="91.674px" height="91.674px" viewBox="0 0 91.674 91.674" style="enable-background:new 0 0 91.674 91.674;"
	 xml:space="preserve">
<g>
	<g>
		<path d="M38.157,0.003c-8.398,0.373-15.895,3.722-21.68,9.685C1.141,25.498,1.436,55.3,1.52,58.596l0.001,31.078
			c0,1.104,0.896,2,2,2h30.691c1.104,0,2-0.896,2-2V58.981c0-1.104-0.896-2-2-2H18.527c0.003-2.562,0.313-25.309,10.186-35.455
			c2.672-2.747,5.836-4.214,9.674-4.485c1.048-0.074,1.859-0.945,1.859-1.995V2.002c0-0.546-0.223-1.068-0.617-1.445
			C39.234,0.179,38.71-0.031,38.157,0.003z"/>
		<path d="M89.553,0.556c-0.395-0.377-0.906-0.587-1.472-0.553C79.684,0.375,72.186,3.725,66.4,9.688
			C51.065,25.498,51.359,55.3,51.443,58.596l0.001,31.078c0,1.104,0.896,2,2,2h30.69c1.104,0,2-0.896,2-2V58.981
			c0-1.104-0.896-2-2-2H68.452c0.003-2.562,0.313-25.309,10.185-35.455c2.673-2.747,5.837-4.214,9.675-4.485
			c1.048-0.074,1.858-0.945,1.858-1.995V2.002C90.17,1.457,89.947,0.935,89.553,0.556z"/>
	</g>
</g>
<g>
</g>
<g>
</g>
<g>
</g>
<g>
</g>
<g>
</g>
<g>
</g>
<g>
</g>
<g>
</g>
<g>
</g>
<g>
</g>
<g>
</g>
<g>
</g>
<g>
</g>
<g>
</g>
<g>
</g>
</svg>
