<?xml version="1.0"?>
<svg xmlns="http://www.w3.org/2000/svg" xmlns:xlink="http://www.w3.org/1999/xlink" xmlns:svgjs="http://svgjs.com/svgjs" version="1.1" width="512" height="512" x="0" y="0" viewBox="0 0 512.002 512.002" style="enable-background:new 0 0 512 512" xml:space="preserve" class=""><g><g xmlns="http://www.w3.org/2000/svg"><path clip-rule="evenodd" d="m62.359 367.651h278.452l-18.797-45.649 45.649 18.797v-278.452h-305.304z" fill="#ffbdbc" fill-rule="evenodd" data-original="#fff69b" class=""/><g fill="#020288"><path d="m509.085 457.036-40.298-40.297 21.35-21.35c5.019-4.748 3.217-13.87-3.263-16.318 0 0-161.052-66.316-161.052-66.316-3.732-1.535-8.023-.678-10.879 2.176-2.854 2.854-3.712 7.146-2.176 10.879l66.316 161.053c2.452 6.459 11.566 8.303 16.318 3.263 0 0 21.35-21.349 21.35-21.349l40.297 40.297c1.953 1.952 4.512 2.929 7.071 2.929s5.119-.977 7.071-2.929l37.895-37.895c3.871-3.723 3.874-10.42 0-14.143zm-44.966 30.823-40.297-40.297c-1.953-1.952-4.512-2.929-7.071-2.929s-5.119.977-7.071 2.929l-17.814 17.814-51.467-124.99 124.99 51.467-17.814 17.814c-1.875 1.875-2.929 4.419-2.929 7.071s1.054 5.195 2.929 7.071l40.298 40.297z" fill="#45454e" data-original="#020288" class=""/><path d="m310.011 20.001h10c13.248-.489 13.249-19.511 0-20h-10c-13.248.489-13.25 19.511 0 20z" fill="#45454e" data-original="#020288" class=""/><path d="m270.011.001h-10c-13.248.489-13.249 19.511 0 20h10c13.248-.489 13.249-19.511 0-20z" fill="#45454e" data-original="#020288" class=""/><path d="m210.011 20.001h10c13.248-.489 13.249-19.511 0-20h-10c-13.248.489-13.249 19.511 0 20z" fill="#45454e" data-original="#020288" class=""/><path d="m160.012 20.001h10c13.248-.489 13.249-19.511 0-20h-10c-13.248.489-13.25 19.511 0 20z" fill="#45454e" data-original="#020288" class=""/><path d="m120.012.001h-10c-13.248.489-13.249 19.511 0 20h10c13.247-.489 13.249-19.511 0-20z" fill="#45454e" data-original="#020288" class=""/><path d="m70.012.001h-10c-13.248.489-13.249 19.511 0 20h10c13.248-.489 13.249-19.511 0-20z" fill="#45454e" data-original="#020288" class=""/><path d="m360.011 20.001h10c13.248-.489 13.249-19.511 0-20h-10c-13.248.489-13.25 19.511 0 20z" fill="#45454e" data-original="#020288" class=""/><path d="m120.012 409.998h-10c-13.248.489-13.249 19.511 0 20h10c13.247-.489 13.249-19.511 0-20z" fill="#45454e" data-original="#020288" class=""/><path d="m170.012 409.998h-10c-13.248.489-13.249 19.511 0 20h10c13.247-.489 13.249-19.511 0-20z" fill="#45454e" data-original="#020288" class=""/><path d="m220.011 409.998h-10c-13.248.489-13.249 19.511 0 20h10c13.248-.489 13.249-19.511 0-20z" fill="#45454e" data-original="#020288" class=""/><path d="m270.011 409.998h-10c-13.248.489-13.249 19.511 0 20h10c13.248-.489 13.249-19.511 0-20z" fill="#45454e" data-original="#020288" class=""/><path d="m320.011 409.998h-10c-13.248.489-13.249 19.511 0 20h10c13.247-.489 13.249-19.511 0-20z" fill="#45454e" data-original="#020288" class=""/><path d="m70.012 409.998h-10c-13.248.489-13.249 19.511 0 20h10c13.248-.489 13.249-19.511 0-20z" fill="#45454e" data-original="#020288" class=""/><path d="m10.013 329.999c5.523 0 10-4.478 10-10v-10c-.489-13.248-19.511-13.249-20 0v10c0 5.522 4.477 10 10 10z" fill="#45454e" data-original="#020288" class=""/><path d="m10.013 279.999c5.523 0 10-4.478 10-10v-10c-.489-13.248-19.511-13.249-20 0v10c0 5.522 4.477 10 10 10z" fill="#45454e" data-original="#020288" class=""/><path d="m10.013 229.999c5.523 0 10-4.478 10-10v-10c-.489-13.248-19.511-13.249-20 0v10c0 5.522 4.477 10 10 10z" fill="#45454e" data-original="#020288" class=""/><path d="m10.013 180c5.523 0 10-4.478 10-10v-10c-.489-13.248-19.511-13.249-20 0v10c0 5.522 4.477 10 10 10z" fill="#45454e" data-original="#020288" class=""/><path d="m10.013 130c5.523 0 10-4.478 10-10v-10c-.489-13.248-19.511-13.249-20 0v10c0 5.522 4.477 10 10 10z" fill="#45454e" data-original="#020288" class=""/><path d="m10.013 80c5.523 0 10-4.478 10-10v-10c-.489-13.248-19.511-13.249-20 0v10c0 5.522 4.477 10 10 10z" fill="#45454e" data-original="#020288" class=""/><path d="m20.012 0h-10c-5.523 0-10 4.478-10 10v10c.488 13.247 19.511 13.25 20 0 13.254-.492 13.244-19.513 0-20z" fill="#45454e" data-original="#020288" class=""/><path d="m20.013 409.998c-.488-13.246-19.51-13.251-20 0v10c0 5.522 4.477 10 10 10h10c13.246-.489 13.249-19.51 0-20z" fill="#45454e" data-original="#020288" class=""/><path d="m10.013 379.999c5.523 0 10-4.478 10-10v-10.001c-.489-13.248-19.511-13.249-20 0v10.001c0 5.522 4.477 10 10 10z" fill="#45454e" data-original="#020288" class=""/><path d="m430.01 110c-.489-13.248-19.511-13.249-20 0v10c.489 13.248 19.511 13.249 20 0z" fill="#45454e" data-original="#020288" class=""/><path d="m430.01 160c-.489-13.248-19.511-13.249-20 0v10c.489 13.248 19.511 13.249 20 0z" fill="#45454e" data-original="#020288" class=""/><path d="m430.01 209.999c-.489-13.248-19.511-13.249-20 0v10c.489 13.248 19.511 13.249 20 0z" fill="#45454e" data-original="#020288" class=""/><path d="m430.01 259.999c-.489-13.248-19.511-13.249-20 0v10c.489 13.248 19.511 13.249 20 0z" fill="#45454e" data-original="#020288" class=""/><path d="m420.01 299.999c-5.523 0-10 4.478-10 10v10c.489 13.248 19.511 13.249 20 0v-10c0-5.522-4.477-10-10-10z" fill="#45454e" data-original="#020288" class=""/><path d="m410.01 20c.488 13.246 19.51 13.251 20 0v-10c0-5.522-4.477-10-10-10h-10c-13.247.489-13.25 19.51 0 20z" fill="#45454e" data-original="#020288" class=""/><path d="m430.01 60c-.489-13.248-19.511-13.249-20 0v10c.489 13.248 19.511 13.249 20 0z" fill="#45454e" data-original="#020288" class=""/><path d="m240.012 204.999h-15v-15c0-5.522-4.477-10-10-10s-10 4.478-10 10v15h-15c-5.523 0-10 4.478-10 10s4.477 10 10 10h15v15c0 5.522 4.477 10 10 10s10-4.478 10-10v-15h15c13.25-.49 13.246-19.512 0-20z" fill="#45454e" data-original="#020288" class=""/></g></g></g></svg>
