<?xml version="1.0"?>
<svg xmlns="http://www.w3.org/2000/svg" xmlns:xlink="http://www.w3.org/1999/xlink" xmlns:svgjs="http://svgjs.com/svgjs" version="1.1" width="512" height="512" x="0" y="0" viewBox="0 0 512 512" style="enable-background:new 0 0 512 512" xml:space="preserve" class=""><g><g xmlns="http://www.w3.org/2000/svg" id="XMLID_173_"><path id="XMLID_327_" d="m0 246h50v140h-50z" fill="#ffbdbc" data-original="#ffbdbc"/><path id="XMLID_324_" d="m90 226h280v180h-280z" fill="#ffbdbc" data-original="#ffbdbc"/><g id="XMLID_174_" fill="#00008b"><path id="XMLID_175_" d="m506.441 197.04c-3.404-1.686-7.471-1.302-10.497 1.002l-75.944 57.784v-39.826c0-22.056-17.944-40-40-40h-21.077c12.993-12.716 21.077-30.428 21.077-50 0-38.598-31.402-70-70-70s-70 31.402-70 70c0 19.572 8.084 37.284 21.077 50h-62.154c12.992-12.716 21.077-30.428 21.077-50 0-38.598-31.402-70-70-70s-70 31.402-70 70c0 19.572 8.085 37.284 21.077 50h-21.077c-22.056 0-40 17.944-40 40v200c0 22.056 17.944 40 40 40h300c22.056 0 40-17.944 40-40v-39.826l75.944 57.784c1.775 1.351 3.908 2.042 6.057 2.042 5.507 0 9.999-4.47 9.999-10v-220c0-3.8-2.154-7.271-5.559-8.96zm-246.441-71.04c0-27.57 22.43-50 50-50s50 22.43 50 50-22.43 50-50 50-50-22.43-50-50zm-160 0c0-27.57 22.43-50 50-50s50 22.43 50 50-22.43 50-50 50-50-22.43-50-50zm300 290c0 11.028-8.972 20-20 20h-300c-11.028 0-20-8.972-20-20v-200c0-11.028 8.972-20 20-20h300c11.028 0 20 8.972 20 20zm92-10.174-72-54.783v-70.086l72-54.783z" fill="#45454e" data-original="#00008b" class=""/><path id="XMLID_181_" d="m150 96c-16.542 0-30 13.458-30 30s13.458 30 30 30 30-13.458 30-30-13.458-30-30-30zm0 40c-5.514 0-10-4.486-10-10s4.486-10 10-10 10 4.486 10 10-4.486 10-10 10z" fill="#45454e" data-original="#00008b" class=""/><path id="XMLID_184_" d="m310 96c-16.542 0-30 13.458-30 30s13.458 30 30 30 30-13.458 30-30-13.458-30-30-30zm0 40c-5.514 0-10-4.486-10-10s4.486-10 10-10 10 4.486 10 10-4.486 10-10 10z" fill="#45454e" data-original="#00008b" class=""/><path id="XMLID_187_" d="m330 316h-110c-5.523 0-10 4.478-10 10v40c0 5.522 4.477 10 10 10h110c5.522 0 10-4.478 10-10v-40c0-5.522-4.478-10-10-10zm-10 40h-90v-20h90z" fill="#45454e" data-original="#00008b" class=""/></g></g></g></svg>
