<?xml version="1.0"?>
<svg xmlns="http://www.w3.org/2000/svg" xmlns:xlink="http://www.w3.org/1999/xlink" xmlns:svgjs="http://svgjs.com/svgjs" version="1.1" width="512" height="512" x="0" y="0" viewBox="0 0 512.001 512.001" style="enable-background:new 0 0 512 512" xml:space="preserve" class=""><g><g xmlns="http://www.w3.org/2000/svg"><path clip-rule="evenodd" d="m289.928 85.999h-279.928v220h492.001v-220h-93.928l-78.707 78.706-90.366 31.294 31.294-90.366z" fill="#ffbebc" fill-rule="evenodd" data-original="#ffbebc" class=""/><path d="m482.001 35.999h-452.001c-16.542 0-30 13.458-30 30v300.001c0 16.542 13.458 30 30 30h174.406l-16.077 60.003h-12.328c-13.268.528-13.258 19.477 0 20h160c13.268-.528 13.258-19.477 0-20h-12.328l-16.077-60.003h174.406c16.542 0 30-13.458 30-30v-300.001c-.001-16.542-13.459-30-30.001-30zm-176.806 153.546c4.993 2.936 5.029 9.992.06 12.934l-90.905 52.484c-3.381 1.954-6.37.652-7.497 0-1.14-.658-3.789-2.605-3.785-6.474v-104.96c0-2.733 1.569-5.356 3.998-6.683 2.479-1.355 5.339-1.077 8.271.806.133.085.267.167.404.246l27.331 15.78-13.522 39.048c-2.817 7.72 5.041 15.534 12.722 12.722l56.548-19.583zm-42.625-31.048c2.808 1.765 5.422 3.841 7.756 6.175 2.335 2.335 4.411 4.949 6.176 7.757l-21.312 7.38zm33.172 7.27c-2.988-5.596-6.804-10.766-11.273-15.236-4.469-4.469-9.64-8.285-15.236-11.273l7.953-22.966.881 3.697c.875 3.669 3.74 6.534 7.409 7.409l17.868 4.259 4.259 17.868c.875 3.669 3.739 6.534 7.408 7.409l3.696.881zm69.116-109.768-56.333 56.332-12.43-2.963-2.963-12.431 40.939-40.938zm-26.796 85.868-12.43-2.963-2.963-12.43 70.099-70.098c.123-.123.242-.248.357-.376h30.806zm-308.062-85.868h275.786l-42.563 42.563c-1.07 1.07-1.883 2.369-2.378 3.799l-11.107 32.072-23.81-13.747c-9.01-5.686-19.626-6.21-28.449-1.392-8.889 4.855-14.411 14.142-14.411 24.235v104.951c-.01 9.914 5.143 18.812 13.782 23.802 8.612 4.975 18.897 4.975 27.506-.002l90.903-52.483c14.924-8.159 18.191-29.617 6.818-41.985l10.562-3.657c1.43-.496 2.729-1.309 3.798-2.378l115.779-115.778h29.786c5.514 0 10 4.486 10 10v270.001h-472.002v-270.001c0-5.514 4.486-10 10-10zm272.968 400.003h-93.934l16.077-60.002h61.779zm179.033-80.002h-452.001c-5.514 0-10-4.486-10-10v-10h472.001v10c0 5.514-4.485 10-10 10z" fill="#45454e" data-original="#020288" class=""/></g></g></svg>
