<?xml version="1.0"?>
<svg xmlns="http://www.w3.org/2000/svg" height="512px" viewBox="0 -1 512 512" width="512px" class=""><g><path d="m204.5 458.605469v51.855469l-12.539062-10.128907c-1.9375-1.566406-48.035157-38.992187-94.78125-92.660156-64.484376-74.035156-97.179688-140.492187-97.179688-197.519531v-5.652344c0-112.761719 91.738281-204.5 204.5-204.5s204.5 91.738281 204.5 204.5v5.652344c0 4.789062-.253906 9.652344-.714844 14.574218l-39.992187-36.484374c-8.191407-83.15625-78.519531-148.339844-163.792969-148.339844-90.757812 0-164.597656 73.839844-164.597656 164.597656v5.652344c0 96.367187 124.164062 213.027344 164.597656 248.453125zm122.699219-28.660157h59.851562v-59.851562h-59.851562zm-122.699219-310.238281c46.753906 0 84.792969 38.039063 84.792969 84.792969s-38.039063 84.792969-84.792969 84.792969-84.792969-38.039063-84.792969-84.792969 38.039063-84.792969 84.792969-84.792969zm0 39.902344c-24.753906 0-44.890625 20.136719-44.890625 44.890625 0 24.75 20.136719 44.890625 44.890625 44.890625 24.75 0 44.890625-20.140625 44.890625-44.890625 0-24.753906-20.140625-44.890625-44.890625-44.890625zm280.609375 243.222656-11.21875-10.234375v64.058594c0 29.828125-24.269531 54.09375-54.097656 54.09375h-126.332031c-29.828126 0-54.097657-24.265625-54.097657-54.09375v-64.058594l-11.21875 10.234375-26.890625-29.476562 155.371094-141.746094 155.375 141.746094zm-51.121094-46.636719-77.363281-70.574218-77.359375 70.574218v100.457032c0 7.828125 6.367187 14.195312 14.195313 14.195312h126.332031c7.828125 0 14.195312-6.367187 14.195312-14.195312zm0 0" data-original="#000000" class="active-path" data-old_color="#000000" fill="#FFFFFF"/></g> </svg>
