<svg id="Layer_1" data-name="Layer 1" xmlns="http://www.w3.org/2000/svg" viewBox="0 0 187.35 134.37"><defs><style>.cls-1{fill:#fff;}</style></defs><title>wood-arrow</title><path class="cls-1" d="M3.27,42.37c.07-.76.14-1.51.19-2.26L2.37,41.2c0,.36-.06.71-.1,1.07C2.15,43.47,2,44.69,2,45.91l1,1A42.86,42.86,0,0,1,3.27,42.37Z" transform="translate(-2 -1.32)"/><path class="cls-1" d="M15.69,58.71A39.39,39.39,0,0,0,15,53c-.31-1.36-.74-2.72-1.16-4-.19-.59-.38-1.19-.56-1.78s-.33-1.08-.5-1.62a31.54,31.54,0,0,1-1.53-6.29,43.63,43.63,0,0,1-.12-4.85c0-.62,0-1.24,0-1.86v-.17l-1,1c0,.34,0,.68,0,1a43.48,43.48,0,0,0,.13,5,32,32,0,0,0,1.57,6.49l.5,1.61c.18.6.37,1.19.56,1.8.41,1.29.84,2.62,1.14,3.94a38.43,38.43,0,0,1,.66,5.33l1.09,1.09C15.75,59.36,15.72,59,15.69,58.71Z" transform="translate(-2 -1.32)"/><path class="cls-1" d="M22.53,66a2.52,2.52,0,0,1,.23-.52,2.27,2.27,0,0,0,.35-1.22.85.85,0,0,0,.47-.37.49.49,0,0,0,0-.51,1.75,1.75,0,0,0-.18-.29c.09-.09.2-.18.32-.28a2.27,2.27,0,0,0,.76-.9,4.55,4.55,0,0,0,0-2.26,8,8,0,0,0-1-2.57l-.31-.58a31.93,31.93,0,0,1-1.82-4.17c-.19-.55-.33-1.1-.47-1.68A13.22,13.22,0,0,0,20,47.93c-.29-.61-.62-1.2-.94-1.79a24.23,24.23,0,0,1-1.23-2.44,17.31,17.31,0,0,1-1-7.89A28.65,28.65,0,0,1,19,27.34l.5-1.38.23-.65L20.59,23l-1.67,1.68L18.8,25l-.23.65c-.16.45-.33.91-.5,1.37a29.38,29.38,0,0,0-2.26,8.78,18.53,18.53,0,0,0,1.1,8.32,25.17,25.17,0,0,0,1.29,2.54c.31.57.63,1.14.91,1.73a12.18,12.18,0,0,1,.79,2.48c.15.58.3,1.18.5,1.76a32.71,32.71,0,0,0,1.88,4.31c.1.2.21.4.32.6a7.54,7.54,0,0,1,.94,2.25,4.1,4.1,0,0,1,0,1.72,1.55,1.55,0,0,1-.47.5,2.27,2.27,0,0,0-.75.88.46.46,0,0,0,.06.48h0a.49.49,0,0,0-.35.76c.14.21.09.37-.17.86a4.11,4.11,0,0,0-.25.56l.84.85A3,3,0,0,1,22.53,66Z" transform="translate(-2 -1.32)"/><path class="cls-1" d="M28.11,67.52a10.39,10.39,0,0,1,.29-2.12c.07-.3.13-.59.18-.88a4.33,4.33,0,0,1,.68-1.83.51.51,0,0,0,0-.57L29.16,62c-.18-1.39.05-1.75.25-2.07a1.9,1.9,0,0,0,.34-.88,2.76,2.76,0,0,0-.26-1.16,2.64,2.64,0,0,1-.13-.4,5,5,0,0,1-.11-1.12,5.85,5.85,0,0,0-.13-1.3,3,3,0,0,0-.43-.91,3.33,3.33,0,0,1-.25-.42,5.44,5.44,0,0,1-.19-.61,5.54,5.54,0,0,0-.4-1.08c-.31-.6-.61-1.17-.89-1.78s-.45-.93-.69-1.39a13.36,13.36,0,0,1-1.14-2.59,17.71,17.71,0,0,1-.51-4.46,39.15,39.15,0,0,1,1.54-12.6,53.43,53.43,0,0,1,7-13.94,31.78,31.78,0,0,1,5.79-6.72c.9-.76,1.82-1.49,2.75-2.23s2.07-1.63,3.08-2.49L44,3.1c-1,.83-2,1.64-3,2.42S39.18,7,38.27,7.76a33.09,33.09,0,0,0-6,6.93,54.32,54.32,0,0,0-7.1,14.2A40.24,40.24,0,0,0,23.62,41.8a18.7,18.7,0,0,0,.55,4.73,14.9,14.9,0,0,0,1.21,2.77c.23.44.46.89.67,1.34.29.63.59,1.22.92,1.84a3.67,3.67,0,0,1,.31.88c.08.25.15.5.25.73a3.15,3.15,0,0,0,.32.58,1.78,1.78,0,0,1,.3.6,5.39,5.39,0,0,1,.1,1.09,6.27,6.27,0,0,0,.13,1.34c0,.14.11.32.17.5a2.47,2.47,0,0,1,.2.72,1,1,0,0,1-.18.44c-.35.55-.62,1.14-.38,2.85a.44.44,0,0,0,.07.19,5.57,5.57,0,0,0-.67,1.95c-.05.28-.1.56-.16.84a10.72,10.72,0,0,0-.32,2.33,16.58,16.58,0,0,0,.49,4l1.54,1.54A14.6,14.6,0,0,1,28.11,67.52Z" transform="translate(-2 -1.32)"/><path class="cls-1" d="M42.53,85.9c-1.14-1.64-2.31-3.32-3.34-5-.72-1.21-1.37-2.45-1.92-3.49a13.68,13.68,0,0,1-1.06-2.88,4.84,4.84,0,0,0-.4-.95,3,3,0,0,1-.36-.93c0-.22-.07-.46-.1-.69s-.06-.48-.1-.7a11.86,11.86,0,0,1-.07-2.16c0-.3,0-.59,0-.89A18.81,18.81,0,0,0,35,65.11,4.94,4.94,0,0,1,35,64a5.43,5.43,0,0,0-.12-1.84,1.34,1.34,0,0,0,.81-1.48,1.88,1.88,0,0,1,0-.34,2.54,2.54,0,0,1,.28-.73,3.93,3.93,0,0,0,.36-.9,14.14,14.14,0,0,0,.24-2.16,15.22,15.22,0,0,1,.14-1.58c.48-3.08-.49-6.1-1.43-9A39.52,39.52,0,0,1,34,41.41c-.63-3.44.37-6.23,1.85-9.81.17-.42.34-.83.5-1.25a23,23,0,0,1,1.78-3.83,32.4,32.4,0,0,1,3-3.81l.41-.47,1.83-2.13c2.69-3.14,5.43-6.33,8.39-9.28l-.71-.71c-3,3-5.74,6.18-8.44,9.34l-1.83,2.13-.4.46A33.09,33.09,0,0,0,37.32,26a24.08,24.08,0,0,0-1.87,4c-.16.42-.32.83-.49,1.23-1.5,3.62-2.59,6.68-1.91,10.38a39.52,39.52,0,0,0,1.27,4.62c.9,2.8,1.84,5.71,1.39,8.55a15.88,15.88,0,0,0-.15,1.68,12.75,12.75,0,0,1-.22,2,3.13,3.13,0,0,1-.27.67,3.5,3.5,0,0,0-.38,1,2.91,2.91,0,0,0,0,.52c0,.45,0,.55-.6.66a.48.48,0,0,0-.37.3.47.47,0,0,0,.05.47A3,3,0,0,1,34,63.89a6.45,6.45,0,0,0,0,1.39,16.6,16.6,0,0,1,.2,2.89c0,.29,0,.58,0,.87a12.25,12.25,0,0,0,.09,2.34l.09.67c0,.25.06.49.1.72A4.08,4.08,0,0,0,34.92,74a3.84,3.84,0,0,1,.32.76,14.78,14.78,0,0,0,1.15,3.08c.54,1.06,1.2,2.31,1.94,3.54.49.82,1,1.62,1.55,2.42l2.38,2.38Z" transform="translate(-2 -1.32)"/><path class="cls-1" d="M45.89,77.4a39.55,39.55,0,0,1-1.79-6.7A46.37,46.37,0,0,1,43.36,62a15.36,15.36,0,0,0,0-1.69l0-.41a5.76,5.76,0,0,1,.07-1.11c0-.21.06-.43.08-.68a7.54,7.54,0,0,0-.19-2.52,11,11,0,0,0,.14-2.46,20.06,20.06,0,0,1,0-2.06,9.29,9.29,0,0,0-.26-2.66,15.49,15.49,0,0,1-.24-1.6c-.06-.92,0-1.88,0-2.81,0-.42,0-.85,0-1.27a27.05,27.05,0,0,0-.29-3.62c-.12-1-.24-1.93-.27-2.89,0-.27,0-.55,0-.83a13.23,13.23,0,0,1,.16-3.74,18,18,0,0,1,1.78-3.81l.19-.33a36.67,36.67,0,0,1,6.88-8,60.64,60.64,0,0,1,4.9-4.12l-.71-.71a61.53,61.53,0,0,0-4.88,4.1A37.12,37.12,0,0,0,43.59,27l-.19.33a18.87,18.87,0,0,0-1.88,4.05,13.64,13.64,0,0,0-.19,4c0,.28,0,.55,0,.82,0,1,.16,2,.28,3a27.36,27.36,0,0,1,.28,3.49c0,.42,0,.84,0,1.26,0,1,0,1.94,0,2.89a13.32,13.32,0,0,0,.26,1.73,8.45,8.45,0,0,1,.24,2.38c-.06.72-.05,1.45,0,2.16a9.43,9.43,0,0,1-.14,2.34.5.5,0,0,0,0,.36A5.71,5.71,0,0,1,42.44,58c0,.23,0,.43-.08.63a6.53,6.53,0,0,0-.07,1.3l0,.42a13.86,13.86,0,0,1,0,1.59,47.17,47.17,0,0,0,.75,8.93A40.55,40.55,0,0,0,45,77.72a38.42,38.42,0,0,0,1.64,4.12l.75-.75C46.81,79.91,46.32,78.67,45.89,77.4Z" transform="translate(-2 -1.32)"/><path class="cls-1" d="M53.12,72.15c-.44-2-.9-4-1.5-6A32,32,0,0,1,50.42,57c0-.32,0-.67,0-1s0-.7,0-1a5,5,0,0,1,.08-.75A4.17,4.17,0,0,0,50.5,53a3.55,3.55,0,0,0-.1-.56,1.54,1.54,0,0,1-.06-.65.64.64,0,0,1,.07-.24,1,1,0,0,0-.32-1.32l0,0-.13-.09a3.64,3.64,0,0,1,.74-.77,6,6,0,0,0,1.14-1.21,8.05,8.05,0,0,0,.9-4,14,14,0,0,1,.2-2,16,16,0,0,0,.25-3.21V38.7a12.92,12.92,0,0,1,.34-2.43c.07-.35.14-.7.2-1.05a39.79,39.79,0,0,0,.41-4.4,25.91,25.91,0,0,1,.79-6A14.44,14.44,0,0,1,57.56,19c.36-.4.76-.81,1.19-1.22L58,17.1c-.43.42-.85.84-1.23,1.26a15.39,15.39,0,0,0-2.88,6.22,27.93,27.93,0,0,0-.82,6.19,34.94,34.94,0,0,1-.4,4.28c-.05.34-.12.69-.19,1a14.53,14.53,0,0,0-.36,2.61v.23a15.31,15.31,0,0,1-.23,3,14.25,14.25,0,0,0-.22,2.17A7.06,7.06,0,0,1,51,47.62a5.15,5.15,0,0,1-1,1c-.58.5-1.12,1-1.08,1.59a1.14,1.14,0,0,0,.57.85l.28-.41-.25.41-.06.17a1.84,1.84,0,0,0-.13.48,2.41,2.41,0,0,0,.09,1,3.71,3.71,0,0,1,.08.43,3.21,3.21,0,0,1-.08.91,6.83,6.83,0,0,0-.09.92c0,.34,0,.71,0,1.08s0,.65,0,1a32.85,32.85,0,0,0,1.25,9.46c.58,1.92,1,4,1.47,5.91.23,1.06.47,2.13.73,3.19l.83-.82C53.5,73.86,53.31,73,53.12,72.15Z" transform="translate(-2 -1.32)"/><path class="cls-1" d="M60.08,66.35a7.14,7.14,0,0,0-.45-1.42,6.48,6.48,0,0,1-.39-1.23c-.07-.44-.1-.87-.13-1.31a14.38,14.38,0,0,0-.17-1.55,30,30,0,0,1-.54-4.58c0-.79-.07-1.56-.12-2.33-.06-1-.13-2-.13-3a10.22,10.22,0,0,1,.44-2.68c.13-.52.26-1.05.36-1.61a35.57,35.57,0,0,0,.53-4.18c0-.41,0-.84,0-1.26a13.2,13.2,0,0,1,.05-1.8,21.3,21.3,0,0,0,.08-3.82,21.68,21.68,0,0,1,.06-3.6c.26-2.13,1.78-4.1,3.12-5.83l.3-.39c.24-.31.47-.63.69-.95s.57-.78.86-1.14L63.93,23c-.33.42-.65.84-1,1.27s-.44.62-.68.92l-.29.39c-1.42,1.83-3,3.92-3.33,6.31a22.71,22.71,0,0,0-.06,3.77,20.15,20.15,0,0,1-.07,3.65,14.07,14.07,0,0,0-.06,2c0,.4,0,.8,0,1.2A34.88,34.88,0,0,1,58,46.51c-.09.53-.22,1-.34,1.52A11,11,0,0,0,57.15,51c0,1,.07,2,.13,3,0,.76.1,1.52.12,2.3A31.73,31.73,0,0,0,58,61a11.53,11.53,0,0,1,.16,1.44,13,13,0,0,0,.15,1.4,7.11,7.11,0,0,0,.44,1.44,6.68,6.68,0,0,1,.4,1.22,21,21,0,0,0,.53,2.28l.82-.82C60.31,67.45,60.18,66.91,60.08,66.35Z" transform="translate(-2 -1.32)"/><path class="cls-1" d="M69,57.53c-.71-3.39-1.38-6.6-1.78-10a31.45,31.45,0,0,1,1-10.79A26,26,0,0,1,71,30.05l-.73-.73a26.35,26.35,0,0,0-3,7.16,32.76,32.76,0,0,0-1,11.15c.4,3.46,1.07,6.69,1.79,10.11.16.73.31,1.47.46,2.21l.85-.85Z" transform="translate(-2 -1.32)"/><path class="cls-1" d="M73.92,54.07a18.9,18.9,0,0,1-.15-4.46c0-.51,0-1,0-1.53A22.14,22.14,0,0,1,75,42c.09-.31.15-.61.21-.91a5.55,5.55,0,0,1,.33-1.21c.09-.22.2-.42.3-.62a6.49,6.49,0,0,0,.48-1.09l.23-.7c.15-.47.29-.92.45-1.35l-.77-.77c-.24.6-.44,1.2-.64,1.82l-.22.68a5.82,5.82,0,0,1-.42,1c-.11.22-.23.45-.33.69a6.48,6.48,0,0,0-.39,1.41c-.06.27-.11.54-.19.82a23.21,23.21,0,0,0-1.23,6.4c0,.5,0,1,0,1.5a20,20,0,0,0,.17,4.69c.07.34.15.67.23,1l.83-.84C74,54.3,74,54.19,73.92,54.07Z" transform="translate(-2 -1.32)"/><path class="cls-1" d="M81.19,43.5a15.6,15.6,0,0,0,1.11-2.15l-.77-.76A15.66,15.66,0,0,1,80.34,43a13.25,13.25,0,0,0-1.62,6.73l1-1.05A11,11,0,0,1,81.19,43.5Z" transform="translate(-2 -1.32)"/><path class="cls-1" d="M132.9,99.72c-.23.49-.47,1-.7,1.51l2.09-2.1c.64-1.27,1.34-2.47,2.07-3.71l-.73-.73A54.38,54.38,0,0,0,132.9,99.72Z" transform="translate(-2 -1.32)"/><path class="cls-1" d="M101.27,132.1a19,19,0,0,1-10.5,2.58l1,1a21.56,21.56,0,0,0,7.37-1.4l2.25-2.25A.47.47,0,0,1,101.27,132.1Z" transform="translate(-2 -1.32)"/><path class="cls-1" d="M53,95.63l-.62.61,1.15,1.15-.27-.91C53.12,96.19,53,95.91,53,95.63Z" transform="translate(-2 -1.32)"/><path class="cls-1" d="M98.22,127.31c-1.59,0-3.09-.06-4.54,0-2.56.17-5,.55-7.16.89a10.69,10.69,0,0,1-2.12.07l1,1a7.85,7.85,0,0,0,1.27-.1c2.68-.43,4.8-.72,7.06-.87,1.42-.1,2.89-.07,4.46,0a38.79,38.79,0,0,0,7.25-.33l1.33-1.33A30.22,30.22,0,0,1,98.22,127.31Z" transform="translate(-2 -1.32)"/><path class="cls-1" d="M129.57,96.63c-.26.43-.52.89-.78,1.35a20.56,20.56,0,0,1-2.09,3.23,13,13,0,0,0-1.59,2.55c-.19.37-.38.75-.62,1.15a17,17,0,0,1-2.69,3.84,8.64,8.64,0,0,1-1.48.82,4,4,0,0,0-.95.54,8,8,0,0,0-.88.87l-.32.33a6.17,6.17,0,0,0-1.53,3.76l-.09.54a10.91,10.91,0,0,1-.45,1.72l1.41-1.41,0-.14.09-.55a5.32,5.32,0,0,1,1.26-3.22l.33-.35a8.19,8.19,0,0,1,.78-.78,3.11,3.11,0,0,1,.74-.4,10.12,10.12,0,0,0,1.67-.93l.07-.06a18.66,18.66,0,0,0,2.91-4.13c.21-.37.41-.75.61-1.14a12.16,12.16,0,0,1,1.46-2.36,20.93,20.93,0,0,0,2.2-3.39c.26-.45.51-.9.77-1.33A50.39,50.39,0,0,0,133,92.06l-.75-.75A53,53,0,0,1,129.57,96.63Zm-7.44,12.51h0Z" transform="translate(-2 -1.32)"/><path class="cls-1" d="M63.18,105.4a53.84,53.84,0,0,0-3.8-8c-1-1.78-1.94-3.63-2.84-5.41l-.75.74c.87,1.7,1.76,3.46,2.71,5.16a51.9,51.9,0,0,1,3.74,7.8c.08.21.14.42.22.63l1.6,1.6C63.77,107.11,63.49,106.25,63.18,105.4Z" transform="translate(-2 -1.32)"/><path class="cls-1" d="M127.06,88c-.65,1.67-1.32,3.41-2,5.09a13.52,13.52,0,0,0-.68,2.28,12.74,12.74,0,0,1-.63,2.12c-.14.33-.28.67-.41,1-.28.68-.56,1.39-.9,2a12.22,12.22,0,0,1-3,3.87,7.81,7.81,0,0,1-2.1,1.06,9.75,9.75,0,0,0-2.06,1,6.19,6.19,0,0,0-2.54,3.79q-.13.59-.3,1.14a15.88,15.88,0,0,0-.5,2.23,16.41,16.41,0,0,1-.5,2.7,9,9,0,0,1-2.41,4.31c-2,2-5.16,2.53-7.37,2.75-.34,0-.7.1-1.06.17a7.65,7.65,0,0,1-1.37.17,10.88,10.88,0,0,1-1.14-.06c-.35,0-.71-.07-1.08-.08a9.89,9.89,0,0,1-1.29-.13,11.89,11.89,0,0,0-1.38-.15,18.31,18.31,0,0,0-2.81.2h-.12a20,20,0,0,1-2.31.11,13.86,13.86,0,0,0-3.42.3,13.62,13.62,0,0,1-4.23.19l-.37,0a6,6,0,0,1-1.07-.16l1.18,1.17h.21c.62,0,1.23.07,1.84.07a11.36,11.36,0,0,0,2.67-.29,13,13,0,0,1,3.19-.27,22.58,22.58,0,0,0,2.44-.11l.11,0a18.41,18.41,0,0,1,2.66-.19,11.46,11.46,0,0,1,1.27.14,12.47,12.47,0,0,0,1.41.14c.35,0,.68,0,1,.07s.85.07,1.24.07a9,9,0,0,0,1.55-.19c.32-.06.65-.12,1-.15,2.37-.24,5.77-.8,8-3a9.78,9.78,0,0,0,2.66-4.73,18.11,18.11,0,0,0,.54-2.86,13.59,13.59,0,0,1,.47-2.08c.1-.38.21-.78.31-1.18a5.08,5.08,0,0,1,2.14-3.2,8.25,8.25,0,0,1,1.84-.88,8.25,8.25,0,0,0,2.36-1.21,13,13,0,0,0,3.23-4.19c.36-.69.66-1.42.95-2.13.13-.33.26-.66.4-1a13.62,13.62,0,0,0,.68-2.29,12.62,12.62,0,0,1,.63-2.11c.71-1.7,1.39-3.44,2-5.12l.36-.94-.77-.77C127.42,87.1,127.24,87.55,127.06,88Z" transform="translate(-2 -1.32)"/><path class="cls-1" d="M75.54,118.69a4.92,4.92,0,0,0-.33-4.42c-.09-.19-.17-.35-.22-.48a8.44,8.44,0,0,1-.25-1,4.77,4.77,0,0,0-.82-2.15,8,8,0,0,0-.9-.93,4.93,4.93,0,0,1-.87-.9,17.77,17.77,0,0,1-.91-1.56l-.38-.67a7.7,7.7,0,0,1-.78-2.7,10.67,10.67,0,0,0-.62-2.44,34.13,34.13,0,0,0-3.75-6.53c-.52-.72-1.06-1.42-1.6-2.12a46.17,46.17,0,0,1-3-4.16c-.15-.24-.31-.47-.47-.71l-.73.72c.12.17.24.34.34.51a46,46,0,0,0,3,4.25c.54.69,1.07,1.39,1.58,2.1a34,34,0,0,1,3.64,6.33,9.62,9.62,0,0,1,.55,2.22,8.55,8.55,0,0,0,.9,3c.13.22.25.44.37.66.3.56.62,1.13,1,1.65a5.87,5.87,0,0,0,1,1.08,5.81,5.81,0,0,1,.78.79,4,4,0,0,1,.63,1.74,8.67,8.67,0,0,0,.29,1.14,4.85,4.85,0,0,0,.25.59,3.81,3.81,0,0,1,.23,3.74l1.24,1.24A2.15,2.15,0,0,0,75.54,118.69Z" transform="translate(-2 -1.32)"/><path class="cls-1" d="M123.25,83.72c-.6.93-1.15,1.89-1.69,2.82s-1,1.77-1.54,2.62-.91,1.57-1.31,2.35a24.64,24.64,0,0,1-1.34,2.41,8.37,8.37,0,0,0-.6,1.15,7.31,7.31,0,0,1-.62,1.15,6.28,6.28,0,0,1-.89.9l-.55.5-.9.91-2.14,2.14a7.12,7.12,0,0,0-2.29,5.25,31.75,31.75,0,0,1-.75,5.91,9.25,9.25,0,0,1-2.1,4.1q-.3.3-.6.63a11.15,11.15,0,0,1-.91.91,4.8,4.8,0,0,1-1.12.61c-.31.15-.62.29-.92.47-3.12,1.89-6.43,1.69-9.54,1.18a28.75,28.75,0,0,0-4.7-.41,20,20,0,0,0-3.44.28c-.71.12-3.08.37-3.65-1.71a15.82,15.82,0,0,1-.51-4.12.59.59,0,0,0,0-.23,3.83,3.83,0,0,1,0-2.92,4,4,0,0,0,.22-1.44,4.9,4.9,0,0,0-1.14-2.39c-.14-.19-.29-.39-.42-.59-.61-.93-1.29-1.85-1.95-2.73a30,30,0,0,1-3.18-4.88c-.21-.43-.39-.87-.57-1.3A11.11,11.11,0,0,0,72,93.71,25.22,25.22,0,0,1,67.45,88a14.4,14.4,0,0,1-1.06-3.19c-.16-.67-.35-1.35-.58-2l-.78.79c.14.48.27,1,.39,1.48a15.54,15.54,0,0,0,1.14,3.41,25.93,25.93,0,0,0,4.67,6,10,10,0,0,1,1.89,3.27c.18.44.37.89.59,1.34a30.55,30.55,0,0,0,3.28,5c.65.87,1.32,1.77,1.91,2.67l.46.65a4,4,0,0,1,1,1.89,3.67,3.67,0,0,1-.2,1.08,4.89,4.89,0,0,0,0,3.52,16.68,16.68,0,0,0,.55,4.28c.52,1.92,2.36,2.85,4.78,2.42a23.68,23.68,0,0,1,7.8.13,23.71,23.71,0,0,0,3.84.36,12,12,0,0,0,6.39-1.67,6.76,6.76,0,0,1,.81-.4,6.21,6.21,0,0,0,1.34-.76,10.71,10.71,0,0,0,1-1,7.91,7.91,0,0,1,.56-.59,10.18,10.18,0,0,0,2.37-4.59,32.48,32.48,0,0,0,.78-6.1,6.14,6.14,0,0,1,2-4.58c.72-.71,1.44-1.43,2.15-2.15l.9-.9c.16-.16.33-.31.51-.47a7.15,7.15,0,0,0,1-1,8.24,8.24,0,0,0,.73-1.33,8.27,8.27,0,0,1,.53-1c.52-.8,1-1.66,1.39-2.49s.8-1.55,1.26-2.28,1.07-1.77,1.57-2.65,1.07-1.87,1.66-2.78l.42-.69-.73-.73Z" transform="translate(-2 -1.32)"/><path class="cls-1" d="M118.65,80a7.39,7.39,0,0,1-.56,1c-.36.52-.69,1.05-1,1.58-.18.29-.36.58-.55.87l-.27.42c-1,1.61-2.13,3.28-3,5-.42.78-.81,1.57-1.2,2.36-.47.94-.93,1.88-1.44,2.81-.21.39-.39.8-.57,1.22a9.4,9.4,0,0,1-.74,1.49,31.13,31.13,0,0,0-1.73,3,26.69,26.69,0,0,0-2,5.1c-.14.48-.32,1-.5,1.41a10.61,10.61,0,0,0-.71,2.38,10.69,10.69,0,0,1-.7,2.36l-.07.18c-.15.42-.27.8-.39,1.15a5.24,5.24,0,0,1-1.39,2.59,6.71,6.71,0,0,1-3.55,2,7.82,7.82,0,0,1-2.6,0l-.68-.08a19.22,19.22,0,0,1-3.32-.73l-.46-.13c-.57-.15-1.15-.28-1.72-.4s-1.17-.24-1.74-.4c-1.62-.46-1.58-2-1.33-4.16,0-.32.07-.62.1-.91s0-.65,0-1a12.22,12.22,0,0,1,.07-1.25,2.66,2.66,0,0,1,.1-.38,1.63,1.63,0,0,0,0-1.29,1.26,1.26,0,0,0-.38-1.52,2.68,2.68,0,0,1-.28-.35,4.08,4.08,0,0,1-.32-1.26,7.49,7.49,0,0,0-.14-.74c-.44-1.82-1.94-3.17-3.27-4.36-.34-.32-.69-.62-1-.93A12.12,12.12,0,0,1,80,95.54c-.29-.41-.6-.82-.93-1.2A11.06,11.06,0,0,1,78,92.72a13.48,13.48,0,0,0-1-1.5c-.42-.54-.88-1-1.31-1.51a16.31,16.31,0,0,1-1.94-2.4A8.77,8.77,0,0,1,72.82,85a13.34,13.34,0,0,0-.69-2c-.52-1.09-.95-2.23-1.36-3.34-.17-.46-.35-.92-.53-1.38l-.77.78.36,1c.42,1.12.86,2.28,1.39,3.41a12.33,12.33,0,0,1,.64,1.8,9.85,9.85,0,0,0,1,2.56,17.91,17.91,0,0,0,2.05,2.54c.42.47.86,1,1.26,1.46a13.45,13.45,0,0,1,.93,1.39A12,12,0,0,0,78.33,95c.32.37.61.76.89,1.14A11.87,11.87,0,0,0,80.6,97.8c.32.32.68.64,1,1,1.28,1.15,2.6,2.34,3,3.86.05.2.08.42.12.65a4.72,4.72,0,0,0,.44,1.59,3,3,0,0,0,.41.54c.3.33.3.33.12.56a.5.5,0,0,0,0,.68c.1.09.11.17,0,.6a3.58,3.58,0,0,0-.14.54,12.59,12.59,0,0,0-.08,1.37q0,.48,0,.93c0,.28-.06.57-.09.88-.21,1.9-.51,4.5,2,5.23.59.17,1.2.3,1.8.42s1.11.24,1.66.39l.46.13a20.25,20.25,0,0,0,3.5.76l.66.07a14.9,14.9,0,0,0,1.65.12,6.27,6.27,0,0,0,1.29-.13,7.73,7.73,0,0,0,4-2.32,6.35,6.35,0,0,0,1.65-3c.11-.34.22-.7.37-1.09l.07-.18a11.92,11.92,0,0,0,.74-2.58,10,10,0,0,1,.66-2.15c.19-.48.38-1,.53-1.5a25.47,25.47,0,0,1,1.93-4.92c.56-1.07,1-2,1.67-2.92a10.62,10.62,0,0,0,.83-1.65c.17-.38.33-.77.53-1.14.51-.94,1-1.89,1.46-2.84.38-.78.77-1.56,1.18-2.33.91-1.71,2-3.36,3-5l.27-.42.56-.88c.32-.52.65-1,1-1.54a9,9,0,0,0,.62-1.14,7.63,7.63,0,0,1,.66-1.13l-.72-.72A7.24,7.24,0,0,0,118.65,80Z" transform="translate(-2 -1.32)"/><path class="cls-1" d="M104.44,65.44c-.1.63-.2,1.29-.24,1.93a5.7,5.7,0,0,0,.14,1.39,6,6,0,0,1,.12,1c0,1.25.08,2.44,1.26,3.42,1.49,1.25,2.87.81,4.2.38l.85-.26a9.66,9.66,0,0,0,2.26-1l.12-.07-.74-.74a8.29,8.29,0,0,1-1.9.86c-.31.08-.61.18-.89.27-1.27.41-2.19.7-3.26-.2-.83-.69-.86-1.53-.9-2.75a7.09,7.09,0,0,0-.14-1.07,5.17,5.17,0,0,1-.12-1.15c0-.59.13-1.2.23-1.84,0-.31.1-.64.14-1l-.91-.91C104.62,64.29,104.53,64.87,104.44,65.44Z" transform="translate(-2 -1.32)"/><path class="cls-1" d="M115.91,75.14a17.26,17.26,0,0,1-1.69,3.42l-.36.62c-.15.27-.28.55-.42.83a5.5,5.5,0,0,1-.71,1.24c-.15.18-.31.35-.46.51a6.38,6.38,0,0,0-.86,1.06c-.73,1.17-1.47,2.31-2.22,3.46a62.52,62.52,0,0,0-6.67,12.21,9.61,9.61,0,0,0-.43,1.8,10.9,10.9,0,0,1-.36,1.57c-.15.42-.29.85-.43,1.28s-.33,1-.51,1.52a21.89,21.89,0,0,1-2.07,4.46c-.65,1-2.93,4.13-5.23,3.58a3.85,3.85,0,0,1-1.43-1.19c-.16-.18-.31-.35-.45-.49a4.08,4.08,0,0,1-1.07-2.63,10.32,10.32,0,0,1,0-1.57,14.72,14.72,0,0,0,0-1.63,7.46,7.46,0,0,0-.23-1.39c.3,0,.53-.1.64-.38a.65.65,0,0,0-.19-.67,3.26,3.26,0,0,1-.23-.29,6.76,6.76,0,0,1-.51-1.39L90,100.8a6.8,6.8,0,0,1-.18-.75,5,5,0,0,0-.43-1.42c-.14-.27-.3-.54-.45-.81s-.43-.76-.62-1.17a7.41,7.41,0,0,0-3.38-4.07c-1.65-1-3.33-2-5.15-3.28a7.4,7.4,0,0,1-3.19-4.42c-.26-1-.43-2.12-.59-3.17s-.31-2.06-.56-3.08c-.17-.71-.37-1.4-.58-2.09-.12-.42-.24-.83-.35-1.25s-.19-.61-.29-.9l-.8.79c0,.13.09.24.12.38l.36,1.26c.2.67.4,1.35.57,2,.24,1,.39,2,.54,3s.34,2.18.61,3.27a8.34,8.34,0,0,0,3.59,5c1.84,1.25,3.55,2.34,5.22,3.32a6.41,6.41,0,0,1,3,3.63c.2.43.43.84.66,1.24s.3.52.43.78a4.23,4.23,0,0,1,.34,1.16,8.52,8.52,0,0,0,.2.84l.08.26a7.82,7.82,0,0,0,.56,1.54h0a.53.53,0,0,0-.36.24.51.51,0,0,0,0,.42,5.88,5.88,0,0,1,.36,1.72,12.55,12.55,0,0,1,0,1.5,12.32,12.32,0,0,0,0,1.72,5.09,5.09,0,0,0,1.36,3.23c.13.13.27.29.41.45a4.36,4.36,0,0,0,1.94,1.5,3.7,3.7,0,0,0,.8.09c2.52,0,4.65-2.79,5.5-4.09a22.61,22.61,0,0,0,2.18-4.67c.19-.51.36-1,.53-1.56s.27-.84.41-1.25a11.11,11.11,0,0,0,.41-1.73,9,9,0,0,1,.38-1.63,61.63,61.63,0,0,1,6.57-12c.75-1.16,1.5-2.31,2.23-3.48a5.46,5.46,0,0,1,.74-.9l.5-.56a7.14,7.14,0,0,0,.85-1.45c.12-.26.24-.52.38-.76l.36-.61a20.5,20.5,0,0,0,1.64-3.28L116,75A1,1,0,0,0,115.91,75.14Z" transform="translate(-2 -1.32)"/><path class="cls-1" d="M95,54.24l.08-.07-.35-.35-1.64,1.63A4.66,4.66,0,0,0,95,54.24Z" transform="translate(-2 -1.32)"/><path class="cls-1" d="M96.62,56.91a4.57,4.57,0,0,0-3.22,1L91.67,59.1a6,6,0,0,0-1,.92,4.94,4.94,0,0,1-.87.8,2.22,2.22,0,0,1-1.91.48l-.43-.17-.76.75q.41.19.84.36a3.13,3.13,0,0,0,2.8-.58,6.08,6.08,0,0,0,1.06-.95,5.05,5.05,0,0,1,.84-.78L94,58.74a3.6,3.6,0,0,1,2.63-.83,4.14,4.14,0,0,1,3.82,3.44,8.87,8.87,0,0,1,0,1,8.46,8.46,0,0,0,.08,1.4,5.88,5.88,0,0,1,.11,1.61,27.25,27.25,0,0,1-.61,3.32c-.1.43-.2.86-.28,1.29a23.72,23.72,0,0,0-.38,3.75l0,.73a6.63,6.63,0,0,0,.91,3.64c1.41,2.3,3.93,1.45,5.76.84l.3-.1a6.71,6.71,0,0,0,.71-.29,4.87,4.87,0,0,1,1.56-.53c.16,0,.39.31.13,1.76a7.24,7.24,0,0,1-2.35,3.65,14.72,14.72,0,0,0-1.79,2.14,4.72,4.72,0,0,1-.64.72,5.38,5.38,0,0,0-.67.74,7,7,0,0,0-.62,1.14c-.07.17-.15.33-.23.5-.23.45-.5.9-.77,1.34a14.33,14.33,0,0,0-1.2,2.3,17.06,17.06,0,0,0-.73,3c-.1.53-.19,1.06-.32,1.57s-.18.83-.25,1.25a11.24,11.24,0,0,1-.65,2.43,4.64,4.64,0,0,1-1.63,1.93c-.88.57-1.16.65-1.64.21-1.09-1-1.23-2.63-1.38-4.2,0-.37-.06-.74-.11-1.09a8.35,8.35,0,0,1-.07-2.34,5.24,5.24,0,0,1,.17-.62A3.12,3.12,0,0,0,94,92.76l.09-.13a.5.5,0,0,0,0-.58,1.55,1.55,0,0,1-.15-.89,1.6,1.6,0,0,0-.49-1.42c-.6-.44-1.38,0-1.94.25a2.77,2.77,0,0,1-.41.19c-.91.28-1.1.31-1.62-.18s-.54-1.19-.26-2.34l0-.2c0-.18.09-.35.14-.51a2.65,2.65,0,0,0-.27-2.64,4.45,4.45,0,0,0-2.78-1.47,8.1,8.1,0,0,0-2-.12,8.58,8.58,0,0,1-1.7-.08A5,5,0,0,1,80,81a9,9,0,0,1-2.43-6.72c.06-.5.08-1,.1-1.49a12,12,0,0,1,.08-1.33c0-.25.08-.5.13-.76L76.67,71.9c0,.3,0,.59,0,.89,0,.48,0,.94-.09,1.4a9.94,9.94,0,0,0,2.71,7.54,5.91,5.91,0,0,0,3.18,1.9,10.16,10.16,0,0,0,1.9.09,8,8,0,0,1,1.79.09,3.64,3.64,0,0,1,2.17,1.08c.46.65.34,1,.13,1.78l-.15.55,0,.2c-.28,1.11-.56,2.26.54,3.31a2.21,2.21,0,0,0,2.61.41,5.07,5.07,0,0,0,.57-.26c.21-.11.76-.4.9-.33a1.66,1.66,0,0,1,.07.62A4.36,4.36,0,0,0,93,92a.47.47,0,0,0-.1.1.49.49,0,0,0,0,.64c.31.36.2.78,0,1.44a4.5,4.5,0,0,0-.2.76,8.84,8.84,0,0,0,.06,2.63c.05.34.08.69.11,1,.15,1.67.32,3.56,1.69,4.84a1.76,1.76,0,0,0,1.24.55,3,3,0,0,0,1.62-.65,5.53,5.53,0,0,0,2-2.37,12.44,12.44,0,0,0,.71-2.64q.1-.61.24-1.2c.13-.54.23-1.08.34-1.63a16.23,16.23,0,0,1,.68-2.79,13.22,13.22,0,0,1,1.12-2.13c.28-.47.56-.93.8-1.41l.26-.54a4.6,4.6,0,0,1,.51-1,5.32,5.32,0,0,1,.56-.62,4.88,4.88,0,0,0,.78-.89,12.71,12.71,0,0,1,1.67-2A8.21,8.21,0,0,0,109.71,80c.12-.7.44-2.55-.89-2.87a4,4,0,0,0-2.21.59,6.68,6.68,0,0,1-.62.25l-.3.1c-2.1.71-3.66,1.09-4.59-.42a5.62,5.62,0,0,1-.76-3.06l0-.73a25,25,0,0,1,.35-3.6c.09-.42.19-.84.28-1.27a28,28,0,0,0,.64-3.43,6.43,6.43,0,0,0-.13-1.88,8.38,8.38,0,0,1-.06-1.23,9.32,9.32,0,0,0,0-1.17,4,4,0,0,0-.27-1l-3-3A4.4,4.4,0,0,0,96.62,56.91Z" transform="translate(-2 -1.32)"/><path class="cls-1" d="M82.5,75.29a5.58,5.58,0,0,0,1.67,3.48,7.7,7.7,0,0,0,3.1,1.87,7.13,7.13,0,0,0,1.53.3,5,5,0,0,1,1.58.36,6.9,6.9,0,0,1,2.47,2,1.4,1.4,0,0,1,.22.44,2.25,2.25,0,0,0,.25.57,5.66,5.66,0,0,0,.57.73,2.28,2.28,0,0,1,.55.79c.1.23.21.57.35,1,.58,1.71,1.46,4.3,3,4.79a1.59,1.59,0,0,0,.53.08,2.08,2.08,0,0,0,1.23-.44c1.42-1,1.53-2.44,1.64-3.81v-.15a3.79,3.79,0,0,1,.53-1.53l.06-.12a4.19,4.19,0,0,1,.59-.81,5,5,0,0,0,.68-1,.5.5,0,0,0,0-.27,8,8,0,0,1,.75-.93.5.5,0,0,0,0-.67.49.49,0,0,0-.67,0,3.65,3.65,0,0,1-3.8.18c-1.15-.65-1.35-1.5-1.66-2.78L97.62,79c-.31-1.23-.53-2.54-.74-3.8l0-.17a9,9,0,0,1,.29-3.41q.12-.51.21-1A7.93,7.93,0,0,0,97,66.75,5.22,5.22,0,0,0,94.33,64a4.07,4.07,0,0,0-2.64.69c-.29.14-.55.28-.79.37a18.88,18.88,0,0,1-2.06.58c-.58.14-1.18.28-1.78.48a8.87,8.87,0,0,1-1,.26,4.86,4.86,0,0,0-2.56,1.21,5.11,5.11,0,0,0-1.89,3.68,9.72,9.72,0,0,0,.49,2.51A15.73,15.73,0,0,1,82.5,75.29Zm1.74-7a4,4,0,0,1,2.08-.92c.35-.09.7-.17,1.05-.29.56-.18,1.14-.32,1.71-.46A18.19,18.19,0,0,0,91.25,66a9.51,9.51,0,0,0,.89-.41,4.45,4.45,0,0,1,1.74-.63l.22,0a4.6,4.6,0,0,1,2,2.14,7,7,0,0,1,.29,3.3c-.06.33-.13.66-.2,1a9.7,9.7,0,0,0-.3,3.78l0,.17c.22,1.28.44,2.61.76,3.87l.08.35c.32,1.31.61,2.54,2.13,3.41a4.73,4.73,0,0,0,3.22.48.28.28,0,0,0,0,.09,5,5,0,0,1-.46.6,5.58,5.58,0,0,0-.72,1l-.06.13a4.5,4.5,0,0,0-.63,1.9l0,.16c-.1,1.29-.18,2.32-1.23,3.07a.93.93,0,0,1-.87.22c-1-.34-1.89-2.83-2.35-4.16-.14-.42-.26-.78-.36-1a3.55,3.55,0,0,0-.74-1.08,3.94,3.94,0,0,1-.46-.57A2.06,2.06,0,0,1,94,83.4a2.17,2.17,0,0,0-.37-.73,7.8,7.8,0,0,0-2.84-2.28A5.87,5.87,0,0,0,88.91,80a6.43,6.43,0,0,1-1.32-.26,6.61,6.61,0,0,1-2.71-1.63,4.64,4.64,0,0,1-1.4-2.93,13.89,13.89,0,0,0-.4-1.66,9,9,0,0,1-.45-2.25C82.61,70,83.25,69.28,84.24,68.25Z" transform="translate(-2 -1.32)"/><path class="cls-1" d="M86.69,75.25a.5.5,0,0,0,.22.4.54.54,0,0,0,.46,0,3.76,3.76,0,0,1,.67.56l.77.76,1,1a5.91,5.91,0,0,0,1.75,1.19l.73.39a8.16,8.16,0,0,0,1.52.73,2.47,2.47,0,0,0,.79.15,1.06,1.06,0,0,0,.7-.22,1.22,1.22,0,0,0,.38-1.12,3.13,3.13,0,0,0-1-1.8,4.42,4.42,0,0,1-.39-.47,6.5,6.5,0,0,1-.61-1.11,8.83,8.83,0,0,0-.5-1l-.29-.45c-.26-.37-.26-.37-.08-1a3.93,3.93,0,0,1,.72-1.17,2.85,2.85,0,0,0,.82-2.73,3.19,3.19,0,0,0-1.79-2.26,2.82,2.82,0,0,0-2.56.2A5.31,5.31,0,0,0,87,71.08a7,7,0,0,0-.12,2.35c0,.15,0,.44,0,.74L86.68,74a.51.51,0,0,0-.7.09.49.49,0,0,0,.09.7A7.18,7.18,0,0,0,86.69,75.25Zm1.24-4c.33-1.49,1.1-2.15,2.6-3a1.8,1.8,0,0,1,1.66-.15,2.24,2.24,0,0,1,1.22,1.58,1.93,1.93,0,0,1-.63,1.86,4.73,4.73,0,0,0-.89,1.5,1.64,1.64,0,0,0,.2,1.82c.08.11.17.24.27.4s.3.57.45.87a7.62,7.62,0,0,0,.7,1.28A5.7,5.7,0,0,0,94,78a2.19,2.19,0,0,1,.71,1.21,1.78,1.78,0,0,1,0,.26,1.3,1.3,0,0,1-.57-.1,8.12,8.12,0,0,1-1.33-.65L92,78.3a5,5,0,0,1-1.46-1l-1-1-.76-.75a5.38,5.38,0,0,0-.91-.75,6.8,6.8,0,0,0,0-1.49A6,6,0,0,1,87.93,71.3Z" transform="translate(-2 -1.32)"/><path class="cls-1" d="M136,11.8a16.07,16.07,0,0,0-.8,1.61l9.75-9.75A21.22,21.22,0,0,0,136,11.8Z" transform="translate(-2 -1.32)"/><path class="cls-1" d="M147.26,1.32l-.3.3.43-.17Z" transform="translate(-2 -1.32)"/><path class="cls-1" d="M110.21,38.36l-2,2a46.82,46.82,0,0,0-1.81,5l.8.8A51.72,51.72,0,0,1,110.21,38.36Z" transform="translate(-2 -1.32)"/><path class="cls-1" d="M114,48.68l.21-.69a20.88,20.88,0,0,1,1.35-3.63c.4-.77.8-1.55,1.21-2.32.68-1.28,1.38-2.6,2-3.92,1.34-2.8,2.54-5.71,3.7-8.52.82-2,1.67-4.05,2.56-6.05l-1.92,1.92c-.53,1.26-1.06,2.51-1.56,3.75-1.16,2.8-2.36,5.69-3.68,8.47-.62,1.3-1.31,2.62-2,3.89l-1.22,2.32a22.66,22.66,0,0,0-1.42,3.8l-.21.69a23.6,23.6,0,0,0-.65,2.9l.88.88A24.75,24.75,0,0,1,114,48.68Z" transform="translate(-2 -1.32)"/><path class="cls-1" d="M147.18,2.6l1-.38-.77-.77-.43.17-2.05,2C145.64,3.29,146.39,2.93,147.18,2.6Z" transform="translate(-2 -1.32)"/><path class="cls-1" d="M116.08,51.42a25.81,25.81,0,0,1,2.3-6.37c.88-1.55,1.85-3.1,2.79-4.6,1.16-1.85,2.36-3.77,3.42-5.72.3-.56.56-1.12.8-1.67a18,18,0,0,1,1-2.06,24.28,24.28,0,0,0,1.64-3c.35-.81.77-1.62,1.18-2.4s.72-1.39,1-2.1a20.11,20.11,0,0,1,1.42-2.46,20.27,20.27,0,0,0,1.62-2.89c.31-.75.59-1.52.87-2.29s.61-1.65,1-2.46l-1.77,1.77c0,.12-.09.24-.13.35-.27.76-.54,1.51-.86,2.24a17.81,17.81,0,0,1-1.54,2.74,22.44,22.44,0,0,0-1.48,2.58c-.32.7-.67,1.38-1,2.06s-.84,1.62-1.21,2.46a21.18,21.18,0,0,1-1.57,2.86,18.46,18.46,0,0,0-1.09,2.18c-.24.53-.48,1.08-.77,1.6-1,1.93-2.24,3.83-3.39,5.67-.94,1.51-1.91,3.07-2.81,4.64a26.78,26.78,0,0,0-2.4,6.63,19.82,19.82,0,0,0-.42,2.42l.92.91A19.25,19.25,0,0,1,116.08,51.42Z" transform="translate(-2 -1.32)"/><path class="cls-1" d="M122.68,61.09a14.88,14.88,0,0,1-.91-8.24,10.47,10.47,0,0,1,.92-2.48,16.89,16.89,0,0,0,.7-1.66c.19-.52.34-1.05.5-1.58.21-.72.4-1.4.67-2.07.52-1.24,1.11-2.49,1.68-3.69.66-1.38,1.34-2.81,1.91-4.27A56.16,56.16,0,0,1,133,26.93,64,64,0,0,1,137.51,21L139,19.13l.94-1.19a30.63,30.63,0,0,1,4.44-4.86c.51-.41,1-.84,1.51-1.26a45.2,45.2,0,0,1,4.54-3.49c.78-.49,1.59-1,2.4-1.4l-.74-.74c-.74.41-1.48.84-2.2,1.3a46.69,46.69,0,0,0-4.64,3.56c-.5.42-1,.85-1.51,1.26a31,31,0,0,0-4.58,5c-.31.4-.63.79-.94,1.18l-1.52,1.86a64.11,64.11,0,0,0-4.59,6,57.11,57.11,0,0,0-4.93,10.35c-.56,1.42-1.23,2.83-1.88,4.2s-1.18,2.47-1.7,3.74a20.33,20.33,0,0,0-.71,2.17c-.15.51-.3,1-.48,1.53a16.83,16.83,0,0,1-.67,1.57,11.47,11.47,0,0,0-1,2.71,15.16,15.16,0,0,0,.54,7.58L123,61.9Z" transform="translate(-2 -1.32)"/><path class="cls-1" d="M129.19,68a21.46,21.46,0,0,1-.87-2.52,21,21,0,0,0-.9-2.63,18.11,18.11,0,0,1-1.18-10.75c.12-.54.21-1.08.3-1.63a16.64,16.64,0,0,1,1-3.84,7.71,7.71,0,0,1,.67-1.12c.15-.23.3-.45.44-.69l.15-.28c.21-.39.32-.56.54-.6l.08,0c3.41-1.28,3.35-3,3.3-4.18,0-.18,0-.35,0-.51a5.36,5.36,0,0,1,.58-2c.16-.38.32-.76.45-1.15a10.21,10.21,0,0,1,.71-1.69c.43-.83.78-1.67,1.12-2.48A23.62,23.62,0,0,1,137,28.75a41.23,41.23,0,0,1,3.77-5.38A30,30,0,0,1,147.3,18l2.4-1.62c2.11-1.43,4.29-2.91,6.5-4.2l1.23-.71-.73-.73-1,.58c-2.25,1.31-4.44,2.79-6.56,4.23l-2.4,1.62a30.9,30.9,0,0,0-6.69,5.54,42.49,42.49,0,0,0-3.87,5.5,26,26,0,0,0-1.55,3.26c-.33.79-.67,1.62-1.08,2.41a11,11,0,0,0-.79,1.85,9.52,9.52,0,0,1-.41,1,6.36,6.36,0,0,0-.66,2.33c0,.19,0,.38,0,.58.05,1.12.08,2.18-2.62,3.2A1.83,1.83,0,0,0,127.89,44l-.13.23c-.13.22-.27.43-.41.64a8.43,8.43,0,0,0-.75,1.28,16.82,16.82,0,0,0-1,4.07c-.09.54-.18,1.07-.29,1.59a19.19,19.19,0,0,0,1.25,11.37,22.29,22.29,0,0,1,.86,2.5c.07.27.16.54.25.82l1.71,1.72C129.29,68.15,129.24,68.05,129.19,68Z" transform="translate(-2 -1.32)"/><path class="cls-1" d="M148.4,84.08a28,28,0,0,1-2.66-3.57,7.94,7.94,0,0,1-.39-.77,5.17,5.17,0,0,0-.66-1.18,10.42,10.42,0,0,0-1-1.08,10.39,10.39,0,0,1-.8-.83c-.21-.24-.39-.5-.58-.75a8,8,0,0,0-1-1.23,8,8,0,0,1-1.72-2.06L138.71,71c-.56-1.06-1.12-2.12-1.74-3.22a27,27,0,0,0-2.83-4.32c-.3-.36-.65-.73-1-1.1a10.87,10.87,0,0,1-2.2-2.89A8.05,8.05,0,0,1,130.5,56c0-.26,0-.53,0-.79a6.51,6.51,0,0,1,.76-3.51,9.37,9.37,0,0,1,2.23-2.26,8.12,8.12,0,0,0,2.9-3.47,9,9,0,0,0,.5-4.4,3.78,3.78,0,0,0-.24-.78,1.61,1.61,0,0,1-.17-.92,1,1,0,0,1,.11-.26,1.63,1.63,0,0,0,.19-.46,3.38,3.38,0,0,0,.09-.8,2.45,2.45,0,0,1,.07-.62,7.93,7.93,0,0,1,.43-1.09,6.93,6.93,0,0,0,.53-1.34l.1-.41a5.09,5.09,0,0,1,.59-1.65,13.43,13.43,0,0,1,2.07-2.32l.58-.58c.36-.35.77-.68,1.16-1s.86-.71,1.25-1.1c.21-.21.4-.42.6-.63a11.6,11.6,0,0,1,1.89-1.73,12.57,12.57,0,0,1,1.49-.85c.35-.17.69-.35,1-.55l.2-.11a4.52,4.52,0,0,1,1.47-.66.51.51,0,0,0,.29-.13c.75-.71,1.64-1.44,2.42-2.08.59-.48,1.12-.92,1.51-1.28a21.29,21.29,0,0,1,6.07-4.08l1-.43-.76-.76-.61.27a22.11,22.11,0,0,0-6.34,4.27c-.38.34-.9.77-1.47,1.24-.76.62-1.61,1.32-2.36,2a5.58,5.58,0,0,0-1.7.77l-.19.11c-.32.19-.65.35-1,.52a13.59,13.59,0,0,0-1.6.91,12.83,12.83,0,0,0-2.05,1.88l-.58.61a15,15,0,0,1-1.17,1,15.33,15.33,0,0,0-1.23,1.08l-.58.56a13.84,13.84,0,0,0-2.22,2.52A5.9,5.9,0,0,0,137,34.6l-.1.4a7.09,7.09,0,0,1-.46,1.17,6.94,6.94,0,0,0-.5,1.25,3.84,3.84,0,0,0-.1.85,2.23,2.23,0,0,1-.06.59.84.84,0,0,1-.1.23,1.69,1.69,0,0,0-.21.54,2.48,2.48,0,0,0,.22,1.48,3.56,3.56,0,0,1,.19.58,8.26,8.26,0,0,1-.46,3.89,7.25,7.25,0,0,1-2.59,3,10.14,10.14,0,0,0-2.45,2.52,7.53,7.53,0,0,0-.91,4c0,.26,0,.52,0,.77a9.07,9.07,0,0,0,.52,4,11.74,11.74,0,0,0,2.4,3.18c.33.36.67.71,1,1.06a26.51,26.51,0,0,1,2.75,4.23c.58,1,1.14,2.08,1.7,3.13.28.53.56,1.06.85,1.59a8.64,8.64,0,0,0,1.9,2.31,7.91,7.91,0,0,1,.9,1.1c.2.27.41.55.62.81s.57.6.88.9a9.18,9.18,0,0,1,.92,1,4.48,4.48,0,0,1,.54,1,8,8,0,0,0,.45.87,27.59,27.59,0,0,0,2.76,3.71l.5.53.71-.7C148.71,84.4,148.55,84.25,148.4,84.08Z" transform="translate(-2 -1.32)"/><path class="cls-1" d="M153.56,78.61a13,13,0,0,0-1.28-1.11,14,14,0,0,1-1.4-1.25,10,10,0,0,1-1-1.36,10.1,10.1,0,0,0-.95-1.36l-.84-1a34.17,34.17,0,0,1-3.42-4.41,10,10,0,0,0-2.12-2.22,12,12,0,0,1-1.17-1.06,3.11,3.11,0,0,1-.42-.57,4.63,4.63,0,0,0-.47-.65,2.38,2.38,0,0,0-.65-.51,2.13,2.13,0,0,1-.33-.23,15,15,0,0,1-2.79-5,6.87,6.87,0,0,1-.35-1.54c-.05-.3-.09-.6-.16-.91a5.8,5.8,0,0,0-.36-1,4.14,4.14,0,0,1-.32-.91c-.19-1,.9-2.48,1.42-3.18l.31-.41A11.58,11.58,0,0,1,138.88,48a5.21,5.21,0,0,1,.63-.44,4.74,4.74,0,0,0,1-.77,9.5,9.5,0,0,1,1-.85c1-.77,2.07-1.64,2.26-2.81.24-1.49-1.58-2.46-2.36-2.87l-.15-.08c-1.22-.65-1.65-1-1.29-1.82a5,5,0,0,1,.68-1.11c.16-.21.32-.43.49-.69a3.28,3.28,0,0,1,.72-.72,5.11,5.11,0,0,0,.77-.72,7.91,7.91,0,0,0,.5-.73,4.07,4.07,0,0,1,.72-.92,7.34,7.34,0,0,1,.73-.55,8.11,8.11,0,0,0,1-.76A46.49,46.49,0,0,1,153,26.8l.36-.22c.55-.35,1.14-.68,1.74-1a24.22,24.22,0,0,0,2.68-1.63c.95-.69,1.91-1.25,2.93-1.85.82-.48,1.66-1,2.49-1.53a16.4,16.4,0,0,1,2.14-1.2l-.74-.75a16.32,16.32,0,0,0-2,1.12c-.8.54-1.63,1-2.43,1.5a32.74,32.74,0,0,0-3,1.9,25.45,25.45,0,0,1-2.59,1.57c-.61.34-1.21.67-1.78,1l-.37.23a46.63,46.63,0,0,0-7.57,5.47,7.93,7.93,0,0,1-.86.67,9.53,9.53,0,0,0-.81.61,4.65,4.65,0,0,0-.91,1.14,6.62,6.62,0,0,1-.44.64,3.75,3.75,0,0,1-.62.57,4.43,4.43,0,0,0-.93.95c-.16.25-.31.45-.45.64A6.42,6.42,0,0,0,139,38c-.76,1.78.69,2.54,1.74,3.09l.15.08c.54.29,2,1,1.84,1.83s-1.07,1.53-1.89,2.18a11.3,11.3,0,0,0-1.11,1,3.36,3.36,0,0,1-.79.61,8.19,8.19,0,0,0-.74.53,12.12,12.12,0,0,0-1.75,2.06l-.3.4c-.65.88-1.87,2.51-1.6,4a5.09,5.09,0,0,0,.38,1.12,5.53,5.53,0,0,1,.3.86c.06.29.11.57.15.85a7.48,7.48,0,0,0,.41,1.75,15.72,15.72,0,0,0,3,5.37,2.51,2.51,0,0,0,.52.38,1.56,1.56,0,0,1,.42.32,3.61,3.61,0,0,1,.36.51,4,4,0,0,0,.55.74c.39.41.83.77,1.24,1.13a8.77,8.77,0,0,1,1.92,2,35.63,35.63,0,0,0,3.51,4.54l.84,1a11.39,11.39,0,0,1,.87,1.24,10.13,10.13,0,0,0,1.08,1.5,12,12,0,0,0,1.51,1.36,15.19,15.19,0,0,1,1.19,1c.22.22.41.44.61.66l.71-.71C154,79,153.78,78.83,153.56,78.61Z" transform="translate(-2 -1.32)"/><path class="cls-1" d="M151.56,74A66.26,66.26,0,0,1,148,67.67a35.29,35.29,0,0,0-2.4-3.88l-.79-1.16-.61-1a21.12,21.12,0,0,0-2.35-3.19c-1.51-1.58-1.64-2.67-.47-3.9l.3-.32a16.93,16.93,0,0,1,2-1.9,11.43,11.43,0,0,1,1.35-.85,8.62,8.62,0,0,0,4.07-4.41,4.33,4.33,0,0,0,.38-3.42,6.09,6.09,0,0,0-1.95-3.17l-.15-.16a4,4,0,0,1-1-1.5c-.67-1.87-.52-3.28.47-4.18A32,32,0,0,1,154,29.3a39.58,39.58,0,0,1,5-1.88l1.58-.52a35.8,35.8,0,0,1,3.52-.94,28.08,28.08,0,0,0,4.83-1.43l1.08-.47-.76-.76-.71.32A29,29,0,0,1,163.87,25a36.49,36.49,0,0,0-3.62,1c-.51.18-1,.35-1.57.52a40.3,40.3,0,0,0-5.15,1.93,32.8,32.8,0,0,0-7.33,5.54c-.9.82-1.76,2.4-.73,5.26a4.94,4.94,0,0,0,1.17,1.85l.16.16a5.19,5.19,0,0,1,1.7,2.7,3.39,3.39,0,0,1-.33,2.81,8.63,8.63,0,0,1-1.92,2.75,8.93,8.93,0,0,1-1.73,1.18,12.78,12.78,0,0,0-1.46.93,19,19,0,0,0-2.11,2l-.29.32c-2.06,2.16-.72,4,.46,5.28a19.69,19.69,0,0,1,2.24,3c.2.32.41.65.62,1s.53.78.79,1.17a34.23,34.23,0,0,1,2.34,3.77,63.36,63.36,0,0,0,3.62,6.44,10.65,10.65,0,0,0,4.61,3.53l.75-.75A10.47,10.47,0,0,1,151.56,74Z" transform="translate(-2 -1.32)"/><path class="cls-1" d="M155.42,71.48c-1-1.08-1.92-2.29-2.82-3.46-.64-.83-1.28-1.66-1.95-2.46a10,10,0,0,1-1.74-4.21c-.1-.41-.2-.82-.32-1.22-.5-1.81-.07-2.91,1.59-4.05l.66-.47a10.63,10.63,0,0,1,2-1.25,22,22,0,0,0,2.61-1.42l.43-.26c2.11-1.26,4.18-3.53,3-5.74-.88-1.68-2.57-2.68-4.2-3.65-.6-.36-1.17-.7-1.67-1.06-1.34-.95-1-1.92.15-3.73A17.8,17.8,0,0,1,159,33.07a20.26,20.26,0,0,1,6.1-2.35c.81-.2,1.61-.43,2.4-.66,1.24-.35,2.52-.72,3.8-1,1-.21,2-.48,2.93-.74l-.82-.81c-.77.2-1.54.41-2.32.57-1.31.29-2.61.66-3.86,1-.79.22-1.58.45-2.38.66a21.39,21.39,0,0,0-6.39,2.46A18.8,18.8,0,0,0,152.4,38c-.9,1.36-2.26,3.42.1,5.1.54.38,1.12.73,1.74,1.1,1.51.9,3.08,1.83,3.82,3.25,1.09,2.1-2.27,4.19-2.66,4.43l-.43.26a20.82,20.82,0,0,1-2.49,1.35,12.24,12.24,0,0,0-2.22,1.35l-.65.47c-2,1.38-2.6,2.91-2,5.14.11.39.21.79.31,1.19a11,11,0,0,0,1.95,4.62c.65.78,1.28,1.6,1.91,2.42.92,1.19,1.86,2.42,2.88,3.53a17.42,17.42,0,0,0,3.61,3l.73-.73A15.3,15.3,0,0,1,155.42,71.48Z" transform="translate(-2 -1.32)"/><path class="cls-1" d="M162.12,70.54l0,0c-1.41-1.43-2.89-2.81-4.55-4.25a14.82,14.82,0,0,1-1.25-1.33l-.58-.66a1.73,1.73,0,0,1-.41-1.48v-.53a2.11,2.11,0,0,1,.41-1.63,7.7,7.7,0,0,1,1.44-1.21l.43-.3c.63-.47,1.33-.9,2-1.32A23.31,23.31,0,0,0,162.24,56a27.72,27.72,0,0,0,2.56-2.52c.4-.43.8-.86,1.21-1.28l.49-.46c.85-.8,1.83-1.71,1.54-3.28-.41-2.19-3.83-3.9-4.52-4.22l-.58-.26c-1-.45-2.46-1.07-2.75-2a4.74,4.74,0,0,1,1-3.52,5.9,5.9,0,0,1,3.41-1.89l1-.32a19,19,0,0,1,4.68-.85,7.62,7.62,0,0,0,1.66-.42,8.54,8.54,0,0,1,1.11-.32c.62-.12,1.22-.26,1.83-.4l1-.22.46-.1c1-.2,1.93-.41,2.91-.64l-.84-.84c-.76.18-1.53.34-2.28.5l-.46.1-1,.23c-.6.13-1.19.27-1.8.39a9.84,9.84,0,0,0-1.24.35,6.29,6.29,0,0,1-1.43.37,20.36,20.36,0,0,0-4.91.9l-1,.31a6.76,6.76,0,0,0-3.93,2.26c-.84,1.17-1.55,3.05-1.12,4.41s2.08,2.06,3.3,2.59l.56.25c1.74.82,3.73,2.26,4,3.49.18,1-.35,1.54-1.24,2.37l-.51.49c-.42.42-.83.86-1.24,1.3a25.49,25.49,0,0,1-2.45,2.43A24.12,24.12,0,0,1,159,56.94c-.69.43-1.4.87-2.07,1.36l-.41.3A8,8,0,0,0,154.94,60a3,3,0,0,0-.65,2.28v.5a2.67,2.67,0,0,0,.68,2.18l.56.64A13.09,13.09,0,0,0,156.88,67c1.63,1.42,3.1,2.81,4.49,4.2.14.15.3.27.45.41l.7-.71C162.39,70.78,162.24,70.67,162.12,70.54Z" transform="translate(-2 -1.32)"/><path class="cls-1" d="M165.07,68.06a4.3,4.3,0,0,1-1.35-5.86A13.33,13.33,0,0,1,168,58.11a28.17,28.17,0,0,0,2.32-1.75c.44-.38.92-.73,1.39-1.07s1-.77,1.54-1.2a5.87,5.87,0,0,0,.88-1.08,7,7,0,0,1,.61-.79c.86-.91,1.67-1.78,1.53-3.3-.17-2-1.46-2.61-2.7-3.25-.26-.13-.52-.26-.78-.41a10.3,10.3,0,0,0-2.32-.88,11.08,11.08,0,0,1-1.68-.58c-.53-.24-.8-.53-.81-.86,0-.86,1.46-2.1,2.48-2.62a17.57,17.57,0,0,1,3.6-1.23l.71-.18c.29-.08.58-.19.88-.29a6.43,6.43,0,0,1,1.37-.38l.69,0a6.16,6.16,0,0,0,1.36-.14c1.34-.31,2.68-.6,4-.88h0l-.84-.84c-1.14.25-2.29.49-3.43.76a5.93,5.93,0,0,1-1.17.11c-.24,0-.48,0-.75,0a6.35,6.35,0,0,0-1.62.43c-.27.09-.54.19-.8.26l-.7.19a17.77,17.77,0,0,0-3.8,1.3c-.86.43-3.06,1.92-3,3.53a2,2,0,0,0,1.39,1.75,12,12,0,0,0,1.83.63,8.75,8.75,0,0,1,2.09.79l.82.43c1.19.61,2,1,2.17,2.45.09,1.08-.48,1.68-1.31,2.58a5.8,5.8,0,0,0-.66.86,4.63,4.63,0,0,1-.73.89c-.45.4-.94.76-1.46,1.14s-1,.72-1.45,1.12a27.6,27.6,0,0,1-2.25,1.7,14.09,14.09,0,0,0-4.57,4.42,5.27,5.27,0,0,0,1.62,7.14l.06,0,.72-.72Z" transform="translate(-2 -1.32)"/><path class="cls-1" d="M171.66,61a8.4,8.4,0,0,1,.71-.77,7.24,7.24,0,0,0,.93-1A6.24,6.24,0,0,1,174.36,58a27.92,27.92,0,0,1,2.78-1.91l.57-.36L183.4,50a5,5,0,0,0,.25-.74c.62-2.63-1.75-3.81-3.48-4.67l-.28-.14c-.16-.08-.42-.18-.71-.3a5,5,0,0,1-1.48-.73c-.09-.13,0-.49,1.15-1.33a7.23,7.23,0,0,1,4.25-.93,14.57,14.57,0,0,0,2.78-.24,4.85,4.85,0,0,1,1-.06l-1-.94-.22,0a13.35,13.35,0,0,1-2.58.21,8.19,8.19,0,0,0-4.83,1.13c-.58.4-2.12,1.48-1.41,2.65a4.1,4.1,0,0,0,2,1.15,6.5,6.5,0,0,1,.62.25l.28.14c2,1,3.36,1.83,2.95,3.55a5.47,5.47,0,0,1-1.63,2.7l-.54.49a23.07,23.07,0,0,1-2.79,2.29l-1.1.7a30.67,30.67,0,0,0-2.88,2,6.79,6.79,0,0,0-1.24,1.42,7.83,7.83,0,0,1-.82.92,8.29,8.29,0,0,0-.8.86,4.88,4.88,0,0,0-1,3.11L171,62.41A3.47,3.47,0,0,1,171.66,61Z" transform="translate(-2 -1.32)"/><path class="cls-1" d="M186.11,44.23l.07-.06c.24-.05.49-.07.75-.1a5,5,0,0,0,1.22-.2l.13,0a7.94,7.94,0,0,0,1.07-.42l-.75-.76c-.19.08-.39.15-.63.23l-.13,0a4.65,4.65,0,0,1-1,.16,5.37,5.37,0,0,0-1.15.18.53.53,0,0,0-.23.16,8.54,8.54,0,0,1-1.18.13.51.51,0,0,0-.47.49.5.5,0,0,0,.44.51,3.64,3.64,0,0,1,2.61,2l.73-.73A4.76,4.76,0,0,0,186.11,44.23Z" transform="translate(-2 -1.32)"/></svg>