<?xml version="1.0"?>
<svg xmlns="http://www.w3.org/2000/svg" xmlns:xlink="http://www.w3.org/1999/xlink" version="1.1" id="Layer_1" x="0px" y="0px" viewBox="0 0 511.999 511.999" style="enable-background:new 0 0 511.999 511.999;" xml:space="preserve" width="512px" height="512px"><g><g>
	<g>
		<path d="M321.356,63.796c-56.318-28.458-124.159-17.577-168.81,27.075c-51.895,51.894-57.089,134.64-12.081,192.474    c1.591,2.044,3.969,3.114,6.373,3.114c1.732,0,3.477-0.555,4.95-1.702c3.517-2.737,4.149-7.806,1.413-11.323    c-40.019-51.422-35.394-125.002,10.757-171.153c39.71-39.712,100.038-49.39,150.122-24.083c3.976,2.012,8.83,0.414,10.84-3.563    C326.929,70.658,325.335,65.805,321.356,63.796z" data-original="#000000" class="active-path" data-old_color="#000000" fill="#A56433"/>
	</g>
</g><g>
	<g>
		<path d="M385.787,128.239c-2.01-3.977-6.861-5.573-10.841-3.565c-3.977,2.009-5.574,6.861-3.565,10.84    c25.289,50.076,15.606,110.396-24.095,150.096c-46.152,46.15-119.731,50.774-171.153,10.757    c-3.518-2.736-8.586-2.104-11.323,1.412c-2.737,3.517-2.104,8.586,1.413,11.323c26.344,20.502,57.855,30.586,89.266,30.586    c37.547,0,74.952-14.411,103.209-42.668C403.339,252.38,414.225,184.552,385.787,128.239z" data-original="#000000" class="active-path" data-old_color="#000000" fill="#A56433"/>
	</g>
</g><g>
	<g>
		<path d="M364.94,97.508c-1.999-2.262-4.099-4.496-6.242-6.638c-2.143-2.143-4.376-4.243-6.638-6.242    c-3.339-2.952-8.439-2.636-11.388,0.703c-2.953,3.338-2.639,8.437,0.7,11.388c2.015,1.78,4.005,3.652,5.915,5.561    c1.908,1.91,3.78,3.899,5.561,5.914c1.594,1.804,3.816,2.725,6.049,2.725c1.899,0,3.805-0.667,5.34-2.023    C367.577,105.946,367.891,100.847,364.94,97.508z" data-original="#000000" class="active-path" data-old_color="#000000" fill="#A56433"/>
	</g>
</g><g>
	<g>
		<path d="M446.066,208.41c5.38-8.827,5.38-19.791-0.002-28.616l-10.615-17.407c-1.398-2.294-1.939-5.018-1.521-7.67l3.164-20.103    c1.613-10.245-2.596-20.398-10.982-26.499l-16.451-11.966c-2.175-1.583-3.721-3.892-4.354-6.506l-4.791-19.799    c-2.432-10.057-10.191-17.815-20.247-20.249l-19.8-4.792c-2.614-0.633-4.925-2.179-6.506-4.354l-11.968-16.455    c-6.1-8.386-16.254-12.597-26.496-10.983l-20.11,3.164c-2.652,0.417-5.377-0.123-7.669-1.521L270.308,4.036    c-8.826-5.382-19.79-5.381-28.616,0l-17.408,10.615c-2.292,1.399-5.015,1.937-7.67,1.521l-20.104-3.164    c-10.242-1.612-20.397,2.597-26.497,10.983l-11.966,16.451c-1.583,2.175-3.893,3.721-6.508,4.354l-19.799,4.791    c-10.055,2.432-17.815,10.191-20.249,20.247l-4.792,19.8c-0.633,2.614-2.178,4.925-4.354,6.506L85.89,108.108    c-8.386,6.099-12.594,16.251-10.983,26.496l3.164,20.111c0.417,2.653-0.123,5.377-1.521,7.669l-10.617,17.411    c-5.38,8.826-5.38,19.79,0.001,28.615l10.615,17.408c1.398,2.294,1.939,5.018,1.521,7.67l-3.164,20.104    c-1.613,10.244,2.596,20.398,10.982,26.498l16.451,11.966c2.175,1.581,3.721,3.892,4.354,6.506l4.791,19.799    c2.432,10.057,10.191,17.815,20.247,20.249l8.268,2.001L84.045,465.425c-1.189,2.653-0.86,5.739,0.863,8.081    c1.722,2.342,4.569,3.577,7.457,3.231l45.022-5.383l25.936,37.191c1.518,2.175,3.995,3.453,6.616,3.453    c0.251,0,0.505-0.012,0.757-0.035c2.894-0.272,5.419-2.081,6.608-4.732l57.145-127.479l7.241,4.415    c4.413,2.691,9.36,4.036,14.308,4.036c4.948,0,9.895-1.346,14.308-4.036l7.502-4.574l57.217,127.638    c1.189,2.653,3.713,4.46,6.608,4.732c0.253,0.024,0.506,0.036,0.757,0.036c2.621,0,5.099-1.278,6.616-3.453l25.936-37.191    l45.022,5.383c2.886,0.343,5.735-0.889,7.457-3.231c1.722-2.342,2.053-5.428,0.863-8.081l-55.983-124.883l7.957-1.925    c10.055-2.432,17.815-10.191,20.249-20.247l4.792-19.8c0.633-2.614,2.179-4.925,4.354-6.506l16.455-11.968    c8.386-6.099,12.594-16.251,10.983-26.496l-3.164-20.111c-0.417-2.653,0.123-5.377,1.521-7.669L446.066,208.41z M168.408,487.627    l-20.554-29.474c-1.704-2.444-4.618-3.752-7.576-3.396l-35.679,4.266L155.578,345.3c0.932,0.685,1.768,1.506,2.457,2.455    l11.968,16.455c1.137,1.563,2.415,2.98,3.808,4.242l-26.833,59.857c-1.822,4.067-0.004,8.84,4.062,10.663    c1.072,0.481,2.193,0.708,3.295,0.708c3.082,0,6.026-1.776,7.367-4.77l26.738-59.644c2.631,0.361,5.34,0.355,8.059-0.073    l20.11-3.164c1.204-0.189,2.421-0.172,3.606,0.024L168.408,487.627z M407.732,459.021l-35.68-4.264    c-2.961-0.355-5.872,0.952-7.576,3.396l-20.554,29.474l-51.829-115.619c1.087-0.148,2.196-0.148,3.293,0.024l20.103,3.164    c2.829,0.445,5.648,0.431,8.379,0.024l26.758,59.692c1.343,2.995,4.285,4.77,7.367,4.77c1.103,0,2.224-0.227,3.295-0.708    c4.066-1.822,5.885-6.597,4.062-10.663l-26.935-60.085c1.299-1.206,2.5-2.541,3.571-4.013l11.966-16.451    c0.754-1.037,1.678-1.926,2.716-2.645L407.732,459.021z M432.287,200.008l-10.617,17.411c-3.385,5.554-4.695,12.152-3.684,18.578    l3.164,20.11c0.665,4.229-1.073,8.42-4.534,10.938l-16.456,11.969c-5.267,3.832-9.013,9.429-10.545,15.76l-4.792,19.8    c-1.005,4.151-4.207,7.354-8.359,8.359l-19.8,4.791c-6.332,1.532-11.93,5.278-15.762,10.546l-11.966,16.451    c-2.518,3.463-6.708,5.199-10.939,4.533l-20.104-3.164c-6.427-1.011-13.026,0.297-18.581,3.684l-17.407,10.615    c-3.643,2.22-8.171,2.22-11.812,0l-17.411-10.616c-4.33-2.641-9.294-4.017-14.317-4.017c-1.42,0-2.847,0.11-4.262,0.333    l-20.111,3.164c-4.23,0.666-8.42-1.073-10.938-4.534l-11.969-16.455c-3.832-5.267-9.429-9.013-15.76-10.545l-19.8-4.792    c-4.151-1.005-7.354-4.207-8.359-8.359l-4.791-19.799c-1.532-6.332-5.277-11.931-10.546-15.763l-16.45-11.967    c-3.462-2.518-5.199-6.71-4.533-10.939l3.164-20.104c1.011-6.427-0.297-13.025-3.684-18.58l-10.615-17.409    c-2.221-3.643-2.221-8.17,0-11.812l10.617-17.411c3.386-5.554,4.695-12.152,3.684-18.578l-3.164-20.11    c-0.665-4.229,1.073-8.42,4.534-10.938l16.456-11.969c5.267-3.832,9.013-9.429,10.545-15.76l4.792-19.8    c1.005-4.151,4.207-7.354,8.359-8.359l19.8-4.791c6.332-1.532,11.93-5.278,15.761-10.546l11.966-16.451    c2.518-3.462,6.708-5.201,10.939-4.534l20.104,3.164c6.428,1.013,13.027-0.297,18.581-3.684l17.407-10.615    c3.643-2.22,8.171-2.22,11.812,0l17.411,10.616c5.554,3.388,12.154,4.697,18.579,3.685l20.111-3.164    c4.228-0.663,8.42,1.073,10.938,4.534l11.969,16.455c3.832,5.267,9.429,9.013,15.76,10.545l19.8,4.792    c4.151,1.005,7.354,4.207,8.359,8.359l4.791,19.799c1.532,6.332,5.277,11.931,10.546,15.763l16.451,11.966    c3.462,2.518,5.199,6.71,4.533,10.939l-3.164,20.104c-1.011,6.427,0.297,13.025,3.684,18.58l10.615,17.409    C434.509,191.838,434.509,196.365,432.287,200.008z" data-original="#000000" class="active-path" data-old_color="#000000" fill="#A56433"/>
	</g>
</g><g>
	<g>
		<path d="M350.416,168.997c-1.778-5.474-6.433-9.296-12.149-9.974l-48.551-5.757l-20.478-44.395    c-2.411-5.226-7.484-8.473-13.24-8.473c-5.755,0-10.829,3.247-13.24,8.473l-20.478,44.396l-48.551,5.757    c-5.716,0.678-10.372,4.5-12.149,9.974c-1.778,5.471-0.258,11.3,3.966,15.207l35.895,33.195l-9.528,47.954    c-1.121,5.646,1.075,11.254,5.732,14.636c2.569,1.866,5.55,2.811,8.55,2.811c2.439,0,4.889-0.624,7.14-1.884l42.662-23.879    l42.662,23.879c5.023,2.812,11.034,2.457,15.691-0.926c4.657-3.383,6.853-8.992,5.731-14.637l-9.528-47.953l35.895-33.195    C350.674,180.299,352.194,174.471,350.416,168.997z M296.282,208.62c-2.06,1.905-2.982,4.744-2.436,7.496l9.75,49.071    l-43.658-24.437c-1.224-0.685-2.582-1.028-3.941-1.028c-1.359,0-2.716,0.342-3.941,1.028l-43.658,24.437l9.75-49.071    c0.548-2.753-0.375-5.591-2.436-7.496L178.98,174.65l49.686-5.891c2.786-0.33,5.201-2.085,6.377-4.632l20.955-45.431    l20.955,45.431c1.176,2.547,3.59,4.302,6.377,4.632l49.684,5.891L296.282,208.62z" data-original="#000000" class="active-path" data-old_color="#000000" fill="#A56433"/>
	</g>
</g></g> </svg>
