<?xml version="1.0"?>
<svg xmlns="http://www.w3.org/2000/svg" id="Capa_1" enable-background="new 0 0 512.004 512.004" height="512px" viewBox="0 0 512.004 512.004" width="512px" class=""><g><g><path d="m510.885 500.547-146.281-237.397c-5.054-8.201-13.821-13.097-23.454-13.097s-18.4 4.896-23.454 13.097l-10.083 16.363-61.661-100.069c-3.704-6.011-9.404-10.238-15.973-12.079v-61.456h30.111c4.15 0 7.515-3.365 7.515-7.515s-3.365-7.515-7.515-7.515h-30.111v-60.239h94.664l-14.333 26.55c-1.203 2.228-1.203 4.912 0 7.14l14.333 26.55h-34.494c-4.15 0-7.515 3.365-7.515 7.515s3.364 7.515 7.515 7.515h47.09c2.646 0 5.098-1.392 6.454-3.665 1.356-2.272 1.416-5.091.159-7.419l-18.39-34.066 18.389-34.064c1.257-2.329 1.197-5.147-.159-7.42s-3.807-3.665-6.454-3.665h-107.26v-8.096c0-4.15-3.365-7.515-7.515-7.515s-7.515 3.365-7.515 7.515v159.85c-6.57 1.841-12.27 6.068-15.974 12.079l-140.401 227.857c-2.177 3.533-1.078 8.163 2.455 10.34 1.229.757 2.59 1.118 3.935 1.118 2.522 0 4.985-1.269 6.405-3.573l90.46-146.806 24.697 28.857c1.394 1.629 3.417 2.585 5.56 2.627 2.138.041 4.202-.832 5.66-2.404l24.718-26.662 24.718 26.662c1.424 1.535 3.421 2.406 5.511 2.406.049 0 .099 0 .149-.001 2.143-.043 4.166-.999 5.56-2.627l24.699-28.858 43.66 70.855c2.177 3.532 6.804 4.632 10.34 2.456 3.533-2.177 4.633-6.807 2.456-10.34l-23.115-37.513 14.051-22.804c2.331-3.783 6.216-5.953 10.658-5.953 4.443 0 8.328 2.17 10.659 5.953l139.221 225.939-49.422-.003-86.292-140.042c-2.178-3.533-6.807-4.633-10.34-2.456s-4.633 6.807-2.456 10.34l81.434 132.158h-402.98l34.613-56.173c2.177-3.533 1.078-8.163-2.455-10.34-3.533-2.178-8.162-1.078-10.34 2.455l-41.673 67.63c-1.429 2.318-1.491 5.228-.163 7.606 1.327 2.379 3.838 3.852 6.561 3.852h429.894l67.076.004c2.723 0 5.233-1.473 6.561-3.851s1.265-5.288-.163-7.606zm-258.416-219.491-24.494-26.42c-1.422-1.534-3.419-2.406-5.511-2.406-2.091 0-4.089.872-5.511 2.406l-24.494 26.42-22.35-26.115 41.662-67.613c2.339-3.795 6.236-5.972 10.692-5.972 4.457 0 8.354 2.177 10.693 5.972l41.662 67.613z" data-original="#000000" class="active-path" data-old_color="#000000" fill="#A56433"/></g></g> </svg>
