<?xml version="1.0"?>
<svg xmlns="http://www.w3.org/2000/svg" xmlns:xlink="http://www.w3.org/1999/xlink" version="1.1" id="Layer_1" x="0px" y="0px" viewBox="0 0 512 512" style="enable-background:new 0 0 512 512;" xml:space="preserve" width="512px" height="512px"><g><g>
	<g>
		<path d="M511.563,434.259c-1.728-142.329-124.42-258.242-277.087-263.419V95.999c0-17.645-14.342-31.999-31.974-31.999    c-7.931,0-15.591,3.042-21.524,8.562c0,0-134.828,124.829-173.609,163.755C2.623,241.109,0,248.088,0,255.994    c0,7.906,2.623,14.885,7.369,19.687c38.781,38.915,173.609,163.745,173.609,163.745c5.933,5.521,13.593,8.562,21.524,8.562    c17.631,0,31.974-14.354,31.974-31.999v-74.591c153.479,2.156,255.792,50.603,255.792,95.924c0,5.896,4.767,10.666,10.658,10.666    c0.167,0.021,0.333,0.01,0.416,0c5.891,0,10.658-4.771,10.658-10.666C512,436.259,511.854,435.228,511.563,434.259z" data-original="#000000" class="active-path" data-old_color="#000000" fill="#A56433"/>
	</g>
</g></g> </svg>
