<?xml version="1.0"?>
<svg xmlns="http://www.w3.org/2000/svg" id="Layer_1" height="512px" viewBox="0 0 128 128" width="512px" data-name="Layer 1"><g><path d="m116.681 26.982a1.748 1.748 0 0 0 -1.3-1.22l-10.725-2.423-2.423-10.725a1.749 1.749 0 0 0 -2.944-.851l-12.335 12.337a49.908 49.908 0 1 0 16.946 16.946l12.34-12.34a1.751 1.751 0 0 0 .441-1.724zm-9.106 39.855a46.406 46.406 0 1 1 -23.175-40.179l-5.665 5.665a1.736 1.736 0 0 0 -.135.175 38.564 38.564 0 1 0 16.894 16.917 1.726 1.726 0 0 0 .183-.149l5.665-5.665a46.25 46.25 0 0 1 6.233 23.236zm-16.234-17.714a34.963 34.963 0 1 1 -12.467-12.479l1.843 8.164-1.768 1.768a27.028 27.028 0 1 0 2.475 2.475l1.768-1.768zm-22.653 17.714a7.553 7.553 0 1 1 -3.595-6.405l-5.168 5.168a1.75 1.75 0 1 0 2.475 2.474l5.168-5.168a7.467 7.467 0 0 1 1.12 3.931zm-1.076-8.924a11.07 11.07 0 1 0 2.474 2.475l8.858-8.858a23.511 23.511 0 1 1 -2.474-2.475zm32.844-18.376-6.568 6.567-.985-.222-.038-.009-8.765-1.973-2.209-9.783 17.632-17.635 1.967 8.706a1.751 1.751 0 0 0 1.322 1.322l8.706 1.967z" data-original="#000000" class="active-path" data-old_color="#000000" fill="#A56433"/></g> </svg>
