<?xml version="1.0"?>
<svg xmlns="http://www.w3.org/2000/svg" xmlns:xlink="http://www.w3.org/1999/xlink" version="1.1" id="Capa_1" x="0px" y="0px" viewBox="0 0 512 512" style="enable-background:new 0 0 512 512;" xml:space="preserve" width="512px" height="512px"><g><g>
	<g>
		<g>
			<path d="M503.28,129.021C437.251,59.583,349.428,21.333,256,21.333S74.749,59.583,8.72,129.021     c-11.626,12.229-11.626,32.115,0,44.344l49.194,51.729c11.585,12.146,32.046,12.146,43.63,0     c16.481-17.323,35.171-31.583,55.507-42.333c10.189-5.26,16.773-16.313,16.69-26.75l7.418-56.062     c54.423-17.396,95.824-17.385,149.706-0.01l7.334,54.667c0,11.823,6.272,22.615,16.523,28.25     c20.419,10.802,39.13,25.063,55.611,42.375c5.772,6.094,13.523,9.438,21.815,9.438c8.293,0,16.044-3.344,21.815-9.427     l49.319-51.875C514.907,161.135,514.907,141.25,503.28,129.021z" data-original="#000000" class="active-path" data-old_color="#000000" fill="#FFFFFF"/>
			<path d="M394.792,220.229C385.5,202.813,367.458,192,347.729,192H164.271c-19.729,0-37.771,10.813-47.063,28.229L48.938,348.24     c-4.104,7.708-6.271,16.385-6.271,25.094V448c0,23.531,19.146,42.667,42.667,42.667h341.333     c23.521,0,42.667-19.135,42.667-42.667v-74.667c0-8.708-2.167-17.385-6.271-25.104L394.792,220.229z M256,426.667     c-47.063,0-85.333-38.281-85.333-85.333C170.667,294.281,208.938,256,256,256s85.333,38.281,85.333,85.333     C341.333,388.385,303.063,426.667,256,426.667z" data-original="#000000" class="active-path" data-old_color="#000000" fill="#FFFFFF"/>
		</g>
	</g>
</g></g> </svg>
