<?xml version="1.0" encoding="utf-8"?>
<!-- Generator: Adobe Illustrator 23.0.2, SVG Export Plug-In . SVG Version: 6.00 Build 0)  -->
<svg version="1.1" id="Layer_1" xmlns="http://www.w3.org/2000/svg" xmlns:xlink="http://www.w3.org/1999/xlink" x="0px" y="0px"
	 viewBox="0 0 293.2 293.2" style="enable-background:new 0 0 293.2 293.2;" xml:space="preserve">
<style type="text/css">
	.st0{fill:#A56433;}
</style>
<g>
	<path class="st0" d="M77.9,89.6c-19.9,0-37.5,10.3-47.7,25.8H6c-3.3,0-6,2.7-6,6s2.7,6,6,6h18.2c-2.2,6-3.4,12.5-3.4,19.3
		c0,31.5,25.6,57.1,57.1,57.1s57.1-25.6,57.1-57.1S109.4,89.6,77.9,89.6z M77.9,191.7c-24.8,0-45.1-20.2-45.1-45.1
		s20.2-45.1,45.1-45.1s45.1,20.2,45.1,45.1S102.8,191.7,77.9,191.7z"/>
	<path class="st0" d="M287.2,115.3h-27c-2.9-4.4-6.4-8.4-10.5-11.9c-10.3-8.9-23.6-13.8-37.3-13.8c-20.4,0-38.4,10.8-48.5,27
		c-4.4-5.6-11.2-9.2-18.8-9.2c-4,0-8,1-11.5,2.9c-2.9,1.6-4,5.2-2.4,8.1c1.6,2.9,5.2,4,8.1,2.4c1.8-1,3.7-1.4,5.7-1.4
		c6.6,0,11.9,5.3,11.9,11.9c0,0.4,0,0.8,0.1,1.2c-1.2,4.5-1.8,9.3-1.8,14.2c0,31.5,25.6,57.1,57.1,57.1c23.6,0,45.1-14.8,53.4-36.9
		c1.2-3.1-0.4-6.6-3.5-7.7c-3.1-1.2-6.6,0.4-7.7,3.5c-6.6,17.5-23.5,29.2-42.2,29.2c-24.8,0-45.1-20.2-45.1-45.1
		s20.2-45.1,45.1-45.1c22.3,0,41,16,44.5,38c0.5,3.3,3.6,5.5,6.9,5c3.3-0.5,5.5-3.6,5-6.9c-0.6-3.5-1.5-7-2.7-10.3h21.1
		c3.3,0,6-2.7,6-6S290.6,115.3,287.2,115.3z"/>
</g>
</svg>
